<?xml version = "1.0"?>
<!DOCTYPE svg PUBLIC "-//W3C//DTD SVG 20010904//EN" "http://www.w3.org/TR/2001/REC-SVG-20010904/DTD/svg10.dtd">
<svg width = "402pt" height = "113pt" viewBox = "0 0 402 113" xmlns = "http://www.w3.org/2000/svg" xmlns:xlink = "http://www.w3.org/1999/xlink">
	<defs>
		<style type = "text/css"><![CDATA[
rect.attrGroup { fill: ivory ; stroke: black; stroke-width: 1 }
rect.element { fill: ivory ; stroke: black; stroke-width: 1 }
rect.elTypeBkgnd { fill: lightgray ; stroke: none }
text.elName { font-family: helvetica ; font-size : 10 }
text.elType { font-family: helvetica ; font-size : 7 }
text.occurLarge { font-family: helvetica ; font-size : 9; fill : blue }
text.occurSmall { font-family: helvetica ; font-size : 7; fill : blue }
rect.typeIconDark { fill : darkslategray }
circle.occurs { stroke : black ; stroke-width: 1; fill : white }
circle.ellipsis { fill : black }
path.typeIconDark { stroke : lightgray ; stroke-width: 1 }
path.connector { stroke : red ; stroke-width: 1 ; fill: none; }
path.modelGroup { stroke : black ; stroke-width: 1 ; fill: lightgray; }
polyline.connector { stroke : red ; stroke-width: 1 ; fill: none; }
.nodeStyle { fill : blue }
]]></style>
	</defs>
	<rect x = "97" y = "5" width = "300" height = "37" class = "attrGroup" rx = "5" ry = "5"/>
	<rect x = "102" y = "10" width = "51" height = "27" class = "element" rx = "5" ry = "5"/>
	<circle class = "nodeStyle" cx = "108" cy = "16" r = "4"/>
	<text x = "113" y = "21" class = "elName">Name</text>
	<rect x = "103" y = "11" width = "49" height = "25" class = "elTypeBkgnd" rx = "5" ry = "5" clip-path = "url(#e:Element/a:Name)"/>
	<defs/>
	<clipPath id = "e:Element/a:Name">
		<rect x = "102" y = "25" width = "51" height = "11"/>
	</clipPath>
	<image xlink:href = "../dgmDtString.gif" width = "10" height = "10" x = "143" y = "20"/>
	<rect x = "241" y = "10" width = "69" height = "27" class = "element" rx = "5" ry = "5"/>
	<circle class = "nodeStyle" cx = "247" cy = "16" r = "4"/>
	<text x = "252" y = "21" class = "elName">DataType</text>
	<rect x = "242" y = "11" width = "67" height = "25" class = "elTypeBkgnd" rx = "5" ry = "5" clip-path = "url(#e:Element/a:DataType)"/>
	<defs/>
	<clipPath id = "e:Element/a:DataType">
		<rect x = "241" y = "25" width = "69" height = "11"/>
	</clipPath>
	<image xlink:href = "../dgmDtString.gif" width = "10" height = "10" x = "300" y = "20"/>
	<rect x = "315" y = "10" width = "77" height = "27" class = "element" rx = "5" ry = "5"/>
	<circle class = "nodeStyle" cx = "321" cy = "16" r = "4"/>
	<text x = "326" y = "21" class = "elName">DBLocation</text>
	<rect x = "316" y = "11" width = "75" height = "25" class = "elTypeBkgnd" rx = "5" ry = "5" clip-path = "url(#e:Element/a:DBLocation)"/>
	<defs/>
	<clipPath id = "e:Element/a:DBLocation">
		<rect x = "315" y = "25" width = "77" height = "11"/>
	</clipPath>
	<text x = "316" y = "33" class = "elType">string</text>
	<image xlink:href = "../dgmDtString.gif" width = "10" height = "10" x = "382" y = "20"/>
	<circle class = "occurs" cx = "164" cy = "23" r = "6"/>
	<text x = "161" y = "26" class = "occurLarge">?</text>
	<rect x = "170" y = "10" width = "66" height = "27" class = "element" rx = "5" ry = "5"/>
	<circle class = "nodeStyle" cx = "176" cy = "16" r = "4"/>
	<text x = "181" y = "21" class = "elName">RefersTo</text>
	<rect x = "171" y = "11" width = "64" height = "25" class = "elTypeBkgnd" rx = "5" ry = "5" clip-path = "url(#e:Element/a:RefersTo)"/>
	<defs/>
	<clipPath id = "e:Element/a:RefersTo">
		<rect x = "170" y = "25" width = "66" height = "11"/>
	</clipPath>
	<text x = "171" y = "33" class = "elType">string</text>
	<image xlink:href = "../dgmDtString.gif" width = "10" height = "10" x = "226" y = "20"/>
	<rect x = "5" y = "64" width = "62" height = "27" class = "element"/>
	<polygon class = "nodeStyle" points = "11,66 7,70 11,74 15,70"/>
	<text x = "16" y = "75" class = "elName">Element</text>
	<rect x = "6" y = "79" width = "60" height = "11" class = "elTypeBkgnd"/>
	<image xlink:href = "../dgmTypeComplex.gif" width = "10" height = "10" x = "57" y = "74"/>
	<polyline class = "connector" points = "97,60 77,60 77,77 67,77 77,77 77,94 97,94"/>
	<polyline class = "connector" points = "67,75 75,75 75,23 97,23"/>
	<circle class = "occurs" cx = "103" cy = "60" r = "6"/>
	<text x = "100" y = "63" class = "occurLarge">*</text>
	<rect x = "109" y = "47" width = "49" height = "27" class = "element"/>
	<polygon class = "nodeStyle" points = "115,49 111,53 115,57 119,53"/>
	<text x = "120" y = "58" class = "elName">Label</text>
	<rect x = "110" y = "62" width = "47" height = "11" class = "elTypeBkgnd"/>
	<text x = "110" y = "70" class = "elType">string</text>
	<image xlink:href = "../dgmDtString.gif" width = "10" height = "10" x = "148" y = "57"/>
	<circle class = "occurs" cx = "103" cy = "94" r = "6"/>
	<text x = "100" y = "97" class = "occurLarge">*</text>
	<rect x = "109" y = "81" width = "78" height = "27" class = "element"/>
	<polygon class = "nodeStyle" points = "115,83 111,87 115,91 119,87"/>
	<text x = "120" y = "92" class = "elName">Description</text>
	<rect x = "110" y = "96" width = "76" height = "11" class = "elTypeBkgnd"/>
	<text x = "110" y = "104" class = "elType">string</text>
	<image xlink:href = "../dgmDtString.gif" width = "10" height = "10" x = "177" y = "91"/>
</svg>