<?xml version = "1.0"?>
<!DOCTYPE svg PUBLIC "-//W3C//DTD SVG 20010904//EN" "http://www.w3.org/TR/2001/REC-SVG-20010904/DTD/svg10.dtd">
<svg width = "269pt" height = "79pt" viewBox = "0 0 269 79" xmlns = "http://www.w3.org/2000/svg" xmlns:xlink = "http://www.w3.org/1999/xlink">
	<defs>
		<style type = "text/css"><![CDATA[
rect.attrGroup { fill: ivory ; stroke: black; stroke-width: 1 }
rect.element { fill: ivory ; stroke: black; stroke-width: 1 }
rect.elTypeBkgnd { fill: lightgray ; stroke: none }
text.elName { font-family: helvetica ; font-size : 10 }
text.elType { font-family: helvetica ; font-size : 7 }
text.occurLarge { font-family: helvetica ; font-size : 9; fill : blue }
text.occurSmall { font-family: helvetica ; font-size : 7; fill : blue }
rect.typeIconDark { fill : darkslategray }
circle.occurs { stroke : black ; stroke-width: 1; fill : white }
circle.ellipsis { fill : black }
path.typeIconDark { stroke : lightgray ; stroke-width: 1 }
path.connector { stroke : red ; stroke-width: 1 ; fill: none; }
path.modelGroup { stroke : black ; stroke-width: 1 ; fill: lightgray; }
polyline.connector { stroke : red ; stroke-width: 1 ; fill: none; }
.nodeStyle { fill : blue }
]]></style>
	</defs>
	<rect x = "5" y = "26" width = "40" height = "27" class = "element"/>
	<polygon class = "nodeStyle" points = "11,28 7,32 11,36 15,32"/>
	<text x = "16" y = "37" class = "elName">ROI</text>
	<rect x = "6" y = "41" width = "38" height = "11" class = "elTypeBkgnd"/>
	<image xlink:href = "../dgmTypeEmpty.gif" width = "10" height = "10" x = "35" y = "36"/>
	<polyline class = "connector" points = "45,39 75,39"/>
	<rect x = "75" y = "5" width = "189" height = "69" class = "attrGroup" rx = "5" ry = "5"/>
	<rect x = "80" y = "10" width = "35" height = "27" class = "element" rx = "5" ry = "5"/>
	<circle class = "nodeStyle" cx = "86" cy = "16" r = "4"/>
	<text x = "91" y = "21" class = "elName">X0</text>
	<rect x = "81" y = "11" width = "33" height = "25" class = "elTypeBkgnd" rx = "5" ry = "5" clip-path = "url(#e:ROI/a:X0)"/>
	<defs/>
	<clipPath id = "e:ROI/a:X0">
		<rect x = "80" y = "25" width = "35" height = "11"/>
	</clipPath>
	<text x = "81" y = "33" class = "elType">int</text>
	<image xlink:href = "../dgmDtInteger.gif" width = "10" height = "10" x = "105" y = "20"/>
	<rect x = "172" y = "10" width = "35" height = "27" class = "element" rx = "5" ry = "5"/>
	<circle class = "nodeStyle" cx = "178" cy = "16" r = "4"/>
	<text x = "183" y = "21" class = "elName">Y0</text>
	<rect x = "173" y = "11" width = "33" height = "25" class = "elTypeBkgnd" rx = "5" ry = "5" clip-path = "url(#e:ROI/a:Y0)"/>
	<defs/>
	<clipPath id = "e:ROI/a:Y0">
		<rect x = "172" y = "25" width = "35" height = "11"/>
	</clipPath>
	<text x = "173" y = "33" class = "elType">int</text>
	<image xlink:href = "../dgmDtInteger.gif" width = "10" height = "10" x = "197" y = "20"/>
	<rect x = "80" y = "42" width = "35" height = "27" class = "element" rx = "5" ry = "5"/>
	<circle class = "nodeStyle" cx = "86" cy = "48" r = "4"/>
	<text x = "91" y = "53" class = "elName">X1</text>
	<rect x = "81" y = "43" width = "33" height = "25" class = "elTypeBkgnd" rx = "5" ry = "5" clip-path = "url(#e:ROI/a:X1)"/>
	<defs/>
	<clipPath id = "e:ROI/a:X1">
		<rect x = "80" y = "57" width = "35" height = "11"/>
	</clipPath>
	<text x = "81" y = "65" class = "elType">int</text>
	<image xlink:href = "../dgmDtInteger.gif" width = "10" height = "10" x = "105" y = "52"/>
	<rect x = "172" y = "42" width = "35" height = "27" class = "element" rx = "5" ry = "5"/>
	<circle class = "nodeStyle" cx = "178" cy = "48" r = "4"/>
	<text x = "183" y = "53" class = "elName">Y1</text>
	<rect x = "173" y = "43" width = "33" height = "25" class = "elTypeBkgnd" rx = "5" ry = "5" clip-path = "url(#e:ROI/a:Y1)"/>
	<defs/>
	<clipPath id = "e:ROI/a:Y1">
		<rect x = "172" y = "57" width = "35" height = "11"/>
	</clipPath>
	<text x = "173" y = "65" class = "elType">int</text>
	<image xlink:href = "../dgmDtInteger.gif" width = "10" height = "10" x = "197" y = "52"/>
	<circle class = "occurs" cx = "218" cy = "55" r = "6"/>
	<text x = "215" y = "58" class = "occurLarge">?</text>
	<rect x = "224" y = "42" width = "35" height = "27" class = "element" rx = "5" ry = "5"/>
	<circle class = "nodeStyle" cx = "230" cy = "48" r = "4"/>
	<text x = "235" y = "53" class = "elName">Z0</text>
	<rect x = "225" y = "43" width = "33" height = "25" class = "elTypeBkgnd" rx = "5" ry = "5" clip-path = "url(#e:ROI/a:Z0)"/>
	<defs/>
	<clipPath id = "e:ROI/a:Z0">
		<rect x = "224" y = "57" width = "35" height = "11"/>
	</clipPath>
	<text x = "225" y = "65" class = "elType">int</text>
	<image xlink:href = "../dgmDtInteger.gif" width = "10" height = "10" x = "249" y = "52"/>
	<circle class = "occurs" cx = "126" cy = "55" r = "6"/>
	<text x = "123" y = "58" class = "occurLarge">?</text>
	<rect x = "132" y = "42" width = "35" height = "27" class = "element" rx = "5" ry = "5"/>
	<circle class = "nodeStyle" cx = "138" cy = "48" r = "4"/>
	<text x = "143" y = "53" class = "elName">T0</text>
	<rect x = "133" y = "43" width = "33" height = "25" class = "elTypeBkgnd" rx = "5" ry = "5" clip-path = "url(#e:ROI/a:T0)"/>
	<defs/>
	<clipPath id = "e:ROI/a:T0">
		<rect x = "132" y = "57" width = "35" height = "11"/>
	</clipPath>
	<text x = "133" y = "65" class = "elType">int</text>
	<image xlink:href = "../dgmDtInteger.gif" width = "10" height = "10" x = "157" y = "52"/>
	<circle class = "occurs" cx = "218" cy = "23" r = "6"/>
	<text x = "215" y = "26" class = "occurLarge">?</text>
	<rect x = "224" y = "10" width = "35" height = "27" class = "element" rx = "5" ry = "5"/>
	<circle class = "nodeStyle" cx = "230" cy = "16" r = "4"/>
	<text x = "235" y = "21" class = "elName">Z1</text>
	<rect x = "225" y = "11" width = "33" height = "25" class = "elTypeBkgnd" rx = "5" ry = "5" clip-path = "url(#e:ROI/a:Z1)"/>
	<defs/>
	<clipPath id = "e:ROI/a:Z1">
		<rect x = "224" y = "25" width = "35" height = "11"/>
	</clipPath>
	<text x = "225" y = "33" class = "elType">int</text>
	<image xlink:href = "../dgmDtInteger.gif" width = "10" height = "10" x = "249" y = "20"/>
	<circle class = "occurs" cx = "126" cy = "23" r = "6"/>
	<text x = "123" y = "26" class = "occurLarge">?</text>
	<rect x = "132" y = "10" width = "35" height = "27" class = "element" rx = "5" ry = "5"/>
	<circle class = "nodeStyle" cx = "138" cy = "16" r = "4"/>
	<text x = "143" y = "21" class = "elName">T1</text>
	<rect x = "133" y = "11" width = "33" height = "25" class = "elTypeBkgnd" rx = "5" ry = "5" clip-path = "url(#e:ROI/a:T1)"/>
	<defs/>
	<clipPath id = "e:ROI/a:T1">
		<rect x = "132" y = "25" width = "35" height = "11"/>
	</clipPath>
	<text x = "133" y = "33" class = "elType">int</text>
	<image xlink:href = "../dgmDtInteger.gif" width = "10" height = "10" x = "157" y = "20"/>
</svg>