<?xml version = "1.0"?>
<!DOCTYPE svg PUBLIC "-//W3C//DTD SVG 20010904//EN" "http://www.w3.org/TR/2001/REC-SVG-20010904/DTD/svg10.dtd">
<svg width = "375pt" height = "179pt" viewBox = "0 0 375 179" xmlns = "http://www.w3.org/2000/svg" xmlns:xlink = "http://www.w3.org/1999/xlink">
	<defs>
		<style type = "text/css"><![CDATA[
rect.attrGroup { fill: ivory ; stroke: black; stroke-width: 1 }
rect.element { fill: ivory ; stroke: black; stroke-width: 1 }
rect.elTypeBkgnd { fill: lightgray ; stroke: none }
text.elName { font-family: helvetica ; font-size : 10 }
text.elType { font-family: helvetica ; font-size : 7 }
text.occurLarge { font-family: helvetica ; font-size : 9; fill : blue }
text.occurSmall { font-family: helvetica ; font-size : 7; fill : blue }
rect.typeIconDark { fill : darkslategray }
circle.occurs { stroke : black ; stroke-width: 1; fill : white }
circle.ellipsis { fill : black }
path.typeIconDark { stroke : lightgray ; stroke-width: 1 }
path.connector { stroke : red ; stroke-width: 1 ; fill: none; }
path.modelGroup { stroke : black ; stroke-width: 1 ; fill: lightgray; }
polyline.connector { stroke : red ; stroke-width: 1 ; fill: none; }
.nodeStyle { fill : blue }
]]></style>
	</defs>
	<rect x = "77" y = "5" width = "293" height = "69" class = "attrGroup" rx = "5" ry = "5"/>
	<rect x = "82" y = "10" width = "33" height = "27" class = "element" rx = "5" ry = "5"/>
	<circle class = "nodeStyle" cx = "88" cy = "16" r = "4"/>
	<text x = "93" y = "21" class = "elName">ID</text>
	<rect x = "83" y = "11" width = "31" height = "25" class = "elTypeBkgnd" rx = "5" ry = "5" clip-path = "url(#e:OTF/a:ID)"/>
	<defs/>
	<clipPath id = "e:OTF/a:ID">
		<rect x = "82" y = "25" width = "33" height = "11"/>
	</clipPath>
	<text x = "83" y = "33" class = "elType">OTFID</text>
	<image xlink:href = "../dgmDtString.gif" width = "10" height = "10" x = "105" y = "20"/>
	<rect x = "226" y = "10" width = "64" height = "27" class = "element" rx = "5" ry = "5"/>
	<circle class = "nodeStyle" cx = "232" cy = "16" r = "4"/>
	<text x = "237" y = "21" class = "elName">SizeX</text>
	<rect x = "227" y = "11" width = "62" height = "25" class = "elTypeBkgnd" rx = "5" ry = "5" clip-path = "url(#e:OTF/a:SizeX)"/>
	<defs/>
	<clipPath id = "e:OTF/a:SizeX">
		<rect x = "226" y = "25" width = "64" height = "11"/>
	</clipPath>
	<text x = "227" y = "33" class = "elType">positiveInteger</text>
	<image xlink:href = "../dgmDtInteger.gif" width = "10" height = "10" x = "280" y = "20"/>
	<rect x = "82" y = "42" width = "64" height = "27" class = "element" rx = "5" ry = "5"/>
	<circle class = "nodeStyle" cx = "88" cy = "48" r = "4"/>
	<text x = "93" y = "53" class = "elName">SizeY</text>
	<rect x = "83" y = "43" width = "62" height = "25" class = "elTypeBkgnd" rx = "5" ry = "5" clip-path = "url(#e:OTF/a:SizeY)"/>
	<defs/>
	<clipPath id = "e:OTF/a:SizeY">
		<rect x = "82" y = "57" width = "64" height = "11"/>
	</clipPath>
	<text x = "83" y = "65" class = "elType">positiveInteger</text>
	<image xlink:href = "../dgmDtInteger.gif" width = "10" height = "10" x = "136" y = "52"/>
	<rect x = "295" y = "10" width = "70" height = "27" class = "element" rx = "5" ry = "5"/>
	<circle class = "nodeStyle" cx = "301" cy = "16" r = "4"/>
	<text x = "306" y = "21" class = "elName">PixelType</text>
	<rect x = "296" y = "11" width = "68" height = "25" class = "elTypeBkgnd" rx = "5" ry = "5" clip-path = "url(#e:OTF/a:PixelType)"/>
	<defs/>
	<clipPath id = "e:OTF/a:PixelType">
		<rect x = "295" y = "25" width = "70" height = "11"/>
	</clipPath>
	<text x = "296" y = "33" class = "elType">PixelTypes</text>
	<image xlink:href = "../dgmDtString.gif" width = "10" height = "10" x = "355" y = "20"/>
	<rect x = "120" y = "10" width = "101" height = "27" class = "element" rx = "5" ry = "5"/>
	<circle class = "nodeStyle" cx = "126" cy = "16" r = "4"/>
	<text x = "131" y = "21" class = "elName">OpticalAxisAvrg</text>
	<rect x = "121" y = "11" width = "99" height = "25" class = "elTypeBkgnd" rx = "5" ry = "5" clip-path = "url(#e:OTF/a:OpticalAxisAvrg)"/>
	<defs/>
	<clipPath id = "e:OTF/a:OpticalAxisAvrg">
		<rect x = "120" y = "25" width = "101" height = "11"/>
	</clipPath>
	<text x = "121" y = "33" class = "elType">boolean</text>
	<image xlink:href = "../dgmDtBoolean.gif" width = "10" height = "10" x = "211" y = "20"/>
	<rect x = "5" y = "113" width = "42" height = "27" class = "element"/>
	<polygon class = "nodeStyle" points = "11,115 7,119 11,123 15,119"/>
	<text x = "16" y = "124" class = "elName">OTF</text>
	<rect x = "6" y = "128" width = "40" height = "11" class = "elTypeBkgnd"/>
	<image xlink:href = "../dgmTypeComplex.gif" width = "10" height = "10" x = "37" y = "123"/>
	<polyline class = "connector" points = "77,92 57,92 57,126 47,126 57,126 57,160 77,160"/>
	<polyline class = "connector" points = "47,124 55,124 55,39 77,39"/>
	<polyline class = "connector" points = "77,92 89,92"/>
	<rect x = "89" y = "79" width = "85" height = "27" class = "element"/>
	<polygon class = "nodeStyle" points = "95,81 91,85 95,89 99,85"/>
	<text x = "100" y = "90" class = "elName">ObjectiveRef</text>
	<rect x = "90" y = "94" width = "83" height = "11" class = "elTypeBkgnd"/>
	<image xlink:href = "../dgmTypeComplex.gif" width = "10" height = "10" x = "164" y = "89"/>
	<rect x = "89" y = "113" width = "64" height = "27" class = "element"/>
	<polygon class = "nodeStyle" points = "95,115 91,119 95,123 99,119"/>
	<text x = "100" y = "124" class = "elName">FilterRef</text>
	<rect x = "90" y = "128" width = "62" height = "11" class = "elTypeBkgnd"/>
	<image xlink:href = "../dgmTypeComplex.gif" width = "10" height = "10" x = "143" y = "123"/>
	<polyline class = "connector" points = "77,160 89,160"/>
	<rect x = "89" y = "147" width = "70" height = "27" class = "element"/>
	<polygon class = "nodeStyle" points = "95,149 91,153 95,157 99,153"/>
	<text x = "100" y = "158" class = "elName">BinaryFile</text>
	<rect x = "90" y = "162" width = "68" height = "11" class = "elTypeBkgnd"/>
	<image xlink:href = "../dgmTypeComplex.gif" width = "10" height = "10" x = "149" y = "157"/>
</svg>