<?xml version = "1.0"?>
<!DOCTYPE svg PUBLIC "-//W3C//DTD SVG 20010904//EN" "http://www.w3.org/TR/2001/REC-SVG-20010904/DTD/svg10.dtd">
<svg width = "393pt" height = "143pt" viewBox = "0 0 393 143" xmlns = "http://www.w3.org/2000/svg" xmlns:xlink = "http://www.w3.org/1999/xlink">
	<defs>
		<style type = "text/css"><![CDATA[
rect.attrGroup { fill: ivory ; stroke: black; stroke-width: 1 }
rect.element { fill: ivory ; stroke: black; stroke-width: 1 }
rect.elTypeBkgnd { fill: lightgray ; stroke: none }
text.elName { font-family: helvetica ; font-size : 10 }
text.elType { font-family: helvetica ; font-size : 7 }
text.occurLarge { font-family: helvetica ; font-size : 9; fill : blue }
text.occurSmall { font-family: helvetica ; font-size : 7; fill : blue }
rect.typeIconDark { fill : darkslategray }
circle.occurs { stroke : black ; stroke-width: 1; fill : white }
circle.ellipsis { fill : black }
path.typeIconDark { stroke : lightgray ; stroke-width: 1 }
path.connector { stroke : red ; stroke-width: 1 ; fill: none; }
path.modelGroup { stroke : black ; stroke-width: 1 ; fill: lightgray; }
polyline.connector { stroke : red ; stroke-width: 1 ; fill: none; }
.nodeStyle { fill : blue }
]]></style>
	</defs>
	<rect x = "87" y = "5" width = "301" height = "101" class = "attrGroup" rx = "5" ry = "5"/>
	<rect x = "92" y = "10" width = "40" height = "27" class = "element" rx = "5" ry = "5"/>
	<circle class = "nodeStyle" cx = "98" cy = "16" r = "4"/>
	<text x = "103" y = "21" class = "elName">ID</text>
	<rect x = "93" y = "11" width = "38" height = "25" class = "elTypeBkgnd" rx = "5" ry = "5" clip-path = "url(#e:Pixels/a:ID)"/>
	<defs/>
	<clipPath id = "e:Pixels/a:ID">
		<rect x = "92" y = "25" width = "40" height = "11"/>
	</clipPath>
	<text x = "93" y = "33" class = "elType">PixelsID</text>
	<image xlink:href = "../dgmDtString.gif" width = "10" height = "10" x = "122" y = "20"/>
	<rect x = "244" y = "10" width = "64" height = "27" class = "element" rx = "5" ry = "5"/>
	<circle class = "nodeStyle" cx = "250" cy = "16" r = "4"/>
	<text x = "255" y = "21" class = "elName">SizeX</text>
	<rect x = "245" y = "11" width = "62" height = "25" class = "elTypeBkgnd" rx = "5" ry = "5" clip-path = "url(#e:Pixels/a:SizeX)"/>
	<defs/>
	<clipPath id = "e:Pixels/a:SizeX">
		<rect x = "244" y = "25" width = "64" height = "11"/>
	</clipPath>
	<text x = "245" y = "33" class = "elType">positiveInteger</text>
	<image xlink:href = "../dgmDtInteger.gif" width = "10" height = "10" x = "298" y = "20"/>
	<rect x = "92" y = "42" width = "64" height = "27" class = "element" rx = "5" ry = "5"/>
	<circle class = "nodeStyle" cx = "98" cy = "48" r = "4"/>
	<text x = "103" y = "53" class = "elName">SizeY</text>
	<rect x = "93" y = "43" width = "62" height = "25" class = "elTypeBkgnd" rx = "5" ry = "5" clip-path = "url(#e:Pixels/a:SizeY)"/>
	<defs/>
	<clipPath id = "e:Pixels/a:SizeY">
		<rect x = "92" y = "57" width = "64" height = "11"/>
	</clipPath>
	<text x = "93" y = "65" class = "elType">positiveInteger</text>
	<image xlink:href = "../dgmDtInteger.gif" width = "10" height = "10" x = "146" y = "52"/>
	<rect x = "236" y = "42" width = "64" height = "27" class = "element" rx = "5" ry = "5"/>
	<circle class = "nodeStyle" cx = "242" cy = "48" r = "4"/>
	<text x = "247" y = "53" class = "elName">SizeZ</text>
	<rect x = "237" y = "43" width = "62" height = "25" class = "elTypeBkgnd" rx = "5" ry = "5" clip-path = "url(#e:Pixels/a:SizeZ)"/>
	<defs/>
	<clipPath id = "e:Pixels/a:SizeZ">
		<rect x = "236" y = "57" width = "64" height = "11"/>
	</clipPath>
	<text x = "237" y = "65" class = "elType">positiveInteger</text>
	<image xlink:href = "../dgmDtInteger.gif" width = "10" height = "10" x = "290" y = "52"/>
	<rect x = "92" y = "74" width = "64" height = "27" class = "element" rx = "5" ry = "5"/>
	<circle class = "nodeStyle" cx = "98" cy = "80" r = "4"/>
	<text x = "103" y = "85" class = "elName">SizeC</text>
	<rect x = "93" y = "75" width = "62" height = "25" class = "elTypeBkgnd" rx = "5" ry = "5" clip-path = "url(#e:Pixels/a:SizeC)"/>
	<defs/>
	<clipPath id = "e:Pixels/a:SizeC">
		<rect x = "92" y = "89" width = "64" height = "11"/>
	</clipPath>
	<text x = "93" y = "97" class = "elType">positiveInteger</text>
	<image xlink:href = "../dgmDtInteger.gif" width = "10" height = "10" x = "146" y = "84"/>
	<rect x = "305" y = "42" width = "64" height = "27" class = "element" rx = "5" ry = "5"/>
	<circle class = "nodeStyle" cx = "311" cy = "48" r = "4"/>
	<text x = "316" y = "53" class = "elName">SizeT</text>
	<rect x = "306" y = "43" width = "62" height = "25" class = "elTypeBkgnd" rx = "5" ry = "5" clip-path = "url(#e:Pixels/a:SizeT)"/>
	<defs/>
	<clipPath id = "e:Pixels/a:SizeT">
		<rect x = "305" y = "57" width = "64" height = "11"/>
	</clipPath>
	<text x = "306" y = "65" class = "elType">positiveInteger</text>
	<image xlink:href = "../dgmDtInteger.gif" width = "10" height = "10" x = "359" y = "52"/>
	<rect x = "161" y = "42" width = "70" height = "27" class = "element" rx = "5" ry = "5"/>
	<circle class = "nodeStyle" cx = "167" cy = "48" r = "4"/>
	<text x = "172" y = "53" class = "elName">PixelType</text>
	<rect x = "162" y = "43" width = "68" height = "25" class = "elTypeBkgnd" rx = "5" ry = "5" clip-path = "url(#e:Pixels/a:PixelType)"/>
	<defs/>
	<clipPath id = "e:Pixels/a:PixelType">
		<rect x = "161" y = "57" width = "70" height = "11"/>
	</clipPath>
	<text x = "162" y = "65" class = "elType">PixelTypes</text>
	<image xlink:href = "../dgmDtString.gif" width = "10" height = "10" x = "221" y = "52"/>
	<rect x = "313" y = "10" width = "70" height = "27" class = "element" rx = "5" ry = "5"/>
	<circle class = "nodeStyle" cx = "319" cy = "16" r = "4"/>
	<text x = "324" y = "21" class = "elName">BigEndian</text>
	<rect x = "314" y = "11" width = "68" height = "25" class = "elTypeBkgnd" rx = "5" ry = "5" clip-path = "url(#e:Pixels/a:BigEndian)"/>
	<defs/>
	<clipPath id = "e:Pixels/a:BigEndian">
		<rect x = "313" y = "25" width = "70" height = "11"/>
	</clipPath>
	<text x = "314" y = "33" class = "elType">boolean</text>
	<image xlink:href = "../dgmDtBoolean.gif" width = "10" height = "10" x = "373" y = "20"/>
	<rect x = "137" y = "10" width = "102" height = "27" class = "element" rx = "5" ry = "5"/>
	<circle class = "nodeStyle" cx = "143" cy = "16" r = "4"/>
	<text x = "148" y = "21" class = "elName">DimensionOrder</text>
	<rect x = "138" y = "11" width = "100" height = "25" class = "elTypeBkgnd" rx = "5" ry = "5" clip-path = "url(#e:Pixels/a:DimensionOrder)"/>
	<defs/>
	<clipPath id = "e:Pixels/a:DimensionOrder">
		<rect x = "137" y = "25" width = "102" height = "11"/>
	</clipPath>
	<image xlink:href = "../dgmDtString.gif" width = "10" height = "10" x = "229" y = "20"/>
	<rect x = "5" y = "111" width = "52" height = "27" class = "element"/>
	<polygon class = "nodeStyle" points = "11,113 7,117 11,121 15,117"/>
	<text x = "16" y = "122" class = "elName">Pixels</text>
	<rect x = "6" y = "126" width = "50" height = "11" class = "elTypeBkgnd"/>
	<image xlink:href = "../dgmTypeComplex.gif" width = "10" height = "10" x = "47" y = "121"/>
	<polyline class = "connector" points = "57,124 87,124"/>
	<polyline class = "connector" points = "57,122 65,122 65,55 87,55"/>
	<circle class = "occurs" cx = "93" cy = "124" r = "6"/>
	<text x = "90" y = "127" class = "occurLarge">+</text>
	<rect x = "99" y = "111" width = "61" height = "27" class = "element"/>
	<polygon class = "nodeStyle" points = "105,113 101,117 105,121 109,117"/>
	<text x = "110" y = "122" class = "elName">BinData</text>
	<rect x = "100" y = "126" width = "59" height = "11" class = "elTypeBkgnd"/>
	<text x = "100" y = "134" class = "elType">bin.base64</text>
	<image xlink:href = "../dgmDtString.gif" width = "10" height = "10" x = "150" y = "121"/>
</svg>