<?xml version = "1.0"?>
<!DOCTYPE svg PUBLIC "-//W3C//DTD SVG 20010904//EN" "http://www.w3.org/TR/2001/REC-SVG-20010904/DTD/svg10.dtd">
<svg width = "291pt" height = "79pt" viewBox = "0 0 291 79" xmlns = "http://www.w3.org/2000/svg" xmlns:xlink = "http://www.w3.org/1999/xlink">
	<defs>
		<style type = "text/css"><![CDATA[
rect.attrGroup { fill: ivory ; stroke: black; stroke-width: 1 }
rect.element { fill: ivory ; stroke: black; stroke-width: 1 }
rect.elTypeBkgnd { fill: lightgray ; stroke: none }
text.elName { font-family: helvetica ; font-size : 10 }
text.elType { font-family: helvetica ; font-size : 7 }
text.occurLarge { font-family: helvetica ; font-size : 9; fill : blue }
text.occurSmall { font-family: helvetica ; font-size : 7; fill : blue }
rect.typeIconDark { fill : darkslategray }
circle.occurs { stroke : black ; stroke-width: 1; fill : white }
circle.ellipsis { fill : black }
path.typeIconDark { stroke : lightgray ; stroke-width: 1 }
path.connector { stroke : red ; stroke-width: 1 ; fill: none; }
path.modelGroup { stroke : black ; stroke-width: 1 ; fill: lightgray; }
polyline.connector { stroke : red ; stroke-width: 1 ; fill: none; }
.nodeStyle { fill : blue }
]]></style>
	</defs>
	<rect x = "90" y = "5" width = "196" height = "37" class = "attrGroup" rx = "5" ry = "5"/>
	<rect x = "95" y = "10" width = "43" height = "27" class = "element" rx = "5" ry = "5"/>
	<circle class = "nodeStyle" cx = "101" cy = "16" r = "4"/>
	<text x = "106" y = "21" class = "elName">ID</text>
	<rect x = "96" y = "11" width = "41" height = "25" class = "elTypeBkgnd" rx = "5" ry = "5" clip-path = "url(#e:Screen/a:ID)"/>
	<defs/>
	<clipPath id = "e:Screen/a:ID">
		<rect x = "95" y = "25" width = "43" height = "11"/>
	</clipPath>
	<text x = "96" y = "33" class = "elType">ScreenID</text>
	<image xlink:href = "../dgmDtString.gif" width = "10" height = "10" x = "128" y = "20"/>
	<rect x = "230" y = "10" width = "51" height = "27" class = "element" rx = "5" ry = "5"/>
	<circle class = "nodeStyle" cx = "236" cy = "16" r = "4"/>
	<text x = "241" y = "21" class = "elName">Name</text>
	<rect x = "231" y = "11" width = "49" height = "25" class = "elTypeBkgnd" rx = "5" ry = "5" clip-path = "url(#e:Screen/a:Name)"/>
	<defs/>
	<clipPath id = "e:Screen/a:Name">
		<rect x = "230" y = "25" width = "51" height = "11"/>
	</clipPath>
	<text x = "231" y = "33" class = "elType">string</text>
	<image xlink:href = "../dgmDtString.gif" width = "10" height = "10" x = "271" y = "20"/>
	<circle class = "occurs" cx = "149" cy = "23" r = "6"/>
	<text x = "146" y = "26" class = "occurLarge">?</text>
	<rect x = "155" y = "10" width = "70" height = "27" class = "element" rx = "5" ry = "5"/>
	<circle class = "nodeStyle" cx = "161" cy = "16" r = "4"/>
	<text x = "166" y = "21" class = "elName">ExternRef</text>
	<rect x = "156" y = "11" width = "68" height = "25" class = "elTypeBkgnd" rx = "5" ry = "5" clip-path = "url(#e:Screen/a:ExternRef)"/>
	<defs/>
	<clipPath id = "e:Screen/a:ExternRef">
		<rect x = "155" y = "25" width = "70" height = "11"/>
	</clipPath>
	<text x = "156" y = "33" class = "elType">ExternDBref</text>
	<image xlink:href = "../dgmDtString.gif" width = "10" height = "10" x = "215" y = "20"/>
	<rect x = "5" y = "47" width = "55" height = "27" class = "element"/>
	<polygon class = "nodeStyle" points = "11,49 7,53 11,57 15,53"/>
	<text x = "16" y = "58" class = "elName">Screen</text>
	<rect x = "6" y = "62" width = "53" height = "11" class = "elTypeBkgnd"/>
	<image xlink:href = "../dgmTypeComplex.gif" width = "10" height = "10" x = "50" y = "57"/>
	<polyline class = "connector" points = "60,60 90,60"/>
	<polyline class = "connector" points = "60,58 68,58 68,23 90,23"/>
	<circle class = "occurs" cx = "96" cy = "60" r = "6"/>
	<text x = "93" y = "63" class = "occurLarge">?</text>
	<rect x = "102" y = "47" width = "78" height = "27" class = "element"/>
	<polygon class = "nodeStyle" points = "108,49 104,53 108,57 112,53"/>
	<text x = "113" y = "58" class = "elName">Description</text>
	<rect x = "103" y = "62" width = "76" height = "11" class = "elTypeBkgnd"/>
	<image xlink:href = "../dgmTypeAny.gif" width = "10" height = "10" x = "170" y = "57"/>
</svg>