<?xml version = "1.0"?>
<!DOCTYPE svg PUBLIC "-//W3C//DTD SVG 20010904//EN" "http://www.w3.org/TR/2001/REC-SVG-20010904/DTD/svg10.dtd">
<svg width = "278pt" height = "79pt" viewBox = "0 0 278 79" xmlns = "http://www.w3.org/2000/svg" xmlns:xlink = "http://www.w3.org/1999/xlink">
	<defs>
		<style type = "text/css"><![CDATA[
rect.attrGroup { fill: ivory ; stroke: black; stroke-width: 1 }
rect.element { fill: ivory ; stroke: black; stroke-width: 1 }
rect.elTypeBkgnd { fill: lightgray ; stroke: none }
text.elName { font-family: helvetica ; font-size : 10 }
text.elType { font-family: helvetica ; font-size : 7 }
text.occurLarge { font-family: helvetica ; font-size : 9; fill : blue }
text.occurSmall { font-family: helvetica ; font-size : 7; fill : blue }
rect.typeIconDark { fill : darkslategray }
circle.occurs { stroke : black ; stroke-width: 1; fill : white }
circle.ellipsis { fill : black }
path.typeIconDark { stroke : lightgray ; stroke-width: 1 }
path.connector { stroke : red ; stroke-width: 1 ; fill: none; }
path.modelGroup { stroke : black ; stroke-width: 1 ; fill: lightgray; }
polyline.connector { stroke : red ; stroke-width: 1 ; fill: none; }
.nodeStyle { fill : blue }
]]></style>
	</defs>
	<rect x = "83" y = "5" width = "190" height = "37" class = "attrGroup" rx = "5" ry = "5"/>
	<rect x = "88" y = "10" width = "37" height = "27" class = "element" rx = "5" ry = "5"/>
	<circle class = "nodeStyle" cx = "94" cy = "16" r = "4"/>
	<text x = "99" y = "21" class = "elName">ID</text>
	<rect x = "89" y = "11" width = "35" height = "25" class = "elTypeBkgnd" rx = "5" ry = "5" clip-path = "url(#e:Plate/a:ID)"/>
	<defs/>
	<clipPath id = "e:Plate/a:ID">
		<rect x = "88" y = "25" width = "37" height = "11"/>
	</clipPath>
	<text x = "89" y = "33" class = "elType">PlateID</text>
	<image xlink:href = "../dgmDtString.gif" width = "10" height = "10" x = "115" y = "20"/>
	<rect x = "217" y = "10" width = "51" height = "27" class = "element" rx = "5" ry = "5"/>
	<circle class = "nodeStyle" cx = "223" cy = "16" r = "4"/>
	<text x = "228" y = "21" class = "elName">Name</text>
	<rect x = "218" y = "11" width = "49" height = "25" class = "elTypeBkgnd" rx = "5" ry = "5" clip-path = "url(#e:Plate/a:Name)"/>
	<defs/>
	<clipPath id = "e:Plate/a:Name">
		<rect x = "217" y = "25" width = "51" height = "11"/>
	</clipPath>
	<text x = "218" y = "33" class = "elType">string</text>
	<image xlink:href = "../dgmDtString.gif" width = "10" height = "10" x = "258" y = "20"/>
	<circle class = "occurs" cx = "136" cy = "23" r = "6"/>
	<text x = "133" y = "26" class = "occurLarge">?</text>
	<rect x = "142" y = "10" width = "70" height = "27" class = "element" rx = "5" ry = "5"/>
	<circle class = "nodeStyle" cx = "148" cy = "16" r = "4"/>
	<text x = "153" y = "21" class = "elName">ExternRef</text>
	<rect x = "143" y = "11" width = "68" height = "25" class = "elTypeBkgnd" rx = "5" ry = "5" clip-path = "url(#e:Plate/a:ExternRef)"/>
	<defs/>
	<clipPath id = "e:Plate/a:ExternRef">
		<rect x = "142" y = "25" width = "70" height = "11"/>
	</clipPath>
	<text x = "143" y = "33" class = "elType">ExternDBref</text>
	<image xlink:href = "../dgmDtString.gif" width = "10" height = "10" x = "202" y = "20"/>
	<rect x = "5" y = "47" width = "48" height = "27" class = "element"/>
	<polygon class = "nodeStyle" points = "11,49 7,53 11,57 15,53"/>
	<text x = "16" y = "58" class = "elName">Plate</text>
	<rect x = "6" y = "62" width = "46" height = "11" class = "elTypeBkgnd"/>
	<image xlink:href = "../dgmTypeComplex.gif" width = "10" height = "10" x = "43" y = "57"/>
	<polyline class = "connector" points = "53,60 83,60"/>
	<polyline class = "connector" points = "53,58 61,58 61,23 83,23"/>
	<circle class = "occurs" cx = "89" cy = "60" r = "6"/>
	<text x = "86" y = "63" class = "occurLarge">+</text>
	<rect x = "95" y = "47" width = "71" height = "27" class = "element"/>
	<polygon class = "nodeStyle" points = "101,49 97,53 101,57 105,53"/>
	<text x = "106" y = "58" class = "elName">ScreenRef</text>
	<rect x = "96" y = "62" width = "69" height = "11" class = "elTypeBkgnd"/>
	<image xlink:href = "../dgmTypeComplex.gif" width = "10" height = "10" x = "156" y = "57"/>
</svg>