<?xml version = "1.0"?>
<!DOCTYPE svg PUBLIC "-//W3C//DTD SVG 20010904//EN" "http://www.w3.org/TR/2001/REC-SVG-20010904/DTD/svg10.dtd">
<svg width = "238pt" height = "113pt" viewBox = "0 0 238 113" xmlns = "http://www.w3.org/2000/svg" xmlns:xlink = "http://www.w3.org/1999/xlink">
	<defs>
		<style type = "text/css"><![CDATA[
rect.attrGroup { fill: ivory ; stroke: black; stroke-width: 1 }
rect.element { fill: ivory ; stroke: black; stroke-width: 1 }
rect.elTypeBkgnd { fill: lightgray ; stroke: none }
text.elName { font-family: helvetica ; font-size : 10 }
text.elType { font-family: helvetica ; font-size : 7 }
text.occurLarge { font-family: helvetica ; font-size : 9; fill : blue }
text.occurSmall { font-family: helvetica ; font-size : 7; fill : blue }
rect.typeIconDark { fill : darkslategray }
circle.occurs { stroke : black ; stroke-width: 1; fill : white }
circle.ellipsis { fill : black }
path.typeIconDark { stroke : lightgray ; stroke-width: 1 }
path.connector { stroke : red ; stroke-width: 1 ; fill: none; }
path.modelGroup { stroke : black ; stroke-width: 1 ; fill: lightgray; }
polyline.connector { stroke : red ; stroke-width: 1 ; fill: none; }
.nodeStyle { fill : blue }
]]></style>
	</defs>
	<rect x = "113" y = "5" width = "120" height = "37" class = "attrGroup" rx = "5" ry = "5"/>
	<rect x = "118" y = "10" width = "46" height = "27" class = "element" rx = "5" ry = "5"/>
	<circle class = "nodeStyle" cx = "124" cy = "16" r = "4"/>
	<text x = "129" y = "21" class = "elName">Type</text>
	<rect x = "119" y = "11" width = "44" height = "25" class = "elTypeBkgnd" rx = "5" ry = "5" clip-path = "url(#e:Experiment/a:Type)"/>
	<defs/>
	<clipPath id = "e:Experiment/a:Type">
		<rect x = "118" y = "25" width = "46" height = "11"/>
	</clipPath>
	<image xlink:href = "../dgmDtString.gif" width = "10" height = "10" x = "154" y = "20"/>
	<rect x = "169" y = "10" width = "59" height = "27" class = "element" rx = "5" ry = "5"/>
	<circle class = "nodeStyle" cx = "175" cy = "16" r = "4"/>
	<text x = "180" y = "21" class = "elName">ID</text>
	<rect x = "170" y = "11" width = "57" height = "25" class = "elTypeBkgnd" rx = "5" ry = "5" clip-path = "url(#e:Experiment/a:ID)"/>
	<defs/>
	<clipPath id = "e:Experiment/a:ID">
		<rect x = "169" y = "25" width = "59" height = "11"/>
	</clipPath>
	<text x = "170" y = "33" class = "elType">ExperimentID</text>
	<image xlink:href = "../dgmDtString.gif" width = "10" height = "10" x = "218" y = "20"/>
	<rect x = "5" y = "64" width = "78" height = "27" class = "element"/>
	<polygon class = "nodeStyle" points = "11,66 7,70 11,74 15,70"/>
	<text x = "16" y = "75" class = "elName">Experiment</text>
	<rect x = "6" y = "79" width = "76" height = "11" class = "elTypeBkgnd"/>
	<image xlink:href = "../dgmTypeComplex.gif" width = "10" height = "10" x = "73" y = "74"/>
	<polyline class = "connector" points = "113,60 93,60 93,77 83,77 93,77 93,94 113,94"/>
	<polyline class = "connector" points = "83,75 91,75 91,23 113,23"/>
	<circle class = "occurs" cx = "119" cy = "60" r = "6"/>
	<text x = "116" y = "63" class = "occurLarge">?</text>
	<rect x = "125" y = "47" width = "78" height = "27" class = "element"/>
	<polygon class = "nodeStyle" points = "131,49 127,53 131,57 135,53"/>
	<text x = "136" y = "58" class = "elName">Description</text>
	<rect x = "126" y = "62" width = "76" height = "11" class = "elTypeBkgnd"/>
	<image xlink:href = "../dgmTypeAny.gif" width = "10" height = "10" x = "193" y = "57"/>
	<polyline class = "connector" points = "113,94 125,94"/>
	<rect x = "125" y = "81" width = "104" height = "27" class = "element"/>
	<polygon class = "nodeStyle" points = "131,83 127,87 131,91 135,87"/>
	<text x = "136" y = "92" class = "elName">ExperimenterRef</text>
	<rect x = "126" y = "96" width = "102" height = "11" class = "elTypeBkgnd"/>
	<image xlink:href = "../dgmTypeComplex.gif" width = "10" height = "10" x = "219" y = "91"/>
</svg>