<?xml version = "1.0"?>
<!DOCTYPE svg PUBLIC "-//W3C//DTD SVG 20010904//EN" "http://www.w3.org/TR/2001/REC-SVG-20010904/DTD/svg10.dtd">
<svg width = "452pt" height = "79pt" viewBox = "0 0 452 79" xmlns = "http://www.w3.org/2000/svg" xmlns:xlink = "http://www.w3.org/1999/xlink">
	<defs>
		<style type = "text/css"><![CDATA[
rect.attrGroup { fill: ivory ; stroke: black; stroke-width: 1 }
rect.element { fill: ivory ; stroke: black; stroke-width: 1 }
rect.elTypeBkgnd { fill: lightgray ; stroke: none }
text.elName { font-family: helvetica ; font-size : 10 }
text.elType { font-family: helvetica ; font-size : 7 }
text.occurLarge { font-family: helvetica ; font-size : 9; fill : blue }
text.occurSmall { font-family: helvetica ; font-size : 7; fill : blue }
rect.typeIconDark { fill : darkslategray }
circle.occurs { stroke : black ; stroke-width: 1; fill : white }
circle.ellipsis { fill : black }
path.typeIconDark { stroke : lightgray ; stroke-width: 1 }
path.connector { stroke : red ; stroke-width: 1 ; fill: none; }
path.modelGroup { stroke : black ; stroke-width: 1 ; fill: lightgray; }
polyline.connector { stroke : red ; stroke-width: 1 ; fill: none; }
.nodeStyle { fill : blue }
]]></style>
	</defs>
	<rect x = "5" y = "26" width = "81" height = "27" class = "element"/>
	<polygon class = "nodeStyle" points = "11,28 7,32 11,36 15,32"/>
	<text x = "16" y = "37" class = "elName">RedChannel</text>
	<rect x = "6" y = "41" width = "79" height = "11" class = "elTypeBkgnd"/>
	<text x = "6" y = "49" class = "elType">ChannelSpecType</text>
	<image xlink:href = "../dgmTypeEmpty.gif" width = "10" height = "10" x = "76" y = "36"/>
	<polyline class = "connector" points = "86,39 116,39"/>
	<rect x = "116" y = "5" width = "331" height = "69" class = "attrGroup" rx = "5" ry = "5"/>
	<circle class = "occurs" cx = "127" cy = "23" r = "6"/>
	<text x = "124" y = "26" class = "occurLarge">?</text>
	<rect x = "133" y = "10" width = "45" height = "27" class = "element" rx = "5" ry = "5"/>
	<circle class = "nodeStyle" cx = "139" cy = "16" r = "4"/>
	<text x = "144" y = "21" class = "elName">isOn</text>
	<rect x = "134" y = "11" width = "43" height = "25" class = "elTypeBkgnd" rx = "5" ry = "5" clip-path = "url(#t:ChannelSpecType/a:isOn)"/>
	<defs/>
	<clipPath id = "t:ChannelSpecType/a:isOn">
		<rect x = "133" y = "25" width = "45" height = "11"/>
	</clipPath>
	<text x = "134" y = "33" class = "elType">boolean</text>
	<image xlink:href = "../dgmDtBoolean.gif" width = "10" height = "10" x = "168" y = "20"/>
	<circle class = "occurs" cx = "295" cy = "23" r = "6"/>
	<text x = "292" y = "26" class = "occurLarge">?</text>
	<rect x = "301" y = "10" width = "60" height = "27" class = "element" rx = "5" ry = "5"/>
	<circle class = "nodeStyle" cx = "307" cy = "16" r = "4"/>
	<text x = "312" y = "21" class = "elName">Gamma</text>
	<rect x = "302" y = "11" width = "58" height = "25" class = "elTypeBkgnd" rx = "5" ry = "5" clip-path = "url(#t:ChannelSpecType/a:Gamma)"/>
	<defs/>
	<clipPath id = "t:ChannelSpecType/a:Gamma">
		<rect x = "301" y = "25" width = "60" height = "11"/>
	</clipPath>
	<text x = "302" y = "33" class = "elType">float</text>
	<image xlink:href = "../dgmDtFloat.gif" width = "10" height = "10" x = "351" y = "20"/>
	<rect x = "121" y = "42" width = "74" height = "27" class = "element" rx = "5" ry = "5"/>
	<circle class = "nodeStyle" cx = "127" cy = "48" r = "4"/>
	<text x = "132" y = "53" class = "elName">BlackLevel</text>
	<rect x = "122" y = "43" width = "72" height = "25" class = "elTypeBkgnd" rx = "5" ry = "5" clip-path = "url(#t:ChannelSpecType/a:BlackLevel)"/>
	<defs/>
	<clipPath id = "t:ChannelSpecType/a:BlackLevel">
		<rect x = "121" y = "57" width = "74" height = "11"/>
	</clipPath>
	<text x = "122" y = "65" class = "elType">float</text>
	<image xlink:href = "../dgmDtFloat.gif" width = "10" height = "10" x = "185" y = "52"/>
	<rect x = "366" y = "10" width = "76" height = "27" class = "element" rx = "5" ry = "5"/>
	<circle class = "nodeStyle" cx = "372" cy = "16" r = "4"/>
	<text x = "377" y = "21" class = "elName">WhiteLevel</text>
	<rect x = "367" y = "11" width = "74" height = "25" class = "elTypeBkgnd" rx = "5" ry = "5" clip-path = "url(#t:ChannelSpecType/a:WhiteLevel)"/>
	<defs/>
	<clipPath id = "t:ChannelSpecType/a:WhiteLevel">
		<rect x = "366" y = "25" width = "76" height = "11"/>
	</clipPath>
	<text x = "367" y = "33" class = "elType">float</text>
	<image xlink:href = "../dgmDtFloat.gif" width = "10" height = "10" x = "432" y = "20"/>
	<rect x = "183" y = "10" width = "101" height = "27" class = "element" rx = "5" ry = "5"/>
	<circle class = "nodeStyle" cx = "189" cy = "16" r = "4"/>
	<text x = "194" y = "21" class = "elName">ChannelNumber</text>
	<rect x = "184" y = "11" width = "99" height = "25" class = "elTypeBkgnd" rx = "5" ry = "5" clip-path = "url(#t:ChannelSpecType/a:ChannelNumber)"/>
	<defs/>
	<clipPath id = "t:ChannelSpecType/a:ChannelNumber">
		<rect x = "183" y = "25" width = "101" height = "11"/>
	</clipPath>
	<text x = "184" y = "33" class = "elType">int</text>
	<image xlink:href = "../dgmDtInteger.gif" width = "10" height = "10" x = "274" y = "20"/>
</svg>