<?xml version = "1.0"?>
<!DOCTYPE svg PUBLIC "-//W3C//DTD SVG 20010904//EN" "http://www.w3.org/TR/2001/REC-SVG-20010904/DTD/svg10.dtd">
<svg width = "408pt" height = "47pt" viewBox = "0 0 408 47" xmlns = "http://www.w3.org/2000/svg" xmlns:xlink = "http://www.w3.org/1999/xlink">
	<defs>
		<style type = "text/css"><![CDATA[
rect.attrGroup { fill: ivory ; stroke: black; stroke-width: 1 }
rect.element { fill: ivory ; stroke: black; stroke-width: 1 }
rect.elTypeBkgnd { fill: lightgray ; stroke: none }
text.elName { font-family: helvetica ; font-size : 10 }
text.elType { font-family: helvetica ; font-size : 7 }
text.occurLarge { font-family: helvetica ; font-size : 9; fill : blue }
text.occurSmall { font-family: helvetica ; font-size : 7; fill : blue }
rect.typeIconDark { fill : darkslategray }
circle.occurs { stroke : black ; stroke-width: 1; fill : white }
circle.ellipsis { fill : black }
path.typeIconDark { stroke : lightgray ; stroke-width: 1 }
path.connector { stroke : red ; stroke-width: 1 ; fill: none; }
path.modelGroup { stroke : black ; stroke-width: 1 ; fill: lightgray; }
polyline.connector { stroke : red ; stroke-width: 1 ; fill: none; }
.nodeStyle { fill : blue }
]]></style>
	</defs>
	<rect x = "5" y = "10" width = "119" height = "27" class = "element"/>
	<polygon class = "nodeStyle" points = "11,12 7,16 11,20 15,16"/>
	<text x = "16" y = "21" class = "elName">ChannelComponent</text>
	<rect x = "6" y = "25" width = "117" height = "11" class = "elTypeBkgnd"/>
	<image xlink:href = "../dgmTypeEmpty.gif" width = "10" height = "10" x = "114" y = "20"/>
	<polyline class = "connector" points = "124,23 154,23"/>
	<rect x = "154" y = "5" width = "249" height = "37" class = "attrGroup" rx = "5" ry = "5"/>
	<rect x = "159" y = "10" width = "52" height = "27" class = "element" rx = "5" ry = "5"/>
	<circle class = "nodeStyle" cx = "165" cy = "16" r = "4"/>
	<text x = "170" y = "21" class = "elName">Pixels</text>
	<rect x = "160" y = "11" width = "50" height = "25" class = "elTypeBkgnd" rx = "5" ry = "5" clip-path = "url(#e:ChannelComponent/a:Pixels)"/>
	<defs/>
	<clipPath id = "e:ChannelComponent/a:Pixels">
		<rect x = "159" y = "25" width = "52" height = "11"/>
	</clipPath>
	<text x = "160" y = "33" class = "elType">PixelsID</text>
	<image xlink:href = "../dgmDtString.gif" width = "10" height = "10" x = "201" y = "20"/>
	<rect x = "319" y = "10" width = "79" height = "27" class = "element" rx = "5" ry = "5"/>
	<circle class = "nodeStyle" cx = "325" cy = "16" r = "4"/>
	<text x = "330" y = "21" class = "elName">Index</text>
	<rect x = "320" y = "11" width = "77" height = "25" class = "elTypeBkgnd" rx = "5" ry = "5" clip-path = "url(#e:ChannelComponent/a:Index)"/>
	<defs/>
	<clipPath id = "e:ChannelComponent/a:Index">
		<rect x = "319" y = "25" width = "79" height = "11"/>
	</clipPath>
	<text x = "320" y = "33" class = "elType">nonNegativeInteger</text>
	<image xlink:href = "../dgmDtInteger.gif" width = "10" height = "10" x = "388" y = "20"/>
	<circle class = "occurs" cx = "222" cy = "23" r = "6"/>
	<text x = "219" y = "26" class = "occurLarge">?</text>
	<rect x = "228" y = "10" width = "86" height = "27" class = "element" rx = "5" ry = "5"/>
	<circle class = "nodeStyle" cx = "234" cy = "16" r = "4"/>
	<text x = "239" y = "21" class = "elName">ColorDomain</text>
	<rect x = "229" y = "11" width = "84" height = "25" class = "elTypeBkgnd" rx = "5" ry = "5" clip-path = "url(#e:ChannelComponent/a:ColorDomain)"/>
	<defs/>
	<clipPath id = "e:ChannelComponent/a:ColorDomain">
		<rect x = "228" y = "25" width = "86" height = "11"/>
	</clipPath>
	<text x = "229" y = "33" class = "elType">string</text>
	<image xlink:href = "../dgmDtString.gif" width = "10" height = "10" x = "304" y = "20"/>
</svg>