<?xml version = "1.0"?>
<!DOCTYPE svg PUBLIC "-//W3C//DTD SVG 20010904//EN" "http://www.w3.org/TR/2001/REC-SVG-20010904/DTD/svg10.dtd">
<svg width = "548pt" height = "47pt" viewBox = "0 0 548 47" xmlns = "http://www.w3.org/2000/svg" xmlns:xlink = "http://www.w3.org/1999/xlink">
	<defs>
		<style type = "text/css"><![CDATA[
rect.attrGroup { fill: ivory ; stroke: black; stroke-width: 1 }
rect.element { fill: ivory ; stroke: black; stroke-width: 1 }
rect.elTypeBkgnd { fill: lightgray ; stroke: none }
text.elName { font-family: helvetica ; font-size : 10 }
text.elType { font-family: helvetica ; font-size : 7 }
text.occurLarge { font-family: helvetica ; font-size : 9; fill : blue }
text.occurSmall { font-family: helvetica ; font-size : 7; fill : blue }
rect.typeIconDark { fill : darkslategray }
circle.occurs { stroke : black ; stroke-width: 1; fill : white }
circle.ellipsis { fill : black }
path.typeIconDark { stroke : lightgray ; stroke-width: 1 }
path.connector { stroke : red ; stroke-width: 1 ; fill: none; }
path.modelGroup { stroke : black ; stroke-width: 1 ; fill: lightgray; }
polyline.connector { stroke : red ; stroke-width: 1 ; fill: none; }
.nodeStyle { fill : blue }
]]></style>
	</defs>
	<rect x = "5" y = "10" width = "122" height = "27" class = "element"/>
	<polygon class = "nodeStyle" points = "11,12 7,16 11,20 15,16"/>
	<text x = "16" y = "21" class = "elName">ImagingEnvironment</text>
	<rect x = "6" y = "25" width = "120" height = "11" class = "elTypeBkgnd"/>
	<image xlink:href = "../dgmTypeEmpty.gif" width = "10" height = "10" x = "117" y = "20"/>
	<polyline class = "connector" points = "127,23 157,23"/>
	<rect x = "157" y = "5" width = "386" height = "37" class = "attrGroup" rx = "5" ry = "5"/>
	<circle class = "occurs" cx = "168" cy = "23" r = "6"/>
	<text x = "165" y = "26" class = "occurLarge">?</text>
	<rect x = "174" y = "10" width = "67" height = "27" class = "element" rx = "5" ry = "5"/>
	<circle class = "nodeStyle" cx = "180" cy = "16" r = "4"/>
	<text x = "185" y = "21" class = "elName">Humidity</text>
	<rect x = "175" y = "11" width = "65" height = "25" class = "elTypeBkgnd" rx = "5" ry = "5" clip-path = "url(#e:ImagingEnvironment/a:Humidity)"/>
	<defs/>
	<clipPath id = "e:ImagingEnvironment/a:Humidity">
		<rect x = "174" y = "25" width = "67" height = "11"/>
	</clipPath>
	<text x = "175" y = "33" class = "elType">PercentFraction</text>
	<image xlink:href = "../dgmDtFloat.gif" width = "10" height = "10" x = "231" y = "20"/>
	<circle class = "occurs" cx = "355" cy = "23" r = "6"/>
	<text x = "352" y = "26" class = "occurLarge">?</text>
	<rect x = "361" y = "10" width = "79" height = "27" class = "element" rx = "5" ry = "5"/>
	<circle class = "nodeStyle" cx = "367" cy = "16" r = "4"/>
	<text x = "372" y = "21" class = "elName">AirPressure</text>
	<rect x = "362" y = "11" width = "77" height = "25" class = "elTypeBkgnd" rx = "5" ry = "5" clip-path = "url(#e:ImagingEnvironment/a:AirPressure)"/>
	<defs/>
	<clipPath id = "e:ImagingEnvironment/a:AirPressure">
		<rect x = "361" y = "25" width = "79" height = "11"/>
	</clipPath>
	<text x = "362" y = "33" class = "elType">float</text>
	<image xlink:href = "../dgmDtFloat.gif" width = "10" height = "10" x = "430" y = "20"/>
	<circle class = "occurs" cx = "451" cy = "23" r = "6"/>
	<text x = "448" y = "26" class = "occurLarge">?</text>
	<rect x = "457" y = "10" width = "81" height = "27" class = "element" rx = "5" ry = "5"/>
	<circle class = "nodeStyle" cx = "463" cy = "16" r = "4"/>
	<text x = "468" y = "21" class = "elName">CO2Percent</text>
	<rect x = "458" y = "11" width = "79" height = "25" class = "elTypeBkgnd" rx = "5" ry = "5" clip-path = "url(#e:ImagingEnvironment/a:CO2Percent)"/>
	<defs/>
	<clipPath id = "e:ImagingEnvironment/a:CO2Percent">
		<rect x = "457" y = "25" width = "81" height = "11"/>
	</clipPath>
	<text x = "458" y = "33" class = "elType">PercentFraction</text>
	<image xlink:href = "../dgmDtFloat.gif" width = "10" height = "10" x = "528" y = "20"/>
	<circle class = "occurs" cx = "252" cy = "23" r = "6"/>
	<text x = "249" y = "26" class = "occurLarge">?</text>
	<rect x = "258" y = "10" width = "86" height = "27" class = "element" rx = "5" ry = "5"/>
	<circle class = "nodeStyle" cx = "264" cy = "16" r = "4"/>
	<text x = "269" y = "21" class = "elName">Temperature</text>
	<rect x = "259" y = "11" width = "84" height = "25" class = "elTypeBkgnd" rx = "5" ry = "5" clip-path = "url(#e:ImagingEnvironment/a:Temperature)"/>
	<defs/>
	<clipPath id = "e:ImagingEnvironment/a:Temperature">
		<rect x = "258" y = "25" width = "86" height = "11"/>
	</clipPath>
	<text x = "259" y = "33" class = "elType">float</text>
	<image xlink:href = "../dgmDtFloat.gif" width = "10" height = "10" x = "334" y = "20"/>
</svg>