<?xml version = "1.0"?>
<!DOCTYPE svg PUBLIC "-//W3C//DTD SVG 20010904//EN" "http://www.w3.org/TR/2001/REC-SVG-20010904/DTD/svg10.dtd">
<svg width = "325pt" height = "47pt" viewBox = "0 0 325 47" xmlns = "http://www.w3.org/2000/svg" xmlns:xlink = "http://www.w3.org/1999/xlink">
	<defs>
		<style type = "text/css"><![CDATA[
rect.attrGroup { fill: ivory ; stroke: black; stroke-width: 1 }
rect.element { fill: ivory ; stroke: black; stroke-width: 1 }
rect.elTypeBkgnd { fill: lightgray ; stroke: none }
text.elName { font-family: helvetica ; font-size : 10 }
text.elType { font-family: helvetica ; font-size : 7 }
text.occurLarge { font-family: helvetica ; font-size : 9; fill : blue }
text.occurSmall { font-family: helvetica ; font-size : 7; fill : blue }
rect.typeIconDark { fill : darkslategray }
circle.occurs { stroke : black ; stroke-width: 1; fill : white }
circle.ellipsis { fill : black }
path.typeIconDark { stroke : lightgray ; stroke-width: 1 }
path.connector { stroke : red ; stroke-width: 1 ; fill: none; }
path.modelGroup { stroke : black ; stroke-width: 1 ; fill: lightgray; }
polyline.connector { stroke : red ; stroke-width: 1 ; fill: none; }
.nodeStyle { fill : blue }
]]></style>
	</defs>
	<rect x = "5" y = "10" width = "47" height = "27" class = "element"/>
	<polygon class = "nodeStyle" points = "11,12 7,16 11,20 15,16"/>
	<rect x = "6" y = "25" width = "45" height = "11" class = "elTypeBkgnd"/>
	<text x = "6" y = "33" class = "elType">FilterSpec</text>
	<image xlink:href = "../dgmTypeEmpty.gif" width = "10" height = "10" x = "42" y = "20"/>
	<polyline class = "connector" points = "52,23 82,23"/>
	<rect x = "82" y = "5" width = "238" height = "37" class = "attrGroup" rx = "5" ry = "5"/>
	<rect x = "87" y = "10" width = "53" height = "27" class = "element" rx = "5" ry = "5"/>
	<circle class = "nodeStyle" cx = "93" cy = "16" r = "4"/>
	<text x = "98" y = "21" class = "elName">Model</text>
	<rect x = "88" y = "11" width = "51" height = "25" class = "elTypeBkgnd" rx = "5" ry = "5" clip-path = "url(#t:FilterSpec/a:Model)"/>
	<defs/>
	<clipPath id = "t:FilterSpec/a:Model">
		<rect x = "87" y = "25" width = "53" height = "11"/>
	</clipPath>
	<text x = "88" y = "33" class = "elType">string</text>
	<image xlink:href = "../dgmDtString.gif" width = "10" height = "10" x = "130" y = "20"/>
	<rect x = "239" y = "10" width = "76" height = "27" class = "element" rx = "5" ry = "5"/>
	<circle class = "nodeStyle" cx = "245" cy = "16" r = "4"/>
	<text x = "250" y = "21" class = "elName">LotNumber</text>
	<rect x = "240" y = "11" width = "74" height = "25" class = "elTypeBkgnd" rx = "5" ry = "5" clip-path = "url(#t:FilterSpec/a:LotNumber)"/>
	<defs/>
	<clipPath id = "t:FilterSpec/a:LotNumber">
		<rect x = "239" y = "25" width = "76" height = "11"/>
	</clipPath>
	<text x = "240" y = "33" class = "elType">string</text>
	<image xlink:href = "../dgmDtString.gif" width = "10" height = "10" x = "305" y = "20"/>
	<rect x = "145" y = "10" width = "89" height = "27" class = "element" rx = "5" ry = "5"/>
	<circle class = "nodeStyle" cx = "151" cy = "16" r = "4"/>
	<text x = "156" y = "21" class = "elName">Manufacturer</text>
	<rect x = "146" y = "11" width = "87" height = "25" class = "elTypeBkgnd" rx = "5" ry = "5" clip-path = "url(#t:FilterSpec/a:Manufacturer)"/>
	<defs/>
	<clipPath id = "t:FilterSpec/a:Manufacturer">
		<rect x = "145" y = "25" width = "89" height = "11"/>
	</clipPath>
	<text x = "146" y = "33" class = "elType">string</text>
	<image xlink:href = "../dgmDtString.gif" width = "10" height = "10" x = "224" y = "20"/>
</svg>