<?xml version = "1.0"?>
<!DOCTYPE svg PUBLIC "-//W3C//DTD SVG 20010904//EN" "http://www.w3.org/TR/2001/REC-SVG-20010904/DTD/svg10.dtd">
<svg width = "347pt" height = "283pt" viewBox = "0 0 347 283" xmlns = "http://www.w3.org/2000/svg" xmlns:xlink = "http://www.w3.org/1999/xlink">
	<defs>
		<style type = "text/css"><![CDATA[
rect.attrGroup { fill: ivory ; stroke: black; stroke-width: 1 }
rect.element { fill: ivory ; stroke: black; stroke-width: 1 }
rect.elTypeBkgnd { fill: lightgray ; stroke: none }
text.elName { font-family: helvetica ; font-size : 10 }
text.elType { font-family: helvetica ; font-size : 7 }
text.occurLarge { font-family: helvetica ; font-size : 9; fill : blue }
text.occurSmall { font-family: helvetica ; font-size : 7; fill : blue }
rect.typeIconDark { fill : darkslategray }
circle.occurs { stroke : black ; stroke-width: 1; fill : white }
circle.ellipsis { fill : black }
path.typeIconDark { stroke : lightgray ; stroke-width: 1 }
path.connector { stroke : red ; stroke-width: 1 ; fill: none; }
path.modelGroup { stroke : black ; stroke-width: 1 ; fill: lightgray; }
polyline.connector { stroke : red ; stroke-width: 1 ; fill: none; }
.nodeStyle { fill : blue }
]]></style>
	</defs>
	<rect x = "131" y = "5" width = "211" height = "37" class = "attrGroup" rx = "5" ry = "5"/>
	<rect x = "136" y = "10" width = "58" height = "27" class = "element" rx = "5" ry = "5"/>
	<circle class = "nodeStyle" cx = "142" cy = "16" r = "4"/>
	<text x = "147" y = "21" class = "elName">Display</text>
	<rect x = "137" y = "11" width = "56" height = "25" class = "elTypeBkgnd" rx = "5" ry = "5" clip-path = "url(#e:DisplayOptions/a:Display)"/>
	<defs/>
	<clipPath id = "e:DisplayOptions/a:Display">
		<rect x = "136" y = "25" width = "58" height = "11"/>
	</clipPath>
	<image xlink:href = "../dgmDtString.gif" width = "10" height = "10" x = "184" y = "20"/>
	<circle class = "occurs" cx = "281" cy = "23" r = "6"/>
	<text x = "278" y = "26" class = "occurLarge">?</text>
	<rect x = "287" y = "10" width = "50" height = "27" class = "element" rx = "5" ry = "5"/>
	<circle class = "nodeStyle" cx = "293" cy = "16" r = "4"/>
	<text x = "298" y = "21" class = "elName">Zoom</text>
	<rect x = "288" y = "11" width = "48" height = "25" class = "elTypeBkgnd" rx = "5" ry = "5" clip-path = "url(#e:DisplayOptions/a:Zoom)"/>
	<defs/>
	<clipPath id = "e:DisplayOptions/a:Zoom">
		<rect x = "287" y = "25" width = "50" height = "11"/>
	</clipPath>
	<text x = "288" y = "33" class = "elType">float</text>
	<image xlink:href = "../dgmDtFloat.gif" width = "10" height = "10" x = "327" y = "20"/>
	<rect x = "199" y = "10" width = "71" height = "27" class = "element" rx = "5" ry = "5"/>
	<circle class = "nodeStyle" cx = "205" cy = "16" r = "4"/>
	<text x = "210" y = "21" class = "elName">ID</text>
	<rect x = "200" y = "11" width = "69" height = "25" class = "elTypeBkgnd" rx = "5" ry = "5" clip-path = "url(#e:DisplayOptions/a:ID)"/>
	<defs/>
	<clipPath id = "e:DisplayOptions/a:ID">
		<rect x = "199" y = "25" width = "71" height = "11"/>
	</clipPath>
	<text x = "200" y = "33" class = "elType">DisplayOptionsID</text>
	<image xlink:href = "../dgmDtString.gif" width = "10" height = "10" x = "260" y = "20"/>
	<rect x = "5" y = "149" width = "96" height = "27" class = "element"/>
	<polygon class = "nodeStyle" points = "11,151 7,155 11,159 15,155"/>
	<text x = "16" y = "160" class = "elName">DisplayOptions</text>
	<rect x = "6" y = "164" width = "94" height = "11" class = "elTypeBkgnd"/>
	<image xlink:href = "../dgmTypeComplex.gif" width = "10" height = "10" x = "91" y = "159"/>
	<polyline class = "connector" points = "131,60 111,60 111,162 101,162 111,162 111,264 131,264"/>
	<polyline class = "connector" points = "101,160 109,160 109,23 131,23"/>
	<polyline class = "connector" points = "131,60 143,60"/>
	<rect x = "143" y = "47" width = "81" height = "27" class = "element"/>
	<polygon class = "nodeStyle" points = "149,49 145,53 149,57 153,53"/>
	<text x = "154" y = "58" class = "elName">RedChannel</text>
	<rect x = "144" y = "62" width = "79" height = "11" class = "elTypeBkgnd"/>
	<text x = "144" y = "70" class = "elType">ChannelSpecType</text>
	<image xlink:href = "../dgmTypeEmpty.gif" width = "10" height = "10" x = "214" y = "57"/>
	<rect x = "143" y = "81" width = "92" height = "27" class = "element"/>
	<polygon class = "nodeStyle" points = "149,83 145,87 149,91 153,87"/>
	<text x = "154" y = "92" class = "elName">GreenChannel</text>
	<rect x = "144" y = "96" width = "90" height = "11" class = "elTypeBkgnd"/>
	<text x = "144" y = "104" class = "elType">ChannelSpecType</text>
	<image xlink:href = "../dgmTypeEmpty.gif" width = "10" height = "10" x = "225" y = "91"/>
	<rect x = "143" y = "115" width = "84" height = "27" class = "element"/>
	<polygon class = "nodeStyle" points = "149,117 145,121 149,125 153,121"/>
	<text x = "154" y = "126" class = "elName">BlueChannel</text>
	<rect x = "144" y = "130" width = "82" height = "11" class = "elTypeBkgnd"/>
	<text x = "144" y = "138" class = "elType">ChannelSpecType</text>
	<image xlink:href = "../dgmTypeEmpty.gif" width = "10" height = "10" x = "217" y = "125"/>
	<rect x = "143" y = "149" width = "85" height = "27" class = "element"/>
	<polygon class = "nodeStyle" points = "149,151 145,155 149,159 153,155"/>
	<text x = "154" y = "160" class = "elName">GreyChannel</text>
	<rect x = "144" y = "164" width = "83" height = "11" class = "elTypeBkgnd"/>
	<image xlink:href = "../dgmTypeComplex.gif" width = "10" height = "10" x = "218" y = "159"/>
	<circle class = "occurs" cx = "137" cy = "196" r = "6"/>
	<text x = "134" y = "199" class = "occurLarge">?</text>
	<rect x = "143" y = "183" width = "72" height = "27" class = "element"/>
	<polygon class = "nodeStyle" points = "149,185 145,189 149,193 153,189"/>
	<text x = "154" y = "194" class = "elName">Projection</text>
	<rect x = "144" y = "198" width = "70" height = "11" class = "elTypeBkgnd"/>
	<image xlink:href = "../dgmTypeEmpty.gif" width = "10" height = "10" x = "205" y = "193"/>
	<circle class = "occurs" cx = "137" cy = "230" r = "6"/>
	<text x = "134" y = "233" class = "occurLarge">?</text>
	<rect x = "143" y = "217" width = "47" height = "27" class = "element"/>
	<polygon class = "nodeStyle" points = "149,219 145,223 149,227 153,223"/>
	<text x = "154" y = "228" class = "elName">Time</text>
	<rect x = "144" y = "232" width = "45" height = "11" class = "elTypeBkgnd"/>
	<image xlink:href = "../dgmTypeEmpty.gif" width = "10" height = "10" x = "180" y = "227"/>
	<circle class = "occurs" cx = "137" cy = "264" r = "6"/>
	<text x = "134" y = "267" class = "occurLarge">*</text>
	<rect x = "143" y = "251" width = "40" height = "27" class = "element"/>
	<polygon class = "nodeStyle" points = "149,253 145,257 149,261 153,257"/>
	<text x = "154" y = "262" class = "elName">ROI</text>
	<rect x = "144" y = "266" width = "38" height = "11" class = "elTypeBkgnd"/>
	<image xlink:href = "../dgmTypeEmpty.gif" width = "10" height = "10" x = "173" y = "261"/>
</svg>