<?xml version = "1.0"?>
<!DOCTYPE svg PUBLIC "-//W3C//DTD SVG 20010904//EN" "http://www.w3.org/TR/2001/REC-SVG-20010904/DTD/svg10.dtd">
<svg width = "434pt" height = "147pt" viewBox = "0 0 434 147" xmlns = "http://www.w3.org/2000/svg" xmlns:xlink = "http://www.w3.org/1999/xlink">
	<defs>
		<style type = "text/css"><![CDATA[
rect.attrGroup { fill: ivory ; stroke: black; stroke-width: 1 }
rect.element { fill: ivory ; stroke: black; stroke-width: 1 }
rect.elTypeBkgnd { fill: lightgray ; stroke: none }
text.elName { font-family: helvetica ; font-size : 10 }
text.elType { font-family: helvetica ; font-size : 7 }
text.occurLarge { font-family: helvetica ; font-size : 9; fill : blue }
text.occurSmall { font-family: helvetica ; font-size : 7; fill : blue }
rect.typeIconDark { fill : darkslategray }
circle.occurs { stroke : black ; stroke-width: 1; fill : white }
circle.ellipsis { fill : black }
path.typeIconDark { stroke : lightgray ; stroke-width: 1 }
path.connector { stroke : red ; stroke-width: 1 ; fill: none; }
path.modelGroup { stroke : black ; stroke-width: 1 ; fill: lightgray; }
polyline.connector { stroke : red ; stroke-width: 1 ; fill: none; }
.nodeStyle { fill : blue }
]]></style>
	</defs>
	<rect x = "114" y = "5" width = "315" height = "37" class = "attrGroup" rx = "5" ry = "5"/>
	<rect x = "119" y = "10" width = "53" height = "27" class = "element" rx = "5" ry = "5"/>
	<circle class = "nodeStyle" cx = "125" cy = "16" r = "4"/>
	<text x = "130" y = "21" class = "elName">Model</text>
	<rect x = "120" y = "11" width = "51" height = "25" class = "elTypeBkgnd" rx = "5" ry = "5" clip-path = "url(#t:ManufactSpec/a:Model)"/>
	<defs/>
	<clipPath id = "t:ManufactSpec/a:Model">
		<rect x = "119" y = "25" width = "53" height = "11"/>
	</clipPath>
	<text x = "120" y = "33" class = "elType">string</text>
	<image xlink:href = "../dgmDtString.gif" width = "10" height = "10" x = "162" y = "20"/>
	<rect x = "271" y = "10" width = "60" height = "27" class = "element" rx = "5" ry = "5"/>
	<circle class = "nodeStyle" cx = "277" cy = "16" r = "4"/>
	<text x = "282" y = "21" class = "elName">ID</text>
	<rect x = "272" y = "11" width = "58" height = "25" class = "elTypeBkgnd" rx = "5" ry = "5" clip-path = "url(#e:LightSource/a:ID)"/>
	<defs/>
	<clipPath id = "e:LightSource/a:ID">
		<rect x = "271" y = "25" width = "60" height = "11"/>
	</clipPath>
	<text x = "272" y = "33" class = "elType">LightSourceID</text>
	<image xlink:href = "../dgmDtString.gif" width = "10" height = "10" x = "321" y = "20"/>
	<rect x = "336" y = "10" width = "88" height = "27" class = "element" rx = "5" ry = "5"/>
	<circle class = "nodeStyle" cx = "342" cy = "16" r = "4"/>
	<text x = "347" y = "21" class = "elName">SerialNumber</text>
	<rect x = "337" y = "11" width = "86" height = "25" class = "elTypeBkgnd" rx = "5" ry = "5" clip-path = "url(#t:ManufactSpec/a:SerialNumber)"/>
	<defs/>
	<clipPath id = "t:ManufactSpec/a:SerialNumber">
		<rect x = "336" y = "25" width = "88" height = "11"/>
	</clipPath>
	<text x = "337" y = "33" class = "elType">string</text>
	<image xlink:href = "../dgmDtString.gif" width = "10" height = "10" x = "414" y = "20"/>
	<rect x = "177" y = "10" width = "89" height = "27" class = "element" rx = "5" ry = "5"/>
	<circle class = "nodeStyle" cx = "183" cy = "16" r = "4"/>
	<text x = "188" y = "21" class = "elName">Manufacturer</text>
	<rect x = "178" y = "11" width = "87" height = "25" class = "elTypeBkgnd" rx = "5" ry = "5" clip-path = "url(#t:ManufactSpec/a:Manufacturer)"/>
	<defs/>
	<clipPath id = "t:ManufactSpec/a:Manufacturer">
		<rect x = "177" y = "25" width = "89" height = "11"/>
	</clipPath>
	<text x = "178" y = "33" class = "elType">string</text>
	<image xlink:href = "../dgmDtString.gif" width = "10" height = "10" x = "256" y = "20"/>
	<rect x = "5" y = "81" width = "79" height = "27" class = "element"/>
	<polygon class = "nodeStyle" points = "11,83 7,87 11,91 15,87"/>
	<text x = "16" y = "92" class = "elName">LightSource</text>
	<rect x = "6" y = "96" width = "77" height = "11" class = "elTypeBkgnd"/>
	<image xlink:href = "../dgmTypeComplex.gif" width = "10" height = "10" x = "74" y = "91"/>
	<polyline class = "connector" points = "84,94 114,94"/>
	<polyline class = "connector" points = "84,92 92,92 92,23 114,23"/>
	<circle class = "occurs" cx = "120" cy = "94" r = "6"/>
	<text x = "117" y = "97" class = "occurLarge">1</text>
	<polyline class = "connector" points = "126,94 156,94"/>
	<circle class = "occurs" cx = "162" cy = "94" r = "6"/>
	<text x = "159" y = "97" class = "occurLarge">1</text>
	<polyline class = "connector" points = "198,60 178,94 168,94 178,94 198,128"/>
	<polyline class = "connector" points = "198,60 210,60"/>
	<rect x = "210" y = "47" width = "49" height = "27" class = "element"/>
	<polygon class = "nodeStyle" points = "216,49 212,53 216,57 220,53"/>
	<text x = "221" y = "58" class = "elName">Laser</text>
	<rect x = "211" y = "62" width = "47" height = "11" class = "elTypeBkgnd"/>
	<image xlink:href = "../dgmTypeComplex.gif" width = "10" height = "10" x = "249" y = "57"/>
	<rect x = "210" y = "81" width = "65" height = "27" class = "element"/>
	<polygon class = "nodeStyle" points = "216,83 212,87 216,91 220,87"/>
	<text x = "221" y = "92" class = "elName">Filament</text>
	<rect x = "211" y = "96" width = "63" height = "11" class = "elTypeBkgnd"/>
	<image xlink:href = "../dgmTypeEmpty.gif" width = "10" height = "10" x = "265" y = "91"/>
	<polyline class = "connector" points = "198,128 210,128"/>
	<rect x = "210" y = "115" width = "39" height = "27" class = "element"/>
	<polygon class = "nodeStyle" points = "216,117 212,121 216,125 220,121"/>
	<text x = "221" y = "126" class = "elName">Arc</text>
	<rect x = "211" y = "130" width = "37" height = "11" class = "elTypeBkgnd"/>
	<image xlink:href = "../dgmTypeEmpty.gif" width = "10" height = "10" x = "239" y = "125"/>
</svg>