<?xml version = "1.0"?>
<!DOCTYPE svg PUBLIC "-//W3C//DTD SVG 20010904//EN" "http://www.w3.org/TR/2001/REC-SVG-20010904/DTD/svg10.dtd">
<svg width = "270pt" height = "79pt" viewBox = "0 0 270 79" xmlns = "http://www.w3.org/2000/svg" xmlns:xlink = "http://www.w3.org/1999/xlink">
	<defs>
		<style type = "text/css"><![CDATA[
rect.attrGroup { fill: ivory ; stroke: black; stroke-width: 1 }
rect.element { fill: ivory ; stroke: black; stroke-width: 1 }
rect.elTypeBkgnd { fill: lightgray ; stroke: none }
text.elName { font-family: helvetica ; font-size : 10 }
text.elType { font-family: helvetica ; font-size : 7 }
text.occurLarge { font-family: helvetica ; font-size : 9; fill : blue }
text.occurSmall { font-family: helvetica ; font-size : 7; fill : blue }
rect.typeIconDark { fill : darkslategray }
circle.occurs { stroke : black ; stroke-width: 1; fill : white }
circle.ellipsis { fill : black }
path.typeIconDark { stroke : lightgray ; stroke-width: 1 }
path.connector { stroke : red ; stroke-width: 1 ; fill: none; }
path.modelGroup { stroke : black ; stroke-width: 1 ; fill: lightgray; }
polyline.connector { stroke : red ; stroke-width: 1 ; fill: none; }
.nodeStyle { fill : blue }
]]></style>
	</defs>
	<rect x = "102" y = "5" width = "163" height = "37" class = "attrGroup" rx = "5" ry = "5"/>
	<circle class = "occurs" cx = "113" cy = "23" r = "6"/>
	<text x = "110" y = "26" class = "occurLarge">?</text>
	<rect x = "119" y = "10" width = "50" height = "27" class = "element" rx = "5" ry = "5"/>
	<circle class = "nodeStyle" cx = "125" cy = "16" r = "4"/>
	<text x = "130" y = "21" class = "elName">FileID</text>
	<rect x = "120" y = "11" width = "48" height = "25" class = "elTypeBkgnd" rx = "5" ry = "5" clip-path = "url(#e:TempFile/a:FileID)"/>
	<defs/>
	<clipPath id = "e:TempFile/a:FileID">
		<rect x = "119" y = "25" width = "50" height = "11"/>
	</clipPath>
	<text x = "120" y = "33" class = "elType">string</text>
	<image xlink:href = "../dgmDtString.gif" width = "10" height = "10" x = "159" y = "20"/>
	<circle class = "occurs" cx = "180" cy = "23" r = "6"/>
	<text x = "177" y = "26" class = "occurLarge">?</text>
	<rect x = "186" y = "10" width = "74" height = "27" class = "element" rx = "5" ry = "5"/>
	<circle class = "nodeStyle" cx = "192" cy = "16" r = "4"/>
	<text x = "197" y = "21" class = "elName">Repository</text>
	<rect x = "187" y = "11" width = "72" height = "25" class = "elTypeBkgnd" rx = "5" ry = "5" clip-path = "url(#e:TempFile/a:Repository)"/>
	<defs/>
	<clipPath id = "e:TempFile/a:Repository">
		<rect x = "186" y = "25" width = "74" height = "11"/>
	</clipPath>
	<text x = "187" y = "33" class = "elType">string</text>
	<image xlink:href = "../dgmDtString.gif" width = "10" height = "10" x = "250" y = "20"/>
	<rect x = "5" y = "47" width = "67" height = "27" class = "element"/>
	<polygon class = "nodeStyle" points = "11,49 7,53 11,57 15,53"/>
	<text x = "16" y = "58" class = "elName">TempFile</text>
	<rect x = "6" y = "62" width = "65" height = "11" class = "elTypeBkgnd"/>
	<image xlink:href = "../dgmTypeComplex.gif" width = "10" height = "10" x = "62" y = "57"/>
	<polyline class = "connector" points = "72,60 102,60"/>
	<polyline class = "connector" points = "72,58 80,58 80,23 102,23"/>
	<circle class = "occurs" cx = "108" cy = "60" r = "6"/>
	<text x = "105" y = "63" class = "occurLarge">*</text>
	<rect x = "114" y = "47" width = "69" height = "27" class = "element"/>
	<polygon class = "nodeStyle" points = "120,49 116,53 120,57 124,53"/>
	<text x = "125" y = "58" class = "elName">OutputTo</text>
	<rect x = "115" y = "62" width = "67" height = "11" class = "elTypeBkgnd"/>
	<image xlink:href = "../dgmTypeEmpty.gif" width = "10" height = "10" x = "173" y = "57"/>
</svg>