<?xml version = "1.0"?>
<!DOCTYPE svg PUBLIC "-//W3C//DTD SVG 20010904//EN" "http://www.w3.org/TR/2001/REC-SVG-20010904/DTD/svg10.dtd">
<svg width = "257pt" height = "139pt" viewBox = "0 0 257 139" xmlns = "http://www.w3.org/2000/svg" xmlns:xlink = "http://www.w3.org/1999/xlink">
	<defs>
		<style type = "text/css"><![CDATA[
rect.attrGroup { fill: ivory ; stroke: black; stroke-width: 1 }
rect.element { fill: ivory ; stroke: black; stroke-width: 1 }
rect.elTypeBkgnd { fill: lightgray ; stroke: none }
text.elName { font-family: helvetica ; font-size : 10 }
text.elType { font-family: helvetica ; font-size : 7 }
text.occurLarge { font-family: helvetica ; font-size : 9; fill : blue }
text.occurSmall { font-family: helvetica ; font-size : 7; fill : blue }
rect.typeIconDark { fill : darkslategray }
circle.occurs { stroke : black ; stroke-width: 1; fill : white }
circle.ellipsis { fill : black }
path.typeIconDark { stroke : lightgray ; stroke-width: 1 }
path.connector { stroke : red ; stroke-width: 1 ; fill: none; }
path.modelGroup { stroke : black ; stroke-width: 1 ; fill: lightgray; }
polyline.connector { stroke : red ; stroke-width: 1 ; fill: none; }
.nodeStyle { fill : blue }
]]></style>
	</defs>
	<rect x = "5" y = "56" width = "93" height = "27" class = "element"/>
	<polygon class = "nodeStyle" points = "11,58 7,62 11,66 15,62"/>
	<text x = "16" y = "67" class = "elName">InputSubString</text>
	<rect x = "6" y = "71" width = "91" height = "11" class = "elTypeBkgnd"/>
	<image xlink:href = "../dgmTypeComplex.gif" width = "10" height = "10" x = "88" y = "66"/>
	<polyline class = "connector" points = "128,18 108,69 98,69 108,69 128,120"/>
	<polyline class = "connector" points = "128,18 140,18"/>
	<rect x = "140" y = "5" width = "48" height = "27" class = "element"/>
	<polygon class = "nodeStyle" points = "146,7 142,11 146,15 150,11"/>
	<text x = "151" y = "16" class = "elName">Input</text>
	<rect x = "141" y = "20" width = "46" height = "11" class = "elTypeBkgnd"/>
	<image xlink:href = "../dgmTypeEmpty.gif" width = "10" height = "10" x = "178" y = "15"/>
	<rect x = "140" y = "39" width = "62" height = "27" class = "element"/>
	<polygon class = "nodeStyle" points = "146,41 142,45 146,49 150,45"/>
	<text x = "151" y = "50" class = "elName">XYPlane</text>
	<rect x = "141" y = "54" width = "60" height = "11" class = "elTypeBkgnd"/>
	<image xlink:href = "../dgmTypeComplex.gif" width = "10" height = "10" x = "192" y = "49"/>
	<rect x = "140" y = "73" width = "112" height = "27" class = "element"/>
	<polygon class = "nodeStyle" points = "146,75 142,79 146,83 150,79"/>
	<text x = "151" y = "84" class = "elName">RawImageFilePath</text>
	<rect x = "141" y = "88" width = "110" height = "11" class = "elTypeBkgnd"/>
	<image xlink:href = "../dgmTypeEmpty.gif" width = "10" height = "10" x = "242" y = "83"/>
	<polyline class = "connector" points = "128,120 140,120"/>
	<rect x = "140" y = "107" width = "65" height = "27" class = "element"/>
	<polygon class = "nodeStyle" points = "146,109 142,113 146,117 150,113"/>
	<text x = "151" y = "118" class = "elName">RawText</text>
	<rect x = "141" y = "122" width = "63" height = "11" class = "elTypeBkgnd"/>
	<text x = "141" y = "130" class = "elType">string</text>
	<image xlink:href = "../dgmDtString.gif" width = "10" height = "10" x = "195" y = "117"/>
</svg>