<?xml version = "1.0"?>
<!DOCTYPE svg PUBLIC "-//W3C//DTD SVG 20010904//EN" "http://www.w3.org/TR/2001/REC-SVG-20010904/DTD/svg10.dtd">
<svg width = "362pt" height = "79pt" viewBox = "0 0 362 79" xmlns = "http://www.w3.org/2000/svg" xmlns:xlink = "http://www.w3.org/1999/xlink">
	<defs>
		<style type = "text/css"><![CDATA[
rect.attrGroup { fill: ivory ; stroke: black; stroke-width: 1 }
rect.element { fill: ivory ; stroke: black; stroke-width: 1 }
rect.elTypeBkgnd { fill: lightgray ; stroke: none }
text.elName { font-family: helvetica ; font-size : 10 }
text.elType { font-family: helvetica ; font-size : 7 }
text.occurLarge { font-family: helvetica ; font-size : 9; fill : blue }
text.occurSmall { font-family: helvetica ; font-size : 7; fill : blue }
rect.typeIconDark { fill : darkslategray }
circle.occurs { stroke : black ; stroke-width: 1; fill : white }
circle.ellipsis { fill : black }
path.typeIconDark { stroke : lightgray ; stroke-width: 1 }
path.connector { stroke : red ; stroke-width: 1 ; fill: none; }
path.modelGroup { stroke : black ; stroke-width: 1 ; fill: lightgray; }
polyline.connector { stroke : red ; stroke-width: 1 ; fill: none; }
.nodeStyle { fill : blue }
]]></style>
	</defs>
	<rect x = "138" y = "5" width = "219" height = "37" class = "attrGroup" rx = "5" ry = "5"/>
	<rect x = "143" y = "10" width = "91" height = "27" class = "element" rx = "5" ry = "5"/>
	<circle class = "nodeStyle" cx = "149" cy = "16" r = "4"/>
	<text x = "154" y = "21" class = "elName">FieldDelimiter</text>
	<rect x = "144" y = "11" width = "89" height = "25" class = "elTypeBkgnd" rx = "5" ry = "5" clip-path = "url(#e:DelimitedRecord/a:FieldDelimiter)"/>
	<defs/>
	<clipPath id = "e:DelimitedRecord/a:FieldDelimiter">
		<rect x = "143" y = "25" width = "91" height = "11"/>
	</clipPath>
	<text x = "144" y = "33" class = "elType">string</text>
	<image xlink:href = "../dgmDtString.gif" width = "10" height = "10" x = "224" y = "20"/>
	<circle class = "occurs" cx = "245" cy = "23" r = "6"/>
	<text x = "242" y = "26" class = "occurLarge">D</text>
	<rect x = "251" y = "10" width = "101" height = "27" class = "element" rx = "5" ry = "5"/>
	<circle class = "nodeStyle" cx = "257" cy = "16" r = "4"/>
	<text x = "262" y = "21" class = "elName">RecordDelimiter</text>
	<rect x = "252" y = "11" width = "99" height = "25" class = "elTypeBkgnd" rx = "5" ry = "5" clip-path = "url(#e:DelimitedRecord/a:RecordDelimiter)"/>
	<defs/>
	<clipPath id = "e:DelimitedRecord/a:RecordDelimiter">
		<rect x = "251" y = "25" width = "101" height = "11"/>
	</clipPath>
	<text x = "252" y = "33" class = "elType">string</text>
	<image xlink:href = "../dgmDtString.gif" width = "10" height = "10" x = "342" y = "20"/>
	<rect x = "5" y = "47" width = "103" height = "27" class = "element"/>
	<polygon class = "nodeStyle" points = "11,49 7,53 11,57 15,53"/>
	<text x = "16" y = "58" class = "elName">DelimitedRecord</text>
	<rect x = "6" y = "62" width = "101" height = "11" class = "elTypeBkgnd"/>
	<image xlink:href = "../dgmTypeComplex.gif" width = "10" height = "10" x = "98" y = "57"/>
	<polyline class = "connector" points = "108,60 138,60"/>
	<polyline class = "connector" points = "108,58 116,58 116,23 138,23"/>
	<circle class = "occurs" cx = "144" cy = "60" r = "6"/>
	<text x = "141" y = "63" class = "occurLarge">+</text>
	<rect x = "150" y = "47" width = "48" height = "27" class = "element"/>
	<polygon class = "nodeStyle" points = "156,49 152,53 156,57 160,53"/>
	<text x = "161" y = "58" class = "elName">Input</text>
	<rect x = "151" y = "62" width = "46" height = "11" class = "elTypeBkgnd"/>
	<image xlink:href = "../dgmTypeEmpty.gif" width = "10" height = "10" x = "188" y = "57"/>
</svg>