<?xml version = "1.0"?>
<!DOCTYPE svg PUBLIC "-//W3C//DTD SVG 20010904//EN" "http://www.w3.org/TR/2001/REC-SVG-20010904/DTD/svg10.dtd">
<svg width = "207pt" height = "105pt" viewBox = "0 0 207 105" xmlns = "http://www.w3.org/2000/svg" xmlns:xlink = "http://www.w3.org/1999/xlink">
	<defs>
		<style type = "text/css"><![CDATA[
rect.attrGroup { fill: ivory ; stroke: black; stroke-width: 1 }
rect.element { fill: ivory ; stroke: black; stroke-width: 1 }
rect.elTypeBkgnd { fill: lightgray ; stroke: none }
text.elName { font-family: helvetica ; font-size : 10 }
text.elType { font-family: helvetica ; font-size : 7 }
text.occurLarge { font-family: helvetica ; font-size : 9; fill : blue }
text.occurSmall { font-family: helvetica ; font-size : 7; fill : blue }
rect.typeIconDark { fill : darkslategray }
circle.occurs { stroke : black ; stroke-width: 1; fill : white }
circle.ellipsis { fill : black }
path.typeIconDark { stroke : lightgray ; stroke-width: 1 }
path.connector { stroke : red ; stroke-width: 1 ; fill: none; }
path.modelGroup { stroke : black ; stroke-width: 1 ; fill: lightgray; }
polyline.connector { stroke : red ; stroke-width: 1 ; fill: none; }
.nodeStyle { fill : blue }
]]></style>
	</defs>
	<rect x = "5" y = "39" width = "86" height = "27" class = "element"/>
	<polygon class = "nodeStyle" points = "11,41 7,45 11,49 15,45"/>
	<text x = "16" y = "50" class = "elName">IterateRange</text>
	<rect x = "6" y = "54" width = "84" height = "11" class = "elTypeBkgnd"/>
	<image xlink:href = "../dgmTypeComplex.gif" width = "10" height = "10" x = "81" y = "49"/>
	<polyline class = "connector" points = "121,18 101,18 101,52 91,52 101,52 101,86 121,86"/>
	<polyline class = "connector" points = "121,18 133,18"/>
	<rect x = "133" y = "5" width = "46" height = "27" class = "element"/>
	<polygon class = "nodeStyle" points = "139,7 135,11 139,15 143,11"/>
	<text x = "144" y = "16" class = "elName">Start</text>
	<rect x = "134" y = "20" width = "44" height = "11" class = "elTypeBkgnd"/>
	<image xlink:href = "../dgmTypeEmpty.gif" width = "10" height = "10" x = "169" y = "15"/>
	<rect x = "133" y = "39" width = "40" height = "27" class = "element"/>
	<polygon class = "nodeStyle" points = "139,41 135,45 139,49 143,45"/>
	<text x = "144" y = "50" class = "elName">End</text>
	<rect x = "134" y = "54" width = "38" height = "11" class = "elTypeBkgnd"/>
	<image xlink:href = "../dgmTypeEmpty.gif" width = "10" height = "10" x = "163" y = "49"/>
	<circle class = "occurs" cx = "127" cy = "86" r = "6"/>
	<text x = "124" y = "89" class = "occurLarge">+</text>
	<rect x = "133" y = "73" width = "69" height = "27" class = "element"/>
	<polygon class = "nodeStyle" points = "139,75 135,79 139,83 143,79"/>
	<text x = "144" y = "84" class = "elName">OutputTo</text>
	<rect x = "134" y = "88" width = "67" height = "11" class = "elTypeBkgnd"/>
	<image xlink:href = "../dgmTypeEmpty.gif" width = "10" height = "10" x = "192" y = "83"/>
</svg>