<?xml version = "1.0"?>
<!DOCTYPE svg PUBLIC "-//W3C//DTD SVG 20010904//EN" "http://www.w3.org/TR/2001/REC-SVG-20010904/DTD/svg10.dtd">
<svg width = "385pt" height = "179pt" viewBox = "0 0 385 179" xmlns = "http://www.w3.org/2000/svg" xmlns:xlink = "http://www.w3.org/1999/xlink">
	<defs>
		<style type = "text/css"><![CDATA[
rect.attrGroup { fill: ivory ; stroke: black; stroke-width: 1 }
rect.element { fill: ivory ; stroke: black; stroke-width: 1 }
rect.elTypeBkgnd { fill: lightgray ; stroke: none }
text.elName { font-family: helvetica ; font-size : 10 }
text.elType { font-family: helvetica ; font-size : 7 }
text.occurLarge { font-family: helvetica ; font-size : 9; fill : blue }
text.occurSmall { font-family: helvetica ; font-size : 7; fill : blue }
rect.typeIconDark { fill : darkslategray }
circle.occurs { stroke : black ; stroke-width: 1; fill : white }
circle.ellipsis { fill : black }
path.typeIconDark { stroke : lightgray ; stroke-width: 1 }
path.connector { stroke : red ; stroke-width: 1 ; fill: none; }
path.modelGroup { stroke : black ; stroke-width: 1 ; fill: lightgray; }
polyline.connector { stroke : red ; stroke-width: 1 ; fill: none; }
.nodeStyle { fill : blue }
]]></style>
	</defs>
	<rect x = "97" y = "5" width = "283" height = "69" class = "attrGroup" rx = "5" ry = "5"/>
	<rect x = "102" y = "10" width = "52" height = "27" class = "element" rx = "5" ry = "5"/>
	<circle class = "nodeStyle" cx = "108" cy = "16" r = "4"/>
	<text x = "113" y = "21" class = "elName">Pixels</text>
	<rect x = "103" y = "11" width = "50" height = "25" class = "elTypeBkgnd" rx = "5" ry = "5" clip-path = "url(#e:XYPlane/a:Pixels)"/>
	<defs/>
	<clipPath id = "e:XYPlane/a:Pixels">
		<rect x = "102" y = "25" width = "52" height = "11"/>
	</clipPath>
	<text x = "103" y = "33" class = "elType">string</text>
	<image xlink:href = "../dgmDtString.gif" width = "10" height = "10" x = "144" y = "20"/>
	<circle class = "occurs" cx = "254" cy = "23" r = "6"/>
	<text x = "251" y = "26" class = "occurLarge">?</text>
	<rect x = "260" y = "10" width = "41" height = "27" class = "element" rx = "5" ry = "5"/>
	<circle class = "nodeStyle" cx = "266" cy = "16" r = "4"/>
	<text x = "271" y = "21" class = "elName">BPP</text>
	<rect x = "261" y = "11" width = "39" height = "25" class = "elTypeBkgnd" rx = "5" ry = "5" clip-path = "url(#e:XYPlane/a:BPP)"/>
	<defs/>
	<clipPath id = "e:XYPlane/a:BPP">
		<rect x = "260" y = "25" width = "41" height = "11"/>
	</clipPath>
	<image xlink:href = "../dgmDtInteger.gif" width = "10" height = "10" x = "291" y = "20"/>
	<circle class = "occurs" cx = "108" cy = "55" r = "6"/>
	<text x = "105" y = "58" class = "occurLarge">?</text>
	<rect x = "114" y = "42" width = "55" height = "27" class = "element" rx = "5" ry = "5"/>
	<circle class = "nodeStyle" cx = "120" cy = "48" r = "4"/>
	<text x = "125" y = "53" class = "elName">Return</text>
	<rect x = "115" y = "43" width = "53" height = "25" class = "elTypeBkgnd" rx = "5" ry = "5" clip-path = "url(#e:XYPlane/a:Return)"/>
	<defs/>
	<clipPath id = "e:XYPlane/a:Return">
		<rect x = "114" y = "57" width = "55" height = "11"/>
	</clipPath>
	<image xlink:href = "../dgmDtString.gif" width = "10" height = "10" x = "159" y = "52"/>
	<circle class = "occurs" cx = "312" cy = "23" r = "6"/>
	<text x = "309" y = "26" class = "occurLarge">?</text>
	<rect x = "318" y = "10" width = "57" height = "27" class = "element" rx = "5" ry = "5"/>
	<circle class = "nodeStyle" cx = "324" cy = "16" r = "4"/>
	<text x = "329" y = "21" class = "elName">Format</text>
	<rect x = "319" y = "11" width = "55" height = "25" class = "elTypeBkgnd" rx = "5" ry = "5" clip-path = "url(#e:XYPlane/a:Format)"/>
	<defs/>
	<clipPath id = "e:XYPlane/a:Format">
		<rect x = "318" y = "25" width = "57" height = "11"/>
	</clipPath>
	<image xlink:href = "../dgmDtString.gif" width = "10" height = "10" x = "365" y = "20"/>
	<circle class = "occurs" cx = "165" cy = "23" r = "6"/>
	<text x = "162" y = "26" class = "occurLarge">?</text>
	<rect x = "171" y = "10" width = "72" height = "27" class = "element" rx = "5" ry = "5"/>
	<circle class = "nodeStyle" cx = "177" cy = "16" r = "4"/>
	<text x = "182" y = "21" class = "elName">XYPlaneID</text>
	<rect x = "172" y = "11" width = "70" height = "25" class = "elTypeBkgnd" rx = "5" ry = "5" clip-path = "url(#e:XYPlane/a:XYPlaneID)"/>
	<defs/>
	<clipPath id = "e:XYPlane/a:XYPlaneID">
		<rect x = "171" y = "25" width = "72" height = "11"/>
	</clipPath>
	<text x = "172" y = "33" class = "elType">string</text>
	<image xlink:href = "../dgmDtString.gif" width = "10" height = "10" x = "233" y = "20"/>
	<rect x = "5" y = "113" width = "62" height = "27" class = "element"/>
	<polygon class = "nodeStyle" points = "11,115 7,119 11,123 15,119"/>
	<text x = "16" y = "124" class = "elName">XYPlane</text>
	<rect x = "6" y = "128" width = "60" height = "11" class = "elTypeBkgnd"/>
	<image xlink:href = "../dgmTypeComplex.gif" width = "10" height = "10" x = "57" y = "123"/>
	<polyline class = "connector" points = "97,92 77,92 77,126 67,126 77,126 77,160 97,160"/>
	<polyline class = "connector" points = "67,124 75,124 75,39 97,39"/>
	<polyline class = "connector" points = "97,92 109,92"/>
	<rect x = "109" y = "79" width = "45" height = "27" class = "element"/>
	<polygon class = "nodeStyle" points = "115,81 111,85 115,89 119,85"/>
	<text x = "120" y = "90" class = "elName">theZ</text>
	<rect x = "110" y = "94" width = "43" height = "11" class = "elTypeBkgnd"/>
	<image xlink:href = "../dgmTypeComplex.gif" width = "10" height = "10" x = "144" y = "89"/>
	<rect x = "109" y = "113" width = "45" height = "27" class = "element"/>
	<polygon class = "nodeStyle" points = "115,115 111,119 115,123 119,119"/>
	<text x = "120" y = "124" class = "elName">theT</text>
	<rect x = "110" y = "128" width = "43" height = "11" class = "elTypeBkgnd"/>
	<image xlink:href = "../dgmTypeComplex.gif" width = "10" height = "10" x = "144" y = "123"/>
	<polyline class = "connector" points = "97,160 109,160"/>
	<rect x = "109" y = "147" width = "48" height = "27" class = "element"/>
	<polygon class = "nodeStyle" points = "115,149 111,153 115,157 119,153"/>
	<text x = "120" y = "158" class = "elName">theW</text>
	<rect x = "110" y = "162" width = "46" height = "11" class = "elTypeBkgnd"/>
	<image xlink:href = "../dgmTypeComplex.gif" width = "10" height = "10" x = "147" y = "157"/>
</svg>