<?xml version = "1.0"?>
<!DOCTYPE svg PUBLIC "-//W3C//DTD SVG 20010904//EN" "http://www.w3.org/TR/2001/REC-SVG-20010904/DTD/svg10.dtd">
<svg width = "402pt" height = "147pt" viewBox = "0 0 402 147" xmlns = "http://www.w3.org/2000/svg" xmlns:xlink = "http://www.w3.org/1999/xlink">
	<defs>
		<style type = "text/css"><![CDATA[
rect.attrGroup { fill: ivory ; stroke: black; stroke-width: 1 }
rect.element { fill: ivory ; stroke: black; stroke-width: 1 }
rect.elTypeBkgnd { fill: lightgray ; stroke: none }
text.elName { font-family: helvetica ; font-size : 10 }
text.elType { font-family: helvetica ; font-size : 7 }
text.occurLarge { font-family: helvetica ; font-size : 9; fill : blue }
text.occurSmall { font-family: helvetica ; font-size : 7; fill : blue }
rect.typeIconDark { fill : darkslategray }
circle.occurs { stroke : black ; stroke-width: 1; fill : white }
circle.ellipsis { fill : black }
path.typeIconDark { stroke : lightgray ; stroke-width: 1 }
path.connector { stroke : red ; stroke-width: 1 ; fill: none; }
path.modelGroup { stroke : black ; stroke-width: 1 ; fill: lightgray; }
polyline.connector { stroke : red ; stroke-width: 1 ; fill: none; }
.nodeStyle { fill : blue }
]]></style>
	</defs>
	<rect x = "162" y = "5" width = "235" height = "37" class = "attrGroup" rx = "5" ry = "5"/>
	<rect x = "167" y = "10" width = "95" height = "27" class = "element" rx = "5" ry = "5"/>
	<circle class = "nodeStyle" cx = "173" cy = "16" r = "4"/>
	<text x = "178" y = "21" class = "elName">ExecutionPoint</text>
	<rect x = "168" y = "11" width = "93" height = "25" class = "elTypeBkgnd" rx = "5" ry = "5" clip-path = "url(#e:ExecutionInstructions/a:ExecutionPoint)"/>
	<defs/>
	<clipPath id = "e:ExecutionInstructions/a:ExecutionPoint">
		<rect x = "167" y = "25" width = "95" height = "11"/>
	</clipPath>
	<image xlink:href = "../dgmDtString.gif" width = "10" height = "10" x = "252" y = "20"/>
	<circle class = "occurs" cx = "273" cy = "23" r = "6"/>
	<text x = "270" y = "26" class = "occurLarge">D</text>
	<rect x = "279" y = "10" width = "113" height = "27" class = "element" rx = "5" ry = "5"/>
	<circle class = "nodeStyle" cx = "285" cy = "16" r = "4"/>
	<text x = "290" y = "21" class = "elName">MakesNewFeature</text>
	<rect x = "280" y = "11" width = "111" height = "25" class = "elTypeBkgnd" rx = "5" ry = "5" clip-path = "url(#e:ExecutionInstructions/a:MakesNewFeature)"/>
	<defs/>
	<clipPath id = "e:ExecutionInstructions/a:MakesNewFeature">
		<rect x = "279" y = "25" width = "113" height = "11"/>
	</clipPath>
	<text x = "280" y = "33" class = "elType">boolean</text>
	<image xlink:href = "../dgmDtBoolean.gif" width = "10" height = "10" x = "382" y = "20"/>
	<rect x = "5" y = "81" width = "127" height = "27" class = "element"/>
	<polygon class = "nodeStyle" points = "11,83 7,87 11,91 15,87"/>
	<text x = "16" y = "92" class = "elName">ExecutionInstructions</text>
	<rect x = "6" y = "96" width = "125" height = "11" class = "elTypeBkgnd"/>
	<image xlink:href = "../dgmTypeComplex.gif" width = "10" height = "10" x = "122" y = "91"/>
	<polyline class = "connector" points = "162,60 142,60 142,94 132,94 142,94 142,128 162,128"/>
	<polyline class = "connector" points = "132,92 140,92 140,23 162,23"/>
	<circle class = "occurs" cx = "168" cy = "60" r = "6"/>
	<text x = "165" y = "63" class = "occurLarge">?</text>
	<rect x = "174" y = "47" width = "92" height = "27" class = "element"/>
	<polygon class = "nodeStyle" points = "180,49 176,53 180,57 184,53"/>
	<text x = "185" y = "58" class = "elName">CommandLine</text>
	<rect x = "175" y = "62" width = "90" height = "11" class = "elTypeBkgnd"/>
	<image xlink:href = "../dgmTypeComplex.gif" width = "10" height = "10" x = "256" y = "57"/>
	<circle class = "occurs" cx = "168" cy = "94" r = "6"/>
	<text x = "165" y = "97" class = "occurLarge">?</text>
	<rect x = "174" y = "81" width = "51" height = "27" class = "element"/>
	<polygon class = "nodeStyle" points = "180,83 176,87 180,91 184,87"/>
	<text x = "185" y = "92" class = "elName">STDIN</text>
	<rect x = "175" y = "96" width = "49" height = "11" class = "elTypeBkgnd"/>
	<image xlink:href = "../dgmTypeComplex.gif" width = "10" height = "10" x = "215" y = "91"/>
	<circle class = "occurs" cx = "168" cy = "128" r = "6"/>
	<text x = "165" y = "131" class = "occurLarge">?</text>
	<rect x = "174" y = "115" width = "62" height = "27" class = "element"/>
	<polygon class = "nodeStyle" points = "180,117 176,121 180,125 184,121"/>
	<text x = "185" y = "126" class = "elName">STDOUT</text>
	<rect x = "175" y = "130" width = "60" height = "11" class = "elTypeBkgnd"/>
	<image xlink:href = "../dgmTypeComplex.gif" width = "10" height = "10" x = "226" y = "125"/>
</svg>