<?xml version = "1.0"?>
<!DOCTYPE svg PUBLIC "-//W3C//DTD SVG 20010904//EN" "http://www.w3.org/TR/2001/REC-SVG-20010904/DTD/svg10.dtd">
<svg width = "178pt" height = "79pt" viewBox = "0 0 178 79" xmlns = "http://www.w3.org/2000/svg" xmlns:xlink = "http://www.w3.org/1999/xlink">
	<defs>
		<style type = "text/css"><![CDATA[
rect.attrGroup { fill: ivory ; stroke: black; stroke-width: 1 }
rect.element { fill: ivory ; stroke: black; stroke-width: 1 }
rect.elTypeBkgnd { fill: lightgray ; stroke: none }
text.elName { font-family: helvetica ; font-size : 10 }
text.elType { font-family: helvetica ; font-size : 7 }
text.occurLarge { font-family: helvetica ; font-size : 9; fill : blue }
text.occurSmall { font-family: helvetica ; font-size : 7; fill : blue }
rect.typeIconDark { fill : darkslategray }
circle.occurs { stroke : black ; stroke-width: 1; fill : white }
circle.ellipsis { fill : black }
path.typeIconDark { stroke : lightgray ; stroke-width: 1 }
path.connector { stroke : red ; stroke-width: 1 ; fill: none; }
path.modelGroup { stroke : black ; stroke-width: 1 ; fill: lightgray; }
polyline.connector { stroke : red ; stroke-width: 1 ; fill: none; }
.nodeStyle { fill : blue }
]]></style>
	</defs>
	<rect x = "92" y = "5" width = "77" height = "37" class = "attrGroup" rx = "5" ry = "5"/>
	<rect x = "97" y = "10" width = "67" height = "27" class = "element" rx = "5" ry = "5"/>
	<circle class = "nodeStyle" cx = "103" cy = "16" r = "4"/>
	<text x = "108" y = "21" class = "elName">AccessBy</text>
	<rect x = "98" y = "11" width = "65" height = "25" class = "elTypeBkgnd" rx = "5" ry = "5" clip-path = "url(#e:Output/a:AccessBy)"/>
	<defs/>
	<clipPath id = "e:Output/a:AccessBy">
		<rect x = "97" y = "25" width = "67" height = "11"/>
	</clipPath>
	<text x = "98" y = "33" class = "elType">int</text>
	<image xlink:href = "../dgmDtInteger.gif" width = "10" height = "10" x = "154" y = "20"/>
	<rect x = "5" y = "47" width = "57" height = "27" class = "element"/>
	<polygon class = "nodeStyle" points = "11,49 7,53 11,57 15,53"/>
	<text x = "16" y = "58" class = "elName">Output</text>
	<rect x = "6" y = "62" width = "55" height = "11" class = "elTypeBkgnd"/>
	<image xlink:href = "../dgmTypeComplex.gif" width = "10" height = "10" x = "52" y = "57"/>
	<polyline class = "connector" points = "62,60 92,60"/>
	<polyline class = "connector" points = "62,58 70,58 70,23 92,23"/>
	<circle class = "occurs" cx = "98" cy = "60" r = "6"/>
	<text x = "95" y = "63" class = "occurLarge">+</text>
	<rect x = "104" y = "47" width = "69" height = "27" class = "element"/>
	<polygon class = "nodeStyle" points = "110,49 106,53 110,57 114,53"/>
	<text x = "115" y = "58" class = "elName">OutputTo</text>
	<rect x = "105" y = "62" width = "67" height = "11" class = "elTypeBkgnd"/>
	<image xlink:href = "../dgmTypeEmpty.gif" width = "10" height = "10" x = "163" y = "57"/>
</svg>