<?xml version = "1.0"?>
<!DOCTYPE svg PUBLIC "-//W3C//DTD SVG 20010904//EN" "http://www.w3.org/TR/2001/REC-SVG-20010904/DTD/svg10.dtd">
<svg width = "339pt" height = "47pt" viewBox = "0 0 339 47" xmlns = "http://www.w3.org/2000/svg" xmlns:xlink = "http://www.w3.org/1999/xlink">
	<defs>
		<style type = "text/css"><![CDATA[
rect.attrGroup { fill: ivory ; stroke: black; stroke-width: 1 }
rect.element { fill: ivory ; stroke: black; stroke-width: 1 }
rect.elTypeBkgnd { fill: lightgray ; stroke: none }
text.elName { font-family: helvetica ; font-size : 10 }
text.elType { font-family: helvetica ; font-size : 7 }
text.occurLarge { font-family: helvetica ; font-size : 9; fill : blue }
text.occurSmall { font-family: helvetica ; font-size : 7; fill : blue }
rect.typeIconDark { fill : darkslategray }
circle.occurs { stroke : black ; stroke-width: 1; fill : white }
circle.ellipsis { fill : black }
path.typeIconDark { stroke : lightgray ; stroke-width: 1 }
path.connector { stroke : red ; stroke-width: 1 ; fill: none; }
path.modelGroup { stroke : black ; stroke-width: 1 ; fill: lightgray; }
polyline.connector { stroke : red ; stroke-width: 1 ; fill: none; }
.nodeStyle { fill : blue }
]]></style>
	</defs>
	<rect x = "5" y = "10" width = "90" height = "27" class = "element"/>
	<polygon class = "nodeStyle" points = "11,12 7,16 11,20 15,16"/>
	<text x = "16" y = "21" class = "elName">OutputRecord</text>
	<rect x = "6" y = "25" width = "88" height = "11" class = "elTypeBkgnd"/>
	<image xlink:href = "../dgmTypeEmpty.gif" width = "10" height = "10" x = "85" y = "20"/>
	<polyline class = "connector" points = "95,23 125,23"/>
	<rect x = "125" y = "5" width = "209" height = "37" class = "attrGroup" rx = "5" ry = "5"/>
	<circle class = "occurs" cx = "136" cy = "23" r = "6"/>
	<text x = "133" y = "26" class = "occurLarge">?</text>
	<rect x = "142" y = "10" width = "84" height = "27" class = "element" rx = "5" ry = "5"/>
	<circle class = "nodeStyle" cx = "148" cy = "16" r = "4"/>
	<text x = "153" y = "21" class = "elName">TerminateAt</text>
	<rect x = "143" y = "11" width = "82" height = "25" class = "elTypeBkgnd" rx = "5" ry = "5" clip-path = "url(#e:OutputRecord/a:TerminateAt)"/>
	<defs/>
	<clipPath id = "e:OutputRecord/a:TerminateAt">
		<rect x = "142" y = "25" width = "84" height = "11"/>
	</clipPath>
	<text x = "143" y = "33" class = "elType">string</text>
	<image xlink:href = "../dgmDtString.gif" width = "10" height = "10" x = "216" y = "20"/>
	<circle class = "occurs" cx = "237" cy = "23" r = "6"/>
	<text x = "234" y = "26" class = "occurLarge">?</text>
	<rect x = "243" y = "10" width = "86" height = "27" class = "element" rx = "5" ry = "5"/>
	<circle class = "nodeStyle" cx = "249" cy = "16" r = "4"/>
	<text x = "254" y = "21" class = "elName">RepeatCount</text>
	<rect x = "244" y = "11" width = "84" height = "25" class = "elTypeBkgnd" rx = "5" ry = "5" clip-path = "url(#e:OutputRecord/a:RepeatCount)"/>
	<defs/>
	<clipPath id = "e:OutputRecord/a:RepeatCount">
		<rect x = "243" y = "25" width = "86" height = "11"/>
	</clipPath>
	<text x = "244" y = "33" class = "elType">positiveInteger</text>
	<image xlink:href = "../dgmDtInteger.gif" width = "10" height = "10" x = "319" y = "20"/>
</svg>