<?xml version = "1.0"?>
<!DOCTYPE svg PUBLIC "-//W3C//DTD SVG 20010904//EN" "http://www.w3.org/TR/2001/REC-SVG-20010904/DTD/svg10.dtd">
<svg width = "278pt" height = "105pt" viewBox = "0 0 278 105" xmlns = "http://www.w3.org/2000/svg" xmlns:xlink = "http://www.w3.org/1999/xlink">
	<defs>
		<style type = "text/css"><![CDATA[
rect.attrGroup { fill: ivory ; stroke: black; stroke-width: 1 }
rect.element { fill: ivory ; stroke: black; stroke-width: 1 }
rect.elTypeBkgnd { fill: lightgray ; stroke: none }
text.elName { font-family: helvetica ; font-size : 10 }
text.elType { font-family: helvetica ; font-size : 7 }
text.occurLarge { font-family: helvetica ; font-size : 9; fill : blue }
text.occurSmall { font-family: helvetica ; font-size : 7; fill : blue }
rect.typeIconDark { fill : darkslategray }
circle.occurs { stroke : black ; stroke-width: 1; fill : white }
circle.ellipsis { fill : black }
path.typeIconDark { stroke : lightgray ; stroke-width: 1 }
path.connector { stroke : red ; stroke-width: 1 ; fill: none; }
path.modelGroup { stroke : black ; stroke-width: 1 ; fill: lightgray; }
polyline.connector { stroke : red ; stroke-width: 1 ; fill: none; }
.nodeStyle { fill : blue }
]]></style>
	</defs>
	<rect x = "5" y = "39" width = "81" height = "27" class = "element"/>
	<polygon class = "nodeStyle" points = "11,41 7,45 11,49 15,45"/>
	<text x = "16" y = "50" class = "elName">InputRecord</text>
	<rect x = "6" y = "54" width = "79" height = "11" class = "elTypeBkgnd"/>
	<image xlink:href = "../dgmTypeComplex.gif" width = "10" height = "10" x = "76" y = "49"/>
	<polyline class = "connector" points = "116,18 96,18 96,52 86,52 96,52 96,69 116,69"/>
	<circle class = "occurs" cx = "122" cy = "18" r = "6"/>
	<text x = "119" y = "21" class = "occurLarge">+</text>
	<rect x = "128" y = "5" width = "50" height = "27" class = "element"/>
	<polygon class = "nodeStyle" points = "134,7 130,11 134,15 138,11"/>
	<text x = "139" y = "16" class = "elName">Index</text>
	<rect x = "129" y = "20" width = "48" height = "11" class = "elTypeBkgnd"/>
	<image xlink:href = "../dgmTypeComplex.gif" width = "10" height = "10" x = "168" y = "15"/>
	<circle class = "occurs" cx = "122" cy = "69" r = "6"/>
	<text x = "119" y = "72" class = "occurLarge">1</text>
	<polyline class = "connector" points = "158,52 138,69 128,69 138,69 158,86"/>
	<polyline class = "connector" points = "158,52 170,52"/>
	<rect x = "170" y = "39" width = "103" height = "27" class = "element"/>
	<polygon class = "nodeStyle" points = "176,41 172,45 176,49 180,45"/>
	<text x = "181" y = "50" class = "elName">DelimitedRecord</text>
	<rect x = "171" y = "54" width = "101" height = "11" class = "elTypeBkgnd"/>
	<image xlink:href = "../dgmTypeComplex.gif" width = "10" height = "10" x = "263" y = "49"/>
	<polyline class = "connector" points = "158,86 170,86"/>
	<rect x = "170" y = "73" width = "93" height = "27" class = "element"/>
	<polygon class = "nodeStyle" points = "176,75 172,79 176,83 180,79"/>
	<text x = "181" y = "84" class = "elName">CustomRecord</text>
	<rect x = "171" y = "88" width = "91" height = "11" class = "elTypeBkgnd"/>
	<image xlink:href = "../dgmTypeComplex.gif" width = "10" height = "10" x = "253" y = "83"/>
</svg>