<?xml version = "1.0"?>
<!DOCTYPE svg PUBLIC "-//W3C//DTD SVG 20010904//EN" "http://www.w3.org/TR/2001/REC-SVG-20010904/DTD/svg10.dtd">
<svg width = "375pt" height = "351pt" viewBox = "0 0 375 351" xmlns = "http://www.w3.org/2000/svg" xmlns:xlink = "http://www.w3.org/1999/xlink">
	<defs>
		<style type = "text/css"><![CDATA[
rect.attrGroup { fill: ivory ; stroke: black; stroke-width: 1 }
rect.element { fill: ivory ; stroke: black; stroke-width: 1 }
rect.elTypeBkgnd { fill: lightgray ; stroke: none }
text.elName { font-family: helvetica ; font-size : 10 }
text.elType { font-family: helvetica ; font-size : 7 }
text.occurLarge { font-family: helvetica ; font-size : 9; fill : blue }
text.occurSmall { font-family: helvetica ; font-size : 7; fill : blue }
rect.typeIconDark { fill : darkslategray }
circle.occurs { stroke : black ; stroke-width: 1; fill : white }
circle.ellipsis { fill : black }
path.typeIconDark { stroke : lightgray ; stroke-width: 1 }
path.connector { stroke : red ; stroke-width: 1 ; fill: none; }
path.modelGroup { stroke : black ; stroke-width: 1 ; fill: lightgray; }
polyline.connector { stroke : red ; stroke-width: 1 ; fill: none; }
.nodeStyle { fill : blue }
]]></style>
	</defs>
	<rect x = "116" y = "5" width = "254" height = "37" class = "attrGroup" rx = "5" ry = "5"/>
	<circle class = "occurs" cx = "127" cy = "23" r = "6"/>
	<text x = "124" y = "26" class = "occurLarge">?</text>
	<rect x = "133" y = "10" width = "44" height = "27" class = "element" rx = "5" ry = "5"/>
	<circle class = "nodeStyle" cx = "139" cy = "16" r = "4"/>
	<text x = "144" y = "21" class = "elName">type</text>
	<rect x = "134" y = "11" width = "42" height = "25" class = "elTypeBkgnd" rx = "5" ry = "5" clip-path = "url(#e:PixelOutput/a:type)"/>
	<defs/>
	<clipPath id = "e:PixelOutput/a:type">
		<rect x = "133" y = "25" width = "44" height = "11"/>
	</clipPath>
	<image xlink:href = "../dgmDtString.gif" width = "10" height = "10" x = "167" y = "20"/>
	<circle class = "occurs" cx = "295" cy = "23" r = "6"/>
	<text x = "292" y = "26" class = "occurLarge">?</text>
	<rect x = "301" y = "10" width = "64" height = "27" class = "element" rx = "5" ry = "5"/>
	<circle class = "nodeStyle" cx = "307" cy = "16" r = "4"/>
	<text x = "312" y = "21" class = "elName">UseBase</text>
	<rect x = "302" y = "11" width = "62" height = "25" class = "elTypeBkgnd" rx = "5" ry = "5" clip-path = "url(#e:PixelOutput/a:UseBase)"/>
	<defs/>
	<clipPath id = "e:PixelOutput/a:UseBase">
		<rect x = "301" y = "25" width = "64" height = "11"/>
	</clipPath>
	<text x = "302" y = "33" class = "elType">string</text>
	<image xlink:href = "../dgmDtString.gif" width = "10" height = "10" x = "355" y = "20"/>
	<circle class = "occurs" cx = "188" cy = "23" r = "6"/>
	<text x = "185" y = "26" class = "occurLarge">?</text>
	<rect x = "194" y = "10" width = "90" height = "27" class = "element" rx = "5" ry = "5"/>
	<circle class = "nodeStyle" cx = "200" cy = "16" r = "4"/>
	<text x = "205" y = "21" class = "elName">FormalOutput</text>
	<rect x = "195" y = "11" width = "88" height = "25" class = "elTypeBkgnd" rx = "5" ry = "5" clip-path = "url(#e:PixelOutput/a:FormalOutput)"/>
	<defs/>
	<clipPath id = "e:PixelOutput/a:FormalOutput">
		<rect x = "194" y = "25" width = "90" height = "11"/>
	</clipPath>
	<text x = "195" y = "33" class = "elType">string</text>
	<image xlink:href = "../dgmDtString.gif" width = "10" height = "10" x = "274" y = "20"/>
	<rect x = "5" y = "183" width = "81" height = "27" class = "element"/>
	<polygon class = "nodeStyle" points = "11,185 7,189 11,193 15,189"/>
	<text x = "16" y = "194" class = "elName">PixelOutput</text>
	<rect x = "6" y = "198" width = "79" height = "11" class = "elTypeBkgnd"/>
	<image xlink:href = "../dgmTypeComplex.gif" width = "10" height = "10" x = "76" y = "193"/>
	<polyline class = "connector" points = "116,60 96,60 96,196 86,196 96,196 96,332 116,332"/>
	<polyline class = "connector" points = "86,194 94,194 94,23 116,23"/>
	<circle class = "occurs" cx = "122" cy = "60" r = "6"/>
	<text x = "119" y = "63" class = "occurLarge">?</text>
	<rect x = "128" y = "47" width = "49" height = "27" class = "element"/>
	<polygon class = "nodeStyle" points = "134,49 130,53 134,57 138,53"/>
	<text x = "139" y = "58" class = "elName">SizeX</text>
	<rect x = "129" y = "62" width = "47" height = "11" class = "elTypeBkgnd"/>
	<image xlink:href = "../dgmTypeEmpty.gif" width = "10" height = "10" x = "167" y = "57"/>
	<circle class = "occurs" cx = "122" cy = "94" r = "6"/>
	<text x = "119" y = "97" class = "occurLarge">?</text>
	<rect x = "128" y = "81" width = "49" height = "27" class = "element"/>
	<polygon class = "nodeStyle" points = "134,83 130,87 134,91 138,87"/>
	<text x = "139" y = "92" class = "elName">SizeY</text>
	<rect x = "129" y = "96" width = "47" height = "11" class = "elTypeBkgnd"/>
	<image xlink:href = "../dgmTypeEmpty.gif" width = "10" height = "10" x = "167" y = "91"/>
	<circle class = "occurs" cx = "122" cy = "128" r = "6"/>
	<text x = "119" y = "131" class = "occurLarge">?</text>
	<rect x = "128" y = "115" width = "49" height = "27" class = "element"/>
	<polygon class = "nodeStyle" points = "134,117 130,121 134,125 138,121"/>
	<text x = "139" y = "126" class = "elName">SizeZ</text>
	<rect x = "129" y = "130" width = "47" height = "11" class = "elTypeBkgnd"/>
	<image xlink:href = "../dgmTypeEmpty.gif" width = "10" height = "10" x = "167" y = "125"/>
	<circle class = "occurs" cx = "122" cy = "162" r = "6"/>
	<text x = "119" y = "165" class = "occurLarge">?</text>
	<rect x = "128" y = "149" width = "50" height = "27" class = "element"/>
	<polygon class = "nodeStyle" points = "134,151 130,155 134,159 138,155"/>
	<text x = "139" y = "160" class = "elName">SizeC</text>
	<rect x = "129" y = "164" width = "48" height = "11" class = "elTypeBkgnd"/>
	<image xlink:href = "../dgmTypeEmpty.gif" width = "10" height = "10" x = "168" y = "159"/>
	<circle class = "occurs" cx = "122" cy = "196" r = "6"/>
	<text x = "119" y = "199" class = "occurLarge">?</text>
	<rect x = "128" y = "183" width = "49" height = "27" class = "element"/>
	<polygon class = "nodeStyle" points = "134,185 130,189 134,193 138,189"/>
	<text x = "139" y = "194" class = "elName">SizeT</text>
	<rect x = "129" y = "198" width = "47" height = "11" class = "elTypeBkgnd"/>
	<image xlink:href = "../dgmTypeEmpty.gif" width = "10" height = "10" x = "167" y = "193"/>
	<circle class = "occurs" cx = "122" cy = "230" r = "6"/>
	<text x = "119" y = "233" class = "occurLarge">?</text>
	<rect x = "128" y = "217" width = "70" height = "27" class = "element"/>
	<polygon class = "nodeStyle" points = "134,219 130,223 134,227 138,223"/>
	<text x = "139" y = "228" class = "elName">PixelType</text>
	<rect x = "129" y = "232" width = "68" height = "11" class = "elTypeBkgnd"/>
	<image xlink:href = "../dgmTypeEmpty.gif" width = "10" height = "10" x = "188" y = "227"/>
	<circle class = "occurs" cx = "122" cy = "264" r = "6"/>
	<text x = "119" y = "267" class = "occurLarge">?</text>
	<rect x = "128" y = "251" width = "81" height = "27" class = "element"/>
	<polygon class = "nodeStyle" points = "134,253 130,257 134,261 138,257"/>
	<text x = "139" y = "262" class = "elName">BitsPerPixel</text>
	<rect x = "129" y = "266" width = "79" height = "11" class = "elTypeBkgnd"/>
	<image xlink:href = "../dgmTypeEmpty.gif" width = "10" height = "10" x = "199" y = "261"/>
	<circle class = "occurs" cx = "122" cy = "298" r = "6"/>
	<text x = "119" y = "301" class = "occurLarge">?</text>
	<rect x = "128" y = "285" width = "74" height = "27" class = "element"/>
	<polygon class = "nodeStyle" points = "134,287 130,291 134,295 138,291"/>
	<text x = "139" y = "296" class = "elName">Repository</text>
	<rect x = "129" y = "300" width = "72" height = "11" class = "elTypeBkgnd"/>
	<image xlink:href = "../dgmTypeEmpty.gif" width = "10" height = "10" x = "192" y = "295"/>
	<circle class = "occurs" cx = "122" cy = "332" r = "6"/>
	<text x = "119" y = "335" class = "occurLarge">?</text>
	<rect x = "128" y = "319" width = "45" height = "27" class = "element"/>
	<polygon class = "nodeStyle" points = "134,321 130,325 134,329 138,325"/>
	<text x = "139" y = "330" class = "elName">Path</text>
	<rect x = "129" y = "334" width = "43" height = "11" class = "elTypeBkgnd"/>
	<image xlink:href = "../dgmTypeEmpty.gif" width = "10" height = "10" x = "163" y = "329"/>
</svg>