<?xml version="1.0" encoding="utf-8"?>
<!-- Generator: Adobe Illustrator 15.1.0, SVG Export Plug-In . SVG Version: 6.00 Build 0)  -->
<!DOCTYPE svg PUBLIC "-//W3C//DTD SVG 1.1//EN" "http://www.w3.org/Graphics/SVG/1.1/DTD/svg11.dtd">
<svg version="1.1" id="logo_-_color" xmlns="http://www.w3.org/2000/svg" xmlns:xlink="http://www.w3.org/1999/xlink" x="0px"
	 y="0px" width="8626px" height="1409px" viewBox="0 0 8626 1409" enable-background="new 0 0 8626 1409" xml:space="preserve">
<g>
	<g>
		<rect x="3002" y="656" fill="#1C4A87" width="315" height="100"/>
		<path fill="#1C4A87" d="M1746.52,760.605c-24.389-28.173-57.164-46.698-98.325-55.574c11.399-5.062,19.312-8.699,23.75-10.926
			c4.423-2.211,12.35-7.748,23.75-16.625c33.562-25.323,50.35-63.961,50.35-115.899c0-43.062-14.888-81.7-44.649-115.9
			c-16.477-18.361-41.014-32.838-73.625-43.616C1595.143,391.303,1556.355,386,1511.395,386H1253v664h290.694
			c91.2,0,155.161-20.633,191.899-61.81c31.662-35.462,47.5-76.341,47.5-122.579C1783.094,823.811,1770.893,788.794,1746.52,760.605
			z M1507.594,661H1365V489h143.544c41.162,0,71.562,7.167,91.2,21.091c19.623,13.938,29.45,36.668,29.45,68.329
			C1629.194,633.521,1588.656,661,1507.594,661z M1365,765h161.594c94.362,0,141.551,29.391,141.551,88.29
			c0,36.101-10.926,60.456-32.775,73.429c-21.85,12.988-53.363,19.281-94.525,19.281H1365V765z"/>
		<rect x="1947" y="386" fill="#1C4A87" width="112" height="664"/>
		<path fill="#DF283F" d="M2808.135,461.355c-67.139-65.549-150.1-98.324-248.9-98.324c-98.799,0-181.775,32.775-248.899,98.324
			c-67.138,65.551-100.7,147.25-100.7,245.101s33.562,179.55,100.7,245.101c67.124,65.549,150.101,98.324,248.899,98.324
			c98.801,0,181.762-32.775,248.9-98.324c67.123-65.551,100.7-147.25,100.7-245.101S2875.258,526.906,2808.135,461.355z
			 M2793.885,706.456c0,66.827-22.651,123.663-67.925,170.524c-45.288,46.877-100.863,70.301-166.726,70.301
			c-65.876,0-121.451-23.424-166.725-70.301c-45.288-46.861-67.925-103.697-67.925-170.524c0-66.812,22.637-123.648,67.925-170.524
			c45.273-46.862,100.849-70.301,166.725-70.301c65.862,0,121.438,23.438,166.726,70.301
			C2771.233,582.808,2793.885,639.645,2793.885,706.456z"/>
		<polyline fill="#1C4A87" points="3930,386 3488,386 3488,1050 3600,1050 3600,776 3914,776 3914,673 3600,673 3600,490 3930,490 
					"/>
		<path fill="#1C4A87" d="M4617.855,461.355c-67.139-65.549-150.101-98.324-248.9-98.324c-98.801,0-181.777,32.775-248.9,98.324
			c-67.139,65.551-100.699,147.25-100.699,245.101s33.561,179.55,100.699,245.101c67.123,65.549,150.1,98.324,248.9,98.324
			c98.8,0,181.762-32.775,248.9-98.324c67.123-65.551,100.699-147.25,100.699-245.101S4684.979,526.906,4617.855,461.355z
			 M4603.605,706.456c0,66.827-22.652,123.663-67.926,170.524c-45.288,46.877-100.863,70.301-166.725,70.301
			c-65.877,0-121.451-23.424-166.725-70.301c-45.289-46.861-67.926-103.697-67.926-170.524c0-66.812,22.637-123.648,67.926-170.524
			c45.273-46.862,100.848-70.301,166.725-70.301c65.861,0,121.437,23.438,166.725,70.301
			C4580.953,582.808,4603.605,639.645,4603.605,706.456z"/>
		<path fill="#1C4A87" d="M5255.291,808.641c95.623-28.5,143.45-97.553,143.45-207.13c0-75.361-21.851-130.08-65.55-164.28
			c-43.7-34.2-116.227-51.23-217.551-51.23H4868v664h112V827h147.991l158.649,223h142.5L5255.291,808.641z M4980,487h143.241
			c60.161,0,101.962,8.315,125.399,24.466c23.424,16.149,35.15,46.047,35.15,89.42c0,43.389-11.4,74.972-34.2,94.596
			c-22.8,19.638-65.876,29.519-129.2,29.519H4980V487z"/>
		<polygon fill="#1C4A87" points="6170.133,386 5969.684,803.05 5769.233,386 5594,386 5594,1050 5706,1050 5706,531.181 
			5937.384,992 6000.084,992 6232,531.181 6232,1050 6344,1050 6344,386 		"/>
		<path fill="#1C4A87" d="M6868.371,386h-108.299l-292.6,664h119.699l64.6-151h318.25l67.451,151h123.5L6868.371,386z
			 M6811.371,539.449l114,255.551h-227.049L6811.371,539.449z"/>
		<polygon fill="#1C4A87" points="7232,386 7232,488 7433,488 7433,1050 7545,1050 7545,488 7747,488 7747,386 		"/>
		<path fill="#1C4A87" d="M8318.529,723.08c-34.525-29.762-85.826-52.873-153.9-69.35c-68.088-16.461-112.574-31.824-133.475-46.074
			s-31.35-33.726-31.35-58.426c0-24.699,9.812-44.799,29.449-60.324c19.625-15.512,45.912-23.275,78.852-23.275
			c67.123,0,127.922,20.276,182.398,60.8l62.701-89.3c-72.201-50.023-153.277-75.051-243.201-75.051
			c-66.5,0-120.977,17.902-163.398,53.676c-42.439,35.788-63.65,83.125-63.65,142.025c0,58.899,19.623,103.238,58.9,133
			c19.623,15.838,42.111,28.662,67.449,38.475c25.324,9.826,62.373,20.588,111.15,32.3c48.762,11.727,83.125,24.7,103.074,38.95
			c19.951,14.25,29.926,34.199,29.926,59.85s-10.613,46.238-31.826,61.75c-21.227,15.527-49.875,23.275-85.975,23.275
			c-72.199,0-141.877-29.123-209-87.4l-70.299,84.551c80.422,71.576,172.572,107.35,276.449,107.35
			c70.924,0,128.25-18.051,171.949-54.15c43.701-36.1,65.551-83.125,65.551-141.074
			C8370.305,796.705,8353.041,752.857,8318.529,723.08z"/>
	</g>
	<g>
		<g>
			<path fill="#128669" d="M647.745,723.513c-8.357,4.775-18.56,10.603-22.673,12.948s-10.844,2.346-14.957,0
				s-14.316-8.173-22.673-12.948l-165.857-94.772c-8.357-4.775-22.032-4.775-30.389,0l-120.002,68.576
				c-8.357,4.775-8.357,12.59,0,17.364l331.205,189.246c8.357,4.774,22.032,4.774,30.389,0l331.205-189.246
				c8.356-4.774,8.357-12.589,0-17.364l-120.002-68.576c-8.357-4.775-22.032-4.775-30.389,0L647.745,723.513z"/>
		</g>
		<g>
			<path fill="#1D8DCD" d="M647.746,964.905c-8.357,4.774-18.561,10.612-22.674,12.974s-10.844,2.361-14.957,0
				s-14.316-8.199-22.674-12.974l-165.855-94.748c-8.357-4.774-22.033-4.774-30.391,0l-120,68.553
				c-8.357,4.774-8.358,12.588-0.001,17.362l331.205,189.246c8.357,4.774,22.032,4.774,30.389,0l331.205-189.246
				c8.356-4.774,8.356-12.588-0.001-17.362l-120-68.553c-8.357-4.774-22.033-4.774-30.391,0L647.746,964.905z"/>
		</g>
		<g>
			<path fill="#DF283F" d="M963.993,473.319c8.357-4.775,8.357-12.59,0-17.365L632.788,266.683c-8.356-4.775-22.031-4.775-30.388,0
				L271.194,455.954c-8.356,4.775-8.356,12.59,0,17.365L602.4,662.591c8.356,4.775,22.031,4.775,30.388,0L963.993,473.319z"/>
		</g>
	</g>
</g>
</svg>
