<?xml version = "1.0"?>
<!DOCTYPE svg PUBLIC "-//W3C//DTD SVG 20010904//EN" "http://www.w3.org/TR/2001/REC-SVG-20010904/DTD/svg10.dtd">
<svg width = "425pt" height = "145pt" viewBox = "0 0 425 145" xmlns = "http://www.w3.org/2000/svg" xmlns:xlink = "http://www.w3.org/1999/xlink">
	<defs>
		<style type = "text/css"><![CDATA[
rect.attrGroup { fill: ivory ; stroke: black; stroke-width: 1 }
rect.element { fill: ivory ; stroke: black; stroke-width: 1 }
rect.elTypeBkgnd { fill: lightgray ; stroke: none }
text.elName { font-family: helvetica ; font-size : 10 }
text.elType { font-family: helvetica ; font-size : 7 }
text.occurLarge { font-family: helvetica ; font-size : 9; fill : blue }
text.occurSmall { font-family: helvetica ; font-size : 7; fill : blue }
rect.typeIconDark { fill : darkslategray }
circle.occurs { stroke : black ; stroke-width: 1; fill : white }
circle.ellipsis { fill : black }
path.typeIconDark { stroke : lightgray ; stroke-width: 1 }
path.connector { stroke : red ; stroke-width: 1 ; fill: none; }
path.modelGroup { stroke : black ; stroke-width: 1 ; fill: lightgray; }
polyline.connector { stroke : red ; stroke-width: 1 ; fill: none; }
.nodeStyle { fill : blue }
]]></style>
	</defs>
	<rect x = "141" y = "5" width = "279" height = "69" class = "attrGroup" rx = "5" ry = "5"/>
	<rect x = "146" y = "10" width = "33" height = "27" class = "element" rx = "5" ry = "5"/>
	<circle class = "nodeStyle" cx = "152" cy = "16" r = "4"/>
	<text x = "157" y = "21" class = "elName">ID</text>
	<rect x = "147" y = "11" width = "31" height = "25" class = "elTypeBkgnd" rx = "5" ry = "5" clip-path = "url(#e:ModuleExecution/a:ID)"/>
	<defs/>
	<clipPath id = "e:ModuleExecution/a:ID">
		<rect x = "146" y = "25" width = "33" height = "11"/>
	</clipPath>
	<text x = "147" y = "33" class = "elType">string</text>
	<image xlink:href = "../dgmDtString.gif" width = "10" height = "10" x = "169" y = "20"/>
	<rect x = "272" y = "10" width = "61" height = "27" class = "element" rx = "5" ry = "5"/>
	<circle class = "nodeStyle" cx = "278" cy = "16" r = "4"/>
	<text x = "283" y = "21" class = "elName">Dataset</text>
	<rect x = "273" y = "11" width = "59" height = "25" class = "elTypeBkgnd" rx = "5" ry = "5" clip-path = "url(#e:ModuleExecution/a:Dataset)"/>
	<defs/>
	<clipPath id = "e:ModuleExecution/a:Dataset">
		<rect x = "272" y = "25" width = "61" height = "11"/>
	</clipPath>
	<text x = "273" y = "33" class = "elType">string</text>
	<image xlink:href = "../dgmDtString.gif" width = "10" height = "10" x = "323" y = "20"/>
	<circle class = "occurs" cx = "152" cy = "55" r = "6"/>
	<text x = "149" y = "58" class = "occurLarge">?</text>
	<rect x = "158" y = "42" width = "53" height = "27" class = "element" rx = "5" ry = "5"/>
	<circle class = "nodeStyle" cx = "164" cy = "48" r = "4"/>
	<text x = "169" y = "53" class = "elName">Status</text>
	<rect x = "159" y = "43" width = "51" height = "25" class = "elTypeBkgnd" rx = "5" ry = "5" clip-path = "url(#e:ModuleExecution/a:Status)"/>
	<defs/>
	<clipPath id = "e:ModuleExecution/a:Status">
		<rect x = "158" y = "57" width = "53" height = "11"/>
	</clipPath>
	<text x = "159" y = "65" class = "elType">string</text>
	<image xlink:href = "../dgmDtString.gif" width = "10" height = "10" x = "201" y = "52"/>
	<circle class = "occurs" cx = "304" cy = "55" r = "6"/>
	<text x = "301" y = "58" class = "occurLarge">?</text>
	<rect x = "310" y = "42" width = "59" height = "27" class = "element" rx = "5" ry = "5"/>
	<circle class = "nodeStyle" cx = "316" cy = "48" r = "4"/>
	<text x = "321" y = "53" class = "elName">Module</text>
	<rect x = "311" y = "43" width = "57" height = "25" class = "elTypeBkgnd" rx = "5" ry = "5" clip-path = "url(#e:ModuleExecution/a:Module)"/>
	<defs/>
	<clipPath id = "e:ModuleExecution/a:Module">
		<rect x = "310" y = "57" width = "59" height = "11"/>
	</clipPath>
	<text x = "311" y = "65" class = "elType">string</text>
	<image xlink:href = "../dgmDtString.gif" width = "10" height = "10" x = "359" y = "52"/>
	<rect x = "216" y = "42" width = "77" height = "27" class = "element" rx = "5" ry = "5"/>
	<circle class = "nodeStyle" cx = "222" cy = "48" r = "4"/>
	<text x = "227" y = "53" class = "elName">Timestamp</text>
	<rect x = "217" y = "43" width = "75" height = "25" class = "elTypeBkgnd" rx = "5" ry = "5" clip-path = "url(#e:ModuleExecution/a:Timestamp)"/>
	<defs/>
	<clipPath id = "e:ModuleExecution/a:Timestamp">
		<rect x = "216" y = "57" width = "77" height = "11"/>
	</clipPath>
	<text x = "217" y = "65" class = "elType">string</text>
	<image xlink:href = "../dgmDtString.gif" width = "10" height = "10" x = "283" y = "52"/>
	<circle class = "occurs" cx = "344" cy = "23" r = "6"/>
	<text x = "341" y = "26" class = "occurLarge">?</text>
	<rect x = "350" y = "10" width = "65" height = "27" class = "element" rx = "5" ry = "5"/>
	<circle class = "nodeStyle" cx = "356" cy = "16" r = "4"/>
	<text x = "361" y = "21" class = "elName">RunTime</text>
	<rect x = "351" y = "11" width = "63" height = "25" class = "elTypeBkgnd" rx = "5" ry = "5" clip-path = "url(#e:ModuleExecution/a:RunTime)"/>
	<defs/>
	<clipPath id = "e:ModuleExecution/a:RunTime">
		<rect x = "350" y = "25" width = "65" height = "11"/>
	</clipPath>
	<text x = "351" y = "33" class = "elType">string</text>
	<image xlink:href = "../dgmDtString.gif" width = "10" height = "10" x = "405" y = "20"/>
	<rect x = "184" y = "10" width = "83" height = "27" class = "element" rx = "5" ry = "5"/>
	<circle class = "nodeStyle" cx = "190" cy = "16" r = "4"/>
	<text x = "195" y = "21" class = "elName">Dependence</text>
	<rect x = "185" y = "11" width = "81" height = "25" class = "elTypeBkgnd" rx = "5" ry = "5" clip-path = "url(#e:ModuleExecution/a:Dependence)"/>
	<defs/>
	<clipPath id = "e:ModuleExecution/a:Dependence">
		<rect x = "184" y = "25" width = "83" height = "11"/>
	</clipPath>
	<image xlink:href = "../dgmDtString.gif" width = "10" height = "10" x = "257" y = "20"/>
	<rect x = "5" y = "96" width = "106" height = "27" class = "element"/>
	<polygon class = "nodeStyle" points = "11,98 7,102 11,106 15,102"/>
	<text x = "16" y = "107" class = "elName">ModuleExecution</text>
	<rect x = "6" y = "111" width = "104" height = "11" class = "elTypeBkgnd"/>
	<image xlink:href = "../dgmTypeComplex.gif" width = "10" height = "10" x = "101" y = "106"/>
	<polyline class = "connector" points = "141,92 121,92 121,109 111,109 121,109 121,126 141,126"/>
	<polyline class = "connector" points = "111,107 119,107 119,39 141,39"/>
	<circle class = "occurs" cx = "147" cy = "92" r = "6"/>
	<text x = "144" y = "95" class = "occurLarge">*</text>
	<rect x = "153" y = "79" width = "48" height = "27" class = "element"/>
	<polygon class = "nodeStyle" points = "159,81 155,85 159,89 163,85"/>
	<text x = "164" y = "90" class = "elName">Input</text>
	<rect x = "154" y = "94" width = "46" height = "11" class = "elTypeBkgnd"/>
	<image xlink:href = "../dgmTypeEmpty.gif" width = "10" height = "10" x = "191" y = "89"/>
	<circle class = "occurs" cx = "147" cy = "126" r = "6"/>
	<text x = "144" y = "129" class = "occurLarge">*</text>
	<rect x = "153" y = "113" width = "57" height = "27" class = "element"/>
	<polygon class = "nodeStyle" points = "159,115 155,119 159,123 163,119"/>
	<text x = "164" y = "124" class = "elName">Output</text>
	<rect x = "154" y = "128" width = "55" height = "11" class = "elTypeBkgnd"/>
	<image xlink:href = "../dgmTypeComplex.gif" width = "10" height = "10" x = "200" y = "123"/>
</svg>