<?xml version = "1.0"?>
<!DOCTYPE svg PUBLIC "-//W3C//DTD SVG 20010904//EN" "http://www.w3.org/TR/2001/REC-SVG-20010904/DTD/svg10.dtd">
<svg width = "390pt" height = "47pt" viewBox = "0 0 390 47" xmlns = "http://www.w3.org/2000/svg" xmlns:xlink = "http://www.w3.org/1999/xlink">
	<defs>
		<style type = "text/css"><![CDATA[
rect.attrGroup { fill: ivory ; stroke: black; stroke-width: 1 }
rect.element { fill: ivory ; stroke: black; stroke-width: 1 }
rect.elTypeBkgnd { fill: lightgray ; stroke: none }
text.elName { font-family: helvetica ; font-size : 10 }
text.elType { font-family: helvetica ; font-size : 7 }
text.occurLarge { font-family: helvetica ; font-size : 9; fill : blue }
text.occurSmall { font-family: helvetica ; font-size : 7; fill : blue }
rect.typeIconDark { fill : darkslategray }
circle.occurs { stroke : black ; stroke-width: 1; fill : white }
circle.ellipsis { fill : black }
path.typeIconDark { stroke : lightgray ; stroke-width: 1 }
path.connector { stroke : red ; stroke-width: 1 ; fill: none; }
path.modelGroup { stroke : black ; stroke-width: 1 ; fill: lightgray; }
polyline.connector { stroke : red ; stroke-width: 1 ; fill: none; }
.nodeStyle { fill : blue }
]]></style>
	</defs>
	<rect x = "5" y = "10" width = "60" height = "27" class = "element"/>
	<polygon class = "nodeStyle" points = "11,12 7,16 11,20 15,16"/>
	<text x = "16" y = "21" class = "elName">Column</text>
	<rect x = "6" y = "25" width = "58" height = "11" class = "elTypeBkgnd"/>
	<image xlink:href = "../dgmTypeEmpty.gif" width = "10" height = "10" x = "55" y = "20"/>
	<polyline class = "connector" points = "65,23 95,23"/>
	<rect x = "95" y = "5" width = "290" height = "37" class = "attrGroup" rx = "5" ry = "5"/>
	<rect x = "100" y = "10" width = "88" height = "27" class = "element" rx = "5" ry = "5"/>
	<circle class = "nodeStyle" cx = "106" cy = "16" r = "4"/>
	<text x = "111" y = "21" class = "elName">ColumnName</text>
	<rect x = "101" y = "11" width = "86" height = "25" class = "elTypeBkgnd" rx = "5" ry = "5" clip-path = "url(#e:Column/a:ColumnName)"/>
	<defs/>
	<clipPath id = "e:Column/a:ColumnName">
		<rect x = "100" y = "25" width = "88" height = "11"/>
	</clipPath>
	<text x = "101" y = "33" class = "elType">string</text>
	<image xlink:href = "../dgmDtString.gif" width = "10" height = "10" x = "178" y = "20"/>
	<circle class = "occurs" cx = "296" cy = "23" r = "6"/>
	<text x = "293" y = "26" class = "occurLarge">?</text>
	<rect x = "302" y = "10" width = "78" height = "27" class = "element" rx = "5" ry = "5"/>
	<circle class = "nodeStyle" cx = "308" cy = "16" r = "4"/>
	<text x = "313" y = "21" class = "elName">Description</text>
	<rect x = "303" y = "11" width = "76" height = "25" class = "elTypeBkgnd" rx = "5" ry = "5" clip-path = "url(#e:Column/a:Description)"/>
	<defs/>
	<clipPath id = "e:Column/a:Description">
		<rect x = "302" y = "25" width = "78" height = "11"/>
	</clipPath>
	<text x = "303" y = "33" class = "elType">string</text>
	<image xlink:href = "../dgmDtString.gif" width = "10" height = "10" x = "370" y = "20"/>
	<rect x = "193" y = "10" width = "92" height = "27" class = "element" rx = "5" ry = "5"/>
	<circle class = "nodeStyle" cx = "199" cy = "16" r = "4"/>
	<text x = "204" y = "21" class = "elName">SQL_DataType</text>
	<rect x = "194" y = "11" width = "90" height = "25" class = "elTypeBkgnd" rx = "5" ry = "5" clip-path = "url(#e:Column/a:SQL_DataType)"/>
	<defs/>
	<clipPath id = "e:Column/a:SQL_DataType">
		<rect x = "193" y = "25" width = "92" height = "11"/>
	</clipPath>
	<image xlink:href = "../dgmDtString.gif" width = "10" height = "10" x = "275" y = "20"/>
</svg>