<?xml version = "1.0"?>
<!DOCTYPE svg PUBLIC "-//W3C//DTD SVG 20010904//EN" "http://www.w3.org/TR/2001/REC-SVG-20010904/DTD/svg10.dtd">
<svg width = "478pt" height = "47pt" viewBox = "0 0 478 47" xmlns = "http://www.w3.org/2000/svg" xmlns:xlink = "http://www.w3.org/1999/xlink">
	<defs>
		<style type = "text/css"><![CDATA[
rect.attrGroup { fill: ivory ; stroke: black; stroke-width: 1 }
rect.element { fill: ivory ; stroke: black; stroke-width: 1 }
rect.elTypeBkgnd { fill: lightgray ; stroke: none }
text.elName { font-family: helvetica ; font-size : 10 }
text.elType { font-family: helvetica ; font-size : 7 }
text.occurLarge { font-family: helvetica ; font-size : 9; fill : blue }
text.occurSmall { font-family: helvetica ; font-size : 7; fill : blue }
rect.typeIconDark { fill : darkslategray }
circle.occurs { stroke : black ; stroke-width: 1; fill : white }
circle.ellipsis { fill : black }
path.typeIconDark { stroke : lightgray ; stroke-width: 1 }
path.connector { stroke : red ; stroke-width: 1 ; fill: none; }
path.modelGroup { stroke : black ; stroke-width: 1 ; fill: lightgray; }
polyline.connector { stroke : red ; stroke-width: 1 ; fill: none; }
.nodeStyle { fill : blue }
]]></style>
	</defs>
	<rect x = "5" y = "10" width = "106" height = "27" class = "element"/>
	<polygon class = "nodeStyle" points = "11,12 7,16 11,20 15,16"/>
	<text x = "16" y = "21" class = "elName">SemanticElement</text>
	<rect x = "6" y = "25" width = "104" height = "11" class = "elTypeBkgnd"/>
	<image xlink:href = "../dgmTypeEmpty.gif" width = "10" height = "10" x = "101" y = "20"/>
	<polyline class = "connector" points = "111,23 141,23"/>
	<rect x = "141" y = "5" width = "332" height = "37" class = "attrGroup" rx = "5" ry = "5"/>
	<rect x = "146" y = "10" width = "51" height = "27" class = "element" rx = "5" ry = "5"/>
	<circle class = "nodeStyle" cx = "152" cy = "16" r = "4"/>
	<text x = "157" y = "21" class = "elName">Name</text>
	<rect x = "147" y = "11" width = "49" height = "25" class = "elTypeBkgnd" rx = "5" ry = "5" clip-path = "url(#e:SemanticElement/a:Name)"/>
	<defs/>
	<clipPath id = "e:SemanticElement/a:Name">
		<rect x = "146" y = "25" width = "51" height = "11"/>
	</clipPath>
	<image xlink:href = "../dgmDtString.gif" width = "10" height = "10" x = "187" y = "20"/>
	<rect x = "297" y = "10" width = "78" height = "27" class = "element" rx = "5" ry = "5"/>
	<circle class = "nodeStyle" cx = "303" cy = "16" r = "4"/>
	<text x = "308" y = "21" class = "elName">TableName</text>
	<rect x = "298" y = "11" width = "76" height = "25" class = "elTypeBkgnd" rx = "5" ry = "5" clip-path = "url(#e:SemanticElement/a:TableName)"/>
	<defs/>
	<clipPath id = "e:SemanticElement/a:TableName">
		<rect x = "297" y = "25" width = "78" height = "11"/>
	</clipPath>
	<image xlink:href = "../dgmDtString.gif" width = "10" height = "10" x = "365" y = "20"/>
	<rect x = "380" y = "10" width = "88" height = "27" class = "element" rx = "5" ry = "5"/>
	<circle class = "nodeStyle" cx = "386" cy = "16" r = "4"/>
	<text x = "391" y = "21" class = "elName">ColumnName</text>
	<rect x = "381" y = "11" width = "86" height = "25" class = "elTypeBkgnd" rx = "5" ry = "5" clip-path = "url(#e:SemanticElement/a:ColumnName)"/>
	<defs/>
	<clipPath id = "e:SemanticElement/a:ColumnName">
		<rect x = "380" y = "25" width = "88" height = "11"/>
	</clipPath>
	<image xlink:href = "../dgmDtString.gif" width = "10" height = "10" x = "458" y = "20"/>
	<circle class = "occurs" cx = "208" cy = "23" r = "6"/>
	<text x = "205" y = "26" class = "occurLarge">?</text>
	<rect x = "214" y = "10" width = "78" height = "27" class = "element" rx = "5" ry = "5"/>
	<circle class = "nodeStyle" cx = "220" cy = "16" r = "4"/>
	<text x = "225" y = "21" class = "elName">Description</text>
	<rect x = "215" y = "11" width = "76" height = "25" class = "elTypeBkgnd" rx = "5" ry = "5" clip-path = "url(#e:SemanticElement/a:Description)"/>
	<defs/>
	<clipPath id = "e:SemanticElement/a:Description">
		<rect x = "214" y = "25" width = "78" height = "11"/>
	</clipPath>
	<text x = "215" y = "33" class = "elType">string</text>
	<image xlink:href = "../dgmDtString.gif" width = "10" height = "10" x = "282" y = "20"/>
</svg>