<?xml version = "1.0"?>
<!DOCTYPE svg PUBLIC "-//W3C//DTD SVG 20010904//EN" "http://www.w3.org/TR/2001/REC-SVG-20010904/DTD/svg10.dtd">
<svg width = "497pt" height = "47pt" viewBox = "0 0 497 47" xmlns = "http://www.w3.org/2000/svg" xmlns:xlink = "http://www.w3.org/1999/xlink">
	<defs>
		<style type = "text/css"><![CDATA[
rect.attrGroup { fill: ivory ; stroke: black; stroke-width: 1 }
rect.element { fill: ivory ; stroke: black; stroke-width: 1 }
rect.elTypeBkgnd { fill: lightgray ; stroke: none }
text.elName { font-family: helvetica ; font-size : 10 }
text.elType { font-family: helvetica ; font-size : 7 }
text.occurLarge { font-family: helvetica ; font-size : 9; fill : blue }
text.occurSmall { font-family: helvetica ; font-size : 7; fill : blue }
rect.typeIconDark { fill : darkslategray }
circle.occurs { stroke : black ; stroke-width: 1; fill : white }
circle.ellipsis { fill : black }
path.typeIconDark { stroke : lightgray ; stroke-width: 1 }
path.connector { stroke : red ; stroke-width: 1 ; fill: none; }
path.modelGroup { stroke : black ; stroke-width: 1 ; fill: lightgray; }
polyline.connector { stroke : red ; stroke-width: 1 ; fill: none; }
.nodeStyle { fill : blue }
]]></style>
	</defs>
	<rect x = "5" y = "10" width = "90" height = "27" class = "element"/>
	<polygon class = "nodeStyle" points = "11,12 7,16 11,20 15,16"/>
	<text x = "16" y = "21" class = "elName">FormalOutput</text>
	<rect x = "6" y = "25" width = "88" height = "11" class = "elTypeBkgnd"/>
	<image xlink:href = "../dgmTypeEmpty.gif" width = "10" height = "10" x = "85" y = "20"/>
	<polyline class = "connector" points = "95,23 125,23"/>
	<rect x = "125" y = "5" width = "367" height = "37" class = "attrGroup" rx = "5" ry = "5"/>
	<rect x = "130" y = "10" width = "51" height = "27" class = "element" rx = "5" ry = "5"/>
	<circle class = "nodeStyle" cx = "136" cy = "16" r = "4"/>
	<text x = "141" y = "21" class = "elName">Name</text>
	<rect x = "131" y = "11" width = "49" height = "25" class = "elTypeBkgnd" rx = "5" ry = "5" clip-path = "url(#e:FormalOutput/a:Name)"/>
	<defs/>
	<clipPath id = "e:FormalOutput/a:Name">
		<rect x = "130" y = "25" width = "51" height = "11"/>
	</clipPath>
	<image xlink:href = "../dgmDtString.gif" width = "10" height = "10" x = "171" y = "20"/>
	<circle class = "occurs" cx = "315" cy = "23" r = "6"/>
	<text x = "312" y = "26" class = "occurLarge">?</text>
	<rect x = "321" y = "10" width = "71" height = "27" class = "element" rx = "5" ry = "5"/>
	<circle class = "nodeStyle" cx = "327" cy = "16" r = "4"/>
	<text x = "332" y = "21" class = "elName">IBelongTo</text>
	<rect x = "322" y = "11" width = "69" height = "25" class = "elTypeBkgnd" rx = "5" ry = "5" clip-path = "url(#e:FormalOutput/a:IBelongTo)"/>
	<defs/>
	<clipPath id = "e:FormalOutput/a:IBelongTo">
		<rect x = "321" y = "25" width = "71" height = "11"/>
	</clipPath>
	<image xlink:href = "../dgmDtString.gif" width = "10" height = "10" x = "382" y = "20"/>
	<circle class = "occurs" cx = "403" cy = "23" r = "6"/>
	<text x = "400" y = "26" class = "occurLarge">?</text>
	<rect x = "409" y = "10" width = "78" height = "27" class = "element" rx = "5" ry = "5"/>
	<circle class = "nodeStyle" cx = "415" cy = "16" r = "4"/>
	<text x = "420" y = "21" class = "elName">Description</text>
	<rect x = "410" y = "11" width = "76" height = "25" class = "elTypeBkgnd" rx = "5" ry = "5" clip-path = "url(#e:FormalOutput/a:Description)"/>
	<defs/>
	<clipPath id = "e:FormalOutput/a:Description">
		<rect x = "409" y = "25" width = "78" height = "11"/>
	</clipPath>
	<text x = "410" y = "33" class = "elType">string</text>
	<image xlink:href = "../dgmDtString.gif" width = "10" height = "10" x = "477" y = "20"/>
	<rect x = "186" y = "10" width = "118" height = "27" class = "element" rx = "5" ry = "5"/>
	<circle class = "nodeStyle" cx = "192" cy = "16" r = "4"/>
	<text x = "197" y = "21" class = "elName">SemanticTypeName</text>
	<rect x = "187" y = "11" width = "116" height = "25" class = "elTypeBkgnd" rx = "5" ry = "5" clip-path = "url(#e:FormalOutput/a:SemanticTypeName)"/>
	<defs/>
	<clipPath id = "e:FormalOutput/a:SemanticTypeName">
		<rect x = "186" y = "25" width = "118" height = "11"/>
	</clipPath>
	<text x = "187" y = "33" class = "elType">string</text>
	<image xlink:href = "../dgmDtString.gif" width = "10" height = "10" x = "294" y = "20"/>
</svg>