<?xml version = "1.0"?>
<!DOCTYPE svg PUBLIC "-//W3C//DTD SVG 20010904//EN" "http://www.w3.org/TR/2001/REC-SVG-20010904/DTD/svg10.dtd">
<svg width = "281pt" height = "79pt" viewBox = "0 0 281 79" xmlns = "http://www.w3.org/2000/svg" xmlns:xlink = "http://www.w3.org/1999/xlink">
	<defs>
		<style type = "text/css"><![CDATA[
rect.attrGroup { fill: ivory ; stroke: black; stroke-width: 1 }
rect.element { fill: ivory ; stroke: black; stroke-width: 1 }
rect.elTypeBkgnd { fill: lightgray ; stroke: none }
text.elName { font-family: helvetica ; font-size : 10 }
text.elType { font-family: helvetica ; font-size : 7 }
text.occurLarge { font-family: helvetica ; font-size : 9; fill : blue }
text.occurSmall { font-family: helvetica ; font-size : 7; fill : blue }
rect.typeIconDark { fill : darkslategray }
circle.occurs { stroke : black ; stroke-width: 1; fill : white }
circle.ellipsis { fill : black }
path.typeIconDark { stroke : lightgray ; stroke-width: 1 }
path.connector { stroke : red ; stroke-width: 1 ; fill: none; }
path.modelGroup { stroke : black ; stroke-width: 1 ; fill: lightgray; }
polyline.connector { stroke : red ; stroke-width: 1 ; fill: none; }
.nodeStyle { fill : blue }
]]></style>
	</defs>
	<rect x = "120" y = "5" width = "156" height = "37" class = "attrGroup" rx = "5" ry = "5"/>
	<rect x = "125" y = "10" width = "51" height = "27" class = "element" rx = "5" ry = "5"/>
	<circle class = "nodeStyle" cx = "131" cy = "16" r = "4"/>
	<text x = "136" y = "21" class = "elName">Name</text>
	<rect x = "126" y = "11" width = "49" height = "25" class = "elTypeBkgnd" rx = "5" ry = "5" clip-path = "url(#e:LookupTable/a:Name)"/>
	<defs/>
	<clipPath id = "e:LookupTable/a:Name">
		<rect x = "125" y = "25" width = "51" height = "11"/>
	</clipPath>
	<image xlink:href = "../dgmDtString.gif" width = "10" height = "10" x = "166" y = "20"/>
	<circle class = "occurs" cx = "187" cy = "23" r = "6"/>
	<text x = "184" y = "26" class = "occurLarge">?</text>
	<rect x = "193" y = "10" width = "78" height = "27" class = "element" rx = "5" ry = "5"/>
	<circle class = "nodeStyle" cx = "199" cy = "16" r = "4"/>
	<text x = "204" y = "21" class = "elName">Description</text>
	<rect x = "194" y = "11" width = "76" height = "25" class = "elTypeBkgnd" rx = "5" ry = "5" clip-path = "url(#e:LookupTable/a:Description)"/>
	<defs/>
	<clipPath id = "e:LookupTable/a:Description">
		<rect x = "193" y = "25" width = "78" height = "11"/>
	</clipPath>
	<text x = "194" y = "33" class = "elType">string</text>
	<image xlink:href = "../dgmDtString.gif" width = "10" height = "10" x = "261" y = "20"/>
	<rect x = "5" y = "47" width = "85" height = "27" class = "element"/>
	<polygon class = "nodeStyle" points = "11,49 7,53 11,57 15,53"/>
	<text x = "16" y = "58" class = "elName">LookupTable</text>
	<rect x = "6" y = "62" width = "83" height = "11" class = "elTypeBkgnd"/>
	<image xlink:href = "../dgmTypeComplex.gif" width = "10" height = "10" x = "80" y = "57"/>
	<polyline class = "connector" points = "90,60 120,60"/>
	<polyline class = "connector" points = "90,58 98,58 98,23 120,23"/>
	<circle class = "occurs" cx = "126" cy = "60" r = "6"/>
	<text x = "123" y = "63" class = "occurLarge">+</text>
	<rect x = "132" y = "47" width = "109" height = "27" class = "element"/>
	<polygon class = "nodeStyle" points = "138,49 134,53 138,57 142,53"/>
	<text x = "143" y = "58" class = "elName">LookupTableEntry</text>
	<rect x = "133" y = "62" width = "107" height = "11" class = "elTypeBkgnd"/>
	<image xlink:href = "../dgmTypeEmpty.gif" width = "10" height = "10" x = "231" y = "57"/>
</svg>