<?xml version = "1.0"?>
<!DOCTYPE svg PUBLIC "-//W3C//DTD SVG 20010904//EN" "http://www.w3.org/TR/2001/REC-SVG-20010904/DTD/svg10.dtd">
<svg width = "276pt" height = "47pt" viewBox = "0 0 276 47" xmlns = "http://www.w3.org/2000/svg" xmlns:xlink = "http://www.w3.org/1999/xlink">
	<defs>
		<style type = "text/css"><![CDATA[
rect.attrGroup { fill: ivory ; stroke: black; stroke-width: 1 }
rect.element { fill: ivory ; stroke: black; stroke-width: 1 }
rect.elTypeBkgnd { fill: lightgray ; stroke: none }
text.elName { font-family: helvetica ; font-size : 10 }
text.elType { font-family: helvetica ; font-size : 7 }
text.occurLarge { font-family: helvetica ; font-size : 9; fill : blue }
text.occurSmall { font-family: helvetica ; font-size : 7; fill : blue }
rect.typeIconDark { fill : darkslategray }
circle.occurs { stroke : black ; stroke-width: 1; fill : white }
circle.ellipsis { fill : black }
path.typeIconDark { stroke : lightgray ; stroke-width: 1 }
path.connector { stroke : red ; stroke-width: 1 ; fill: none; }
path.modelGroup { stroke : black ; stroke-width: 1 ; fill: lightgray; }
polyline.connector { stroke : red ; stroke-width: 1 ; fill: none; }
.nodeStyle { fill : blue }
]]></style>
	</defs>
	<rect x = "5" y = "10" width = "109" height = "27" class = "element"/>
	<polygon class = "nodeStyle" points = "11,12 7,16 11,20 15,16"/>
	<text x = "16" y = "21" class = "elName">LookupTableEntry</text>
	<rect x = "6" y = "25" width = "107" height = "11" class = "elTypeBkgnd"/>
	<image xlink:href = "../dgmTypeEmpty.gif" width = "10" height = "10" x = "104" y = "20"/>
	<polyline class = "connector" points = "114,23 144,23"/>
	<rect x = "144" y = "5" width = "127" height = "37" class = "attrGroup" rx = "5" ry = "5"/>
	<rect x = "149" y = "10" width = "51" height = "27" class = "element" rx = "5" ry = "5"/>
	<circle class = "nodeStyle" cx = "155" cy = "16" r = "4"/>
	<text x = "160" y = "21" class = "elName">Value</text>
	<rect x = "150" y = "11" width = "49" height = "25" class = "elTypeBkgnd" rx = "5" ry = "5" clip-path = "url(#e:LookupTableEntry/a:Value)"/>
	<defs/>
	<clipPath id = "e:LookupTableEntry/a:Value">
		<rect x = "149" y = "25" width = "51" height = "11"/>
	</clipPath>
	<image xlink:href = "../dgmDtString.gif" width = "10" height = "10" x = "190" y = "20"/>
	<circle class = "occurs" cx = "211" cy = "23" r = "6"/>
	<text x = "208" y = "26" class = "occurLarge">?</text>
	<rect x = "217" y = "10" width = "49" height = "27" class = "element" rx = "5" ry = "5"/>
	<circle class = "nodeStyle" cx = "223" cy = "16" r = "4"/>
	<text x = "228" y = "21" class = "elName">Label</text>
	<rect x = "218" y = "11" width = "47" height = "25" class = "elTypeBkgnd" rx = "5" ry = "5" clip-path = "url(#e:LookupTableEntry/a:Label)"/>
	<defs/>
	<clipPath id = "e:LookupTableEntry/a:Label">
		<rect x = "217" y = "25" width = "49" height = "11"/>
	</clipPath>
	<image xlink:href = "../dgmDtString.gif" width = "10" height = "10" x = "256" y = "20"/>
</svg>