<?xml version = "1.0"?>
<!DOCTYPE svg PUBLIC "-//W3C//DTD SVG 20010904//EN" "http://www.w3.org/TR/2001/REC-SVG-20010904/DTD/svg10.dtd">
<svg width = "200pt" height = "113pt" viewBox = "0 0 200 113" xmlns = "http://www.w3.org/2000/svg" xmlns:xlink = "http://www.w3.org/1999/xlink">
	<defs>
		<style type = "text/css"><![CDATA[
rect.attrGroup { fill: ivory ; stroke: black; stroke-width: 1 }
rect.element { fill: ivory ; stroke: black; stroke-width: 1 }
rect.elTypeBkgnd { fill: lightgray ; stroke: none }
text.elName { font-family: helvetica ; font-size : 10 }
text.elType { font-family: helvetica ; font-size : 7 }
text.occurLarge { font-family: helvetica ; font-size : 9; fill : blue }
text.occurSmall { font-family: helvetica ; font-size : 7; fill : blue }
rect.typeIconDark { fill : darkslategray }
circle.occurs { stroke : black ; stroke-width: 1; fill : white }
circle.ellipsis { fill : black }
path.typeIconDark { stroke : lightgray ; stroke-width: 1 }
path.connector { stroke : red ; stroke-width: 1 ; fill: none; }
path.modelGroup { stroke : black ; stroke-width: 1 ; fill: lightgray; }
polyline.connector { stroke : red ; stroke-width: 1 ; fill: none; }
.nodeStyle { fill : blue }
]]></style>
	</defs>
	<rect x = "105" y = "5" width = "90" height = "37" class = "attrGroup" rx = "5" ry = "5"/>
	<circle class = "occurs" cx = "116" cy = "23" r = "6"/>
	<text x = "113" y = "26" class = "occurLarge">?</text>
	<rect x = "122" y = "10" width = "68" height = "27" class = "element" rx = "5" ry = "5"/>
	<circle class = "nodeStyle" cx = "128" cy = "16" r = "4"/>
	<text x = "133" y = "21" class = "elName">FileName</text>
	<rect x = "123" y = "11" width = "66" height = "25" class = "elTypeBkgnd" rx = "5" ry = "5" clip-path = "url(#e:BinaryFile/a:FileName)"/>
	<defs/>
	<clipPath id = "e:BinaryFile/a:FileName">
		<rect x = "122" y = "25" width = "68" height = "11"/>
	</clipPath>
	<image xlink:href = "../dgmDtString.gif" width = "10" height = "10" x = "180" y = "20"/>
	<rect x = "5" y = "64" width = "70" height = "27" class = "element"/>
	<polygon class = "nodeStyle" points = "11,66 7,70 11,74 15,70"/>
	<text x = "16" y = "75" class = "elName">BinaryFile</text>
	<rect x = "6" y = "79" width = "68" height = "11" class = "elTypeBkgnd"/>
	<image xlink:href = "../dgmTypeComplex.gif" width = "10" height = "10" x = "65" y = "74"/>
	<polyline class = "connector" points = "105,60 85,60 85,77 75,77 85,77 85,94 105,94"/>
	<polyline class = "connector" points = "75,75 83,75 83,23 105,23"/>
	<polyline class = "connector" points = "105,60 117,60"/>
	<rect x = "117" y = "47" width = "63" height = "27" class = "element"/>
	<polygon class = "nodeStyle" points = "123,49 119,53 123,57 127,53"/>
	<text x = "128" y = "58" class = "elName">External</text>
	<rect x = "118" y = "62" width = "61" height = "11" class = "elTypeBkgnd"/>
	<image xlink:href = "../dgmTypeEmpty.gif" width = "10" height = "10" x = "170" y = "57"/>
	<polyline class = "connector" points = "105,94 117,94"/>
	<rect x = "117" y = "81" width = "61" height = "27" class = "element"/>
	<polygon class = "nodeStyle" points = "123,83 119,87 123,91 127,87"/>
	<text x = "128" y = "92" class = "elName">BinData</text>
	<rect x = "118" y = "96" width = "59" height = "11" class = "elTypeBkgnd"/>
	<text x = "118" y = "104" class = "elType">bin.base64</text>
	<image xlink:href = "../dgmDtString.gif" width = "10" height = "10" x = "168" y = "91"/>
</svg>