<?xml version = "1.0"?>
<!DOCTYPE svg PUBLIC "-//W3C//DTD SVG 20010904//EN" "http://www.w3.org/TR/2001/REC-SVG-20010904/DTD/svg10.dtd">
<svg width = "327pt" height = "105pt" viewBox = "0 0 327 105" xmlns = "http://www.w3.org/2000/svg" xmlns:xlink = "http://www.w3.org/1999/xlink">
	<defs>
		<style type = "text/css"><![CDATA[
rect.attrGroup { fill: ivory ; stroke: black; stroke-width: 1 }
rect.element { fill: ivory ; stroke: black; stroke-width: 1 }
rect.elTypeBkgnd { fill: lightgray ; stroke: none }
text.elName { font-family: helvetica ; font-size : 10 }
text.elType { font-family: helvetica ; font-size : 7 }
text.occurLarge { font-family: helvetica ; font-size : 9; fill : blue }
text.occurSmall { font-family: helvetica ; font-size : 7; fill : blue }
rect.typeIconDark { fill : darkslategray }
circle.occurs { stroke : black ; stroke-width: 1; fill : white }
circle.ellipsis { fill : black }
path.typeIconDark { stroke : lightgray ; stroke-width: 1 }
path.connector { stroke : red ; stroke-width: 1 ; fill: none; }
path.modelGroup { stroke : black ; stroke-width: 1 ; fill: lightgray; }
polyline.connector { stroke : red ; stroke-width: 1 ; fill: none; }
.nodeStyle { fill : blue }
]]></style>
	</defs>
	<rect x = "5" y = "39" width = "132" height = "27" class = "element"/>
	<polygon class = "nodeStyle" points = "11,41 7,45 11,49 15,45"/>
	<text x = "16" y = "50" class = "elName">AnalysisModuleLibrary</text>
	<rect x = "6" y = "54" width = "130" height = "11" class = "elTypeBkgnd"/>
	<image xlink:href = "../dgmTypeComplex.gif" width = "10" height = "10" x = "127" y = "49"/>
	<polyline class = "connector" points = "167,18 147,18 147,52 137,52 147,52 147,86 167,86"/>
	<circle class = "occurs" cx = "173" cy = "18" r = "6"/>
	<text x = "170" y = "21" class = "occurLarge">+</text>
	<rect x = "179" y = "5" width = "99" height = "27" class = "element"/>
	<polygon class = "nodeStyle" points = "185,7 181,11 185,15 189,11"/>
	<text x = "190" y = "16" class = "elName">AnalysisModule</text>
	<rect x = "180" y = "20" width = "97" height = "11" class = "elTypeBkgnd"/>
	<image xlink:href = "../dgmTypeComplex.gif" width = "10" height = "10" x = "268" y = "15"/>
	<circle class = "occurs" cx = "173" cy = "52" r = "6"/>
	<text x = "170" y = "55" class = "occurLarge">*</text>
	<rect x = "179" y = "39" width = "64" height = "27" class = "element"/>
	<polygon class = "nodeStyle" points = "185,41 181,45 185,49 189,45"/>
	<text x = "190" y = "50" class = "elName">Program</text>
	<rect x = "180" y = "54" width = "62" height = "11" class = "elTypeBkgnd"/>
	<image xlink:href = "../dgmTypeComplex.gif" width = "10" height = "10" x = "233" y = "49"/>
	<polyline class = "connector" points = "167,86 179,86"/>
	<rect x = "179" y = "73" width = "143" height = "27" class = "element"/>
	<polygon class = "nodeStyle" points = "185,75 181,79 185,83 189,79"/>
	<text x = "190" y = "84" class = "elName">SemanticTypeDefinitions</text>
	<rect x = "180" y = "88" width = "141" height = "11" class = "elTypeBkgnd"/>
	<image xlink:href = "../dgmTypeComplex.gif" width = "10" height = "10" x = "312" y = "83"/>
</svg>