<?xml version = "1.0"?>
<!DOCTYPE svg PUBLIC "-//W3C//DTD SVG 20010904//EN" "http://www.w3.org/TR/2001/REC-SVG-20010904/DTD/svg10.dtd">
<svg width = "355pt" height = "79pt" viewBox = "0 0 355 79" xmlns = "http://www.w3.org/2000/svg" xmlns:xlink = "http://www.w3.org/1999/xlink">
	<defs>
		<style type = "text/css"><![CDATA[
rect.attrGroup { fill: ivory ; stroke: black; stroke-width: 1 }
rect.element { fill: ivory ; stroke: black; stroke-width: 1 }
rect.elTypeBkgnd { fill: lightgray ; stroke: none }
text.elName { font-family: helvetica ; font-size : 10 }
text.elType { font-family: helvetica ; font-size : 7 }
text.occurLarge { font-family: helvetica ; font-size : 9; fill : blue }
text.occurSmall { font-family: helvetica ; font-size : 7; fill : blue }
rect.typeIconDark { fill : darkslategray }
circle.occurs { stroke : black ; stroke-width: 1; fill : white }
circle.ellipsis { fill : black }
path.typeIconDark { stroke : lightgray ; stroke-width: 1 }
path.connector { stroke : red ; stroke-width: 1 ; fill: none; }
path.modelGroup { stroke : black ; stroke-width: 1 ; fill: lightgray; }
polyline.connector { stroke : red ; stroke-width: 1 ; fill: none; }
.nodeStyle { fill : blue }
]]></style>
	</defs>
	<rect x = "85" y = "5" width = "265" height = "37" class = "attrGroup" rx = "5" ry = "5"/>
	<rect x = "90" y = "10" width = "77" height = "27" class = "element" rx = "5" ry = "5"/>
	<circle class = "nodeStyle" cx = "96" cy = "16" r = "4"/>
	<text x = "101" y = "21" class = "elName">Granularity</text>
	<rect x = "91" y = "11" width = "75" height = "25" class = "elTypeBkgnd" rx = "5" ry = "5" clip-path = "url(#e:Table/a:Granularity)"/>
	<defs/>
	<clipPath id = "e:Table/a:Granularity">
		<rect x = "90" y = "25" width = "77" height = "11"/>
	</clipPath>
	<image xlink:href = "../dgmDtString.gif" width = "10" height = "10" x = "157" y = "20"/>
	<rect x = "267" y = "10" width = "78" height = "27" class = "element" rx = "5" ry = "5"/>
	<circle class = "nodeStyle" cx = "273" cy = "16" r = "4"/>
	<text x = "278" y = "21" class = "elName">TableName</text>
	<rect x = "268" y = "11" width = "76" height = "25" class = "elTypeBkgnd" rx = "5" ry = "5" clip-path = "url(#e:Table/a:TableName)"/>
	<defs/>
	<clipPath id = "e:Table/a:TableName">
		<rect x = "267" y = "25" width = "78" height = "11"/>
	</clipPath>
	<image xlink:href = "../dgmDtString.gif" width = "10" height = "10" x = "335" y = "20"/>
	<circle class = "occurs" cx = "178" cy = "23" r = "6"/>
	<text x = "175" y = "26" class = "occurLarge">?</text>
	<rect x = "184" y = "10" width = "78" height = "27" class = "element" rx = "5" ry = "5"/>
	<circle class = "nodeStyle" cx = "190" cy = "16" r = "4"/>
	<text x = "195" y = "21" class = "elName">Description</text>
	<rect x = "185" y = "11" width = "76" height = "25" class = "elTypeBkgnd" rx = "5" ry = "5" clip-path = "url(#e:Table/a:Description)"/>
	<defs/>
	<clipPath id = "e:Table/a:Description">
		<rect x = "184" y = "25" width = "78" height = "11"/>
	</clipPath>
	<text x = "185" y = "33" class = "elType">string</text>
	<image xlink:href = "../dgmDtString.gif" width = "10" height = "10" x = "252" y = "20"/>
	<rect x = "5" y = "47" width = "50" height = "27" class = "element"/>
	<polygon class = "nodeStyle" points = "11,49 7,53 11,57 15,53"/>
	<text x = "16" y = "58" class = "elName">Table</text>
	<rect x = "6" y = "62" width = "48" height = "11" class = "elTypeBkgnd"/>
	<image xlink:href = "../dgmTypeComplex.gif" width = "10" height = "10" x = "45" y = "57"/>
	<polyline class = "connector" points = "55,60 85,60"/>
	<polyline class = "connector" points = "55,58 63,58 63,23 85,23"/>
	<circle class = "occurs" cx = "91" cy = "60" r = "6"/>
	<text x = "88" y = "63" class = "occurLarge">+</text>
	<rect x = "97" y = "47" width = "60" height = "27" class = "element"/>
	<polygon class = "nodeStyle" points = "103,49 99,53 103,57 107,53"/>
	<text x = "108" y = "58" class = "elName">Column</text>
	<rect x = "98" y = "62" width = "58" height = "11" class = "elTypeBkgnd"/>
	<image xlink:href = "../dgmTypeEmpty.gif" width = "10" height = "10" x = "147" y = "57"/>
</svg>