<?xml version="1.0" encoding="UTF-8" standalone="no"?>
<!-- Created with Inkscape (http://www.inkscape.org/) -->

<svg
   xmlns:dc="http://purl.org/dc/elements/1.1/"
   xmlns:cc="http://creativecommons.org/ns#"
   xmlns:rdf="http://www.w3.org/1999/02/22-rdf-syntax-ns#"
   xmlns:svg="http://www.w3.org/2000/svg"
   xmlns="http://www.w3.org/2000/svg"
   xmlns:xlink="http://www.w3.org/1999/xlink"
   xmlns:sodipodi="http://sodipodi.sourceforge.net/DTD/sodipodi-0.dtd"
   xmlns:inkscape="http://www.inkscape.org/namespaces/inkscape"
   width="48"
   height="48"
   id="svg2"
   version="1.1"
   inkscape:version="0.48.4 r"
   sodipodi:docname="pan2d.svg">
  <defs
     id="defs4" />
  <sodipodi:namedview
     id="base"
     pagecolor="#ffffff"
     bordercolor="#666666"
     borderopacity="1.0"
     inkscape:pageopacity="0.0"
     inkscape:pageshadow="2"
     inkscape:zoom="19.291667"
     inkscape:cx="23.148602"
     inkscape:cy="24.025728"
     inkscape:document-units="px"
     inkscape:current-layer="layer1"
     showgrid="true"
     inkscape:window-width="1920"
     inkscape:window-height="1138"
     inkscape:window-x="-8"
     inkscape:window-y="-8"
     inkscape:window-maximized="1"
     inkscape:snap-global="true">
    <inkscape:grid
       type="xygrid"
       id="grid2985"
       empspacing="8"
       visible="true"
       enabled="true"
       snapvisiblegridlinesonly="true" />
  </sodipodi:namedview>
  <metadata
     id="metadata7">
    <rdf:RDF>
      <cc:Work
         rdf:about="">
        <dc:format>image/svg+xml</dc:format>
        <dc:type
           rdf:resource="http://purl.org/dc/dcmitype/StillImage" />
        <dc:title></dc:title>
      </cc:Work>
    </rdf:RDF>
  </metadata>
  <g
     inkscape:label="Layer 1"
     inkscape:groupmode="layer"
     id="layer1"
     transform="translate(0,-1004.3622)">
    <path
       style="fill:#000000;fill-opacity:1;stroke:none"
       d="M 24 0 L 16 11 L 21.03125 11.0625 L 21.03125 18.8125 C 21.912288 18.302983 22.913677 18 24 18 C 25.110669 18 26.136918 18.312885 27.03125 18.84375 L 27.03125 11.0625 L 32 11 L 24 0 z "
       transform="translate(0,1004.3622)"
       id="path3033" />
    <use
       x="0"
       y="0"
       xlink:href="#path3033"
       id="use3803"
       transform="matrix(0,1,-1,0,1052.3462,1004.398)"
       width="48"
       height="48" />
    <use
       x="0"
       y="0"
       xlink:href="#path3033"
       id="use3805"
       transform="matrix(-1,0,0,-1,47.999983,2056.7442)"
       width="48"
       height="48" />
    <use
       x="0"
       y="0"
       xlink:href="#path3033"
       id="use3807"
       transform="matrix(0,-1,1,0,-1004.3462,1052.398)"
       width="48"
       height="48" />
    <path
       sodipodi:type="arc"
       style="fill:#881d1a;fill-opacity:1;fill-rule:evenodd;stroke:none"
       id="path3025"
       sodipodi:cx="24"
       sodipodi:cy="24"
       sodipodi:rx="4"
       sodipodi:ry="4"
       d="m 28,24 a 4,4 0 1 1 -8,0 4,4 0 1 1 8,0 z"
       transform="translate(0,1004.3622)" />
  </g>
</svg>
