<?xml version = "1.0"?>
<!DOCTYPE svg PUBLIC "-//W3C//DTD SVG 20010904//EN" "http://www.w3.org/TR/2001/REC-SVG-20010904/DTD/svg10.dtd">
<svg width = "231pt" height = "47pt" viewBox = "0 0 231 47" xmlns = "http://www.w3.org/2000/svg" xmlns:xlink = "http://www.w3.org/1999/xlink">
	<defs>
		<style type = "text/css"><![CDATA[
rect.attrGroup { fill: ivory ; stroke: black; stroke-width: 1 }
rect.element { fill: ivory ; stroke: black; stroke-width: 1 }
rect.elTypeBkgnd { fill: lightgray ; stroke: none }
text.elName { font-family: helvetica ; font-size : 10 }
text.elType { font-family: helvetica ; font-size : 7 }
text.occurLarge { font-family: helvetica ; font-size : 9; fill : blue }
text.occurSmall { font-family: helvetica ; font-size : 7; fill : blue }
rect.typeIconDark { fill : darkslategray }
circle.occurs { stroke : black ; stroke-width: 1; fill : white }
circle.ellipsis { fill : black }
path.typeIconDark { stroke : lightgray ; stroke-width: 1 }
path.connector { stroke : red ; stroke-width: 1 ; fill: none; }
path.modelGroup { stroke : black ; stroke-width: 1 ; fill: lightgray; }
polyline.connector { stroke : red ; stroke-width: 1 ; fill: none; }
.nodeStyle { fill : blue }
]]></style>
	</defs>
	<rect x = "5" y = "10" width = "65" height = "27" class = "element"/>
	<polygon class = "nodeStyle" points = "11,12 7,16 11,20 15,16"/>
	<text x = "16" y = "21" class = "elName">Filament</text>
	<rect x = "6" y = "25" width = "63" height = "11" class = "elTypeBkgnd"/>
	<image xlink:href = "../dgmTypeEmpty.gif" width = "10" height = "10" x = "60" y = "20"/>
	<polyline class = "connector" points = "70,23 100,23"/>
	<rect x = "100" y = "5" width = "126" height = "37" class = "attrGroup" rx = "5" ry = "5"/>
	<rect x = "105" y = "10" width = "46" height = "27" class = "element" rx = "5" ry = "5"/>
	<circle class = "nodeStyle" cx = "111" cy = "16" r = "4"/>
	<text x = "116" y = "21" class = "elName">Type</text>
	<rect x = "106" y = "11" width = "44" height = "25" class = "elTypeBkgnd" rx = "5" ry = "5" clip-path = "url(#e:Filament/a:Type)"/>
	<defs/>
	<clipPath id = "e:Filament/a:Type">
		<rect x = "105" y = "25" width = "46" height = "11"/>
	</clipPath>
	<image xlink:href = "../dgmDtString.gif" width = "10" height = "10" x = "141" y = "20"/>
	<circle class = "occurs" cx = "162" cy = "23" r = "6"/>
	<text x = "159" y = "26" class = "occurLarge">?</text>
	<rect x = "168" y = "10" width = "53" height = "27" class = "element" rx = "5" ry = "5"/>
	<circle class = "nodeStyle" cx = "174" cy = "16" r = "4"/>
	<text x = "179" y = "21" class = "elName">Power</text>
	<rect x = "169" y = "11" width = "51" height = "25" class = "elTypeBkgnd" rx = "5" ry = "5" clip-path = "url(#e:Filament/a:Power)"/>
	<defs/>
	<clipPath id = "e:Filament/a:Power">
		<rect x = "168" y = "25" width = "53" height = "11"/>
	</clipPath>
	<text x = "169" y = "33" class = "elType">float</text>
	<image xlink:href = "../dgmDtFloat.gif" width = "10" height = "10" x = "211" y = "20"/>
</svg>