<?xml version = "1.0"?>
<!DOCTYPE svg PUBLIC "-//W3C//DTD SVG 20010904//EN" "http://www.w3.org/TR/2001/REC-SVG-20010904/DTD/svg10.dtd">
<svg width = "296pt" height = "249pt" viewBox = "0 0 296 249" xmlns = "http://www.w3.org/2000/svg" xmlns:xlink = "http://www.w3.org/1999/xlink">
	<defs>
		<style type = "text/css"><![CDATA[
rect.attrGroup { fill: ivory ; stroke: black; stroke-width: 1 }
rect.element { fill: ivory ; stroke: black; stroke-width: 1 }
rect.elTypeBkgnd { fill: lightgray ; stroke: none }
text.elName { font-family: helvetica ; font-size : 10 }
text.elType { font-family: helvetica ; font-size : 7 }
text.occurLarge { font-family: helvetica ; font-size : 9; fill : blue }
text.occurSmall { font-family: helvetica ; font-size : 7; fill : blue }
rect.typeIconDark { fill : darkslategray }
circle.occurs { stroke : black ; stroke-width: 1; fill : white }
circle.ellipsis { fill : black }
path.typeIconDark { stroke : lightgray ; stroke-width: 1 }
path.connector { stroke : red ; stroke-width: 1 ; fill: none; }
path.modelGroup { stroke : black ; stroke-width: 1 ; fill: lightgray; }
polyline.connector { stroke : red ; stroke-width: 1 ; fill: none; }
.nodeStyle { fill : blue }
]]></style>
	</defs>
	<rect x = "123" y = "5" width = "108" height = "37" class = "attrGroup" rx = "5" ry = "5"/>
	<rect x = "128" y = "10" width = "98" height = "27" class = "element" rx = "5" ry = "5"/>
	<circle class = "nodeStyle" cx = "134" cy = "16" r = "4"/>
	<text x = "139" y = "21" class = "elName">ExperimenterID</text>
	<rect x = "129" y = "11" width = "96" height = "25" class = "elTypeBkgnd" rx = "5" ry = "5" clip-path = "url(#t:ExperimenterType/a:ExperimenterID)"/>
	<defs/>
	<clipPath id = "t:ExperimenterType/a:ExperimenterID">
		<rect x = "128" y = "25" width = "98" height = "11"/>
	</clipPath>
	<text x = "129" y = "33" class = "elType">positiveInteger</text>
	<image xlink:href = "../dgmDtInteger.gif" width = "10" height = "10" x = "216" y = "20"/>
	<rect x = "5" y = "132" width = "88" height = "27" class = "element"/>
	<polygon class = "nodeStyle" points = "11,134 7,138 11,142 15,138"/>
	<text x = "16" y = "143" class = "elName">Experimenter</text>
	<rect x = "6" y = "147" width = "86" height = "11" class = "elTypeBkgnd"/>
	<text x = "6" y = "155" class = "elType">ExperimenterType</text>
	<image xlink:href = "../dgmTypeComplex.gif" width = "10" height = "10" x = "83" y = "142"/>
	<polyline class = "connector" points = "123,111 103,111 103,145 93,145 103,145 103,230 123,230"/>
	<polyline class = "connector" points = "93,143 101,143 101,23 123,23"/>
	<polyline class = "connector" points = "123,111 135,111"/>
	<path class = "modelGroup" d = "M 140,101 l 31,0 a 5,5 0 0,0 5,5 l 0,11 a 5,5 0 0,0 -5,5 l -31,0 a 5,5 0 0,0 -5,-5 l 0,-11 a 5,5 0 0,0 5,-5"/>
	<text x = "139" y = "115" class = "elName">Person</text>
	<polyline class = "connector" points = "206,60 186,60 186,111 176,111 186,111 186,162 206,162"/>
	<polyline class = "connector" points = "206,60 218,60"/>
	<rect x = "218" y = "47" width = "72" height = "27" class = "element"/>
	<polygon class = "nodeStyle" points = "224,49 220,53 224,57 228,53"/>
	<text x = "229" y = "58" class = "elName">FirstName</text>
	<rect x = "219" y = "62" width = "70" height = "11" class = "elTypeBkgnd"/>
	<text x = "219" y = "70" class = "elType">string</text>
	<image xlink:href = "../dgmDtString.gif" width = "10" height = "10" x = "280" y = "57"/>
	<rect x = "218" y = "81" width = "71" height = "27" class = "element"/>
	<polygon class = "nodeStyle" points = "224,83 220,87 224,91 228,87"/>
	<text x = "229" y = "92" class = "elName">LastName</text>
	<rect x = "219" y = "96" width = "69" height = "11" class = "elTypeBkgnd"/>
	<text x = "219" y = "104" class = "elType">string</text>
	<image xlink:href = "../dgmDtString.gif" width = "10" height = "10" x = "279" y = "91"/>
	<rect x = "218" y = "115" width = "50" height = "27" class = "element"/>
	<polygon class = "nodeStyle" points = "224,117 220,121 224,125 228,121"/>
	<text x = "229" y = "126" class = "elName">email</text>
	<rect x = "219" y = "130" width = "48" height = "11" class = "elTypeBkgnd"/>
	<text x = "219" y = "138" class = "elType">string</text>
	<image xlink:href = "../dgmDtString.gif" width = "10" height = "10" x = "258" y = "125"/>
	<polyline class = "connector" points = "206,162 218,162"/>
	<rect x = "218" y = "149" width = "73" height = "27" class = "element"/>
	<polygon class = "nodeStyle" points = "224,151 220,155 224,159 228,155"/>
	<text x = "229" y = "160" class = "elName">Institution</text>
	<rect x = "219" y = "164" width = "71" height = "11" class = "elTypeBkgnd"/>
	<text x = "219" y = "172" class = "elType">string</text>
	<image xlink:href = "../dgmDtString.gif" width = "10" height = "10" x = "281" y = "159"/>
	<rect x = "135" y = "183" width = "72" height = "27" class = "element"/>
	<polygon class = "nodeStyle" points = "141,185 137,189 141,193 145,189"/>
	<text x = "146" y = "194" class = "elName">OMEname</text>
	<rect x = "136" y = "198" width = "70" height = "11" class = "elTypeBkgnd"/>
	<text x = "136" y = "206" class = "elType">string</text>
	<image xlink:href = "../dgmDtString.gif" width = "10" height = "10" x = "197" y = "193"/>
	<circle class = "occurs" cx = "129" cy = "230" r = "6"/>
	<text x = "126" y = "233" class = "occurLarge">+</text>
	<rect x = "135" y = "217" width = "68" height = "27" class = "element"/>
	<polygon class = "nodeStyle" points = "141,219 137,223 141,227 145,223"/>
	<text x = "146" y = "228" class = "elName">GroupRef</text>
	<rect x = "136" y = "232" width = "66" height = "11" class = "elTypeBkgnd"/>
	<image xlink:href = "../dgmTypeEmpty.gif" width = "10" height = "10" x = "193" y = "227"/>
</svg>