<?xml version = "1.0"?>
<!DOCTYPE svg PUBLIC "-//W3C//DTD SVG 20010904//EN" "http://www.w3.org/TR/2001/REC-SVG-20010904/DTD/svg10.dtd">
<svg width = "269pt" height = "173pt" viewBox = "0 0 269 173" xmlns = "http://www.w3.org/2000/svg" xmlns:xlink = "http://www.w3.org/1999/xlink">
	<defs>
		<style type = "text/css"><![CDATA[
rect.attrGroup { fill: ivory ; stroke: black; stroke-width: 1 }
rect.element { fill: ivory ; stroke: black; stroke-width: 1 }
rect.elTypeBkgnd { fill: lightgray ; stroke: none }
text.elName { font-family: helvetica ; font-size : 10 }
text.elType { font-family: helvetica ; font-size : 7 }
text.occurLarge { font-family: helvetica ; font-size : 9; fill : blue }
text.occurSmall { font-family: helvetica ; font-size : 7; fill : blue }
rect.typeIconDark { fill : darkslategray }
circle.occurs { stroke : black ; stroke-width: 1; fill : white }
circle.ellipsis { fill : black }
path.typeIconDark { stroke : lightgray ; stroke-width: 1 }
path.connector { stroke : red ; stroke-width: 1 ; fill: none; }
path.modelGroup { stroke : black ; stroke-width: 1 ; fill: lightgray; }
polyline.connector { stroke : red ; stroke-width: 1 ; fill: none; }
.nodeStyle { fill : blue }
]]></style>
	</defs>
	<rect x = "5" y = "73" width = "61" height = "27" class = "element"/>
	<polygon class = "nodeStyle" points = "11,75 7,79 11,83 15,79"/>
	<text x = "16" y = "84" class = "elName">Contact</text>
	<rect x = "6" y = "88" width = "59" height = "11" class = "elTypeBkgnd"/>
	<text x = "6" y = "96" class = "elType">ContactType</text>
	<image xlink:href = "../dgmTypeComplex.gif" width = "10" height = "10" x = "56" y = "83"/>
	<polyline class = "connector" points = "96,69 76,86 66,86 76,86 96,154"/>
	<polyline class = "connector" points = "96,69 108,69"/>
	<path class = "modelGroup" d = "M 113,59 l 31,0 a 5,5 0 0,0 5,5 l 0,11 a 5,5 0 0,0 -5,5 l -31,0 a 5,5 0 0,0 -5,-5 l 0,-11 a 5,5 0 0,0 5,-5"/>
	<text x = "112" y = "73" class = "elName">Person</text>
	<polyline class = "connector" points = "179,18 159,18 159,69 149,69 159,69 159,120 179,120"/>
	<polyline class = "connector" points = "179,18 191,18"/>
	<rect x = "191" y = "5" width = "72" height = "27" class = "element"/>
	<polygon class = "nodeStyle" points = "197,7 193,11 197,15 201,11"/>
	<text x = "202" y = "16" class = "elName">FirstName</text>
	<rect x = "192" y = "20" width = "70" height = "11" class = "elTypeBkgnd"/>
	<text x = "192" y = "28" class = "elType">string</text>
	<image xlink:href = "../dgmDtString.gif" width = "10" height = "10" x = "253" y = "15"/>
	<rect x = "191" y = "39" width = "71" height = "27" class = "element"/>
	<polygon class = "nodeStyle" points = "197,41 193,45 197,49 201,45"/>
	<text x = "202" y = "50" class = "elName">LastName</text>
	<rect x = "192" y = "54" width = "69" height = "11" class = "elTypeBkgnd"/>
	<text x = "192" y = "62" class = "elType">string</text>
	<image xlink:href = "../dgmDtString.gif" width = "10" height = "10" x = "252" y = "49"/>
	<rect x = "191" y = "73" width = "50" height = "27" class = "element"/>
	<polygon class = "nodeStyle" points = "197,75 193,79 197,83 201,79"/>
	<text x = "202" y = "84" class = "elName">email</text>
	<rect x = "192" y = "88" width = "48" height = "11" class = "elTypeBkgnd"/>
	<text x = "192" y = "96" class = "elType">string</text>
	<image xlink:href = "../dgmDtString.gif" width = "10" height = "10" x = "231" y = "83"/>
	<polyline class = "connector" points = "179,120 191,120"/>
	<rect x = "191" y = "107" width = "73" height = "27" class = "element"/>
	<polygon class = "nodeStyle" points = "197,109 193,113 197,117 201,113"/>
	<text x = "202" y = "118" class = "elName">Institution</text>
	<rect x = "192" y = "122" width = "71" height = "11" class = "elTypeBkgnd"/>
	<text x = "192" y = "130" class = "elType">string</text>
	<image xlink:href = "../dgmDtString.gif" width = "10" height = "10" x = "254" y = "117"/>
	<polyline class = "connector" points = "96,154 108,154"/>
	<rect x = "108" y = "141" width = "104" height = "27" class = "element"/>
	<polygon class = "nodeStyle" points = "114,143 110,147 114,151 118,147"/>
	<text x = "119" y = "152" class = "elName">ExperimenterRef</text>
	<rect x = "109" y = "156" width = "102" height = "11" class = "elTypeBkgnd"/>
	<image xlink:href = "../dgmTypeComplex.gif" width = "10" height = "10" x = "202" y = "151"/>
</svg>