<?xml version = "1.0"?>
<!DOCTYPE svg PUBLIC "-//W3C//DTD SVG 20010904//EN" "http://www.w3.org/TR/2001/REC-SVG-20010904/DTD/svg10.dtd">
<svg width = "462pt" height = "47pt" viewBox = "0 0 462 47" xmlns = "http://www.w3.org/2000/svg" xmlns:xlink = "http://www.w3.org/1999/xlink">
	<defs>
		<style type = "text/css"><![CDATA[
rect.attrGroup { fill: ivory ; stroke: black; stroke-width: 1 }
rect.element { fill: ivory ; stroke: black; stroke-width: 1 }
rect.elTypeBkgnd { fill: lightgray ; stroke: none }
text.elName { font-family: helvetica ; font-size : 10 }
text.elType { font-family: helvetica ; font-size : 7 }
text.occurLarge { font-family: helvetica ; font-size : 9; fill : blue }
text.occurSmall { font-family: helvetica ; font-size : 7; fill : blue }
rect.typeIconDark { fill : darkslategray }
circle.occurs { stroke : black ; stroke-width: 1; fill : white }
circle.ellipsis { fill : black }
path.typeIconDark { stroke : lightgray ; stroke-width: 1 }
path.connector { stroke : red ; stroke-width: 1 ; fill: none; }
path.modelGroup { stroke : black ; stroke-width: 1 ; fill: lightgray; }
polyline.connector { stroke : red ; stroke-width: 1 ; fill: none; }
.nodeStyle { fill : blue }
]]></style>
	</defs>
	<rect x = "5" y = "10" width = "74" height = "27" class = "element"/>
	<polygon class = "nodeStyle" points = "11,12 7,16 11,20 15,16"/>
	<rect x = "6" y = "25" width = "72" height = "11" class = "elTypeBkgnd"/>
	<text x = "6" y = "33" class = "elType">ChannelScaleType</text>
	<image xlink:href = "../dgmTypeEmpty.gif" width = "10" height = "10" x = "69" y = "20"/>
	<polyline class = "connector" points = "79,23 109,23"/>
	<rect x = "109" y = "5" width = "348" height = "37" class = "attrGroup" rx = "5" ry = "5"/>
	<circle class = "occurs" cx = "120" cy = "23" r = "6"/>
	<text x = "117" y = "26" class = "occurLarge">?</text>
	<rect x = "126" y = "10" width = "60" height = "27" class = "element" rx = "5" ry = "5"/>
	<circle class = "nodeStyle" cx = "132" cy = "16" r = "4"/>
	<text x = "137" y = "21" class = "elName">Gamma</text>
	<rect x = "127" y = "11" width = "58" height = "25" class = "elTypeBkgnd" rx = "5" ry = "5" clip-path = "url(#t:ChannelScaleType/a:Gamma)"/>
	<defs/>
	<clipPath id = "t:ChannelScaleType/a:Gamma">
		<rect x = "126" y = "25" width = "60" height = "11"/>
	</clipPath>
	<text x = "127" y = "33" class = "elType">float</text>
	<image xlink:href = "../dgmDtFloat.gif" width = "10" height = "10" x = "176" y = "20"/>
	<rect x = "297" y = "10" width = "74" height = "27" class = "element" rx = "5" ry = "5"/>
	<circle class = "nodeStyle" cx = "303" cy = "16" r = "4"/>
	<text x = "308" y = "21" class = "elName">BlackLevel</text>
	<rect x = "298" y = "11" width = "72" height = "25" class = "elTypeBkgnd" rx = "5" ry = "5" clip-path = "url(#t:ChannelScaleType/a:BlackLevel)"/>
	<defs/>
	<clipPath id = "t:ChannelScaleType/a:BlackLevel">
		<rect x = "297" y = "25" width = "74" height = "11"/>
	</clipPath>
	<text x = "298" y = "33" class = "elType">int</text>
	<image xlink:href = "../dgmDtInteger.gif" width = "10" height = "10" x = "361" y = "20"/>
	<rect x = "376" y = "10" width = "76" height = "27" class = "element" rx = "5" ry = "5"/>
	<circle class = "nodeStyle" cx = "382" cy = "16" r = "4"/>
	<text x = "387" y = "21" class = "elName">WhiteLevel</text>
	<rect x = "377" y = "11" width = "74" height = "25" class = "elTypeBkgnd" rx = "5" ry = "5" clip-path = "url(#t:ChannelScaleType/a:WhiteLevel)"/>
	<defs/>
	<clipPath id = "t:ChannelScaleType/a:WhiteLevel">
		<rect x = "376" y = "25" width = "76" height = "11"/>
	</clipPath>
	<text x = "377" y = "33" class = "elType">int</text>
	<image xlink:href = "../dgmDtInteger.gif" width = "10" height = "10" x = "442" y = "20"/>
	<rect x = "191" y = "10" width = "101" height = "27" class = "element" rx = "5" ry = "5"/>
	<circle class = "nodeStyle" cx = "197" cy = "16" r = "4"/>
	<text x = "202" y = "21" class = "elName">ChannelNumber</text>
	<rect x = "192" y = "11" width = "99" height = "25" class = "elTypeBkgnd" rx = "5" ry = "5" clip-path = "url(#t:ChannelScaleType/a:ChannelNumber)"/>
	<defs/>
	<clipPath id = "t:ChannelScaleType/a:ChannelNumber">
		<rect x = "191" y = "25" width = "101" height = "11"/>
	</clipPath>
	<text x = "192" y = "33" class = "elType">int</text>
	<image xlink:href = "../dgmDtInteger.gif" width = "10" height = "10" x = "282" y = "20"/>
</svg>