<?xml version = "1.0"?>
<!DOCTYPE svg PUBLIC "-//W3C//DTD SVG 20010904//EN" "http://www.w3.org/TR/2001/REC-SVG-20010904/DTD/svg10.dtd">
<svg width = "221pt" height = "113pt" viewBox = "0 0 221 113" xmlns = "http://www.w3.org/2000/svg" xmlns:xlink = "http://www.w3.org/1999/xlink">
	<defs>
		<style type = "text/css"><![CDATA[
rect.attrGroup { fill: ivory ; stroke: black; stroke-width: 1 }
rect.element { fill: ivory ; stroke: black; stroke-width: 1 }
rect.elTypeBkgnd { fill: lightgray ; stroke: none }
text.elName { font-family: helvetica ; font-size : 10 }
text.elType { font-family: helvetica ; font-size : 7 }
text.occurLarge { font-family: helvetica ; font-size : 9; fill : blue }
text.occurSmall { font-family: helvetica ; font-size : 7; fill : blue }
rect.typeIconDark { fill : darkslategray }
circle.occurs { stroke : black ; stroke-width: 1; fill : white }
circle.ellipsis { fill : black }
path.typeIconDark { stroke : lightgray ; stroke-width: 1 }
path.connector { stroke : red ; stroke-width: 1 ; fill: none; }
path.modelGroup { stroke : black ; stroke-width: 1 ; fill: lightgray; }
polyline.connector { stroke : red ; stroke-width: 1 ; fill: none; }
.nodeStyle { fill : blue }
]]></style>
	</defs>
	<rect x = "95" y = "5" width = "119" height = "37" class = "attrGroup" rx = "5" ry = "5"/>
	<rect x = "100" y = "10" width = "41" height = "27" class = "element" rx = "5" ry = "5"/>
	<circle class = "nodeStyle" cx = "106" cy = "16" r = "4"/>
	<text x = "111" y = "21" class = "elName">Tag</text>
	<rect x = "101" y = "11" width = "39" height = "25" class = "elTypeBkgnd" rx = "5" ry = "5" clip-path = "url(#e:Feature/a:Tag)"/>
	<defs/>
	<clipPath id = "e:Feature/a:Tag">
		<rect x = "100" y = "25" width = "41" height = "11"/>
	</clipPath>
	<text x = "101" y = "33" class = "elType">string</text>
	<image xlink:href = "../dgmDtString.gif" width = "10" height = "10" x = "131" y = "20"/>
	<circle class = "occurs" cx = "152" cy = "23" r = "6"/>
	<text x = "149" y = "26" class = "occurLarge">?</text>
	<rect x = "158" y = "10" width = "51" height = "27" class = "element" rx = "5" ry = "5"/>
	<circle class = "nodeStyle" cx = "164" cy = "16" r = "4"/>
	<text x = "169" y = "21" class = "elName">Name</text>
	<rect x = "159" y = "11" width = "49" height = "25" class = "elTypeBkgnd" rx = "5" ry = "5" clip-path = "url(#e:Feature/a:Name)"/>
	<defs/>
	<clipPath id = "e:Feature/a:Name">
		<rect x = "158" y = "25" width = "51" height = "11"/>
	</clipPath>
	<text x = "159" y = "33" class = "elType">string</text>
	<image xlink:href = "../dgmDtString.gif" width = "10" height = "10" x = "199" y = "20"/>
	<rect x = "5" y = "64" width = "60" height = "27" class = "element"/>
	<polygon class = "nodeStyle" points = "11,66 7,70 11,74 15,70"/>
	<text x = "16" y = "75" class = "elName">Feature</text>
	<rect x = "6" y = "79" width = "58" height = "11" class = "elTypeBkgnd"/>
	<image xlink:href = "../dgmTypeComplex.gif" width = "10" height = "10" x = "55" y = "74"/>
	<polyline class = "connector" points = "95,60 75,60 75,77 65,77 75,77 75,94 95,94"/>
	<polyline class = "connector" points = "65,75 73,75 73,23 95,23"/>
	<circle class = "occurs" cx = "101" cy = "60" r = "6"/>
	<text x = "98" y = "63" class = "occurLarge">*</text>
	<rect x = "107" y = "47" width = "60" height = "27" class = "element"/>
	<polygon class = "nodeStyle" points = "113,49 109,53 113,57 117,53"/>
	<text x = "118" y = "58" class = "elName">Feature</text>
	<rect x = "108" y = "62" width = "58" height = "11" class = "elTypeBkgnd"/>
	<image xlink:href = "../dgmTypeComplex.gif" width = "10" height = "10" x = "157" y = "57"/>
	<circle class = "occurs" cx = "101" cy = "94" r = "6"/>
	<text x = "98" y = "97" class = "occurLarge">?</text>
	<rect x = "107" y = "81" width = "109" height = "27" class = "element"/>
	<polygon class = "nodeStyle" points = "113,83 109,87 113,91 117,87"/>
	<text x = "118" y = "92" class = "elName">CustomAttributes</text>
	<rect x = "108" y = "96" width = "107" height = "11" class = "elTypeBkgnd"/>
	<image xlink:href = "../dgmTypeAny.gif" width = "10" height = "10" x = "206" y = "91"/>
</svg>