<?xml version = "1.0"?>
<!DOCTYPE svg PUBLIC "-//W3C//DTD SVG 20010904//EN" "http://www.w3.org/TR/2001/REC-SVG-20010904/DTD/svg10.dtd">
<svg width = "377pt" height = "47pt" viewBox = "0 0 377 47" xmlns = "http://www.w3.org/2000/svg" xmlns:xlink = "http://www.w3.org/1999/xlink">
	<defs>
		<style type = "text/css"><![CDATA[
rect.attrGroup { fill: ivory ; stroke: black; stroke-width: 1 }
rect.element { fill: ivory ; stroke: black; stroke-width: 1 }
rect.elTypeBkgnd { fill: lightgray ; stroke: none }
text.elName { font-family: helvetica ; font-size : 10 }
text.elType { font-family: helvetica ; font-size : 7 }
text.occurLarge { font-family: helvetica ; font-size : 9; fill : blue }
text.occurSmall { font-family: helvetica ; font-size : 7; fill : blue }
rect.typeIconDark { fill : darkslategray }
circle.occurs { stroke : black ; stroke-width: 1; fill : white }
circle.ellipsis { fill : black }
path.typeIconDark { stroke : lightgray ; stroke-width: 1 }
path.connector { stroke : red ; stroke-width: 1 ; fill: none; }
path.modelGroup { stroke : black ; stroke-width: 1 ; fill: lightgray; }
polyline.connector { stroke : red ; stroke-width: 1 ; fill: none; }
.nodeStyle { fill : blue }
]]></style>
	</defs>
	<rect x = "5" y = "10" width = "46" height = "27" class = "element"/>
	<polygon class = "nodeStyle" points = "11,12 7,16 11,20 15,16"/>
	<text x = "16" y = "21" class = "elName">Field</text>
	<rect x = "6" y = "25" width = "44" height = "11" class = "elTypeBkgnd"/>
	<image xlink:href = "../dgmTypeEmpty.gif" width = "10" height = "10" x = "41" y = "20"/>
	<polyline class = "connector" points = "51,23 81,23"/>
	<rect x = "81" y = "5" width = "291" height = "37" class = "attrGroup" rx = "5" ry = "5"/>
	<rect x = "86" y = "10" width = "51" height = "27" class = "element" rx = "5" ry = "5"/>
	<circle class = "nodeStyle" cx = "92" cy = "16" r = "4"/>
	<text x = "97" y = "21" class = "elName">Name</text>
	<rect x = "87" y = "11" width = "49" height = "25" class = "elTypeBkgnd" rx = "5" ry = "5" clip-path = "url(#e:Field/a:Name)"/>
	<defs/>
	<clipPath id = "e:Field/a:Name">
		<rect x = "86" y = "25" width = "51" height = "11"/>
	</clipPath>
	<image xlink:href = "../dgmDtString.gif" width = "10" height = "10" x = "127" y = "20"/>
	<rect x = "237" y = "10" width = "56" height = "27" class = "element" rx = "5" ry = "5"/>
	<circle class = "nodeStyle" cx = "243" cy = "16" r = "4"/>
	<text x = "248" y = "21" class = "elName">FieldID</text>
	<rect x = "238" y = "11" width = "54" height = "25" class = "elTypeBkgnd" rx = "5" ry = "5" clip-path = "url(#e:Field/a:FieldID)"/>
	<defs/>
	<clipPath id = "e:Field/a:FieldID">
		<rect x = "237" y = "25" width = "56" height = "11"/>
	</clipPath>
	<text x = "238" y = "33" class = "elType">NMTOKEN</text>
	<image xlink:href = "../dgmDtName.gif" width = "10" height = "10" x = "283" y = "20"/>
	<rect x = "298" y = "10" width = "69" height = "27" class = "element" rx = "5" ry = "5"/>
	<circle class = "nodeStyle" cx = "304" cy = "16" r = "4"/>
	<text x = "309" y = "21" class = "elName">DataType</text>
	<rect x = "299" y = "11" width = "67" height = "25" class = "elTypeBkgnd" rx = "5" ry = "5" clip-path = "url(#e:Field/a:DataType)"/>
	<defs/>
	<clipPath id = "e:Field/a:DataType">
		<rect x = "298" y = "25" width = "69" height = "11"/>
	</clipPath>
	<image xlink:href = "../dgmDtString.gif" width = "10" height = "10" x = "357" y = "20"/>
	<circle class = "occurs" cx = "148" cy = "23" r = "6"/>
	<text x = "145" y = "26" class = "occurLarge">?</text>
	<rect x = "154" y = "10" width = "78" height = "27" class = "element" rx = "5" ry = "5"/>
	<circle class = "nodeStyle" cx = "160" cy = "16" r = "4"/>
	<text x = "165" y = "21" class = "elName">Description</text>
	<rect x = "155" y = "11" width = "76" height = "25" class = "elTypeBkgnd" rx = "5" ry = "5" clip-path = "url(#e:Field/a:Description)"/>
	<defs/>
	<clipPath id = "e:Field/a:Description">
		<rect x = "154" y = "25" width = "78" height = "11"/>
	</clipPath>
	<text x = "155" y = "33" class = "elType">string</text>
	<image xlink:href = "../dgmDtString.gif" width = "10" height = "10" x = "222" y = "20"/>
</svg>