<?xml version = "1.0"?>
<!DOCTYPE svg PUBLIC "-//W3C//DTD SVG 20010904//EN" "http://www.w3.org/TR/2001/REC-SVG-20010904/DTD/svg10.dtd">
<svg width = "294pt" height = "71pt" viewBox = "0 0 294 71" xmlns = "http://www.w3.org/2000/svg" xmlns:xlink = "http://www.w3.org/1999/xlink">
	<defs>
		<style type = "text/css"><![CDATA[
rect.attrGroup { fill: ivory ; stroke: black; stroke-width: 1 }
rect.element { fill: ivory ; stroke: black; stroke-width: 1 }
rect.elTypeBkgnd { fill: lightgray ; stroke: none }
text.elName { font-family: helvetica ; font-size : 10 }
text.elType { font-family: helvetica ; font-size : 7 }
text.occurLarge { font-family: helvetica ; font-size : 9; fill : blue }
text.occurSmall { font-family: helvetica ; font-size : 7; fill : blue }
rect.typeIconDark { fill : darkslategray }
circle.occurs { stroke : black ; stroke-width: 1; fill : white }
circle.ellipsis { fill : black }
path.typeIconDark { stroke : lightgray ; stroke-width: 1 }
path.connector { stroke : red ; stroke-width: 1 ; fill: none; }
path.modelGroup { stroke : black ; stroke-width: 1 ; fill: lightgray; }
polyline.connector { stroke : red ; stroke-width: 1 ; fill: none; }
.nodeStyle { fill : blue }
]]></style>
	</defs>
	<rect x = "5" y = "22" width = "143" height = "27" class = "element"/>
	<polygon class = "nodeStyle" points = "11,24 7,28 11,32 15,28"/>
	<text x = "16" y = "33" class = "elName">SemanticTypeDefinitions</text>
	<rect x = "6" y = "37" width = "141" height = "11" class = "elTypeBkgnd"/>
	<image xlink:href = "../dgmTypeComplex.gif" width = "10" height = "10" x = "138" y = "32"/>
	<polyline class = "connector" points = "178,18 158,18 158,35 148,35 158,35 158,52 178,52"/>
	<circle class = "occurs" cx = "184" cy = "18" r = "6"/>
	<text x = "181" y = "21" class = "occurLarge">+</text>
	<rect x = "190" y = "5" width = "90" height = "27" class = "element"/>
	<polygon class = "nodeStyle" points = "196,7 192,11 196,15 200,11"/>
	<text x = "201" y = "16" class = "elName">SemanticType</text>
	<rect x = "191" y = "20" width = "88" height = "11" class = "elTypeBkgnd"/>
	<image xlink:href = "../dgmTypeComplex.gif" width = "10" height = "10" x = "270" y = "15"/>
	<polyline class = "connector" points = "178,52 190,52"/>
	<rect x = "190" y = "39" width = "99" height = "27" class = "element"/>
	<polygon class = "nodeStyle" points = "196,41 192,45 196,49 200,45"/>
	<text x = "201" y = "50" class = "elName">DataDefinitions</text>
	<rect x = "191" y = "54" width = "97" height = "11" class = "elTypeBkgnd"/>
	<image xlink:href = "../dgmTypeComplex.gif" width = "10" height = "10" x = "279" y = "49"/>
</svg>