<?xml version = "1.0"?>
<!DOCTYPE svg PUBLIC "-//W3C//DTD SVG 20010904//EN" "http://www.w3.org/TR/2001/REC-SVG-20010904/DTD/svg10.dtd">
<svg width = "353pt" height = "79pt" viewBox = "0 0 353 79" xmlns = "http://www.w3.org/2000/svg" xmlns:xlink = "http://www.w3.org/1999/xlink">
	<defs>
		<style type = "text/css"><![CDATA[
rect.attrGroup { fill: ivory ; stroke: black; stroke-width: 1 }
rect.element { fill: ivory ; stroke: black; stroke-width: 1 }
rect.elTypeBkgnd { fill: lightgray ; stroke: none }
text.elName { font-family: helvetica ; font-size : 10 }
text.elType { font-family: helvetica ; font-size : 7 }
text.occurLarge { font-family: helvetica ; font-size : 9; fill : blue }
text.occurSmall { font-family: helvetica ; font-size : 7; fill : blue }
rect.typeIconDark { fill : darkslategray }
circle.occurs { stroke : black ; stroke-width: 1; fill : white }
circle.ellipsis { fill : black }
path.typeIconDark { stroke : lightgray ; stroke-width: 1 }
path.connector { stroke : red ; stroke-width: 1 ; fill: none; }
path.modelGroup { stroke : black ; stroke-width: 1 ; fill: lightgray; }
polyline.connector { stroke : red ; stroke-width: 1 ; fill: none; }
.nodeStyle { fill : blue }
]]></style>
	</defs>
	<rect x = "125" y = "5" width = "223" height = "37" class = "attrGroup" rx = "5" ry = "5"/>
	<circle class = "occurs" cx = "136" cy = "23" r = "6"/>
	<text x = "133" y = "26" class = "occurLarge">?</text>
	<rect x = "142" y = "10" width = "78" height = "27" class = "element" rx = "5" ry = "5"/>
	<circle class = "nodeStyle" cx = "148" cy = "16" r = "4"/>
	<text x = "153" y = "21" class = "elName">Description</text>
	<rect x = "143" y = "11" width = "76" height = "25" class = "elTypeBkgnd" rx = "5" ry = "5" clip-path = "url(#e:SemanticType/a:Description)"/>
	<defs/>
	<clipPath id = "e:SemanticType/a:Description">
		<rect x = "142" y = "25" width = "78" height = "11"/>
	</clipPath>
	<text x = "143" y = "33" class = "elType">string</text>
	<image xlink:href = "../dgmDtString.gif" width = "10" height = "10" x = "210" y = "20"/>
	<rect x = "225" y = "10" width = "118" height = "27" class = "element" rx = "5" ry = "5"/>
	<circle class = "nodeStyle" cx = "231" cy = "16" r = "4"/>
	<text x = "236" y = "21" class = "elName">SemanticTypeName</text>
	<rect x = "226" y = "11" width = "116" height = "25" class = "elTypeBkgnd" rx = "5" ry = "5" clip-path = "url(#e:SemanticType/a:SemanticTypeName)"/>
	<defs/>
	<clipPath id = "e:SemanticType/a:SemanticTypeName">
		<rect x = "225" y = "25" width = "118" height = "11"/>
	</clipPath>
	<text x = "226" y = "33" class = "elType">string</text>
	<image xlink:href = "../dgmDtString.gif" width = "10" height = "10" x = "333" y = "20"/>
	<rect x = "5" y = "47" width = "90" height = "27" class = "element"/>
	<polygon class = "nodeStyle" points = "11,49 7,53 11,57 15,53"/>
	<text x = "16" y = "58" class = "elName">SemanticType</text>
	<rect x = "6" y = "62" width = "88" height = "11" class = "elTypeBkgnd"/>
	<image xlink:href = "../dgmTypeComplex.gif" width = "10" height = "10" x = "85" y = "57"/>
	<polyline class = "connector" points = "95,60 125,60"/>
	<polyline class = "connector" points = "95,58 103,58 103,23 125,23"/>
	<circle class = "occurs" cx = "131" cy = "60" r = "6"/>
	<text x = "128" y = "63" class = "occurLarge">+</text>
	<rect x = "137" y = "47" width = "106" height = "27" class = "element"/>
	<polygon class = "nodeStyle" points = "143,49 139,53 143,57 147,53"/>
	<text x = "148" y = "58" class = "elName">SemanticElement</text>
	<rect x = "138" y = "62" width = "104" height = "11" class = "elTypeBkgnd"/>
	<image xlink:href = "../dgmTypeEmpty.gif" width = "10" height = "10" x = "233" y = "57"/>
</svg>