<?xml version = "1.0"?>
<!DOCTYPE svg PUBLIC "-//W3C//DTD SVG 20010904//EN" "http://www.w3.org/TR/2001/REC-SVG-20010904/DTD/svg10.dtd">
<svg width = "266pt" height = "113pt" viewBox = "0 0 266 113" xmlns = "http://www.w3.org/2000/svg" xmlns:xlink = "http://www.w3.org/1999/xlink">
	<defs>
		<style type = "text/css"><![CDATA[
rect.attrGroup { fill: ivory ; stroke: black; stroke-width: 1 }
rect.element { fill: ivory ; stroke: black; stroke-width: 1 }
rect.elTypeBkgnd { fill: lightgray ; stroke: none }
text.elName { font-family: helvetica ; font-size : 10 }
text.elType { font-family: helvetica ; font-size : 7 }
text.occurLarge { font-family: helvetica ; font-size : 9; fill : blue }
text.occurSmall { font-family: helvetica ; font-size : 7; fill : blue }
rect.typeIconDark { fill : darkslategray }
circle.occurs { stroke : black ; stroke-width: 1; fill : white }
circle.ellipsis { fill : black }
path.typeIconDark { stroke : lightgray ; stroke-width: 1 }
path.connector { stroke : red ; stroke-width: 1 ; fill: none; }
path.modelGroup { stroke : black ; stroke-width: 1 ; fill: lightgray; }
polyline.connector { stroke : red ; stroke-width: 1 ; fill: none; }
.nodeStyle { fill : blue }
]]></style>
	</defs>
	<rect x = "126" y = "5" width = "135" height = "37" class = "attrGroup" rx = "5" ry = "5"/>
	<rect x = "131" y = "10" width = "51" height = "27" class = "element" rx = "5" ry = "5"/>
	<circle class = "nodeStyle" cx = "137" cy = "16" r = "4"/>
	<text x = "142" y = "21" class = "elName">Name</text>
	<rect x = "132" y = "11" width = "49" height = "25" class = "elTypeBkgnd" rx = "5" ry = "5" clip-path = "url(#e:AnalysisChain/a:Name)"/>
	<defs/>
	<clipPath id = "e:AnalysisChain/a:Name">
		<rect x = "131" y = "25" width = "51" height = "11"/>
	</clipPath>
	<text x = "132" y = "33" class = "elType">string</text>
	<image xlink:href = "../dgmDtString.gif" width = "10" height = "10" x = "172" y = "20"/>
	<circle class = "occurs" cx = "193" cy = "23" r = "6"/>
	<text x = "190" y = "26" class = "occurLarge">D</text>
	<rect x = "199" y = "10" width = "57" height = "27" class = "element" rx = "5" ry = "5"/>
	<circle class = "nodeStyle" cx = "205" cy = "16" r = "4"/>
	<text x = "210" y = "21" class = "elName">Locked</text>
	<rect x = "200" y = "11" width = "55" height = "25" class = "elTypeBkgnd" rx = "5" ry = "5" clip-path = "url(#e:AnalysisChain/a:Locked)"/>
	<defs/>
	<clipPath id = "e:AnalysisChain/a:Locked">
		<rect x = "199" y = "25" width = "57" height = "11"/>
	</clipPath>
	<text x = "200" y = "33" class = "elType">boolean</text>
	<image xlink:href = "../dgmDtBoolean.gif" width = "10" height = "10" x = "246" y = "20"/>
	<rect x = "5" y = "64" width = "91" height = "27" class = "element"/>
	<polygon class = "nodeStyle" points = "11,66 7,70 11,74 15,70"/>
	<text x = "16" y = "75" class = "elName">AnalysisChain</text>
	<rect x = "6" y = "79" width = "89" height = "11" class = "elTypeBkgnd"/>
	<image xlink:href = "../dgmTypeComplex.gif" width = "10" height = "10" x = "86" y = "74"/>
	<polyline class = "connector" points = "126,60 106,60 106,77 96,77 106,77 106,94 126,94"/>
	<polyline class = "connector" points = "96,75 104,75 104,23 126,23"/>
	<polyline class = "connector" points = "126,60 138,60"/>
	<rect x = "138" y = "47" width = "53" height = "27" class = "element"/>
	<polygon class = "nodeStyle" points = "144,49 140,53 144,57 148,53"/>
	<text x = "149" y = "58" class = "elName">Nodes</text>
	<rect x = "139" y = "62" width = "51" height = "11" class = "elTypeBkgnd"/>
	<image xlink:href = "../dgmTypeComplex.gif" width = "10" height = "10" x = "181" y = "57"/>
	<polyline class = "connector" points = "126,94 138,94"/>
	<rect x = "138" y = "81" width = "48" height = "27" class = "element"/>
	<polygon class = "nodeStyle" points = "144,83 140,87 144,91 148,87"/>
	<text x = "149" y = "92" class = "elName">Links</text>
	<rect x = "139" y = "96" width = "46" height = "11" class = "elTypeBkgnd"/>
	<image xlink:href = "../dgmTypeComplex.gif" width = "10" height = "10" x = "176" y = "91"/>
</svg>