<?xml version = "1.0"?>
<!DOCTYPE svg PUBLIC "-//W3C//DTD SVG 20010904//EN" "http://www.w3.org/TR/2001/REC-SVG-20010904/DTD/svg10.dtd">
<svg width = "457pt" height = "47pt" viewBox = "0 0 457 47" xmlns = "http://www.w3.org/2000/svg" xmlns:xlink = "http://www.w3.org/1999/xlink">
	<defs>
		<style type = "text/css"><![CDATA[
rect.attrGroup { fill: ivory ; stroke: black; stroke-width: 1 }
rect.element { fill: ivory ; stroke: black; stroke-width: 1 }
rect.elTypeBkgnd { fill: lightgray ; stroke: none }
text.elName { font-family: helvetica ; font-size : 10 }
text.elType { font-family: helvetica ; font-size : 7 }
text.occurLarge { font-family: helvetica ; font-size : 9; fill : blue }
text.occurSmall { font-family: helvetica ; font-size : 7; fill : blue }
rect.typeIconDark { fill : darkslategray }
circle.occurs { stroke : black ; stroke-width: 1; fill : white }
circle.ellipsis { fill : black }
path.typeIconDark { stroke : lightgray ; stroke-width: 1 }
path.connector { stroke : red ; stroke-width: 1 ; fill: none; }
path.modelGroup { stroke : black ; stroke-width: 1 ; fill: lightgray; }
polyline.connector { stroke : red ; stroke-width: 1 ; fill: none; }
.nodeStyle { fill : blue }
]]></style>
	</defs>
	<rect x = "5" y = "10" width = "43" height = "27" class = "element"/>
	<polygon class = "nodeStyle" points = "11,12 7,16 11,20 15,16"/>
	<text x = "16" y = "21" class = "elName">Link</text>
	<rect x = "6" y = "25" width = "41" height = "11" class = "elTypeBkgnd"/>
	<image xlink:href = "../dgmTypeEmpty.gif" width = "10" height = "10" x = "38" y = "20"/>
	<polyline class = "connector" points = "48,23 78,23"/>
	<rect x = "78" y = "5" width = "374" height = "37" class = "attrGroup" rx = "5" ry = "5"/>
	<rect x = "83" y = "10" width = "70" height = "27" class = "element" rx = "5" ry = "5"/>
	<circle class = "nodeStyle" cx = "89" cy = "16" r = "4"/>
	<text x = "94" y = "21" class = "elName">ToNodeID</text>
	<rect x = "84" y = "11" width = "68" height = "25" class = "elTypeBkgnd" rx = "5" ry = "5" clip-path = "url(#e:Link/a:ToNodeID)"/>
	<defs/>
	<clipPath id = "e:Link/a:ToNodeID">
		<rect x = "83" y = "25" width = "70" height = "11"/>
	</clipPath>
	<text x = "84" y = "33" class = "elType">string</text>
	<image xlink:href = "../dgmDtString.gif" width = "10" height = "10" x = "143" y = "20"/>
	<rect x = "272" y = "10" width = "82" height = "27" class = "element" rx = "5" ry = "5"/>
	<circle class = "nodeStyle" cx = "278" cy = "16" r = "4"/>
	<text x = "283" y = "21" class = "elName">FromNodeID</text>
	<rect x = "273" y = "11" width = "80" height = "25" class = "elTypeBkgnd" rx = "5" ry = "5" clip-path = "url(#e:Link/a:FromNodeID)"/>
	<defs/>
	<clipPath id = "e:Link/a:FromNodeID">
		<rect x = "272" y = "25" width = "82" height = "11"/>
	</clipPath>
	<text x = "273" y = "33" class = "elType">string</text>
	<image xlink:href = "../dgmDtString.gif" width = "10" height = "10" x = "344" y = "20"/>
	<rect x = "359" y = "10" width = "88" height = "27" class = "element" rx = "5" ry = "5"/>
	<circle class = "nodeStyle" cx = "365" cy = "16" r = "4"/>
	<text x = "370" y = "21" class = "elName">ToInputName</text>
	<rect x = "360" y = "11" width = "86" height = "25" class = "elTypeBkgnd" rx = "5" ry = "5" clip-path = "url(#e:Link/a:ToInputName)"/>
	<defs/>
	<clipPath id = "e:Link/a:ToInputName">
		<rect x = "359" y = "25" width = "88" height = "11"/>
	</clipPath>
	<text x = "360" y = "33" class = "elType">string</text>
	<image xlink:href = "../dgmDtString.gif" width = "10" height = "10" x = "437" y = "20"/>
	<rect x = "158" y = "10" width = "109" height = "27" class = "element" rx = "5" ry = "5"/>
	<circle class = "nodeStyle" cx = "164" cy = "16" r = "4"/>
	<text x = "169" y = "21" class = "elName">FromOutputName</text>
	<rect x = "159" y = "11" width = "107" height = "25" class = "elTypeBkgnd" rx = "5" ry = "5" clip-path = "url(#e:Link/a:FromOutputName)"/>
	<defs/>
	<clipPath id = "e:Link/a:FromOutputName">
		<rect x = "158" y = "25" width = "109" height = "11"/>
	</clipPath>
	<text x = "159" y = "33" class = "elType">string</text>
	<image xlink:href = "../dgmDtString.gif" width = "10" height = "10" x = "257" y = "20"/>
</svg>