<?xml version = "1.0"?>
<!DOCTYPE svg PUBLIC "-//W3C//DTD SVG 20010904//EN" "http://www.w3.org/TR/2001/REC-SVG-20010904/DTD/svg10.dtd">
<svg width = "254pt" height = "79pt" viewBox = "0 0 254 79" xmlns = "http://www.w3.org/2000/svg" xmlns:xlink = "http://www.w3.org/1999/xlink">
	<defs>
		<style type = "text/css"><![CDATA[
rect.attrGroup { fill: ivory ; stroke: black; stroke-width: 1 }
rect.element { fill: ivory ; stroke: black; stroke-width: 1 }
rect.elTypeBkgnd { fill: lightgray ; stroke: none }
text.elName { font-family: helvetica ; font-size : 10 }
text.elType { font-family: helvetica ; font-size : 7 }
text.occurLarge { font-family: helvetica ; font-size : 9; fill : blue }
text.occurSmall { font-family: helvetica ; font-size : 7; fill : blue }
rect.typeIconDark { fill : darkslategray }
circle.occurs { stroke : black ; stroke-width: 1; fill : white }
circle.ellipsis { fill : black }
path.typeIconDark { stroke : lightgray ; stroke-width: 1 }
path.connector { stroke : red ; stroke-width: 1 ; fill: none; }
path.modelGroup { stroke : black ; stroke-width: 1 ; fill: lightgray; }
polyline.connector { stroke : red ; stroke-width: 1 ; fill: none; }
.nodeStyle { fill : blue }
]]></style>
	</defs>
	<rect x = "109" y = "5" width = "140" height = "37" class = "attrGroup" rx = "5" ry = "5"/>
	<circle class = "occurs" cx = "120" cy = "23" r = "6"/>
	<text x = "117" y = "26" class = "occurLarge">?</text>
	<rect x = "126" y = "10" width = "43" height = "27" class = "element" rx = "5" ry = "5"/>
	<circle class = "nodeStyle" cx = "132" cy = "16" r = "4"/>
	<text x = "137" y = "21" class = "elName">href</text>
	<rect x = "127" y = "11" width = "41" height = "25" class = "elTypeBkgnd" rx = "5" ry = "5" clip-path = "url(#e:Thumbnail/a:href)"/>
	<defs/>
	<clipPath id = "e:Thumbnail/a:href">
		<rect x = "126" y = "25" width = "43" height = "11"/>
	</clipPath>
	<text x = "127" y = "33" class = "elType">uri</text>
	<image xlink:href = "../dgmDtString.gif" width = "10" height = "10" x = "159" y = "20"/>
	<rect x = "174" y = "10" width = "70" height = "27" class = "element" rx = "5" ry = "5"/>
	<circle class = "nodeStyle" cx = "180" cy = "16" r = "4"/>
	<text x = "185" y = "21" class = "elName">MIMEtype</text>
	<rect x = "175" y = "11" width = "68" height = "25" class = "elTypeBkgnd" rx = "5" ry = "5" clip-path = "url(#e:Thumbnail/a:MIMEtype)"/>
	<defs/>
	<clipPath id = "e:Thumbnail/a:MIMEtype">
		<rect x = "174" y = "25" width = "70" height = "11"/>
	</clipPath>
	<text x = "175" y = "33" class = "elType">MIMEtype</text>
	<image xlink:href = "../dgmDtString.gif" width = "10" height = "10" x = "234" y = "20"/>
	<rect x = "5" y = "47" width = "74" height = "27" class = "element"/>
	<polygon class = "nodeStyle" points = "11,49 7,53 11,57 15,53"/>
	<text x = "16" y = "58" class = "elName">Thumbnail</text>
	<rect x = "6" y = "62" width = "72" height = "11" class = "elTypeBkgnd"/>
	<image xlink:href = "../dgmTypeComplex.gif" width = "10" height = "10" x = "69" y = "57"/>
	<polyline class = "connector" points = "79,60 109,60"/>
	<polyline class = "connector" points = "79,58 87,58 87,23 109,23"/>
	<circle class = "occurs" cx = "115" cy = "60" r = "6"/>
	<text x = "112" y = "63" class = "occurLarge">?</text>
	<rect x = "121" y = "47" width = "72" height = "27" class = "element"/>
	<polygon class = "nodeStyle" points = "127,49 123,53 127,57 131,53"/>
	<text x = "132" y = "58" class = "elName">#wildCard</text>
	<rect x = "122" y = "62" width = "70" height = "11" class = "elTypeBkgnd"/>
	<text x = "122" y = "70" class = "elType">?</text>
</svg>