<?xml version = "1.0"?>
<!DOCTYPE svg PUBLIC "-//W3C//DTD SVG 20010904//EN" "http://www.w3.org/TR/2001/REC-SVG-20010904/DTD/svg10.dtd">
<svg width = "433pt" height = "651pt" viewBox = "0 0 433 651" xmlns = "http://www.w3.org/2000/svg" xmlns:xlink = "http://www.w3.org/1999/xlink">
	<defs>
		<style type = "text/css"><![CDATA[
rect.attrGroup { fill: ivory ; stroke: black; stroke-width: 1 }
rect.element { fill: ivory ; stroke: black; stroke-width: 1 }
rect.elTypeBkgnd { fill: lightgray ; stroke: none }
text.elName { font-family: helvetica ; font-size : 10 }
text.elType { font-family: helvetica ; font-size : 7 }
text.occurLarge { font-family: helvetica ; font-size : 9; fill : blue }
text.occurSmall { font-family: helvetica ; font-size : 7; fill : blue }
rect.typeIconDark { fill : darkslategray }
circle.occurs { stroke : black ; stroke-width: 1; fill : white }
circle.ellipsis { fill : black }
path.typeIconDark { stroke : lightgray ; stroke-width: 1 }
path.connector { stroke : red ; stroke-width: 1 ; fill: none; }
path.modelGroup { stroke : black ; stroke-width: 1 ; fill: lightgray; }
polyline.connector { stroke : red ; stroke-width: 1 ; fill: none; }
.nodeStyle { fill : blue }
]]></style>
	</defs>
	<rect x = "88" y = "5" width = "340" height = "133" class = "attrGroup" rx = "5" ry = "5"/>
	<rect x = "93" y = "10" width = "46" height = "27" class = "element" rx = "5" ry = "5"/>
	<circle class = "nodeStyle" cx = "99" cy = "16" r = "4"/>
	<text x = "104" y = "21" class = "elName">Type</text>
	<rect x = "94" y = "11" width = "44" height = "25" class = "elTypeBkgnd" rx = "5" ry = "5" clip-path = "url(#e:Image/a:Type)"/>
	<defs/>
	<clipPath id = "e:Image/a:Type">
		<rect x = "93" y = "25" width = "46" height = "11"/>
	</clipPath>
	<text x = "94" y = "33" class = "elType">string</text>
	<image xlink:href = "../dgmDtString.gif" width = "10" height = "10" x = "129" y = "20"/>
	<rect x = "259" y = "10" width = "51" height = "27" class = "element" rx = "5" ry = "5"/>
	<circle class = "nodeStyle" cx = "265" cy = "16" r = "4"/>
	<text x = "270" y = "21" class = "elName">Name</text>
	<rect x = "260" y = "11" width = "49" height = "25" class = "elTypeBkgnd" rx = "5" ry = "5" clip-path = "url(#e:Image/a:Name)"/>
	<defs/>
	<clipPath id = "e:Image/a:Name">
		<rect x = "259" y = "25" width = "51" height = "11"/>
	</clipPath>
	<text x = "260" y = "33" class = "elType">string</text>
	<image xlink:href = "../dgmDtString.gif" width = "10" height = "10" x = "300" y = "20"/>
	<rect x = "93" y = "42" width = "63" height = "27" class = "element" rx = "5" ry = "5"/>
	<circle class = "nodeStyle" cx = "99" cy = "48" r = "4"/>
	<text x = "104" y = "53" class = "elName">ImageID</text>
	<rect x = "94" y = "43" width = "61" height = "25" class = "elTypeBkgnd" rx = "5" ry = "5" clip-path = "url(#e:Image/a:ImageID)"/>
	<defs/>
	<clipPath id = "e:Image/a:ImageID">
		<rect x = "93" y = "57" width = "63" height = "11"/>
	</clipPath>
	<text x = "94" y = "65" class = "elType">ImageID</text>
	<image xlink:href = "../dgmDtString.gif" width = "10" height = "10" x = "146" y = "52"/>
	<rect x = "256" y = "42" width = "64" height = "27" class = "element" rx = "5" ry = "5"/>
	<circle class = "nodeStyle" cx = "262" cy = "48" r = "4"/>
	<text x = "267" y = "53" class = "elName">SizeX</text>
	<rect x = "257" y = "43" width = "62" height = "25" class = "elTypeBkgnd" rx = "5" ry = "5" clip-path = "url(#e:Image/a:SizeX)"/>
	<defs/>
	<clipPath id = "e:Image/a:SizeX">
		<rect x = "256" y = "57" width = "64" height = "11"/>
	</clipPath>
	<text x = "257" y = "65" class = "elType">positiveInteger</text>
	<image xlink:href = "../dgmDtInteger.gif" width = "10" height = "10" x = "310" y = "52"/>
	<rect x = "93" y = "74" width = "64" height = "27" class = "element" rx = "5" ry = "5"/>
	<circle class = "nodeStyle" cx = "99" cy = "80" r = "4"/>
	<text x = "104" y = "85" class = "elName">SizeY</text>
	<rect x = "94" y = "75" width = "62" height = "25" class = "elTypeBkgnd" rx = "5" ry = "5" clip-path = "url(#e:Image/a:SizeY)"/>
	<defs/>
	<clipPath id = "e:Image/a:SizeY">
		<rect x = "93" y = "89" width = "64" height = "11"/>
	</clipPath>
	<text x = "94" y = "97" class = "elType">positiveInteger</text>
	<image xlink:href = "../dgmDtInteger.gif" width = "10" height = "10" x = "147" y = "84"/>
	<rect x = "241" y = "74" width = "64" height = "27" class = "element" rx = "5" ry = "5"/>
	<circle class = "nodeStyle" cx = "247" cy = "80" r = "4"/>
	<text x = "252" y = "85" class = "elName">SizeZ</text>
	<rect x = "242" y = "75" width = "62" height = "25" class = "elTypeBkgnd" rx = "5" ry = "5" clip-path = "url(#e:Image/a:SizeZ)"/>
	<defs/>
	<clipPath id = "e:Image/a:SizeZ">
		<rect x = "241" y = "89" width = "64" height = "11"/>
	</clipPath>
	<text x = "242" y = "97" class = "elType">positiveInteger</text>
	<image xlink:href = "../dgmDtInteger.gif" width = "10" height = "10" x = "295" y = "84"/>
	<rect x = "93" y = "106" width = "73" height = "27" class = "element" rx = "5" ry = "5"/>
	<circle class = "nodeStyle" cx = "99" cy = "112" r = "4"/>
	<text x = "104" y = "117" class = "elName">PixelSizeX</text>
	<rect x = "94" y = "107" width = "71" height = "25" class = "elTypeBkgnd" rx = "5" ry = "5" clip-path = "url(#e:Image/a:PixelSizeX)"/>
	<defs/>
	<clipPath id = "e:Image/a:PixelSizeX">
		<rect x = "93" y = "121" width = "73" height = "11"/>
	</clipPath>
	<text x = "94" y = "129" class = "elType">float</text>
	<image xlink:href = "../dgmDtFloat.gif" width = "10" height = "10" x = "156" y = "116"/>
	<rect x = "171" y = "106" width = "73" height = "27" class = "element" rx = "5" ry = "5"/>
	<circle class = "nodeStyle" cx = "177" cy = "112" r = "4"/>
	<text x = "182" y = "117" class = "elName">PixelSizeY</text>
	<rect x = "172" y = "107" width = "71" height = "25" class = "elTypeBkgnd" rx = "5" ry = "5" clip-path = "url(#e:Image/a:PixelSizeY)"/>
	<defs/>
	<clipPath id = "e:Image/a:PixelSizeY">
		<rect x = "171" y = "121" width = "73" height = "11"/>
	</clipPath>
	<text x = "172" y = "129" class = "elType">float</text>
	<image xlink:href = "../dgmDtFloat.gif" width = "10" height = "10" x = "234" y = "116"/>
	<rect x = "310" y = "74" width = "73" height = "27" class = "element" rx = "5" ry = "5"/>
	<circle class = "nodeStyle" cx = "316" cy = "80" r = "4"/>
	<text x = "321" y = "85" class = "elName">PixelSizeZ</text>
	<rect x = "311" y = "75" width = "71" height = "25" class = "elTypeBkgnd" rx = "5" ry = "5" clip-path = "url(#e:Image/a:PixelSizeZ)"/>
	<defs/>
	<clipPath id = "e:Image/a:PixelSizeZ">
		<rect x = "310" y = "89" width = "73" height = "11"/>
	</clipPath>
	<text x = "311" y = "97" class = "elType">float</text>
	<image xlink:href = "../dgmDtFloat.gif" width = "10" height = "10" x = "373" y = "84"/>
	<rect x = "162" y = "74" width = "74" height = "27" class = "element" rx = "5" ry = "5"/>
	<circle class = "nodeStyle" cx = "168" cy = "80" r = "4"/>
	<text x = "173" y = "85" class = "elName">NumTimes</text>
	<rect x = "163" y = "75" width = "72" height = "25" class = "elTypeBkgnd" rx = "5" ry = "5" clip-path = "url(#e:Image/a:NumTimes)"/>
	<defs/>
	<clipPath id = "e:Image/a:NumTimes">
		<rect x = "162" y = "89" width = "74" height = "11"/>
	</clipPath>
	<text x = "163" y = "97" class = "elType">positiveInteger</text>
	<image xlink:href = "../dgmDtInteger.gif" width = "10" height = "10" x = "226" y = "84"/>
	<circle class = "occurs" cx = "331" cy = "55" r = "6"/>
	<text x = "328" y = "58" class = "occurLarge">?</text>
	<rect x = "337" y = "42" width = "72" height = "27" class = "element" rx = "5" ry = "5"/>
	<circle class = "nodeStyle" cx = "343" cy = "48" r = "4"/>
	<text x = "348" y = "53" class = "elName">WaveStart</text>
	<rect x = "338" y = "43" width = "70" height = "25" class = "elTypeBkgnd" rx = "5" ry = "5" clip-path = "url(#e:Image/a:WaveStart)"/>
	<defs/>
	<clipPath id = "e:Image/a:WaveStart">
		<rect x = "337" y = "57" width = "72" height = "11"/>
	</clipPath>
	<text x = "338" y = "65" class = "elType">positiveInteger</text>
	<image xlink:href = "../dgmDtInteger.gif" width = "10" height = "10" x = "399" y = "52"/>
	<rect x = "161" y = "42" width = "90" height = "27" class = "element" rx = "5" ry = "5"/>
	<circle class = "nodeStyle" cx = "167" cy = "48" r = "4"/>
	<text x = "172" y = "53" class = "elName">NumChannels</text>
	<rect x = "162" y = "43" width = "88" height = "25" class = "elTypeBkgnd" rx = "5" ry = "5" clip-path = "url(#e:Image/a:NumChannels)"/>
	<defs/>
	<clipPath id = "e:Image/a:NumChannels">
		<rect x = "161" y = "57" width = "90" height = "11"/>
	</clipPath>
	<text x = "162" y = "65" class = "elType">positiveInteger</text>
	<image xlink:href = "../dgmDtInteger.gif" width = "10" height = "10" x = "241" y = "52"/>
	<circle class = "occurs" cx = "321" cy = "23" r = "6"/>
	<text x = "318" y = "26" class = "occurLarge">?</text>
	<rect x = "327" y = "10" width = "96" height = "27" class = "element" rx = "5" ry = "5"/>
	<circle class = "nodeStyle" cx = "333" cy = "16" r = "4"/>
	<text x = "338" y = "21" class = "elName">TimeIncrement</text>
	<rect x = "328" y = "11" width = "94" height = "25" class = "elTypeBkgnd" rx = "5" ry = "5" clip-path = "url(#e:Image/a:TimeIncrement)"/>
	<defs/>
	<clipPath id = "e:Image/a:TimeIncrement">
		<rect x = "327" y = "25" width = "96" height = "11"/>
	</clipPath>
	<text x = "328" y = "33" class = "elType">float</text>
	<image xlink:href = "../dgmDtFloat.gif" width = "10" height = "10" x = "413" y = "20"/>
	<circle class = "occurs" cx = "150" cy = "23" r = "6"/>
	<text x = "147" y = "26" class = "occurLarge">?</text>
	<rect x = "156" y = "10" width = "98" height = "27" class = "element" rx = "5" ry = "5"/>
	<circle class = "nodeStyle" cx = "162" cy = "16" r = "4"/>
	<text x = "167" y = "21" class = "elName">WaveIncrement</text>
	<rect x = "157" y = "11" width = "96" height = "25" class = "elTypeBkgnd" rx = "5" ry = "5" clip-path = "url(#e:Image/a:WaveIncrement)"/>
	<defs/>
	<clipPath id = "e:Image/a:WaveIncrement">
		<rect x = "156" y = "25" width = "98" height = "11"/>
	</clipPath>
	<text x = "157" y = "33" class = "elType">positiveInteger</text>
	<image xlink:href = "../dgmDtInteger.gif" width = "10" height = "10" x = "244" y = "20"/>
	<rect x = "5" y = "381" width = "53" height = "27" class = "element"/>
	<polygon class = "nodeStyle" points = "11,383 7,387 11,391 15,387"/>
	<text x = "16" y = "392" class = "elName">Image</text>
	<rect x = "6" y = "396" width = "51" height = "11" class = "elTypeBkgnd"/>
	<image xlink:href = "../dgmTypeComplex.gif" width = "10" height = "10" x = "48" y = "391"/>
	<polyline class = "connector" points = "88,156 68,156 68,394 58,394 68,394 68,632 88,632"/>
	<polyline class = "connector" points = "58,392 66,392 66,71 88,71"/>
	<polyline class = "connector" points = "88,156 100,156"/>
	<rect x = "100" y = "143" width = "88" height = "27" class = "element"/>
	<polygon class = "nodeStyle" points = "106,145 102,149 106,153 110,149"/>
	<text x = "111" y = "154" class = "elName">CreationDate</text>
	<rect x = "101" y = "158" width = "86" height = "11" class = "elTypeBkgnd"/>
	<text x = "101" y = "166" class = "elType">dateTime</text>
	<image xlink:href = "../dgmDtDate.gif" width = "10" height = "10" x = "178" y = "153"/>
	<circle class = "occurs" cx = "94" cy = "190" r = "6"/>
	<text x = "91" y = "193" class = "occurLarge">?</text>
	<rect x = "100" y = "177" width = "78" height = "27" class = "element"/>
	<polygon class = "nodeStyle" points = "106,179 102,183 106,187 110,183"/>
	<text x = "111" y = "188" class = "elName">Description</text>
	<rect x = "101" y = "192" width = "76" height = "11" class = "elTypeBkgnd"/>
	<image xlink:href = "../dgmTypeAny.gif" width = "10" height = "10" x = "168" y = "187"/>
	<circle class = "occurs" cx = "94" cy = "224" r = "6"/>
	<text x = "91" y = "227" class = "occurLarge">?</text>
	<rect x = "100" y = "211" width = "94" height = "27" class = "element"/>
	<polygon class = "nodeStyle" points = "106,213 102,217 106,221 110,217"/>
	<text x = "111" y = "222" class = "elName">ExperimentRef</text>
	<rect x = "101" y = "226" width = "92" height = "11" class = "elTypeBkgnd"/>
	<image xlink:href = "../dgmTypeComplex.gif" width = "10" height = "10" x = "184" y = "221"/>
	<circle class = "occurs" cx = "94" cy = "258" r = "6"/>
	<text x = "91" y = "261" class = "occurLarge">?</text>
	<rect x = "100" y = "245" width = "68" height = "27" class = "element"/>
	<polygon class = "nodeStyle" points = "106,247 102,251 106,255 110,251"/>
	<text x = "111" y = "256" class = "elName">GroupRef</text>
	<rect x = "101" y = "260" width = "66" height = "11" class = "elTypeBkgnd"/>
	<image xlink:href = "../dgmTypeComplex.gif" width = "10" height = "10" x = "158" y = "255"/>
	<circle class = "occurs" cx = "94" cy = "292" r = "6"/>
	<text x = "91" y = "295" class = "occurLarge">*</text>
	<rect x = "100" y = "279" width = "77" height = "27" class = "element"/>
	<polygon class = "nodeStyle" points = "106,281 102,285 106,289 110,285"/>
	<text x = "111" y = "290" class = "elName">DatasetRef</text>
	<rect x = "101" y = "294" width = "75" height = "11" class = "elTypeBkgnd"/>
	<image xlink:href = "../dgmTypeEmpty.gif" width = "10" height = "10" x = "167" y = "289"/>
	<circle class = "occurs" cx = "94" cy = "326" r = "6"/>
	<text x = "91" y = "329" class = "occurLarge">?</text>
	<rect x = "100" y = "313" width = "92" height = "27" class = "element"/>
	<polygon class = "nodeStyle" points = "106,315 102,319 106,323 110,319"/>
	<text x = "111" y = "324" class = "elName">InstrumentRef</text>
	<rect x = "101" y = "328" width = "90" height = "11" class = "elTypeBkgnd"/>
	<image xlink:href = "../dgmTypeComplex.gif" width = "10" height = "10" x = "182" y = "323"/>
	<circle class = "occurs" cx = "94" cy = "360" r = "6"/>
	<text x = "91" y = "363" class = "occurLarge">?</text>
	<rect x = "100" y = "347" width = "122" height = "27" class = "element"/>
	<polygon class = "nodeStyle" points = "106,349 102,353 106,357 110,353"/>
	<text x = "111" y = "358" class = "elName">ImagingEnvironment</text>
	<rect x = "101" y = "362" width = "120" height = "11" class = "elTypeBkgnd"/>
	<image xlink:href = "../dgmTypeEmpty.gif" width = "10" height = "10" x = "212" y = "357"/>
	<circle class = "occurs" cx = "94" cy = "394" r = "6"/>
	<text x = "91" y = "397" class = "occurLarge">?</text>
	<rect x = "100" y = "381" width = "74" height = "27" class = "element"/>
	<polygon class = "nodeStyle" points = "106,383 102,387 106,391 110,387"/>
	<text x = "111" y = "392" class = "elName">Thumbnail</text>
	<rect x = "101" y = "396" width = "72" height = "11" class = "elTypeBkgnd"/>
	<image xlink:href = "../dgmTypeComplex.gif" width = "10" height = "10" x = "164" y = "391"/>
	<circle class = "occurs" cx = "94" cy = "428" r = "6"/>
	<text x = "91" y = "431" class = "occurLarge">*</text>
	<rect x = "100" y = "415" width = "82" height = "27" class = "element"/>
	<polygon class = "nodeStyle" points = "106,417 102,421 106,425 110,421"/>
	<text x = "111" y = "426" class = "elName">ChannelInfo</text>
	<rect x = "101" y = "430" width = "80" height = "11" class = "elTypeBkgnd"/>
	<image xlink:href = "../dgmTypeComplex.gif" width = "10" height = "10" x = "172" y = "425"/>
	<circle class = "occurs" cx = "94" cy = "462" r = "6"/>
	<text x = "91" y = "465" class = "occurLarge">?</text>
	<rect x = "100" y = "449" width = "96" height = "27" class = "element"/>
	<polygon class = "nodeStyle" points = "106,451 102,455 106,459 110,455"/>
	<text x = "111" y = "460" class = "elName">DisplayOptions</text>
	<rect x = "101" y = "464" width = "94" height = "11" class = "elTypeBkgnd"/>
	<image xlink:href = "../dgmTypeComplex.gif" width = "10" height = "10" x = "186" y = "459"/>
	<circle class = "occurs" cx = "94" cy = "496" r = "6"/>
	<text x = "91" y = "499" class = "occurLarge">?</text>
	<rect x = "100" y = "483" width = "76" height = "27" class = "element"/>
	<polygon class = "nodeStyle" points = "106,485 102,489 106,493 110,489"/>
	<text x = "111" y = "494" class = "elName">StageLabel</text>
	<rect x = "101" y = "498" width = "74" height = "11" class = "elTypeBkgnd"/>
	<image xlink:href = "../dgmTypeEmpty.gif" width = "10" height = "10" x = "166" y = "493"/>
	<circle class = "occurs" cx = "94" cy = "530" r = "6"/>
	<text x = "91" y = "533" class = "occurLarge">?</text>
	<rect x = "100" y = "517" width = "64" height = "27" class = "element"/>
	<polygon class = "nodeStyle" points = "106,519 102,523 106,527 110,523"/>
	<text x = "111" y = "528" class = "elName">PlateRef</text>
	<rect x = "101" y = "532" width = "62" height = "11" class = "elTypeBkgnd"/>
	<image xlink:href = "../dgmTypeComplex.gif" width = "10" height = "10" x = "154" y = "527"/>
	<circle class = "occurs" cx = "94" cy = "564" r = "6"/>
	<text x = "91" y = "567" class = "occurLarge">+</text>
	<rect x = "100" y = "551" width = "52" height = "27" class = "element"/>
	<polygon class = "nodeStyle" points = "106,553 102,557 106,561 110,557"/>
	<text x = "111" y = "562" class = "elName">Pixels</text>
	<rect x = "101" y = "566" width = "50" height = "11" class = "elTypeBkgnd"/>
	<image xlink:href = "../dgmTypeComplex.gif" width = "10" height = "10" x = "142" y = "561"/>
	<circle class = "occurs" cx = "94" cy = "598" r = "6"/>
	<text x = "91" y = "601" class = "occurLarge">*</text>
	<rect x = "100" y = "585" width = "60" height = "27" class = "element"/>
	<polygon class = "nodeStyle" points = "106,587 102,591 106,595 110,591"/>
	<text x = "111" y = "596" class = "elName">Feature</text>
	<rect x = "101" y = "600" width = "58" height = "11" class = "elTypeBkgnd"/>
	<image xlink:href = "../dgmTypeComplex.gif" width = "10" height = "10" x = "150" y = "595"/>
	<circle class = "occurs" cx = "94" cy = "632" r = "6"/>
	<text x = "91" y = "635" class = "occurLarge">?</text>
	<rect x = "100" y = "619" width = "109" height = "27" class = "element"/>
	<polygon class = "nodeStyle" points = "106,621 102,625 106,629 110,625"/>
	<text x = "111" y = "630" class = "elName">CustomAttributes</text>
	<rect x = "101" y = "634" width = "107" height = "11" class = "elTypeBkgnd"/>
	<image xlink:href = "../dgmTypeAny.gif" width = "10" height = "10" x = "199" y = "629"/>
</svg>