<?xml version = "1.0"?>
<!DOCTYPE svg PUBLIC "-//W3C//DTD SVG 20010904//EN" "http://www.w3.org/TR/2001/REC-SVG-20010904/DTD/svg10.dtd">
<svg width = "421pt" height = "147pt" viewBox = "0 0 421 147" xmlns = "http://www.w3.org/2000/svg" xmlns:xlink = "http://www.w3.org/1999/xlink">
	<defs>
		<style type = "text/css"><![CDATA[
rect.attrGroup { fill: ivory ; stroke: black; stroke-width: 1 }
rect.element { fill: ivory ; stroke: black; stroke-width: 1 }
rect.elTypeBkgnd { fill: lightgray ; stroke: none }
text.elName { font-family: helvetica ; font-size : 10 }
text.elType { font-family: helvetica ; font-size : 7 }
text.occurLarge { font-family: helvetica ; font-size : 9; fill : blue }
text.occurSmall { font-family: helvetica ; font-size : 7; fill : blue }
rect.typeIconDark { fill : darkslategray }
circle.occurs { stroke : black ; stroke-width: 1; fill : white }
circle.ellipsis { fill : black }
path.typeIconDark { stroke : lightgray ; stroke-width: 1 }
path.connector { stroke : red ; stroke-width: 1 ; fill: none; }
path.modelGroup { stroke : black ; stroke-width: 1 ; fill: lightgray; }
polyline.connector { stroke : red ; stroke-width: 1 ; fill: none; }
.nodeStyle { fill : blue }
]]></style>
	</defs>
	<rect x = "87" y = "5" width = "329" height = "37" class = "attrGroup" rx = "5" ry = "5"/>
	<rect x = "92" y = "10" width = "62" height = "27" class = "element" rx = "5" ry = "5"/>
	<circle class = "nodeStyle" cx = "98" cy = "16" r = "4"/>
	<text x = "103" y = "21" class = "elName">PixelsID</text>
	<rect x = "93" y = "11" width = "60" height = "25" class = "elTypeBkgnd" rx = "5" ry = "5" clip-path = "url(#e:Pixels/a:PixelsID)"/>
	<defs/>
	<clipPath id = "e:Pixels/a:PixelsID">
		<rect x = "92" y = "25" width = "62" height = "11"/>
	</clipPath>
	<text x = "93" y = "33" class = "elType">GUID</text>
	<image xlink:href = "../dgmDtString.gif" width = "10" height = "10" x = "144" y = "20"/>
	<rect x = "266" y = "10" width = "70" height = "27" class = "element" rx = "5" ry = "5"/>
	<circle class = "nodeStyle" cx = "272" cy = "16" r = "4"/>
	<text x = "277" y = "21" class = "elName">PixelType</text>
	<rect x = "267" y = "11" width = "68" height = "25" class = "elTypeBkgnd" rx = "5" ry = "5" clip-path = "url(#e:Pixels/a:PixelType)"/>
	<defs/>
	<clipPath id = "e:Pixels/a:PixelType">
		<rect x = "266" y = "25" width = "70" height = "11"/>
	</clipPath>
	<text x = "267" y = "33" class = "elType">PixelTypes</text>
	<image xlink:href = "../dgmDtString.gif" width = "10" height = "10" x = "326" y = "20"/>
	<rect x = "341" y = "10" width = "70" height = "27" class = "element" rx = "5" ry = "5"/>
	<circle class = "nodeStyle" cx = "347" cy = "16" r = "4"/>
	<text x = "352" y = "21" class = "elName">BigEndian</text>
	<rect x = "342" y = "11" width = "68" height = "25" class = "elTypeBkgnd" rx = "5" ry = "5" clip-path = "url(#e:Pixels/a:BigEndian)"/>
	<defs/>
	<clipPath id = "e:Pixels/a:BigEndian">
		<rect x = "341" y = "25" width = "70" height = "11"/>
	</clipPath>
	<text x = "342" y = "33" class = "elType">boolean</text>
	<image xlink:href = "../dgmDtBoolean.gif" width = "10" height = "10" x = "401" y = "20"/>
	<rect x = "159" y = "10" width = "102" height = "27" class = "element" rx = "5" ry = "5"/>
	<circle class = "nodeStyle" cx = "165" cy = "16" r = "4"/>
	<text x = "170" y = "21" class = "elName">DimensionOrder</text>
	<rect x = "160" y = "11" width = "100" height = "25" class = "elTypeBkgnd" rx = "5" ry = "5" clip-path = "url(#e:Pixels/a:DimensionOrder)"/>
	<defs/>
	<clipPath id = "e:Pixels/a:DimensionOrder">
		<rect x = "159" y = "25" width = "102" height = "11"/>
	</clipPath>
	<image xlink:href = "../dgmDtString.gif" width = "10" height = "10" x = "251" y = "20"/>
	<rect x = "5" y = "81" width = "52" height = "27" class = "element"/>
	<polygon class = "nodeStyle" points = "11,83 7,87 11,91 15,87"/>
	<text x = "16" y = "92" class = "elName">Pixels</text>
	<rect x = "6" y = "96" width = "50" height = "11" class = "elTypeBkgnd"/>
	<image xlink:href = "../dgmTypeComplex.gif" width = "10" height = "10" x = "47" y = "91"/>
	<polyline class = "connector" points = "87,60 67,60 67,94 57,94 67,94 67,111 87,111"/>
	<polyline class = "connector" points = "57,92 65,92 65,23 87,23"/>
	<circle class = "occurs" cx = "93" cy = "60" r = "6"/>
	<text x = "90" y = "63" class = "occurLarge">?</text>
	<rect x = "99" y = "47" width = "84" height = "27" class = "element"/>
	<polygon class = "nodeStyle" points = "105,49 101,53 105,57 109,53"/>
	<text x = "110" y = "58" class = "elName">DerivedFrom</text>
	<rect x = "100" y = "62" width = "82" height = "11" class = "elTypeBkgnd"/>
	<image xlink:href = "../dgmTypeComplex.gif" width = "10" height = "10" x = "173" y = "57"/>
	<circle class = "occurs" cx = "93" cy = "111" r = "6"/>
	<text x = "90" y = "114" class = "occurLarge">1</text>
	<polyline class = "connector" points = "129,94 109,111 99,111 109,111 129,128"/>
	<circle class = "occurs" cx = "135" cy = "94" r = "6"/>
	<text x = "132" y = "97" class = "occurLarge">+</text>
	<rect x = "141" y = "81" width = "63" height = "27" class = "element"/>
	<polygon class = "nodeStyle" points = "147,83 143,87 147,91 151,87"/>
	<text x = "152" y = "92" class = "elName">External</text>
	<rect x = "142" y = "96" width = "61" height = "11" class = "elTypeBkgnd"/>
	<image xlink:href = "../dgmTypeEmpty.gif" width = "10" height = "10" x = "194" y = "91"/>
	<circle class = "occurs" cx = "135" cy = "128" r = "6"/>
	<text x = "132" y = "131" class = "occurLarge">+</text>
	<rect x = "141" y = "115" width = "61" height = "27" class = "element"/>
	<polygon class = "nodeStyle" points = "147,117 143,121 147,125 151,121"/>
	<text x = "152" y = "126" class = "elName">BinData</text>
	<rect x = "142" y = "130" width = "59" height = "11" class = "elTypeBkgnd"/>
	<text x = "142" y = "138" class = "elType">bin.base64</text>
	<image xlink:href = "../dgmDtString.gif" width = "10" height = "10" x = "192" y = "125"/>
</svg>