<?xml version = "1.0"?>
<!DOCTYPE svg PUBLIC "-//W3C//DTD SVG 20010904//EN" "http://www.w3.org/TR/2001/REC-SVG-20010904/DTD/svg10.dtd">
<svg width = "394pt" height = "213pt" viewBox = "0 0 394 213" xmlns = "http://www.w3.org/2000/svg" xmlns:xlink = "http://www.w3.org/1999/xlink">
	<defs>
		<style type = "text/css"><![CDATA[
rect.attrGroup { fill: ivory ; stroke: black; stroke-width: 1 }
rect.element { fill: ivory ; stroke: black; stroke-width: 1 }
rect.elTypeBkgnd { fill: lightgray ; stroke: none }
text.elName { font-family: helvetica ; font-size : 10 }
text.elType { font-family: helvetica ; font-size : 7 }
text.occurLarge { font-family: helvetica ; font-size : 9; fill : blue }
text.occurSmall { font-family: helvetica ; font-size : 7; fill : blue }
rect.typeIconDark { fill : darkslategray }
circle.occurs { stroke : black ; stroke-width: 1; fill : white }
circle.ellipsis { fill : black }
path.typeIconDark { stroke : lightgray ; stroke-width: 1 }
path.connector { stroke : red ; stroke-width: 1 ; fill: none; }
path.modelGroup { stroke : black ; stroke-width: 1 ; fill: lightgray; }
polyline.connector { stroke : red ; stroke-width: 1 ; fill: none; }
.nodeStyle { fill : blue }
]]></style>
	</defs>
	<rect x = "77" y = "5" width = "312" height = "69" class = "attrGroup" rx = "5" ry = "5"/>
	<rect x = "82" y = "10" width = "52" height = "27" class = "element" rx = "5" ry = "5"/>
	<circle class = "nodeStyle" cx = "88" cy = "16" r = "4"/>
	<text x = "93" y = "21" class = "elName">OTFID</text>
	<rect x = "83" y = "11" width = "50" height = "25" class = "elTypeBkgnd" rx = "5" ry = "5" clip-path = "url(#e:OTF/a:OTFID)"/>
	<defs/>
	<clipPath id = "e:OTF/a:OTFID">
		<rect x = "82" y = "25" width = "52" height = "11"/>
	</clipPath>
	<text x = "83" y = "33" class = "elType">OTFID</text>
	<image xlink:href = "../dgmDtString.gif" width = "10" height = "10" x = "124" y = "20"/>
	<rect x = "245" y = "10" width = "64" height = "27" class = "element" rx = "5" ry = "5"/>
	<circle class = "nodeStyle" cx = "251" cy = "16" r = "4"/>
	<text x = "256" y = "21" class = "elName">SizeX</text>
	<rect x = "246" y = "11" width = "62" height = "25" class = "elTypeBkgnd" rx = "5" ry = "5" clip-path = "url(#e:OTF/a:SizeX)"/>
	<defs/>
	<clipPath id = "e:OTF/a:SizeX">
		<rect x = "245" y = "25" width = "64" height = "11"/>
	</clipPath>
	<text x = "246" y = "33" class = "elType">positiveInteger</text>
	<image xlink:href = "../dgmDtInteger.gif" width = "10" height = "10" x = "299" y = "20"/>
	<rect x = "82" y = "42" width = "64" height = "27" class = "element" rx = "5" ry = "5"/>
	<circle class = "nodeStyle" cx = "88" cy = "48" r = "4"/>
	<text x = "93" y = "53" class = "elName">SizeY</text>
	<rect x = "83" y = "43" width = "62" height = "25" class = "elTypeBkgnd" rx = "5" ry = "5" clip-path = "url(#e:OTF/a:SizeY)"/>
	<defs/>
	<clipPath id = "e:OTF/a:SizeY">
		<rect x = "82" y = "57" width = "64" height = "11"/>
	</clipPath>
	<text x = "83" y = "65" class = "elType">positiveInteger</text>
	<image xlink:href = "../dgmDtInteger.gif" width = "10" height = "10" x = "136" y = "52"/>
	<rect x = "314" y = "10" width = "70" height = "27" class = "element" rx = "5" ry = "5"/>
	<circle class = "nodeStyle" cx = "320" cy = "16" r = "4"/>
	<text x = "325" y = "21" class = "elName">PixelType</text>
	<rect x = "315" y = "11" width = "68" height = "25" class = "elTypeBkgnd" rx = "5" ry = "5" clip-path = "url(#e:OTF/a:PixelType)"/>
	<defs/>
	<clipPath id = "e:OTF/a:PixelType">
		<rect x = "314" y = "25" width = "70" height = "11"/>
	</clipPath>
	<text x = "315" y = "33" class = "elType">PixelTypes</text>
	<image xlink:href = "../dgmDtString.gif" width = "10" height = "10" x = "374" y = "20"/>
	<rect x = "139" y = "10" width = "101" height = "27" class = "element" rx = "5" ry = "5"/>
	<circle class = "nodeStyle" cx = "145" cy = "16" r = "4"/>
	<text x = "150" y = "21" class = "elName">OpticalAxisAvrg</text>
	<rect x = "140" y = "11" width = "99" height = "25" class = "elTypeBkgnd" rx = "5" ry = "5" clip-path = "url(#e:OTF/a:OpticalAxisAvrg)"/>
	<defs/>
	<clipPath id = "e:OTF/a:OpticalAxisAvrg">
		<rect x = "139" y = "25" width = "101" height = "11"/>
	</clipPath>
	<text x = "140" y = "33" class = "elType">boolean</text>
	<image xlink:href = "../dgmDtBoolean.gif" width = "10" height = "10" x = "230" y = "20"/>
	<rect x = "5" y = "130" width = "42" height = "27" class = "element"/>
	<polygon class = "nodeStyle" points = "11,132 7,136 11,140 15,136"/>
	<text x = "16" y = "141" class = "elName">OTF</text>
	<rect x = "6" y = "145" width = "40" height = "11" class = "elTypeBkgnd"/>
	<image xlink:href = "../dgmTypeComplex.gif" width = "10" height = "10" x = "37" y = "140"/>
	<polyline class = "connector" points = "77,92 57,92 57,143 47,143 57,143 57,177 77,177"/>
	<polyline class = "connector" points = "47,141 55,141 55,39 77,39"/>
	<polyline class = "connector" points = "77,92 89,92"/>
	<rect x = "89" y = "79" width = "85" height = "27" class = "element"/>
	<polygon class = "nodeStyle" points = "95,81 91,85 95,89 99,85"/>
	<text x = "100" y = "90" class = "elName">ObjectiveRef</text>
	<rect x = "90" y = "94" width = "83" height = "11" class = "elTypeBkgnd"/>
	<image xlink:href = "../dgmTypeComplex.gif" width = "10" height = "10" x = "164" y = "89"/>
	<rect x = "89" y = "113" width = "64" height = "27" class = "element"/>
	<polygon class = "nodeStyle" points = "95,115 91,119 95,123 99,119"/>
	<text x = "100" y = "124" class = "elName">FilterRef</text>
	<rect x = "90" y = "128" width = "62" height = "11" class = "elTypeBkgnd"/>
	<image xlink:href = "../dgmTypeComplex.gif" width = "10" height = "10" x = "143" y = "123"/>
	<circle class = "occurs" cx = "83" cy = "177" r = "6"/>
	<text x = "80" y = "180" class = "occurLarge">1</text>
	<polyline class = "connector" points = "119,160 99,177 89,177 99,177 119,194"/>
	<circle class = "occurs" cx = "125" cy = "160" r = "6"/>
	<text x = "122" y = "163" class = "occurLarge">+</text>
	<rect x = "131" y = "147" width = "63" height = "27" class = "element"/>
	<polygon class = "nodeStyle" points = "137,149 133,153 137,157 141,153"/>
	<text x = "142" y = "158" class = "elName">External</text>
	<rect x = "132" y = "162" width = "61" height = "11" class = "elTypeBkgnd"/>
	<image xlink:href = "../dgmTypeEmpty.gif" width = "10" height = "10" x = "184" y = "157"/>
	<circle class = "occurs" cx = "125" cy = "194" r = "6"/>
	<text x = "122" y = "197" class = "occurLarge">+</text>
	<rect x = "131" y = "181" width = "61" height = "27" class = "element"/>
	<polygon class = "nodeStyle" points = "137,183 133,187 137,191 141,187"/>
	<text x = "142" y = "192" class = "elName">BinData</text>
	<rect x = "132" y = "196" width = "59" height = "11" class = "elTypeBkgnd"/>
	<text x = "132" y = "204" class = "elType">bin.base64</text>
	<image xlink:href = "../dgmDtString.gif" width = "10" height = "10" x = "182" y = "191"/>
</svg>