<?xml version = "1.0"?>
<!DOCTYPE svg PUBLIC "-//W3C//DTD SVG 20010904//EN" "http://www.w3.org/TR/2001/REC-SVG-20010904/DTD/svg10.dtd">
<svg width = "308pt" height = "47pt" viewBox = "0 0 308 47" xmlns = "http://www.w3.org/2000/svg" xmlns:xlink = "http://www.w3.org/1999/xlink">
	<defs>
		<style type = "text/css"><![CDATA[
rect.attrGroup { fill: ivory ; stroke: black; stroke-width: 1 }
rect.element { fill: ivory ; stroke: black; stroke-width: 1 }
rect.elTypeBkgnd { fill: lightgray ; stroke: none }
text.elName { font-family: helvetica ; font-size : 10 }
text.elType { font-family: helvetica ; font-size : 7 }
text.occurLarge { font-family: helvetica ; font-size : 9; fill : blue }
text.occurSmall { font-family: helvetica ; font-size : 7; fill : blue }
rect.typeIconDark { fill : darkslategray }
circle.occurs { stroke : black ; stroke-width: 1; fill : white }
circle.ellipsis { fill : black }
path.typeIconDark { stroke : lightgray ; stroke-width: 1 }
path.connector { stroke : red ; stroke-width: 1 ; fill: none; }
path.modelGroup { stroke : black ; stroke-width: 1 ; fill: lightgray; }
polyline.connector { stroke : red ; stroke-width: 1 ; fill: none; }
.nodeStyle { fill : blue }
]]></style>
	</defs>
	<rect x = "5" y = "10" width = "52" height = "27" class = "element"/>
	<polygon class = "nodeStyle" points = "11,12 7,16 11,20 15,16"/>
	<text x = "16" y = "21" class = "elName">Movie</text>
	<rect x = "6" y = "25" width = "50" height = "11" class = "elTypeBkgnd"/>
	<image xlink:href = "../dgmTypeEmpty.gif" width = "10" height = "10" x = "47" y = "20"/>
	<polyline class = "connector" points = "57,23 87,23"/>
	<rect x = "87" y = "5" width = "216" height = "37" class = "attrGroup" rx = "5" ry = "5"/>
	<circle class = "occurs" cx = "98" cy = "23" r = "6"/>
	<text x = "95" y = "26" class = "occurLarge">?</text>
	<rect x = "104" y = "10" width = "50" height = "27" class = "element" rx = "5" ry = "5"/>
	<circle class = "nodeStyle" cx = "110" cy = "16" r = "4"/>
	<text x = "115" y = "21" class = "elName">Tstop</text>
	<rect x = "105" y = "11" width = "48" height = "25" class = "elTypeBkgnd" rx = "5" ry = "5" clip-path = "url(#e:Movie/a:Tstop)"/>
	<defs/>
	<clipPath id = "e:Movie/a:Tstop">
		<rect x = "104" y = "25" width = "50" height = "11"/>
	</clipPath>
	<text x = "105" y = "33" class = "elType">int</text>
	<image xlink:href = "../dgmDtInteger.gif" width = "10" height = "10" x = "144" y = "20"/>
	<circle class = "occurs" cx = "240" cy = "23" r = "6"/>
	<text x = "237" y = "26" class = "occurLarge">?</text>
	<rect x = "246" y = "10" width = "52" height = "27" class = "element" rx = "5" ry = "5"/>
	<circle class = "nodeStyle" cx = "252" cy = "16" r = "4"/>
	<text x = "257" y = "21" class = "elName">Tstart</text>
	<rect x = "247" y = "11" width = "50" height = "25" class = "elTypeBkgnd" rx = "5" ry = "5" clip-path = "url(#e:Movie/a:Tstart)"/>
	<defs/>
	<clipPath id = "e:Movie/a:Tstart">
		<rect x = "246" y = "25" width = "52" height = "11"/>
	</clipPath>
	<text x = "247" y = "33" class = "elType">int</text>
	<image xlink:href = "../dgmDtInteger.gif" width = "10" height = "10" x = "288" y = "20"/>
	<rect x = "159" y = "10" width = "70" height = "27" class = "element" rx = "5" ry = "5"/>
	<circle class = "nodeStyle" cx = "165" cy = "16" r = "4"/>
	<text x = "170" y = "21" class = "elName">MIMEtype</text>
	<rect x = "160" y = "11" width = "68" height = "25" class = "elTypeBkgnd" rx = "5" ry = "5" clip-path = "url(#e:Movie/a:MIMEtype)"/>
	<defs/>
	<clipPath id = "e:Movie/a:MIMEtype">
		<rect x = "159" y = "25" width = "70" height = "11"/>
	</clipPath>
	<text x = "160" y = "33" class = "elType">MIMEtype</text>
	<image xlink:href = "../dgmDtString.gif" width = "10" height = "10" x = "219" y = "20"/>
</svg>