<?xml version = "1.0"?>
<!DOCTYPE svg PUBLIC "-//W3C//DTD SVG 20010904//EN" "http://www.w3.org/TR/2001/REC-SVG-20010904/DTD/svg10.dtd">
<svg width = "283pt" height = "249pt" viewBox = "0 0 283 249" xmlns = "http://www.w3.org/2000/svg" xmlns:xlink = "http://www.w3.org/1999/xlink">
	<defs>
		<style type = "text/css"><![CDATA[
rect.attrGroup { fill: ivory ; stroke: black; stroke-width: 1 }
rect.element { fill: ivory ; stroke: black; stroke-width: 1 }
rect.elTypeBkgnd { fill: lightgray ; stroke: none }
text.elName { font-family: helvetica ; font-size : 10 }
text.elType { font-family: helvetica ; font-size : 7 }
text.occurLarge { font-family: helvetica ; font-size : 9; fill : blue }
text.occurSmall { font-family: helvetica ; font-size : 7; fill : blue }
rect.typeIconDark { fill : darkslategray }
circle.occurs { stroke : black ; stroke-width: 1; fill : white }
circle.ellipsis { fill : black }
path.typeIconDark { stroke : lightgray ; stroke-width: 1 }
path.connector { stroke : red ; stroke-width: 1 ; fill: none; }
path.modelGroup { stroke : black ; stroke-width: 1 ; fill: lightgray; }
polyline.connector { stroke : red ; stroke-width: 1 ; fill: none; }
.nodeStyle { fill : blue }
]]></style>
	</defs>
	<rect x = "110" y = "5" width = "108" height = "37" class = "attrGroup" rx = "5" ry = "5"/>
	<rect x = "115" y = "10" width = "98" height = "27" class = "element" rx = "5" ry = "5"/>
	<circle class = "nodeStyle" cx = "121" cy = "16" r = "4"/>
	<text x = "126" y = "21" class = "elName">ExperimenterID</text>
	<rect x = "116" y = "11" width = "96" height = "25" class = "elTypeBkgnd" rx = "5" ry = "5" clip-path = "url(#t:ExperimenterType/a:ExperimenterID)"/>
	<defs/>
	<clipPath id = "t:ExperimenterType/a:ExperimenterID">
		<rect x = "115" y = "25" width = "98" height = "11"/>
	</clipPath>
	<text x = "116" y = "33" class = "elType">positiveInteger</text>
	<image xlink:href = "../dgmDtInteger.gif" width = "10" height = "10" x = "203" y = "20"/>
	<rect x = "5" y = "132" width = "75" height = "27" class = "element"/>
	<polygon class = "nodeStyle" points = "11,134 7,138 11,142 15,138"/>
	<rect x = "6" y = "147" width = "73" height = "11" class = "elTypeBkgnd"/>
	<text x = "6" y = "155" class = "elType">ExperimenterType</text>
	<image xlink:href = "../dgmTypeComplex.gif" width = "10" height = "10" x = "70" y = "142"/>
	<polyline class = "connector" points = "110,111 90,111 90,145 80,145 90,145 90,230 110,230"/>
	<polyline class = "connector" points = "80,143 88,143 88,23 110,23"/>
	<polyline class = "connector" points = "110,111 122,111"/>
	<path class = "modelGroup" d = "M 127,101 l 31,0 a 5,5 0 0,0 5,5 l 0,11 a 5,5 0 0,0 -5,5 l -31,0 a 5,5 0 0,0 -5,-5 l 0,-11 a 5,5 0 0,0 5,-5"/>
	<text x = "126" y = "115" class = "elName">Person</text>
	<polyline class = "connector" points = "193,60 173,60 173,111 163,111 173,111 173,162 193,162"/>
	<polyline class = "connector" points = "193,60 205,60"/>
	<rect x = "205" y = "47" width = "72" height = "27" class = "element"/>
	<polygon class = "nodeStyle" points = "211,49 207,53 211,57 215,53"/>
	<text x = "216" y = "58" class = "elName">FirstName</text>
	<rect x = "206" y = "62" width = "70" height = "11" class = "elTypeBkgnd"/>
	<text x = "206" y = "70" class = "elType">string</text>
	<image xlink:href = "../dgmDtString.gif" width = "10" height = "10" x = "267" y = "57"/>
	<rect x = "205" y = "81" width = "71" height = "27" class = "element"/>
	<polygon class = "nodeStyle" points = "211,83 207,87 211,91 215,87"/>
	<text x = "216" y = "92" class = "elName">LastName</text>
	<rect x = "206" y = "96" width = "69" height = "11" class = "elTypeBkgnd"/>
	<text x = "206" y = "104" class = "elType">string</text>
	<image xlink:href = "../dgmDtString.gif" width = "10" height = "10" x = "266" y = "91"/>
	<rect x = "205" y = "115" width = "50" height = "27" class = "element"/>
	<polygon class = "nodeStyle" points = "211,117 207,121 211,125 215,121"/>
	<text x = "216" y = "126" class = "elName">email</text>
	<rect x = "206" y = "130" width = "48" height = "11" class = "elTypeBkgnd"/>
	<text x = "206" y = "138" class = "elType">string</text>
	<image xlink:href = "../dgmDtString.gif" width = "10" height = "10" x = "245" y = "125"/>
	<polyline class = "connector" points = "193,162 205,162"/>
	<rect x = "205" y = "149" width = "73" height = "27" class = "element"/>
	<polygon class = "nodeStyle" points = "211,151 207,155 211,159 215,155"/>
	<text x = "216" y = "160" class = "elName">Institution</text>
	<rect x = "206" y = "164" width = "71" height = "11" class = "elTypeBkgnd"/>
	<text x = "206" y = "172" class = "elType">string</text>
	<image xlink:href = "../dgmDtString.gif" width = "10" height = "10" x = "268" y = "159"/>
	<rect x = "122" y = "183" width = "72" height = "27" class = "element"/>
	<polygon class = "nodeStyle" points = "128,185 124,189 128,193 132,189"/>
	<text x = "133" y = "194" class = "elName">OMEname</text>
	<rect x = "123" y = "198" width = "70" height = "11" class = "elTypeBkgnd"/>
	<text x = "123" y = "206" class = "elType">string</text>
	<image xlink:href = "../dgmDtString.gif" width = "10" height = "10" x = "184" y = "193"/>
	<circle class = "occurs" cx = "116" cy = "230" r = "6"/>
	<text x = "113" y = "233" class = "occurLarge">+</text>
	<rect x = "122" y = "217" width = "68" height = "27" class = "element"/>
	<polygon class = "nodeStyle" points = "128,219 124,223 128,227 132,223"/>
	<text x = "133" y = "228" class = "elName">GroupRef</text>
	<rect x = "123" y = "232" width = "66" height = "11" class = "elTypeBkgnd"/>
	<image xlink:href = "../dgmTypeEmpty.gif" width = "10" height = "10" x = "180" y = "227"/>
</svg>