<?xml version = "1.0"?>
<!DOCTYPE svg PUBLIC "-//W3C//DTD SVG 20010904//EN" "http://www.w3.org/TR/2001/REC-SVG-20010904/DTD/svg10.dtd">
<svg width = "339pt" height = "47pt" viewBox = "0 0 339 47" xmlns = "http://www.w3.org/2000/svg" xmlns:xlink = "http://www.w3.org/1999/xlink">
	<defs>
		<style type = "text/css"><![CDATA[
rect.attrGroup { fill: ivory ; stroke: black; stroke-width: 1 }
rect.element { fill: ivory ; stroke: black; stroke-width: 1 }
rect.elTypeBkgnd { fill: lightgray ; stroke: none }
text.elName { font-family: helvetica ; font-size : 10 }
text.elType { font-family: helvetica ; font-size : 7 }
text.occurLarge { font-family: helvetica ; font-size : 9; fill : blue }
text.occurSmall { font-family: helvetica ; font-size : 7; fill : blue }
rect.typeIconDark { fill : darkslategray }
circle.occurs { stroke : black ; stroke-width: 1; fill : white }
circle.ellipsis { fill : black }
path.typeIconDark { stroke : lightgray ; stroke-width: 1 }
path.connector { stroke : red ; stroke-width: 1 ; fill: none; }
path.modelGroup { stroke : black ; stroke-width: 1 ; fill: lightgray; }
polyline.connector { stroke : red ; stroke-width: 1 ; fill: none; }
.nodeStyle { fill : blue }
]]></style>
	</defs>
	<rect x = "5" y = "10" width = "46" height = "27" class = "element"/>
	<polygon class = "nodeStyle" points = "11,12 7,16 11,20 15,16"/>
	<text x = "16" y = "21" class = "elName">Field</text>
	<rect x = "6" y = "25" width = "44" height = "11" class = "elTypeBkgnd"/>
	<image xlink:href = "../dgmTypeEmpty.gif" width = "10" height = "10" x = "41" y = "20"/>
	<polyline class = "connector" points = "51,23 81,23"/>
	<rect x = "81" y = "5" width = "253" height = "37" class = "attrGroup" rx = "5" ry = "5"/>
	<rect x = "86" y = "10" width = "69" height = "27" class = "element" rx = "5" ry = "5"/>
	<circle class = "nodeStyle" cx = "92" cy = "16" r = "4"/>
	<text x = "97" y = "21" class = "elName">DataType</text>
	<rect x = "87" y = "11" width = "67" height = "25" class = "elTypeBkgnd" rx = "5" ry = "5" clip-path = "url(#e:Field/a:DataType)"/>
	<defs/>
	<clipPath id = "e:Field/a:DataType">
		<rect x = "86" y = "25" width = "69" height = "11"/>
	</clipPath>
	<image xlink:href = "../dgmDtString.gif" width = "10" height = "10" x = "145" y = "20"/>
	<rect x = "255" y = "10" width = "74" height = "27" class = "element" rx = "5" ry = "5"/>
	<circle class = "nodeStyle" cx = "261" cy = "16" r = "4"/>
	<text x = "266" y = "21" class = "elName">FieldName</text>
	<rect x = "256" y = "11" width = "72" height = "25" class = "elTypeBkgnd" rx = "5" ry = "5" clip-path = "url(#e:Field/a:FieldName)"/>
	<defs/>
	<clipPath id = "e:Field/a:FieldName">
		<rect x = "255" y = "25" width = "74" height = "11"/>
	</clipPath>
	<image xlink:href = "../dgmDtString.gif" width = "10" height = "10" x = "319" y = "20"/>
	<circle class = "occurs" cx = "166" cy = "23" r = "6"/>
	<text x = "163" y = "26" class = "occurLarge">?</text>
	<rect x = "172" y = "10" width = "78" height = "27" class = "element" rx = "5" ry = "5"/>
	<circle class = "nodeStyle" cx = "178" cy = "16" r = "4"/>
	<text x = "183" y = "21" class = "elName">Description</text>
	<rect x = "173" y = "11" width = "76" height = "25" class = "elTypeBkgnd" rx = "5" ry = "5" clip-path = "url(#e:Field/a:Description)"/>
	<defs/>
	<clipPath id = "e:Field/a:Description">
		<rect x = "172" y = "25" width = "78" height = "11"/>
	</clipPath>
	<text x = "173" y = "33" class = "elType">string</text>
	<image xlink:href = "../dgmDtString.gif" width = "10" height = "10" x = "240" y = "20"/>
</svg>