<?xml version = "1.0"?>
<!DOCTYPE svg PUBLIC "-//W3C//DTD SVG 20010904//EN" "http://www.w3.org/TR/2001/REC-SVG-20010904/DTD/svg10.dtd">
<svg width = "166pt" height = "139pt" viewBox = "0 0 166 139" xmlns = "http://www.w3.org/2000/svg" xmlns:xlink = "http://www.w3.org/1999/xlink">
	<defs>
		<style type = "text/css"><![CDATA[
rect.attrGroup { fill: ivory ; stroke: black; stroke-width: 1 }
rect.element { fill: ivory ; stroke: black; stroke-width: 1 }
rect.elTypeBkgnd { fill: lightgray ; stroke: none }
text.elName { font-family: helvetica ; font-size : 10 }
text.elType { font-family: helvetica ; font-size : 7 }
text.occurLarge { font-family: helvetica ; font-size : 9; fill : blue }
text.occurSmall { font-family: helvetica ; font-size : 7; fill : blue }
rect.typeIconDark { fill : darkslategray }
circle.occurs { stroke : black ; stroke-width: 1; fill : white }
circle.ellipsis { fill : black }
path.typeIconDark { stroke : lightgray ; stroke-width: 1 }
path.connector { stroke : red ; stroke-width: 1 ; fill: none; }
path.modelGroup { stroke : black ; stroke-width: 1 ; fill: lightgray; }
polyline.connector { stroke : red ; stroke-width: 1 ; fill: none; }
.nodeStyle { fill : blue }
]]></style>
	</defs>
	<path class = "modelGroup" d = "M 10,59 l 31,0 a 5,5 0 0,0 5,5 l 0,11 a 5,5 0 0,0 -5,5 l -31,0 a 5,5 0 0,0 -5,-5 l 0,-11 a 5,5 0 0,0 5,-5"/>
	<text x = "9" y = "73" class = "elName">Person</text>
	<polyline class = "connector" points = "76,18 56,18 56,69 46,69 56,69 56,120 76,120"/>
	<polyline class = "connector" points = "76,18 88,18"/>
	<rect x = "88" y = "5" width = "72" height = "27" class = "element"/>
	<polygon class = "nodeStyle" points = "94,7 90,11 94,15 98,11"/>
	<text x = "99" y = "16" class = "elName">FirstName</text>
	<rect x = "89" y = "20" width = "70" height = "11" class = "elTypeBkgnd"/>
	<text x = "89" y = "28" class = "elType">string</text>
	<image xlink:href = "../dgmDtString.gif" width = "10" height = "10" x = "150" y = "15"/>
	<rect x = "88" y = "39" width = "71" height = "27" class = "element"/>
	<polygon class = "nodeStyle" points = "94,41 90,45 94,49 98,45"/>
	<text x = "99" y = "50" class = "elName">LastName</text>
	<rect x = "89" y = "54" width = "69" height = "11" class = "elTypeBkgnd"/>
	<text x = "89" y = "62" class = "elType">string</text>
	<image xlink:href = "../dgmDtString.gif" width = "10" height = "10" x = "149" y = "49"/>
	<rect x = "88" y = "73" width = "50" height = "27" class = "element"/>
	<polygon class = "nodeStyle" points = "94,75 90,79 94,83 98,79"/>
	<text x = "99" y = "84" class = "elName">email</text>
	<rect x = "89" y = "88" width = "48" height = "11" class = "elTypeBkgnd"/>
	<text x = "89" y = "96" class = "elType">string</text>
	<image xlink:href = "../dgmDtString.gif" width = "10" height = "10" x = "128" y = "83"/>
	<polyline class = "connector" points = "76,120 88,120"/>
	<rect x = "88" y = "107" width = "73" height = "27" class = "element"/>
	<polygon class = "nodeStyle" points = "94,109 90,113 94,117 98,113"/>
	<text x = "99" y = "118" class = "elName">Institution</text>
	<rect x = "89" y = "122" width = "71" height = "11" class = "elTypeBkgnd"/>
	<text x = "89" y = "130" class = "elType">string</text>
	<image xlink:href = "../dgmDtString.gif" width = "10" height = "10" x = "151" y = "117"/>
</svg>