<?xml version = "1.0"?>
<!DOCTYPE svg PUBLIC "-//W3C//DTD SVG 20010904//EN" "http://www.w3.org/TR/2001/REC-SVG-20010904/DTD/svg10.dtd">
<svg width = "181pt" height = "113pt" viewBox = "0 0 181 113" xmlns = "http://www.w3.org/2000/svg" xmlns:xlink = "http://www.w3.org/1999/xlink">
	<defs>
		<style type = "text/css"><![CDATA[
rect.attrGroup { fill: ivory ; stroke: black; stroke-width: 1 }
rect.element { fill: ivory ; stroke: black; stroke-width: 1 }
rect.elTypeBkgnd { fill: lightgray ; stroke: none }
text.elName { font-family: helvetica ; font-size : 10 }
text.elType { font-family: helvetica ; font-size : 7 }
text.occurLarge { font-family: helvetica ; font-size : 9; fill : blue }
text.occurSmall { font-family: helvetica ; font-size : 7; fill : blue }
rect.typeIconDark { fill : darkslategray }
circle.occurs { stroke : black ; stroke-width: 1; fill : white }
circle.ellipsis { fill : black }
path.typeIconDark { stroke : lightgray ; stroke-width: 1 }
path.connector { stroke : red ; stroke-width: 1 ; fill: none; }
path.modelGroup { stroke : black ; stroke-width: 1 ; fill: lightgray; }
polyline.connector { stroke : red ; stroke-width: 1 ; fill: none; }
.nodeStyle { fill : blue }
]]></style>
	</defs>
	<rect x = "102" y = "5" width = "74" height = "37" class = "attrGroup" rx = "5" ry = "5"/>
	<rect x = "107" y = "10" width = "64" height = "27" class = "element" rx = "5" ry = "5"/>
	<circle class = "nodeStyle" cx = "113" cy = "16" r = "4"/>
	<text x = "118" y = "21" class = "elName">PlateID</text>
	<rect x = "108" y = "11" width = "62" height = "25" class = "elTypeBkgnd" rx = "5" ry = "5" clip-path = "url(#e:PlateInfo/a:PlateID)"/>
	<defs/>
	<clipPath id = "e:PlateInfo/a:PlateID">
		<rect x = "107" y = "25" width = "64" height = "11"/>
	</clipPath>
	<text x = "108" y = "33" class = "elType">positiveInteger</text>
	<image xlink:href = "../dgmDtInteger.gif" width = "10" height = "10" x = "161" y = "20"/>
	<rect x = "5" y = "64" width = "67" height = "27" class = "element"/>
	<polygon class = "nodeStyle" points = "11,66 7,70 11,74 15,70"/>
	<text x = "16" y = "75" class = "elName">PlateInfo</text>
	<rect x = "6" y = "79" width = "65" height = "11" class = "elTypeBkgnd"/>
	<image xlink:href = "../dgmTypeComplex.gif" width = "10" height = "10" x = "62" y = "74"/>
	<polyline class = "connector" points = "102,60 82,60 82,77 72,77 82,77 82,94 102,94"/>
	<polyline class = "connector" points = "72,75 80,75 80,23 102,23"/>
	<circle class = "occurs" cx = "108" cy = "60" r = "6"/>
	<text x = "105" y = "63" class = "occurLarge">?</text>
	<rect x = "114" y = "47" width = "58" height = "27" class = "element"/>
	<polygon class = "nodeStyle" points = "120,49 116,53 120,57 124,53"/>
	<text x = "125" y = "58" class = "elName">Sample</text>
	<rect x = "115" y = "62" width = "56" height = "11" class = "elTypeBkgnd"/>
	<text x = "115" y = "70" class = "elType">int</text>
	<image xlink:href = "../dgmDtInteger.gif" width = "10" height = "10" x = "162" y = "57"/>
	<polyline class = "connector" points = "102,94 114,94"/>
	<rect x = "114" y = "81" width = "44" height = "27" class = "element"/>
	<polygon class = "nodeStyle" points = "120,83 116,87 120,91 124,87"/>
	<text x = "125" y = "92" class = "elName">Well</text>
	<rect x = "115" y = "96" width = "42" height = "11" class = "elTypeBkgnd"/>
	<text x = "115" y = "104" class = "elType">string</text>
	<image xlink:href = "../dgmDtString.gif" width = "10" height = "10" x = "148" y = "91"/>
</svg>