<?xml version = "1.0"?>
<!DOCTYPE svg PUBLIC "-//W3C//DTD SVG 20010904//EN" "http://www.w3.org/TR/2001/REC-SVG-20010904/DTD/svg10.dtd">
<svg width = "446pt" height = "617pt" viewBox = "0 0 446 617" xmlns = "http://www.w3.org/2000/svg" xmlns:xlink = "http://www.w3.org/1999/xlink">
	<defs>
		<style type = "text/css"><![CDATA[
rect.attrGroup { fill: ivory ; stroke: black; stroke-width: 1 }
rect.element { fill: ivory ; stroke: black; stroke-width: 1 }
rect.elTypeBkgnd { fill: lightgray ; stroke: none }
text.elName { font-family: helvetica ; font-size : 10 }
text.elType { font-family: helvetica ; font-size : 7 }
text.occurLarge { font-family: helvetica ; font-size : 9; fill : blue }
text.occurSmall { font-family: helvetica ; font-size : 7; fill : blue }
rect.typeIconDark { fill : darkslategray }
circle.occurs { stroke : black ; stroke-width: 1; fill : white }
circle.ellipsis { fill : black }
path.typeIconDark { stroke : lightgray ; stroke-width: 1 }
path.connector { stroke : red ; stroke-width: 1 ; fill: none; }
path.modelGroup { stroke : black ; stroke-width: 1 ; fill: lightgray; }
polyline.connector { stroke : red ; stroke-width: 1 ; fill: none; }
.nodeStyle { fill : blue }
]]></style>
	</defs>
	<rect x = "88" y = "5" width = "353" height = "133" class = "attrGroup" rx = "5" ry = "5"/>
	<rect x = "93" y = "10" width = "51" height = "27" class = "element" rx = "5" ry = "5"/>
	<circle class = "nodeStyle" cx = "99" cy = "16" r = "4"/>
	<text x = "104" y = "21" class = "elName">Name</text>
	<rect x = "94" y = "11" width = "49" height = "25" class = "elTypeBkgnd" rx = "5" ry = "5" clip-path = "url(#e:Image/a:Name)"/>
	<defs/>
	<clipPath id = "e:Image/a:Name">
		<rect x = "93" y = "25" width = "51" height = "11"/>
	</clipPath>
	<text x = "94" y = "33" class = "elType">string</text>
	<image xlink:href = "../dgmDtString.gif" width = "10" height = "10" x = "134" y = "20"/>
	<circle class = "occurs" cx = "270" cy = "23" r = "6"/>
	<text x = "267" y = "26" class = "occurLarge">?</text>
	<rect x = "276" y = "10" width = "47" height = "27" class = "element" rx = "5" ry = "5"/>
	<circle class = "nodeStyle" cx = "282" cy = "16" r = "4"/>
	<text x = "287" y = "21" class = "elName">GUID</text>
	<rect x = "277" y = "11" width = "45" height = "25" class = "elTypeBkgnd" rx = "5" ry = "5" clip-path = "url(#e:Image/a:GUID)"/>
	<defs/>
	<clipPath id = "e:Image/a:GUID">
		<rect x = "276" y = "25" width = "47" height = "11"/>
	</clipPath>
	<text x = "277" y = "33" class = "elType">Hex40</text>
	<image xlink:href = "../dgmDtString.gif" width = "10" height = "10" x = "313" y = "20"/>
	<rect x = "93" y = "42" width = "64" height = "27" class = "element" rx = "5" ry = "5"/>
	<circle class = "nodeStyle" cx = "99" cy = "48" r = "4"/>
	<text x = "104" y = "53" class = "elName">SizeX</text>
	<rect x = "94" y = "43" width = "62" height = "25" class = "elTypeBkgnd" rx = "5" ry = "5" clip-path = "url(#e:Image/a:SizeX)"/>
	<defs/>
	<clipPath id = "e:Image/a:SizeX">
		<rect x = "93" y = "57" width = "64" height = "11"/>
	</clipPath>
	<text x = "94" y = "65" class = "elType">positiveInteger</text>
	<image xlink:href = "../dgmDtInteger.gif" width = "10" height = "10" x = "147" y = "52"/>
	<rect x = "251" y = "42" width = "64" height = "27" class = "element" rx = "5" ry = "5"/>
	<circle class = "nodeStyle" cx = "257" cy = "48" r = "4"/>
	<text x = "262" y = "53" class = "elName">SizeY</text>
	<rect x = "252" y = "43" width = "62" height = "25" class = "elTypeBkgnd" rx = "5" ry = "5" clip-path = "url(#e:Image/a:SizeY)"/>
	<defs/>
	<clipPath id = "e:Image/a:SizeY">
		<rect x = "251" y = "57" width = "64" height = "11"/>
	</clipPath>
	<text x = "252" y = "65" class = "elType">positiveInteger</text>
	<image xlink:href = "../dgmDtInteger.gif" width = "10" height = "10" x = "305" y = "52"/>
	<rect x = "93" y = "74" width = "64" height = "27" class = "element" rx = "5" ry = "5"/>
	<circle class = "nodeStyle" cx = "99" cy = "80" r = "4"/>
	<text x = "104" y = "85" class = "elName">SizeZ</text>
	<rect x = "94" y = "75" width = "62" height = "25" class = "elTypeBkgnd" rx = "5" ry = "5" clip-path = "url(#e:Image/a:SizeZ)"/>
	<defs/>
	<clipPath id = "e:Image/a:SizeZ">
		<rect x = "93" y = "89" width = "64" height = "11"/>
	</clipPath>
	<text x = "94" y = "97" class = "elType">positiveInteger</text>
	<image xlink:href = "../dgmDtInteger.gif" width = "10" height = "10" x = "147" y = "84"/>
	<rect x = "243" y = "74" width = "73" height = "27" class = "element" rx = "5" ry = "5"/>
	<circle class = "nodeStyle" cx = "249" cy = "80" r = "4"/>
	<text x = "254" y = "85" class = "elName">PixelSizeX</text>
	<rect x = "244" y = "75" width = "71" height = "25" class = "elTypeBkgnd" rx = "5" ry = "5" clip-path = "url(#e:Image/a:PixelSizeX)"/>
	<defs/>
	<clipPath id = "e:Image/a:PixelSizeX">
		<rect x = "243" y = "89" width = "73" height = "11"/>
	</clipPath>
	<text x = "244" y = "97" class = "elType">float</text>
	<image xlink:href = "../dgmDtFloat.gif" width = "10" height = "10" x = "306" y = "84"/>
	<rect x = "93" y = "106" width = "73" height = "27" class = "element" rx = "5" ry = "5"/>
	<circle class = "nodeStyle" cx = "99" cy = "112" r = "4"/>
	<text x = "104" y = "117" class = "elName">PixelSizeY</text>
	<rect x = "94" y = "107" width = "71" height = "25" class = "elTypeBkgnd" rx = "5" ry = "5" clip-path = "url(#e:Image/a:PixelSizeY)"/>
	<defs/>
	<clipPath id = "e:Image/a:PixelSizeY">
		<rect x = "93" y = "121" width = "73" height = "11"/>
	</clipPath>
	<text x = "94" y = "129" class = "elType">float</text>
	<image xlink:href = "../dgmDtFloat.gif" width = "10" height = "10" x = "156" y = "116"/>
	<rect x = "171" y = "106" width = "73" height = "27" class = "element" rx = "5" ry = "5"/>
	<circle class = "nodeStyle" cx = "177" cy = "112" r = "4"/>
	<text x = "182" y = "117" class = "elName">PixelSizeZ</text>
	<rect x = "172" y = "107" width = "71" height = "25" class = "elTypeBkgnd" rx = "5" ry = "5" clip-path = "url(#e:Image/a:PixelSizeZ)"/>
	<defs/>
	<clipPath id = "e:Image/a:PixelSizeZ">
		<rect x = "171" y = "121" width = "73" height = "11"/>
	</clipPath>
	<text x = "172" y = "129" class = "elType">float</text>
	<image xlink:href = "../dgmDtFloat.gif" width = "10" height = "10" x = "234" y = "116"/>
	<rect x = "321" y = "74" width = "74" height = "27" class = "element" rx = "5" ry = "5"/>
	<circle class = "nodeStyle" cx = "327" cy = "80" r = "4"/>
	<text x = "332" y = "85" class = "elName">NumTimes</text>
	<rect x = "322" y = "75" width = "72" height = "25" class = "elTypeBkgnd" rx = "5" ry = "5" clip-path = "url(#e:Image/a:NumTimes)"/>
	<defs/>
	<clipPath id = "e:Image/a:NumTimes">
		<rect x = "321" y = "89" width = "74" height = "11"/>
	</clipPath>
	<text x = "322" y = "97" class = "elType">positiveInteger</text>
	<image xlink:href = "../dgmDtInteger.gif" width = "10" height = "10" x = "385" y = "84"/>
	<rect x = "162" y = "74" width = "76" height = "27" class = "element" rx = "5" ry = "5"/>
	<circle class = "nodeStyle" cx = "168" cy = "80" r = "4"/>
	<text x = "173" y = "85" class = "elName">ImageType</text>
	<rect x = "163" y = "75" width = "74" height = "25" class = "elTypeBkgnd" rx = "5" ry = "5" clip-path = "url(#e:Image/a:ImageType)"/>
	<defs/>
	<clipPath id = "e:Image/a:ImageType">
		<rect x = "162" y = "89" width = "76" height = "11"/>
	</clipPath>
	<text x = "163" y = "97" class = "elType">string</text>
	<image xlink:href = "../dgmDtString.gif" width = "10" height = "10" x = "228" y = "84"/>
	<rect x = "320" y = "42" width = "76" height = "27" class = "element" rx = "5" ry = "5"/>
	<circle class = "nodeStyle" cx = "326" cy = "48" r = "4"/>
	<text x = "331" y = "53" class = "elName">NumWaves</text>
	<rect x = "321" y = "43" width = "74" height = "25" class = "elTypeBkgnd" rx = "5" ry = "5" clip-path = "url(#e:Image/a:NumWaves)"/>
	<defs/>
	<clipPath id = "e:Image/a:NumWaves">
		<rect x = "320" y = "57" width = "76" height = "11"/>
	</clipPath>
	<text x = "321" y = "65" class = "elType">positiveInteger</text>
	<image xlink:href = "../dgmDtInteger.gif" width = "10" height = "10" x = "386" y = "52"/>
	<circle class = "occurs" cx = "168" cy = "55" r = "6"/>
	<text x = "165" y = "58" class = "occurLarge">?</text>
	<rect x = "174" y = "42" width = "72" height = "27" class = "element" rx = "5" ry = "5"/>
	<circle class = "nodeStyle" cx = "180" cy = "48" r = "4"/>
	<text x = "185" y = "53" class = "elName">WaveStart</text>
	<rect x = "175" y = "43" width = "70" height = "25" class = "elTypeBkgnd" rx = "5" ry = "5" clip-path = "url(#e:Image/a:WaveStart)"/>
	<defs/>
	<clipPath id = "e:Image/a:WaveStart">
		<rect x = "174" y = "57" width = "72" height = "11"/>
	</clipPath>
	<text x = "175" y = "65" class = "elType">int</text>
	<image xlink:href = "../dgmDtInteger.gif" width = "10" height = "10" x = "236" y = "52"/>
	<circle class = "occurs" cx = "334" cy = "23" r = "6"/>
	<text x = "331" y = "26" class = "occurLarge">?</text>
	<rect x = "340" y = "10" width = "96" height = "27" class = "element" rx = "5" ry = "5"/>
	<circle class = "nodeStyle" cx = "346" cy = "16" r = "4"/>
	<text x = "351" y = "21" class = "elName">TimeIncrement</text>
	<rect x = "341" y = "11" width = "94" height = "25" class = "elTypeBkgnd" rx = "5" ry = "5" clip-path = "url(#e:Image/a:TimeIncrement)"/>
	<defs/>
	<clipPath id = "e:Image/a:TimeIncrement">
		<rect x = "340" y = "25" width = "96" height = "11"/>
	</clipPath>
	<text x = "341" y = "33" class = "elType">float</text>
	<image xlink:href = "../dgmDtFloat.gif" width = "10" height = "10" x = "426" y = "20"/>
	<circle class = "occurs" cx = "155" cy = "23" r = "6"/>
	<text x = "152" y = "26" class = "occurLarge">?</text>
	<rect x = "161" y = "10" width = "98" height = "27" class = "element" rx = "5" ry = "5"/>
	<circle class = "nodeStyle" cx = "167" cy = "16" r = "4"/>
	<text x = "172" y = "21" class = "elName">WaveIncrement</text>
	<rect x = "162" y = "11" width = "96" height = "25" class = "elTypeBkgnd" rx = "5" ry = "5" clip-path = "url(#e:Image/a:WaveIncrement)"/>
	<defs/>
	<clipPath id = "e:Image/a:WaveIncrement">
		<rect x = "161" y = "25" width = "98" height = "11"/>
	</clipPath>
	<text x = "162" y = "33" class = "elType">int</text>
	<image xlink:href = "../dgmDtInteger.gif" width = "10" height = "10" x = "249" y = "20"/>
	<rect x = "5" y = "364" width = "53" height = "27" class = "element"/>
	<polygon class = "nodeStyle" points = "11,366 7,370 11,374 15,370"/>
	<text x = "16" y = "375" class = "elName">Image</text>
	<rect x = "6" y = "379" width = "51" height = "11" class = "elTypeBkgnd"/>
	<image xlink:href = "../dgmTypeComplex.gif" width = "10" height = "10" x = "48" y = "374"/>
	<polyline class = "connector" points = "88,156 68,156 68,377 58,377 68,377 68,598 88,598"/>
	<polyline class = "connector" points = "58,375 66,375 66,71 88,71"/>
	<polyline class = "connector" points = "88,156 100,156"/>
	<rect x = "100" y = "143" width = "88" height = "27" class = "element"/>
	<polygon class = "nodeStyle" points = "106,145 102,149 106,153 110,149"/>
	<text x = "111" y = "154" class = "elName">CreationDate</text>
	<rect x = "101" y = "158" width = "86" height = "11" class = "elTypeBkgnd"/>
	<text x = "101" y = "166" class = "elType">dateTime</text>
	<image xlink:href = "../dgmDtDate.gif" width = "10" height = "10" x = "178" y = "153"/>
	<circle class = "occurs" cx = "94" cy = "190" r = "6"/>
	<text x = "91" y = "193" class = "occurLarge">?</text>
	<rect x = "100" y = "177" width = "78" height = "27" class = "element"/>
	<polygon class = "nodeStyle" points = "106,179 102,183 106,187 110,183"/>
	<text x = "111" y = "188" class = "elName">Description</text>
	<rect x = "101" y = "192" width = "76" height = "11" class = "elTypeBkgnd"/>
	<image xlink:href = "../dgmTypeAny.gif" width = "10" height = "10" x = "168" y = "187"/>
	<circle class = "occurs" cx = "94" cy = "224" r = "6"/>
	<text x = "91" y = "227" class = "occurLarge">?</text>
	<rect x = "100" y = "211" width = "104" height = "27" class = "element"/>
	<polygon class = "nodeStyle" points = "106,213 102,217 106,221 110,217"/>
	<text x = "111" y = "222" class = "elName">ExperimenterRef</text>
	<rect x = "101" y = "226" width = "102" height = "11" class = "elTypeBkgnd"/>
	<image xlink:href = "../dgmTypeEmpty.gif" width = "10" height = "10" x = "194" y = "221"/>
	<circle class = "occurs" cx = "94" cy = "258" r = "6"/>
	<text x = "91" y = "261" class = "occurLarge">?</text>
	<rect x = "100" y = "245" width = "68" height = "27" class = "element"/>
	<polygon class = "nodeStyle" points = "106,247 102,251 106,255 110,251"/>
	<text x = "111" y = "256" class = "elName">GroupRef</text>
	<rect x = "101" y = "260" width = "66" height = "11" class = "elTypeBkgnd"/>
	<image xlink:href = "../dgmTypeEmpty.gif" width = "10" height = "10" x = "158" y = "255"/>
	<circle class = "occurs" cx = "94" cy = "292" r = "6"/>
	<text x = "91" y = "295" class = "occurLarge">*</text>
	<rect x = "100" y = "279" width = "77" height = "27" class = "element"/>
	<polygon class = "nodeStyle" points = "106,281 102,285 106,289 110,285"/>
	<text x = "111" y = "290" class = "elName">DatasetRef</text>
	<rect x = "101" y = "294" width = "75" height = "11" class = "elTypeBkgnd"/>
	<image xlink:href = "../dgmTypeEmpty.gif" width = "10" height = "10" x = "167" y = "289"/>
	<circle class = "occurs" cx = "94" cy = "326" r = "6"/>
	<text x = "91" y = "329" class = "occurLarge">?</text>
	<rect x = "100" y = "313" width = "92" height = "27" class = "element"/>
	<polygon class = "nodeStyle" points = "106,315 102,319 106,323 110,319"/>
	<text x = "111" y = "324" class = "elName">InstrumentRef</text>
	<rect x = "101" y = "328" width = "90" height = "11" class = "elTypeBkgnd"/>
	<image xlink:href = "../dgmTypeEmpty.gif" width = "10" height = "10" x = "182" y = "323"/>
	<circle class = "occurs" cx = "94" cy = "360" r = "6"/>
	<text x = "91" y = "363" class = "occurLarge">?</text>
	<rect x = "100" y = "347" width = "74" height = "27" class = "element"/>
	<polygon class = "nodeStyle" points = "106,349 102,353 106,357 110,353"/>
	<text x = "111" y = "358" class = "elName">Thumbnail</text>
	<rect x = "101" y = "362" width = "72" height = "11" class = "elTypeBkgnd"/>
	<image xlink:href = "../dgmTypeComplex.gif" width = "10" height = "10" x = "164" y = "357"/>
	<circle class = "occurs" cx = "94" cy = "394" r = "6"/>
	<text x = "91" y = "397" class = "occurLarge">*</text>
	<rect x = "100" y = "381" width = "99" height = "27" class = "element"/>
	<polygon class = "nodeStyle" points = "106,383 102,387 106,391 110,387"/>
	<text x = "111" y = "392" class = "elName">WavelengthInfo</text>
	<rect x = "101" y = "396" width = "97" height = "11" class = "elTypeBkgnd"/>
	<image xlink:href = "../dgmTypeComplex.gif" width = "10" height = "10" x = "189" y = "391"/>
	<circle class = "occurs" cx = "94" cy = "428" r = "6"/>
	<text x = "91" y = "431" class = "occurLarge">?</text>
	<rect x = "100" y = "415" width = "96" height = "27" class = "element"/>
	<polygon class = "nodeStyle" points = "106,417 102,421 106,425 110,421"/>
	<text x = "111" y = "426" class = "elName">DisplayOptions</text>
	<rect x = "101" y = "430" width = "94" height = "11" class = "elTypeBkgnd"/>
	<image xlink:href = "../dgmTypeComplex.gif" width = "10" height = "10" x = "186" y = "425"/>
	<circle class = "occurs" cx = "94" cy = "462" r = "6"/>
	<text x = "91" y = "465" class = "occurLarge">?</text>
	<rect x = "100" y = "449" width = "109" height = "27" class = "element"/>
	<polygon class = "nodeStyle" points = "106,451 102,455 106,459 110,455"/>
	<text x = "111" y = "460" class = "elName">CustomAttributes</text>
	<rect x = "101" y = "464" width = "107" height = "11" class = "elTypeBkgnd"/>
	<image xlink:href = "../dgmTypeAny.gif" width = "10" height = "10" x = "199" y = "459"/>
	<circle class = "occurs" cx = "94" cy = "513" r = "6"/>
	<text x = "91" y = "516" class = "occurLarge">?</text>
	<polyline class = "connector" points = "130,496 110,513 100,513 110,513 130,530"/>
	<polyline class = "connector" points = "130,496 142,496"/>
	<rect x = "142" y = "483" width = "76" height = "27" class = "element"/>
	<polygon class = "nodeStyle" points = "148,485 144,489 148,493 152,489"/>
	<text x = "153" y = "494" class = "elName">StageLabel</text>
	<rect x = "143" y = "498" width = "74" height = "11" class = "elTypeBkgnd"/>
	<text x = "143" y = "506" class = "elType">string</text>
	<image xlink:href = "../dgmDtString.gif" width = "10" height = "10" x = "208" y = "493"/>
	<polyline class = "connector" points = "130,530 142,530"/>
	<rect x = "142" y = "517" width = "67" height = "27" class = "element"/>
	<polygon class = "nodeStyle" points = "148,519 144,523 148,527 152,523"/>
	<text x = "153" y = "528" class = "elName">PlateInfo</text>
	<rect x = "143" y = "532" width = "65" height = "11" class = "elTypeBkgnd"/>
	<image xlink:href = "../dgmTypeComplex.gif" width = "10" height = "10" x = "199" y = "527"/>
	<rect x = "100" y = "551" width = "46" height = "27" class = "element"/>
	<polygon class = "nodeStyle" points = "106,553 102,557 106,561 110,557"/>
	<text x = "111" y = "562" class = "elName">Data</text>
	<rect x = "101" y = "566" width = "44" height = "11" class = "elTypeBkgnd"/>
	<image xlink:href = "../dgmTypeComplex.gif" width = "10" height = "10" x = "136" y = "561"/>
	<circle class = "occurs" cx = "94" cy = "598" r = "6"/>
	<text x = "91" y = "601" class = "occurLarge">*</text>
	<rect x = "100" y = "585" width = "72" height = "27" class = "element"/>
	<polygon class = "nodeStyle" points = "106,587 102,591 106,595 110,591"/>
	<text x = "111" y = "596" class = "elName">#wildCard</text>
	<rect x = "101" y = "600" width = "70" height = "11" class = "elTypeBkgnd"/>
	<text x = "101" y = "608" class = "elType">?</text>
</svg>