<?xml version = "1.0"?>
<!DOCTYPE svg PUBLIC "-//W3C//DTD SVG 20010904//EN" "http://www.w3.org/TR/2001/REC-SVG-20010904/DTD/svg10.dtd">
<svg width = "361pt" height = "79pt" viewBox = "0 0 361 79" xmlns = "http://www.w3.org/2000/svg" xmlns:xlink = "http://www.w3.org/1999/xlink">
	<defs>
		<style type = "text/css"><![CDATA[
rect.attrGroup { fill: ivory ; stroke: black; stroke-width: 1 }
rect.element { fill: ivory ; stroke: black; stroke-width: 1 }
rect.elTypeBkgnd { fill: lightgray ; stroke: none }
text.elName { font-family: helvetica ; font-size : 10 }
text.elType { font-family: helvetica ; font-size : 7 }
text.occurLarge { font-family: helvetica ; font-size : 9; fill : blue }
text.occurSmall { font-family: helvetica ; font-size : 7; fill : blue }
rect.typeIconDark { fill : darkslategray }
circle.occurs { stroke : black ; stroke-width: 1; fill : white }
circle.ellipsis { fill : black }
path.typeIconDark { stroke : lightgray ; stroke-width: 1 }
path.connector { stroke : red ; stroke-width: 1 ; fill: none; }
path.modelGroup { stroke : black ; stroke-width: 1 ; fill: lightgray; }
polyline.connector { stroke : red ; stroke-width: 1 ; fill: none; }
.nodeStyle { fill : blue }
]]></style>
	</defs>
	<rect x = "91" y = "5" width = "265" height = "37" class = "attrGroup" rx = "5" ry = "5"/>
	<rect x = "96" y = "10" width = "71" height = "27" class = "element" rx = "5" ry = "5"/>
	<circle class = "nodeStyle" cx = "102" cy = "16" r = "4"/>
	<text x = "107" y = "21" class = "elName">AppliesTo</text>
	<rect x = "97" y = "11" width = "69" height = "25" class = "elTypeBkgnd" rx = "5" ry = "5" clip-path = "url(#e:Record/a:AppliesTo)"/>
	<defs/>
	<clipPath id = "e:Record/a:AppliesTo">
		<rect x = "96" y = "25" width = "71" height = "11"/>
	</clipPath>
	<image xlink:href = "../dgmDtString.gif" width = "10" height = "10" x = "157" y = "20"/>
	<rect x = "267" y = "10" width = "84" height = "27" class = "element" rx = "5" ry = "5"/>
	<circle class = "nodeStyle" cx = "273" cy = "16" r = "4"/>
	<text x = "278" y = "21" class = "elName">RecordName</text>
	<rect x = "268" y = "11" width = "82" height = "25" class = "elTypeBkgnd" rx = "5" ry = "5" clip-path = "url(#e:Record/a:RecordName)"/>
	<defs/>
	<clipPath id = "e:Record/a:RecordName">
		<rect x = "267" y = "25" width = "84" height = "11"/>
	</clipPath>
	<image xlink:href = "../dgmDtString.gif" width = "10" height = "10" x = "341" y = "20"/>
	<circle class = "occurs" cx = "178" cy = "23" r = "6"/>
	<text x = "175" y = "26" class = "occurLarge">?</text>
	<rect x = "184" y = "10" width = "78" height = "27" class = "element" rx = "5" ry = "5"/>
	<circle class = "nodeStyle" cx = "190" cy = "16" r = "4"/>
	<text x = "195" y = "21" class = "elName">Description</text>
	<rect x = "185" y = "11" width = "76" height = "25" class = "elTypeBkgnd" rx = "5" ry = "5" clip-path = "url(#e:Record/a:Description)"/>
	<defs/>
	<clipPath id = "e:Record/a:Description">
		<rect x = "184" y = "25" width = "78" height = "11"/>
	</clipPath>
	<text x = "185" y = "33" class = "elType">string</text>
	<image xlink:href = "../dgmDtString.gif" width = "10" height = "10" x = "252" y = "20"/>
	<rect x = "5" y = "47" width = "56" height = "27" class = "element"/>
	<polygon class = "nodeStyle" points = "11,49 7,53 11,57 15,53"/>
	<text x = "16" y = "58" class = "elName">Record</text>
	<rect x = "6" y = "62" width = "54" height = "11" class = "elTypeBkgnd"/>
	<image xlink:href = "../dgmTypeComplex.gif" width = "10" height = "10" x = "51" y = "57"/>
	<polyline class = "connector" points = "61,60 91,60"/>
	<polyline class = "connector" points = "61,58 69,58 69,23 91,23"/>
	<circle class = "occurs" cx = "97" cy = "60" r = "6"/>
	<text x = "94" y = "63" class = "occurLarge">+</text>
	<rect x = "103" y = "47" width = "46" height = "27" class = "element"/>
	<polygon class = "nodeStyle" points = "109,49 105,53 109,57 113,53"/>
	<text x = "114" y = "58" class = "elName">Field</text>
	<rect x = "104" y = "62" width = "44" height = "11" class = "elTypeBkgnd"/>
	<image xlink:href = "../dgmTypeEmpty.gif" width = "10" height = "10" x = "139" y = "57"/>
</svg>