<?xml version = "1.0"?>
<!DOCTYPE svg PUBLIC "-//W3C//DTD SVG 20010904//EN" "http://www.w3.org/TR/2001/REC-SVG-20010904/DTD/svg10.dtd">
<svg width = "234pt" height = "47pt" viewBox = "0 0 234 47" xmlns = "http://www.w3.org/2000/svg" xmlns:xlink = "http://www.w3.org/1999/xlink">
	<defs>
		<style type = "text/css"><![CDATA[
rect.attrGroup { fill: ivory ; stroke: black; stroke-width: 1 }
rect.element { fill: ivory ; stroke: black; stroke-width: 1 }
rect.elTypeBkgnd { fill: lightgray ; stroke: none }
text.elName { font-family: helvetica ; font-size : 10 }
text.elType { font-family: helvetica ; font-size : 7 }
text.occurLarge { font-family: helvetica ; font-size : 9; fill : blue }
text.occurSmall { font-family: helvetica ; font-size : 7; fill : blue }
rect.typeIconDark { fill : darkslategray }
circle.occurs { stroke : black ; stroke-width: 1; fill : white }
circle.ellipsis { fill : black }
path.typeIconDark { stroke : lightgray ; stroke-width: 1 }
path.connector { stroke : red ; stroke-width: 1 ; fill: none; }
path.modelGroup { stroke : black ; stroke-width: 1 ; fill: lightgray; }
polyline.connector { stroke : red ; stroke-width: 1 ; fill: none; }
.nodeStyle { fill : blue }
]]></style>
	</defs>
	<rect x = "5" y = "10" width = "88" height = "27" class = "element"/>
	<polygon class = "nodeStyle" points = "11,12 7,16 11,20 15,16"/>
	<text x = "16" y = "21" class = "elName">DocumentRef</text>
	<rect x = "6" y = "25" width = "86" height = "11" class = "elTypeBkgnd"/>
	<image xlink:href = "../dgmTypeEmpty.gif" width = "10" height = "10" x = "83" y = "20"/>
	<polyline class = "connector" points = "93,23 123,23"/>
	<rect x = "123" y = "5" width = "106" height = "37" class = "attrGroup" rx = "5" ry = "5"/>
	<rect x = "128" y = "10" width = "43" height = "27" class = "element" rx = "5" ry = "5"/>
	<circle class = "nodeStyle" cx = "134" cy = "16" r = "4"/>
	<text x = "139" y = "21" class = "elName">href</text>
	<rect x = "129" y = "11" width = "41" height = "25" class = "elTypeBkgnd" rx = "5" ry = "5" clip-path = "url(#e:DocumentRef/a:href)"/>
	<defs/>
	<clipPath id = "e:DocumentRef/a:href">
		<rect x = "128" y = "25" width = "43" height = "11"/>
	</clipPath>
	<text x = "129" y = "33" class = "elType">uri</text>
	<image xlink:href = "../dgmDtString.gif" width = "10" height = "10" x = "161" y = "20"/>
	<rect x = "176" y = "10" width = "48" height = "27" class = "element" rx = "5" ry = "5"/>
	<circle class = "nodeStyle" cx = "182" cy = "16" r = "4"/>
	<text x = "187" y = "21" class = "elName">SHA1</text>
	<rect x = "177" y = "11" width = "46" height = "25" class = "elTypeBkgnd" rx = "5" ry = "5" clip-path = "url(#e:DocumentRef/a:SHA1)"/>
	<defs/>
	<clipPath id = "e:DocumentRef/a:SHA1">
		<rect x = "176" y = "25" width = "48" height = "11"/>
	</clipPath>
	<text x = "177" y = "33" class = "elType">Hex40</text>
	<image xlink:href = "../dgmDtString.gif" width = "10" height = "10" x = "214" y = "20"/>
</svg>