<?xml version = "1.0"?>
<!DOCTYPE svg PUBLIC "-//W3C//DTD SVG 20010904//EN" "http://www.w3.org/TR/2001/REC-SVG-20010904/DTD/svg10.dtd">
<svg width = "483pt" height = "79pt" viewBox = "0 0 483 79" xmlns = "http://www.w3.org/2000/svg" xmlns:xlink = "http://www.w3.org/1999/xlink">
	<defs>
		<style type = "text/css"><![CDATA[
rect.attrGroup { fill: ivory ; stroke: black; stroke-width: 1 }
rect.element { fill: ivory ; stroke: black; stroke-width: 1 }
rect.elTypeBkgnd { fill: lightgray ; stroke: none }
text.elName { font-family: helvetica ; font-size : 10 }
text.elType { font-family: helvetica ; font-size : 7 }
text.occurLarge { font-family: helvetica ; font-size : 9; fill : blue }
text.occurSmall { font-family: helvetica ; font-size : 7; fill : blue }
rect.typeIconDark { fill : darkslategray }
circle.occurs { stroke : black ; stroke-width: 1; fill : white }
circle.ellipsis { fill : black }
path.typeIconDark { stroke : lightgray ; stroke-width: 1 }
path.connector { stroke : red ; stroke-width: 1 ; fill: none; }
path.modelGroup { stroke : black ; stroke-width: 1 ; fill: lightgray; }
polyline.connector { stroke : red ; stroke-width: 1 ; fill: none; }
.nodeStyle { fill : blue }
]]></style>
	</defs>
	<rect x = "125" y = "5" width = "353" height = "37" class = "attrGroup" rx = "5" ry = "5"/>
	<rect x = "130" y = "10" width = "51" height = "27" class = "element" rx = "5" ry = "5"/>
	<circle class = "nodeStyle" cx = "136" cy = "16" r = "4"/>
	<text x = "141" y = "21" class = "elName">Name</text>
	<rect x = "131" y = "11" width = "49" height = "25" class = "elTypeBkgnd" rx = "5" ry = "5" clip-path = "url(#e:FormalOutput/a:Name)"/>
	<defs/>
	<clipPath id = "e:FormalOutput/a:Name">
		<rect x = "130" y = "25" width = "51" height = "11"/>
	</clipPath>
	<image xlink:href = "../dgmDtString.gif" width = "10" height = "10" x = "171" y = "20"/>
	<circle class = "occurs" cx = "327" cy = "23" r = "6"/>
	<text x = "324" y = "26" class = "occurLarge">D</text>
	<rect x = "333" y = "10" width = "52" height = "27" class = "element" rx = "5" ry = "5"/>
	<circle class = "nodeStyle" cx = "339" cy = "16" r = "4"/>
	<text x = "344" y = "21" class = "elName">Count</text>
	<rect x = "334" y = "11" width = "50" height = "25" class = "elTypeBkgnd" rx = "5" ry = "5" clip-path = "url(#e:FormalOutput/a:Count)"/>
	<defs/>
	<clipPath id = "e:FormalOutput/a:Count">
		<rect x = "333" y = "25" width = "52" height = "11"/>
	</clipPath>
	<image xlink:href = "../dgmDtString.gif" width = "10" height = "10" x = "375" y = "20"/>
	<circle class = "occurs" cx = "396" cy = "23" r = "6"/>
	<text x = "393" y = "26" class = "occurLarge">?</text>
	<rect x = "402" y = "10" width = "71" height = "27" class = "element" rx = "5" ry = "5"/>
	<circle class = "nodeStyle" cx = "408" cy = "16" r = "4"/>
	<text x = "413" y = "21" class = "elName">IBelongTo</text>
	<rect x = "403" y = "11" width = "69" height = "25" class = "elTypeBkgnd" rx = "5" ry = "5" clip-path = "url(#e:FormalOutput/a:IBelongTo)"/>
	<defs/>
	<clipPath id = "e:FormalOutput/a:IBelongTo">
		<rect x = "402" y = "25" width = "71" height = "11"/>
	</clipPath>
	<image xlink:href = "../dgmDtString.gif" width = "10" height = "10" x = "463" y = "20"/>
	<circle class = "occurs" cx = "192" cy = "23" r = "6"/>
	<text x = "189" y = "26" class = "occurLarge">?</text>
	<rect x = "198" y = "10" width = "118" height = "27" class = "element" rx = "5" ry = "5"/>
	<circle class = "nodeStyle" cx = "204" cy = "16" r = "4"/>
	<text x = "209" y = "21" class = "elName">SemanticTypeName</text>
	<rect x = "199" y = "11" width = "116" height = "25" class = "elTypeBkgnd" rx = "5" ry = "5" clip-path = "url(#e:FormalOutput/a:SemanticTypeName)"/>
	<defs/>
	<clipPath id = "e:FormalOutput/a:SemanticTypeName">
		<rect x = "198" y = "25" width = "118" height = "11"/>
	</clipPath>
	<text x = "199" y = "33" class = "elType">string</text>
	<image xlink:href = "../dgmDtString.gif" width = "10" height = "10" x = "306" y = "20"/>
	<rect x = "5" y = "47" width = "90" height = "27" class = "element"/>
	<polygon class = "nodeStyle" points = "11,49 7,53 11,57 15,53"/>
	<text x = "16" y = "58" class = "elName">FormalOutput</text>
	<rect x = "6" y = "62" width = "88" height = "11" class = "elTypeBkgnd"/>
	<image xlink:href = "../dgmTypeComplex.gif" width = "10" height = "10" x = "85" y = "57"/>
	<polyline class = "connector" points = "95,60 125,60"/>
	<polyline class = "connector" points = "95,58 103,58 103,23 125,23"/>
	<circle class = "occurs" cx = "131" cy = "60" r = "6"/>
	<text x = "128" y = "63" class = "occurLarge">?</text>
	<rect x = "137" y = "47" width = "78" height = "27" class = "element"/>
	<polygon class = "nodeStyle" points = "143,49 139,53 143,57 147,53"/>
	<text x = "148" y = "58" class = "elName">Description</text>
	<rect x = "138" y = "62" width = "76" height = "11" class = "elTypeBkgnd"/>
	<text x = "138" y = "70" class = "elType">string</text>
	<image xlink:href = "../dgmDtString.gif" width = "10" height = "10" x = "205" y = "57"/>
</svg>