<?xml version = "1.0"?>
<!DOCTYPE svg PUBLIC "-//W3C//DTD SVG 20010904//EN" "http://www.w3.org/TR/2001/REC-SVG-20010904/DTD/svg10.dtd">
<svg width = "533pt" height = "213pt" viewBox = "0 0 533 213" xmlns = "http://www.w3.org/2000/svg" xmlns:xlink = "http://www.w3.org/1999/xlink">
	<defs>
		<style type = "text/css"><![CDATA[
rect.attrGroup { fill: ivory ; stroke: black; stroke-width: 1 }
rect.element { fill: ivory ; stroke: black; stroke-width: 1 }
rect.elTypeBkgnd { fill: lightgray ; stroke: none }
text.elName { font-family: helvetica ; font-size : 10 }
text.elType { font-family: helvetica ; font-size : 7 }
text.occurLarge { font-family: helvetica ; font-size : 9; fill : blue }
text.occurSmall { font-family: helvetica ; font-size : 7; fill : blue }
rect.typeIconDark { fill : darkslategray }
circle.occurs { stroke : black ; stroke-width: 1; fill : white }
circle.ellipsis { fill : black }
path.typeIconDark { stroke : lightgray ; stroke-width: 1 }
path.connector { stroke : red ; stroke-width: 1 ; fill: none; }
path.modelGroup { stroke : black ; stroke-width: 1 ; fill: lightgray; }
polyline.connector { stroke : red ; stroke-width: 1 ; fill: none; }
.nodeStyle { fill : blue }
]]></style>
	</defs>
	<rect x = "134" y = "5" width = "394" height = "69" class = "attrGroup" rx = "5" ry = "5"/>
	<rect x = "139" y = "10" width = "44" height = "27" class = "element" rx = "5" ry = "5"/>
	<circle class = "nodeStyle" cx = "145" cy = "16" r = "4"/>
	<text x = "150" y = "21" class = "elName">ID</text>
	<rect x = "140" y = "11" width = "42" height = "25" class = "elTypeBkgnd" rx = "5" ry = "5" clip-path = "url(#e:AnalysisModule/a:ID)"/>
	<defs/>
	<clipPath id = "e:AnalysisModule/a:ID">
		<rect x = "139" y = "25" width = "44" height = "11"/>
	</clipPath>
	<text x = "140" y = "33" class = "elType">ModuleID</text>
	<image xlink:href = "../dgmDtString.gif" width = "10" height = "10" x = "173" y = "20"/>
	<rect x = "318" y = "10" width = "74" height = "27" class = "element" rx = "5" ry = "5"/>
	<circle class = "nodeStyle" cx = "324" cy = "16" r = "4"/>
	<text x = "329" y = "21" class = "elName">ProgramID</text>
	<rect x = "319" y = "11" width = "72" height = "25" class = "elTypeBkgnd" rx = "5" ry = "5" clip-path = "url(#e:AnalysisModule/a:ProgramID)"/>
	<defs/>
	<clipPath id = "e:AnalysisModule/a:ProgramID">
		<rect x = "318" y = "25" width = "74" height = "11"/>
	</clipPath>
	<text x = "319" y = "33" class = "elType">string</text>
	<image xlink:href = "../dgmDtString.gif" width = "10" height = "10" x = "382" y = "20"/>
	<circle class = "occurs" cx = "145" cy = "55" r = "6"/>
	<text x = "142" y = "58" class = "occurLarge">?</text>
	<rect x = "151" y = "42" width = "67" height = "27" class = "element" rx = "5" ry = "5"/>
	<circle class = "nodeStyle" cx = "157" cy = "48" r = "4"/>
	<text x = "162" y = "53" class = "elName">Category</text>
	<rect x = "152" y = "43" width = "65" height = "25" class = "elTypeBkgnd" rx = "5" ry = "5" clip-path = "url(#e:AnalysisModule/a:Category)"/>
	<defs/>
	<clipPath id = "e:AnalysisModule/a:Category">
		<rect x = "151" y = "57" width = "67" height = "11"/>
	</clipPath>
	<image xlink:href = "../dgmDtString.gif" width = "10" height = "10" x = "208" y = "52"/>
	<rect x = "337" y = "42" width = "82" height = "27" class = "element" rx = "5" ry = "5"/>
	<circle class = "nodeStyle" cx = "343" cy = "48" r = "4"/>
	<text x = "348" y = "53" class = "elName">ModuleType</text>
	<rect x = "338" y = "43" width = "80" height = "25" class = "elTypeBkgnd" rx = "5" ry = "5" clip-path = "url(#e:AnalysisModule/a:ModuleType)"/>
	<defs/>
	<clipPath id = "e:AnalysisModule/a:ModuleType">
		<rect x = "337" y = "57" width = "82" height = "11"/>
	</clipPath>
	<image xlink:href = "../dgmDtString.gif" width = "10" height = "10" x = "409" y = "52"/>
	<circle class = "occurs" cx = "430" cy = "55" r = "6"/>
	<text x = "427" y = "58" class = "occurLarge">?</text>
	<rect x = "436" y = "42" width = "87" height = "27" class = "element" rx = "5" ry = "5"/>
	<circle class = "nodeStyle" cx = "442" cy = "48" r = "4"/>
	<text x = "447" y = "53" class = "elName">ModuleName</text>
	<rect x = "437" y = "43" width = "85" height = "25" class = "elTypeBkgnd" rx = "5" ry = "5" clip-path = "url(#e:AnalysisModule/a:ModuleName)"/>
	<defs/>
	<clipPath id = "e:AnalysisModule/a:ModuleName">
		<rect x = "436" y = "57" width = "87" height = "11"/>
	</clipPath>
	<image xlink:href = "../dgmDtString.gif" width = "10" height = "10" x = "513" y = "52"/>
	<circle class = "occurs" cx = "229" cy = "55" r = "6"/>
	<text x = "226" y = "58" class = "occurLarge">?</text>
	<rect x = "235" y = "42" width = "97" height = "27" class = "element" rx = "5" ry = "5"/>
	<circle class = "nodeStyle" cx = "241" cy = "48" r = "4"/>
	<text x = "246" y = "53" class = "elName">FeatureIterator</text>
	<rect x = "236" y = "43" width = "95" height = "25" class = "elTypeBkgnd" rx = "5" ry = "5" clip-path = "url(#e:AnalysisModule/a:FeatureIterator)"/>
	<defs/>
	<clipPath id = "e:AnalysisModule/a:FeatureIterator">
		<rect x = "235" y = "57" width = "97" height = "11"/>
	</clipPath>
	<image xlink:href = "../dgmDtString.gif" width = "10" height = "10" x = "322" y = "52"/>
	<circle class = "occurs" cx = "403" cy = "23" r = "6"/>
	<text x = "400" y = "26" class = "occurLarge">?</text>
	<rect x = "409" y = "10" width = "109" height = "27" class = "element" rx = "5" ry = "5"/>
	<circle class = "nodeStyle" cx = "415" cy = "16" r = "4"/>
	<text x = "420" y = "21" class = "elName">NewFeatureName</text>
	<rect x = "410" y = "11" width = "107" height = "25" class = "elTypeBkgnd" rx = "5" ry = "5" clip-path = "url(#e:AnalysisModule/a:NewFeatureName)"/>
	<defs/>
	<clipPath id = "e:AnalysisModule/a:NewFeatureName">
		<rect x = "409" y = "25" width = "109" height = "11"/>
	</clipPath>
	<image xlink:href = "../dgmDtString.gif" width = "10" height = "10" x = "508" y = "20"/>
	<circle class = "occurs" cx = "194" cy = "23" r = "6"/>
	<text x = "191" y = "26" class = "occurLarge">D</text>
	<rect x = "200" y = "10" width = "113" height = "27" class = "element" rx = "5" ry = "5"/>
	<circle class = "nodeStyle" cx = "206" cy = "16" r = "4"/>
	<text x = "211" y = "21" class = "elName">isStreamAlgorithm</text>
	<rect x = "201" y = "11" width = "111" height = "25" class = "elTypeBkgnd" rx = "5" ry = "5" clip-path = "url(#e:AnalysisModule/a:isStreamAlgorithm)"/>
	<defs/>
	<clipPath id = "e:AnalysisModule/a:isStreamAlgorithm">
		<rect x = "200" y = "25" width = "113" height = "11"/>
	</clipPath>
	<text x = "201" y = "33" class = "elType">boolean</text>
	<image xlink:href = "../dgmDtBoolean.gif" width = "10" height = "10" x = "303" y = "20"/>
	<rect x = "5" y = "130" width = "99" height = "27" class = "element"/>
	<polygon class = "nodeStyle" points = "11,132 7,136 11,140 15,136"/>
	<text x = "16" y = "141" class = "elName">AnalysisModule</text>
	<rect x = "6" y = "145" width = "97" height = "11" class = "elTypeBkgnd"/>
	<image xlink:href = "../dgmTypeComplex.gif" width = "10" height = "10" x = "94" y = "140"/>
	<polyline class = "connector" points = "134,92 114,92 114,143 104,143 114,143 114,177 134,177"/>
	<polyline class = "connector" points = "104,141 112,141 112,39 134,39"/>
	<circle class = "occurs" cx = "140" cy = "92" r = "6"/>
	<text x = "137" y = "95" class = "occurLarge">?</text>
	<rect x = "146" y = "79" width = "78" height = "27" class = "element"/>
	<polygon class = "nodeStyle" points = "152,81 148,85 152,89 156,85"/>
	<text x = "157" y = "90" class = "elName">Description</text>
	<rect x = "147" y = "94" width = "76" height = "11" class = "elTypeBkgnd"/>
	<text x = "147" y = "102" class = "elType">string</text>
	<image xlink:href = "../dgmDtString.gif" width = "10" height = "10" x = "214" y = "89"/>
	<rect x = "146" y = "113" width = "79" height = "27" class = "element"/>
	<polygon class = "nodeStyle" points = "152,115 148,119 152,123 156,119"/>
	<text x = "157" y = "124" class = "elName">Declaration</text>
	<rect x = "147" y = "128" width = "77" height = "11" class = "elTypeBkgnd"/>
	<image xlink:href = "../dgmTypeComplex.gif" width = "10" height = "10" x = "215" y = "123"/>
	<circle class = "occurs" cx = "140" cy = "177" r = "6"/>
	<text x = "137" y = "180" class = "occurLarge">?</text>
	<polyline class = "connector" points = "176,160 156,177 146,177 156,177 176,194"/>
	<polyline class = "connector" points = "176,160 188,160"/>
	<rect x = "188" y = "147" width = "127" height = "27" class = "element"/>
	<polygon class = "nodeStyle" points = "194,149 190,153 194,157 198,153"/>
	<text x = "199" y = "158" class = "elName">ExecutionInstructions</text>
	<rect x = "189" y = "162" width = "125" height = "11" class = "elTypeBkgnd"/>
	<image xlink:href = "../dgmTypeComplex.gif" width = "10" height = "10" x = "305" y = "157"/>
	<polyline class = "connector" points = "176,194 188,194"/>
	<rect x = "188" y = "181" width = "127" height = "27" class = "element"/>
	<polygon class = "nodeStyle" points = "194,183 190,187 194,191 198,187"/>
	<text x = "199" y = "192" class = "elName">ExecutionInstructions</text>
	<rect x = "189" y = "196" width = "125" height = "11" class = "elTypeBkgnd"/>
	<image xlink:href = "../dgmTypeComplex.gif" width = "10" height = "10" x = "305" y = "191"/>
</svg>