<?xml version = "1.0"?>
<!DOCTYPE svg PUBLIC "-//W3C//DTD SVG 20010904//EN" "http://www.w3.org/TR/2001/REC-SVG-20010904/DTD/svg10.dtd">
<svg width = "474pt" height = "113pt" viewBox = "0 0 474 113" xmlns = "http://www.w3.org/2000/svg" xmlns:xlink = "http://www.w3.org/1999/xlink">
	<defs>
		<style type = "text/css"><![CDATA[
rect.attrGroup { fill: ivory ; stroke: black; stroke-width: 1 }
rect.element { fill: ivory ; stroke: black; stroke-width: 1 }
rect.elTypeBkgnd { fill: lightgray ; stroke: none }
text.elName { font-family: helvetica ; font-size : 10 }
text.elType { font-family: helvetica ; font-size : 7 }
text.occurLarge { font-family: helvetica ; font-size : 9; fill : blue }
text.occurSmall { font-family: helvetica ; font-size : 7; fill : blue }
rect.typeIconDark { fill : darkslategray }
circle.occurs { stroke : black ; stroke-width: 1; fill : white }
circle.ellipsis { fill : black }
path.typeIconDark { stroke : lightgray ; stroke-width: 1 }
path.connector { stroke : red ; stroke-width: 1 ; fill: none; }
path.modelGroup { stroke : black ; stroke-width: 1 ; fill: lightgray; }
polyline.connector { stroke : red ; stroke-width: 1 ; fill: none; }
.nodeStyle { fill : blue }
]]></style>
	</defs>
	<rect x = "116" y = "5" width = "353" height = "37" class = "attrGroup" rx = "5" ry = "5"/>
	<rect x = "121" y = "10" width = "51" height = "27" class = "element" rx = "5" ry = "5"/>
	<circle class = "nodeStyle" cx = "127" cy = "16" r = "4"/>
	<text x = "132" y = "21" class = "elName">Name</text>
	<rect x = "122" y = "11" width = "49" height = "25" class = "elTypeBkgnd" rx = "5" ry = "5" clip-path = "url(#e:FormalInput/a:Name)"/>
	<defs/>
	<clipPath id = "e:FormalInput/a:Name">
		<rect x = "121" y = "25" width = "51" height = "11"/>
	</clipPath>
	<image xlink:href = "../dgmDtString.gif" width = "10" height = "10" x = "162" y = "20"/>
	<circle class = "occurs" cx = "306" cy = "23" r = "6"/>
	<text x = "303" y = "26" class = "occurLarge">D</text>
	<rect x = "312" y = "10" width = "52" height = "27" class = "element" rx = "5" ry = "5"/>
	<circle class = "nodeStyle" cx = "318" cy = "16" r = "4"/>
	<text x = "323" y = "21" class = "elName">Count</text>
	<rect x = "313" y = "11" width = "50" height = "25" class = "elTypeBkgnd" rx = "5" ry = "5" clip-path = "url(#e:FormalInput/a:Count)"/>
	<defs/>
	<clipPath id = "e:FormalInput/a:Count">
		<rect x = "312" y = "25" width = "52" height = "11"/>
	</clipPath>
	<image xlink:href = "../dgmDtString.gif" width = "10" height = "10" x = "354" y = "20"/>
	<circle class = "occurs" cx = "375" cy = "23" r = "6"/>
	<text x = "372" y = "26" class = "occurLarge">D</text>
	<rect x = "381" y = "10" width = "83" height = "27" class = "element" rx = "5" ry = "5"/>
	<circle class = "nodeStyle" cx = "387" cy = "16" r = "4"/>
	<text x = "392" y = "21" class = "elName">UserDefined</text>
	<rect x = "382" y = "11" width = "81" height = "25" class = "elTypeBkgnd" rx = "5" ry = "5" clip-path = "url(#e:FormalInput/a:UserDefined)"/>
	<defs/>
	<clipPath id = "e:FormalInput/a:UserDefined">
		<rect x = "381" y = "25" width = "83" height = "11"/>
	</clipPath>
	<text x = "382" y = "33" class = "elType">boolean</text>
	<image xlink:href = "../dgmDtBoolean.gif" width = "10" height = "10" x = "454" y = "20"/>
	<rect x = "177" y = "10" width = "118" height = "27" class = "element" rx = "5" ry = "5"/>
	<circle class = "nodeStyle" cx = "183" cy = "16" r = "4"/>
	<text x = "188" y = "21" class = "elName">SemanticTypeName</text>
	<rect x = "178" y = "11" width = "116" height = "25" class = "elTypeBkgnd" rx = "5" ry = "5" clip-path = "url(#e:FormalInput/a:SemanticTypeName)"/>
	<defs/>
	<clipPath id = "e:FormalInput/a:SemanticTypeName">
		<rect x = "177" y = "25" width = "118" height = "11"/>
	</clipPath>
	<text x = "178" y = "33" class = "elType">string</text>
	<image xlink:href = "../dgmDtString.gif" width = "10" height = "10" x = "285" y = "20"/>
	<rect x = "5" y = "64" width = "81" height = "27" class = "element"/>
	<polygon class = "nodeStyle" points = "11,66 7,70 11,74 15,70"/>
	<text x = "16" y = "75" class = "elName">FormalInput</text>
	<rect x = "6" y = "79" width = "79" height = "11" class = "elTypeBkgnd"/>
	<image xlink:href = "../dgmTypeComplex.gif" width = "10" height = "10" x = "76" y = "74"/>
	<polyline class = "connector" points = "116,60 96,60 96,77 86,77 96,77 96,94 116,94"/>
	<polyline class = "connector" points = "86,75 94,75 94,23 116,23"/>
	<circle class = "occurs" cx = "122" cy = "60" r = "6"/>
	<text x = "119" y = "63" class = "occurLarge">?</text>
	<rect x = "128" y = "47" width = "85" height = "27" class = "element"/>
	<polygon class = "nodeStyle" points = "134,49 130,53 134,57 138,53"/>
	<text x = "139" y = "58" class = "elName">LookupTable</text>
	<rect x = "129" y = "62" width = "83" height = "11" class = "elTypeBkgnd"/>
	<image xlink:href = "../dgmTypeComplex.gif" width = "10" height = "10" x = "203" y = "57"/>
	<circle class = "occurs" cx = "122" cy = "94" r = "6"/>
	<text x = "119" y = "97" class = "occurLarge">?</text>
	<rect x = "128" y = "81" width = "78" height = "27" class = "element"/>
	<polygon class = "nodeStyle" points = "134,83 130,87 134,91 138,87"/>
	<text x = "139" y = "92" class = "elName">Description</text>
	<rect x = "129" y = "96" width = "76" height = "11" class = "elTypeBkgnd"/>
	<text x = "129" y = "104" class = "elType">string</text>
	<image xlink:href = "../dgmDtString.gif" width = "10" height = "10" x = "196" y = "91"/>
</svg>