<?xml version = "1.0"?>
<!DOCTYPE svg PUBLIC "-//W3C//DTD SVG 20010904//EN" "http://www.w3.org/TR/2001/REC-SVG-20010904/DTD/svg10.dtd">
<svg width = "333pt" height = "147pt" viewBox = "0 0 333 147" xmlns = "http://www.w3.org/2000/svg" xmlns:xlink = "http://www.w3.org/1999/xlink">
	<defs>
		<style type = "text/css"><![CDATA[
rect.attrGroup { fill: ivory ; stroke: black; stroke-width: 1 }
rect.element { fill: ivory ; stroke: black; stroke-width: 1 }
rect.elTypeBkgnd { fill: lightgray ; stroke: none }
text.elName { font-family: helvetica ; font-size : 10 }
text.elType { font-family: helvetica ; font-size : 7 }
text.occurLarge { font-family: helvetica ; font-size : 9; fill : blue }
text.occurSmall { font-family: helvetica ; font-size : 7; fill : blue }
rect.typeIconDark { fill : darkslategray }
circle.occurs { stroke : black ; stroke-width: 1; fill : white }
circle.ellipsis { fill : black }
path.typeIconDark { stroke : lightgray ; stroke-width: 1 }
path.connector { stroke : red ; stroke-width: 1 ; fill: none; }
path.modelGroup { stroke : black ; stroke-width: 1 ; fill: lightgray; }
polyline.connector { stroke : red ; stroke-width: 1 ; fill: none; }
.nodeStyle { fill : blue }
]]></style>
	</defs>
	<rect x = "99" y = "5" width = "229" height = "37" class = "attrGroup" rx = "5" ry = "5"/>
	<circle class = "occurs" cx = "110" cy = "23" r = "6"/>
	<text x = "107" y = "26" class = "occurLarge">?</text>
	<rect x = "116" y = "10" width = "51" height = "27" class = "element" rx = "5" ry = "5"/>
	<circle class = "nodeStyle" cx = "122" cy = "16" r = "4"/>
	<text x = "127" y = "21" class = "elName">Name</text>
	<rect x = "117" y = "11" width = "49" height = "25" class = "elTypeBkgnd" rx = "5" ry = "5" clip-path = "url(#e:Program/a:Name)"/>
	<defs/>
	<clipPath id = "e:Program/a:Name">
		<rect x = "116" y = "25" width = "51" height = "11"/>
	</clipPath>
	<image xlink:href = "../dgmDtString.gif" width = "10" height = "10" x = "157" y = "20"/>
	<circle class = "occurs" cx = "257" cy = "23" r = "6"/>
	<text x = "254" y = "26" class = "occurLarge">?</text>
	<rect x = "263" y = "10" width = "60" height = "27" class = "element" rx = "5" ry = "5"/>
	<circle class = "nodeStyle" cx = "269" cy = "16" r = "4"/>
	<text x = "274" y = "21" class = "elName">Version</text>
	<rect x = "264" y = "11" width = "58" height = "25" class = "elTypeBkgnd" rx = "5" ry = "5" clip-path = "url(#e:Program/a:Version)"/>
	<defs/>
	<clipPath id = "e:Program/a:Version">
		<rect x = "263" y = "25" width = "60" height = "11"/>
	</clipPath>
	<text x = "264" y = "33" class = "elType">string</text>
	<image xlink:href = "../dgmDtString.gif" width = "10" height = "10" x = "313" y = "20"/>
	<rect x = "172" y = "10" width = "74" height = "27" class = "element" rx = "5" ry = "5"/>
	<circle class = "nodeStyle" cx = "178" cy = "16" r = "4"/>
	<text x = "183" y = "21" class = "elName">ProgramID</text>
	<rect x = "173" y = "11" width = "72" height = "25" class = "elTypeBkgnd" rx = "5" ry = "5" clip-path = "url(#e:Program/a:ProgramID)"/>
	<defs/>
	<clipPath id = "e:Program/a:ProgramID">
		<rect x = "172" y = "25" width = "74" height = "11"/>
	</clipPath>
	<text x = "173" y = "33" class = "elType">string</text>
	<image xlink:href = "../dgmDtString.gif" width = "10" height = "10" x = "236" y = "20"/>
	<rect x = "5" y = "81" width = "64" height = "27" class = "element"/>
	<polygon class = "nodeStyle" points = "11,83 7,87 11,91 15,87"/>
	<text x = "16" y = "92" class = "elName">Program</text>
	<rect x = "6" y = "96" width = "62" height = "11" class = "elTypeBkgnd"/>
	<image xlink:href = "../dgmTypeComplex.gif" width = "10" height = "10" x = "59" y = "91"/>
	<polyline class = "connector" points = "99,77 79,94 69,94 79,94 99,128"/>
	<polyline class = "connector" points = "69,92 77,92 77,23 99,23"/>
	<circle class = "occurs" cx = "105" cy = "77" r = "6"/>
	<text x = "102" y = "80" class = "occurLarge">1</text>
	<polyline class = "connector" points = "141,60 121,60 121,77 111,77 121,77 121,94 141,94"/>
	<polyline class = "connector" points = "141,60 153,60"/>
	<rect x = "153" y = "47" width = "105" height = "27" class = "element"/>
	<polygon class = "nodeStyle" points = "159,49 155,53 159,57 163,53"/>
	<text x = "164" y = "58" class = "elName">InstallationScript</text>
	<rect x = "154" y = "62" width = "103" height = "11" class = "elTypeBkgnd"/>
	<image xlink:href = "../dgmTypeComplex.gif" width = "10" height = "10" x = "248" y = "57"/>
	<polyline class = "connector" points = "141,94 153,94"/>
	<rect x = "153" y = "81" width = "95" height = "27" class = "element"/>
	<polygon class = "nodeStyle" points = "159,83 155,87 159,91 163,87"/>
	<text x = "164" y = "92" class = "elName">InstallationFile</text>
	<rect x = "154" y = "96" width = "93" height = "11" class = "elTypeBkgnd"/>
	<image xlink:href = "../dgmTypeComplex.gif" width = "10" height = "10" x = "238" y = "91"/>
	<polyline class = "connector" points = "99,128 111,128"/>
	<rect x = "111" y = "115" width = "65" height = "27" class = "element"/>
	<polygon class = "nodeStyle" points = "117,117 113,121 117,125 121,121"/>
	<text x = "122" y = "126" class = "elName">Installed</text>
	<rect x = "112" y = "130" width = "63" height = "11" class = "elTypeBkgnd"/>
	<image xlink:href = "../dgmTypeEmpty.gif" width = "10" height = "10" x = "166" y = "125"/>
</svg>