<?xml version = "1.0"?>
<!DOCTYPE svg PUBLIC "-//W3C//DTD SVG 20010904//EN" "http://www.w3.org/TR/2001/REC-SVG-20010904/DTD/svg10.dtd">
<svg width = "221pt" height = "71pt" viewBox = "0 0 221 71" xmlns = "http://www.w3.org/2000/svg" xmlns:xlink = "http://www.w3.org/1999/xlink">
	<defs>
		<style type = "text/css"><![CDATA[
rect.attrGroup { fill: ivory ; stroke: black; stroke-width: 1 }
rect.element { fill: ivory ; stroke: black; stroke-width: 1 }
rect.elTypeBkgnd { fill: lightgray ; stroke: none }
text.elName { font-family: helvetica ; font-size : 10 }
text.elType { font-family: helvetica ; font-size : 7 }
text.occurLarge { font-family: helvetica ; font-size : 9; fill : blue }
text.occurSmall { font-family: helvetica ; font-size : 7; fill : blue }
rect.typeIconDark { fill : darkslategray }
circle.occurs { stroke : black ; stroke-width: 1; fill : white }
circle.ellipsis { fill : black }
path.typeIconDark { stroke : lightgray ; stroke-width: 1 }
path.connector { stroke : red ; stroke-width: 1 ; fill: none; }
path.modelGroup { stroke : black ; stroke-width: 1 ; fill: lightgray; }
polyline.connector { stroke : red ; stroke-width: 1 ; fill: none; }
.nodeStyle { fill : blue }
]]></style>
	</defs>
	<rect x = "5" y = "22" width = "79" height = "27" class = "element"/>
	<polygon class = "nodeStyle" points = "11,24 7,28 11,32 15,28"/>
	<text x = "16" y = "33" class = "elName">Declaration</text>
	<rect x = "6" y = "37" width = "77" height = "11" class = "elTypeBkgnd"/>
	<image xlink:href = "../dgmTypeComplex.gif" width = "10" height = "10" x = "74" y = "32"/>
	<polyline class = "connector" points = "114,18 94,18 94,35 84,35 94,35 94,52 114,52"/>
	<circle class = "occurs" cx = "120" cy = "18" r = "6"/>
	<text x = "117" y = "21" class = "occurLarge">*</text>
	<rect x = "126" y = "5" width = "81" height = "27" class = "element"/>
	<polygon class = "nodeStyle" points = "132,7 128,11 132,15 136,11"/>
	<text x = "137" y = "16" class = "elName">FormalInput</text>
	<rect x = "127" y = "20" width = "79" height = "11" class = "elTypeBkgnd"/>
	<image xlink:href = "../dgmTypeComplex.gif" width = "10" height = "10" x = "197" y = "15"/>
	<circle class = "occurs" cx = "120" cy = "52" r = "6"/>
	<text x = "117" y = "55" class = "occurLarge">*</text>
	<rect x = "126" y = "39" width = "90" height = "27" class = "element"/>
	<polygon class = "nodeStyle" points = "132,41 128,45 132,49 136,45"/>
	<text x = "137" y = "50" class = "elName">FormalOutput</text>
	<rect x = "127" y = "54" width = "88" height = "11" class = "elTypeBkgnd"/>
	<image xlink:href = "../dgmTypeComplex.gif" width = "10" height = "10" x = "206" y = "49"/>
</svg>