<?xml version = "1.0"?>
<!DOCTYPE svg PUBLIC "-//W3C//DTD SVG 20010904//EN" "http://www.w3.org/TR/2001/REC-SVG-20010904/DTD/svg10.dtd">
<svg width = "240pt" height = "49pt" viewBox = "0 0 240 49" xmlns = "http://www.w3.org/2000/svg" xmlns:xlink = "http://www.w3.org/1999/xlink">
	<defs>
		<style type = "text/css"><![CDATA[
rect.attrGroup { fill: ivory ; stroke: black; stroke-width: 1 }
rect.element { fill: ivory ; stroke: black; stroke-width: 1 }
rect.elTypeBkgnd { fill: lightgray ; stroke: none }
text.elName { font-family: helvetica ; font-size : 10 }
text.elType { font-family: helvetica ; font-size : 7 }
text.occurLarge { font-family: helvetica ; font-size : 9; fill : blue }
text.occurSmall { font-family: helvetica ; font-size : 7; fill : blue }
rect.typeIconDark { fill : darkslategray }
circle.occurs { stroke : black ; stroke-width: 1; fill : white }
circle.ellipsis { fill : black }
path.typeIconDark { stroke : lightgray ; stroke-width: 1 }
path.connector { stroke : red ; stroke-width: 1 ; fill: none; }
path.modelGroup { stroke : black ; stroke-width: 1 ; fill: lightgray; }
polyline.connector { stroke : red ; stroke-width: 1 ; fill: none; }
.nodeStyle { fill : blue }
]]></style>
	</defs>
	<rect x = "5" y = "10" width = "52" height = "29" class = "element"/>
	<polygon class = "nodeStyle" points = "11,12 7,16 11,20 15,16"/>
	<text x = "16" y = "21" class = "elName">Struct</text>
	<rect x = "6" y = "26" width = "50" height = "12" class = "elTypeBkgnd"/>
	<image xlink:href = "../dgmTypeEmpty.gif" width = "10" height = "10" x = "47" y = "21"/>
	<polyline class = "connector" points = "57,24 87,24"/>
	<rect x = "87" y = "5" width = "148" height = "39" class = "attrGroup" rx = "5" ry = "5"/>
	<circle class = "occurs" cx = "98" cy = "24" r = "6"/>
	<text x = "95" y = "27" class = "occurLarge">?</text>
	<rect x = "104" y = "10" width = "32" height = "29" class = "element" rx = "5" ry = "5"/>
	<circle class = "nodeStyle" cx = "110" cy = "16" r = "4"/>
	<text x = "115" y = "21" class = "elName">ID</text>
	<rect x = "105" y = "11" width = "30" height = "27" class = "elTypeBkgnd" rx = "5" ry = "5" clip-path = "url(#e:Output/e:Struct/a:ID)"/>
	<defs/>
	<clipPath id = "e:Output/e:Struct/a:ID">
		<rect x = "104" y = "26" width = "32" height = "12"/>
	</clipPath>
	<text x = "105" y = "34" class = "elType">ID</text>
	<image xlink:href = "../dgmDtName.gif" width = "10" height = "10" x = "126" y = "21"/>
	<rect x = "141" y = "10" width = "89" height = "29" class = "element" rx = "5" ry = "5"/>
	<circle class = "nodeStyle" cx = "147" cy = "16" r = "4"/>
	<text x = "152" y = "21" class = "elName">FormalOutput</text>
	<rect x = "142" y = "11" width = "87" height = "27" class = "elTypeBkgnd" rx = "5" ry = "5" clip-path = "url(#e:Output/e:Struct/a:FormalOutput)"/>
	<defs/>
	<clipPath id = "e:Output/e:Struct/a:FormalOutput">
		<rect x = "141" y = "26" width = "89" height = "12"/>
	</clipPath>
	<text x = "142" y = "34" class = "elType">string</text>
	<image xlink:href = "../dgmDtString.gif" width = "10" height = "10" x = "220" y = "21"/>
</svg>