<?xml version = "1.0"?>
<!DOCTYPE svg PUBLIC "-//W3C//DTD SVG 20010904//EN" "http://www.w3.org/TR/2001/REC-SVG-20010904/DTD/svg10.dtd">
<svg width = "414pt" height = "49pt" viewBox = "0 0 414 49" xmlns = "http://www.w3.org/2000/svg" xmlns:xlink = "http://www.w3.org/1999/xlink">
	<defs>
		<style type = "text/css"><![CDATA[
rect.attrGroup { fill: ivory ; stroke: black; stroke-width: 1 }
rect.element { fill: ivory ; stroke: black; stroke-width: 1 }
rect.elTypeBkgnd { fill: lightgray ; stroke: none }
text.elName { font-family: helvetica ; font-size : 10 }
text.elType { font-family: helvetica ; font-size : 7 }
text.occurLarge { font-family: helvetica ; font-size : 9; fill : blue }
text.occurSmall { font-family: helvetica ; font-size : 7; fill : blue }
rect.typeIconDark { fill : darkslategray }
circle.occurs { stroke : black ; stroke-width: 1; fill : white }
circle.ellipsis { fill : black }
path.typeIconDark { stroke : lightgray ; stroke-width: 1 }
path.connector { stroke : red ; stroke-width: 1 ; fill: none; }
path.modelGroup { stroke : black ; stroke-width: 1 ; fill: lightgray; }
polyline.connector { stroke : red ; stroke-width: 1 ; fill: none; }
.nodeStyle { fill : blue }
]]></style>
	</defs>
	<rect x = "5" y = "10" width = "62" height = "29" class = "element"/>
	<polygon class = "nodeStyle" points = "11,12 7,16 11,20 15,16"/>
	<text x = "16" y = "21" class = "elName">Element</text>
	<rect x = "6" y = "26" width = "60" height = "12" class = "elTypeBkgnd"/>
	<image xlink:href = "../dgmTypeEmpty.gif" width = "10" height = "10" x = "57" y = "21"/>
	<polyline class = "connector" points = "67,24 97,24"/>
	<rect x = "97" y = "5" width = "312" height = "39" class = "attrGroup" rx = "5" ry = "5"/>
	<circle class = "occurs" cx = "108" cy = "24" r = "6"/>
	<text x = "105" y = "27" class = "occurLarge">?</text>
	<rect x = "114" y = "10" width = "32" height = "29" class = "element" rx = "5" ry = "5"/>
	<circle class = "nodeStyle" cx = "120" cy = "16" r = "4"/>
	<text x = "125" y = "21" class = "elName">ID</text>
	<rect x = "115" y = "11" width = "30" height = "27" class = "elTypeBkgnd" rx = "5" ry = "5" clip-path = "url(#e:VectorDecoder/e:Element/a:ID)"/>
	<defs/>
	<clipPath id = "e:VectorDecoder/e:Element/a:ID">
		<rect x = "114" y = "26" width = "32" height = "12"/>
	</clipPath>
	<text x = "115" y = "34" class = "elType">ID</text>
	<image xlink:href = "../dgmDtName.gif" width = "10" height = "10" x = "136" y = "21"/>
	<rect x = "254" y = "10" width = "48" height = "29" class = "element" rx = "5" ry = "5"/>
	<circle class = "nodeStyle" cx = "260" cy = "16" r = "4"/>
	<text x = "265" y = "21" class = "elName">Index</text>
	<rect x = "255" y = "11" width = "46" height = "27" class = "elTypeBkgnd" rx = "5" ry = "5" clip-path = "url(#e:VectorDecoder/e:Element/a:Index)"/>
	<defs/>
	<clipPath id = "e:VectorDecoder/e:Element/a:Index">
		<rect x = "254" y = "26" width = "48" height = "12"/>
	</clipPath>
	<text x = "255" y = "34" class = "elType">string</text>
	<image xlink:href = "../dgmDtString.gif" width = "10" height = "10" x = "292" y = "21"/>
	<rect x = "307" y = "10" width = "97" height = "29" class = "element" rx = "5" ry = "5"/>
	<circle class = "nodeStyle" cx = "313" cy = "16" r = "4"/>
	<text x = "318" y = "21" class = "elName">OutputLocation</text>
	<rect x = "308" y = "11" width = "95" height = "27" class = "elTypeBkgnd" rx = "5" ry = "5" clip-path = "url(#e:VectorDecoder/e:Element/a:OutputLocation)"/>
	<defs/>
	<clipPath id = "e:VectorDecoder/e:Element/a:OutputLocation">
		<rect x = "307" y = "26" width = "97" height = "12"/>
	</clipPath>
	<text x = "308" y = "34" class = "elType">string</text>
	<image xlink:href = "../dgmDtString.gif" width = "10" height = "10" x = "394" y = "21"/>
	<circle class = "occurs" cx = "157" cy = "24" r = "6"/>
	<text x = "154" y = "27" class = "occurLarge">?</text>
	<rect x = "163" y = "10" width = "86" height = "29" class = "element" rx = "5" ry = "5"/>
	<circle class = "nodeStyle" cx = "169" cy = "16" r = "4"/>
	<text x = "174" y = "21" class = "elName">UseTemplate</text>
	<rect x = "164" y = "11" width = "84" height = "27" class = "elTypeBkgnd" rx = "5" ry = "5" clip-path = "url(#e:VectorDecoder/e:Element/a:UseTemplate)"/>
	<defs/>
	<clipPath id = "e:VectorDecoder/e:Element/a:UseTemplate">
		<rect x = "163" y = "26" width = "86" height = "12"/>
	</clipPath>
	<text x = "164" y = "34" class = "elType">string</text>
	<image xlink:href = "../dgmDtString.gif" width = "10" height = "10" x = "239" y = "21"/>
</svg>