<?xml version = "1.0"?>
<!DOCTYPE svg PUBLIC "-//W3C//DTD SVG 20010904//EN" "http://www.w3.org/TR/2001/REC-SVG-20010904/DTD/svg10.dtd">
<svg width = "302pt" height = "49pt" viewBox = "0 0 302 49" xmlns = "http://www.w3.org/2000/svg" xmlns:xlink = "http://www.w3.org/1999/xlink">
	<defs>
		<style type = "text/css"><![CDATA[
rect.attrGroup { fill: ivory ; stroke: black; stroke-width: 1 }
rect.element { fill: ivory ; stroke: black; stroke-width: 1 }
rect.elTypeBkgnd { fill: lightgray ; stroke: none }
text.elName { font-family: helvetica ; font-size : 10 }
text.elType { font-family: helvetica ; font-size : 7 }
text.occurLarge { font-family: helvetica ; font-size : 9; fill : blue }
text.occurSmall { font-family: helvetica ; font-size : 7; fill : blue }
rect.typeIconDark { fill : darkslategray }
circle.occurs { stroke : black ; stroke-width: 1; fill : white }
circle.ellipsis { fill : black }
path.typeIconDark { stroke : lightgray ; stroke-width: 1 }
path.connector { stroke : red ; stroke-width: 1 ; fill: none; }
path.modelGroup { stroke : black ; stroke-width: 1 ; fill: lightgray; }
polyline.connector { stroke : red ; stroke-width: 1 ; fill: none; }
.nodeStyle { fill : blue }
]]></style>
	</defs>
	<rect x = "5" y = "10" width = "52" height = "29" class = "element"/>
	<polygon class = "nodeStyle" points = "11,12 7,16 11,20 15,16"/>
	<text x = "16" y = "21" class = "elName">Scalar</text>
	<rect x = "6" y = "26" width = "50" height = "12" class = "elTypeBkgnd"/>
	<image xlink:href = "../dgmTypeEmpty.gif" width = "10" height = "10" x = "47" y = "21"/>
	<polyline class = "connector" points = "57,24 87,24"/>
	<rect x = "87" y = "5" width = "210" height = "39" class = "attrGroup" rx = "5" ry = "5"/>
	<rect x = "92" y = "10" width = "97" height = "29" class = "element" rx = "5" ry = "5"/>
	<circle class = "nodeStyle" cx = "98" cy = "16" r = "4"/>
	<text x = "103" y = "21" class = "elName">OutputLocation</text>
	<rect x = "93" y = "11" width = "95" height = "27" class = "elTypeBkgnd" rx = "5" ry = "5" clip-path = "url(#e:Output/e:Scalar/a:OutputLocation)"/>
	<defs/>
	<clipPath id = "e:Output/e:Scalar/a:OutputLocation">
		<rect x = "92" y = "26" width = "97" height = "12"/>
	</clipPath>
	<text x = "93" y = "34" class = "elType">string</text>
	<image xlink:href = "../dgmDtString.gif" width = "10" height = "10" x = "179" y = "21"/>
	<circle class = "occurs" cx = "200" cy = "24" r = "6"/>
	<text x = "197" y = "27" class = "occurLarge">?</text>
	<rect x = "206" y = "10" width = "86" height = "29" class = "element" rx = "5" ry = "5"/>
	<circle class = "nodeStyle" cx = "212" cy = "16" r = "4"/>
	<text x = "217" y = "21" class = "elName">UseTemplate</text>
	<rect x = "207" y = "11" width = "84" height = "27" class = "elTypeBkgnd" rx = "5" ry = "5" clip-path = "url(#e:Output/e:Scalar/a:UseTemplate)"/>
	<defs/>
	<clipPath id = "e:Output/e:Scalar/a:UseTemplate">
		<rect x = "206" y = "26" width = "86" height = "12"/>
	</clipPath>
	<text x = "207" y = "34" class = "elType">string</text>
	<image xlink:href = "../dgmDtString.gif" width = "10" height = "10" x = "282" y = "21"/>
</svg>