<?xml version = "1.0"?>
<!DOCTYPE svg PUBLIC "-//W3C//DTD SVG 20010904//EN" "http://www.w3.org/TR/2001/REC-SVG-20010904/DTD/svg10.dtd">
<svg width = "296pt" height = "155pt" viewBox = "0 0 296 155" xmlns = "http://www.w3.org/2000/svg" xmlns:xlink = "http://www.w3.org/1999/xlink">
	<defs>
		<style type = "text/css"><![CDATA[
rect.attrGroup { fill: ivory ; stroke: black; stroke-width: 1 }
rect.element { fill: ivory ; stroke: black; stroke-width: 1 }
rect.elTypeBkgnd { fill: lightgray ; stroke: none }
text.elName { font-family: helvetica ; font-size : 10 }
text.elType { font-family: helvetica ; font-size : 7 }
text.occurLarge { font-family: helvetica ; font-size : 9; fill : blue }
text.occurSmall { font-family: helvetica ; font-size : 7; fill : blue }
rect.typeIconDark { fill : darkslategray }
circle.occurs { stroke : black ; stroke-width: 1; fill : white }
circle.ellipsis { fill : black }
path.typeIconDark { stroke : lightgray ; stroke-width: 1 }
path.connector { stroke : red ; stroke-width: 1 ; fill: none; }
path.modelGroup { stroke : black ; stroke-width: 1 ; fill: lightgray; }
polyline.connector { stroke : red ; stroke-width: 1 ; fill: none; }
.nodeStyle { fill : blue }
]]></style>
	</defs>
	<rect x = "159" y = "5" width = "132" height = "39" class = "attrGroup" rx = "5" ry = "5"/>
	<rect x = "164" y = "10" width = "122" height = "29" class = "element" rx = "5" ry = "5"/>
	<circle class = "nodeStyle" cx = "170" cy = "16" r = "4"/>
	<text x = "175" y = "21" class = "elName">ExecutionGranularity</text>
	<rect x = "165" y = "11" width = "120" height = "27" class = "elTypeBkgnd" rx = "5" ry = "5" clip-path = "url(#e:ExecutionInstructions/a:ExecutionGranularity)"/>
	<defs/>
	<clipPath id = "e:ExecutionInstructions/a:ExecutionGranularity">
		<rect x = "164" y = "26" width = "122" height = "12"/>
	</clipPath>
	<image xlink:href = "../dgmDtString.gif" width = "10" height = "10" x = "276" y = "21"/>
	<rect x = "5" y = "85" width = "124" height = "29" class = "element"/>
	<polygon class = "nodeStyle" points = "11,87 7,91 11,95 15,91"/>
	<text x = "16" y = "96" class = "elName">ExecutionInstructions</text>
	<rect x = "6" y = "101" width = "122" height = "12" class = "elTypeBkgnd"/>
	<image xlink:href = "../dgmTypeComplex.gif" width = "10" height = "10" x = "119" y = "96"/>
	<polyline class = "connector" points = "159,63 139,63 139,99 129,99 139,99 139,135 159,135"/>
	<polyline class = "connector" points = "129,97 137,97 137,24 159,24"/>
	<polyline class = "connector" points = "159,63 171,63"/>
	<rect x = "171" y = "49" width = "93" height = "29" class = "element"/>
	<polygon class = "nodeStyle" points = "177,51 173,55 177,59 181,55"/>
	<text x = "182" y = "60" class = "elName">FunctionInputs</text>
	<rect x = "172" y = "65" width = "91" height = "12" class = "elTypeBkgnd"/>
	<image xlink:href = "../dgmTypeComplex.gif" width = "10" height = "10" x = "254" y = "60"/>
	<rect x = "171" y = "85" width = "102" height = "29" class = "element"/>
	<polygon class = "nodeStyle" points = "177,87 173,91 177,95 181,91"/>
	<text x = "182" y = "96" class = "elName">FunctionOutputs</text>
	<rect x = "172" y = "101" width = "100" height = "12" class = "elTypeBkgnd"/>
	<image xlink:href = "../dgmTypeComplex.gif" width = "10" height = "10" x = "263" y = "96"/>
	<circle class = "occurs" cx = "165" cy = "135" r = "6"/>
	<text x = "162" y = "138" class = "occurLarge">?</text>
	<rect x = "171" y = "121" width = "73" height = "29" class = "element"/>
	<polygon class = "nodeStyle" points = "177,123 173,127 177,131 181,127"/>
	<text x = "182" y = "132" class = "elName">Templates</text>
	<rect x = "172" y = "137" width = "71" height = "12" class = "elTypeBkgnd"/>
	<image xlink:href = "../dgmTypeAny.gif" width = "10" height = "10" x = "234" y = "132"/>
</svg>