<?xml version = "1.0"?>
<!DOCTYPE svg PUBLIC "-//W3C//DTD SVG 20010904//EN" "http://www.w3.org/TR/2001/REC-SVG-20010904/DTD/svg10.dtd">
<svg width = "175pt" height = "75pt" viewBox = "0 0 175 75" xmlns = "http://www.w3.org/2000/svg" xmlns:xlink = "http://www.w3.org/1999/xlink">
	<defs>
		<style type = "text/css"><![CDATA[
rect.attrGroup { fill: ivory ; stroke: black; stroke-width: 1 }
rect.element { fill: ivory ; stroke: black; stroke-width: 1 }
rect.elTypeBkgnd { fill: lightgray ; stroke: none }
text.elName { font-family: helvetica ; font-size : 10 }
text.elType { font-family: helvetica ; font-size : 7 }
text.occurLarge { font-family: helvetica ; font-size : 9; fill : blue }
text.occurSmall { font-family: helvetica ; font-size : 7; fill : blue }
rect.typeIconDark { fill : darkslategray }
circle.occurs { stroke : black ; stroke-width: 1; fill : white }
circle.ellipsis { fill : black }
path.typeIconDark { stroke : lightgray ; stroke-width: 1 }
path.connector { stroke : red ; stroke-width: 1 ; fill: none; }
path.modelGroup { stroke : black ; stroke-width: 1 ; fill: lightgray; }
polyline.connector { stroke : red ; stroke-width: 1 ; fill: none; }
.nodeStyle { fill : blue }
]]></style>
	</defs>
	<rect x = "5" y = "23" width = "47" height = "29" class = "element"/>
	<polygon class = "nodeStyle" points = "11,25 7,29 11,33 15,29"/>
	<text x = "16" y = "34" class = "elName">Input</text>
	<rect x = "6" y = "39" width = "45" height = "12" class = "elTypeBkgnd"/>
	<image xlink:href = "../dgmTypeComplex.gif" width = "10" height = "10" x = "42" y = "34"/>
	<polyline class = "connector" points = "82,19 62,37 52,37 62,37 82,55"/>
	<polyline class = "connector" points = "82,19 94,19"/>
	<rect x = "94" y = "5" width = "76" height = "29" class = "element"/>
	<polygon class = "nodeStyle" points = "100,7 96,11 100,15 104,11"/>
	<text x = "105" y = "16" class = "elName">PixelsArray</text>
	<rect x = "95" y = "21" width = "74" height = "12" class = "elTypeBkgnd"/>
	<image xlink:href = "../dgmTypeEmpty.gif" width = "10" height = "10" x = "160" y = "16"/>
	<polyline class = "connector" points = "82,55 94,55"/>
	<rect x = "94" y = "41" width = "52" height = "29" class = "element"/>
	<polygon class = "nodeStyle" points = "100,43 96,47 100,51 104,47"/>
	<text x = "105" y = "52" class = "elName">Scalar</text>
	<rect x = "95" y = "57" width = "50" height = "12" class = "elTypeBkgnd"/>
	<image xlink:href = "../dgmTypeEmpty.gif" width = "10" height = "10" x = "136" y = "52"/>
</svg>