<?xml version = "1.0"?>
<!DOCTYPE svg PUBLIC "-//W3C//DTD SVG 20010904//EN" "http://www.w3.org/TR/2001/REC-SVG-20010904/DTD/svg10.dtd">
<svg width = "185pt" height = "49pt" viewBox = "0 0 185 49" xmlns = "http://www.w3.org/2000/svg" xmlns:xlink = "http://www.w3.org/1999/xlink">
	<defs>
		<style type = "text/css"><![CDATA[
rect.attrGroup { fill: ivory ; stroke: black; stroke-width: 1 }
rect.element { fill: ivory ; stroke: black; stroke-width: 1 }
rect.elTypeBkgnd { fill: lightgray ; stroke: none }
text.elName { font-family: helvetica ; font-size : 10 }
text.elType { font-family: helvetica ; font-size : 7 }
text.occurLarge { font-family: helvetica ; font-size : 9; fill : blue }
text.occurSmall { font-family: helvetica ; font-size : 7; fill : blue }
rect.typeIconDark { fill : darkslategray }
circle.occurs { stroke : black ; stroke-width: 1; fill : white }
circle.ellipsis { fill : black }
path.typeIconDark { stroke : lightgray ; stroke-width: 1 }
path.connector { stroke : red ; stroke-width: 1 ; fill: none; }
path.modelGroup { stroke : black ; stroke-width: 1 ; fill: lightgray; }
polyline.connector { stroke : red ; stroke-width: 1 ; fill: none; }
.nodeStyle { fill : blue }
]]></style>
	</defs>
	<rect x = "5" y = "10" width = "55" height = "29" class = "element"/>
	<polygon class = "nodeStyle" points = "11,12 7,16 11,20 15,16"/>
	<text x = "16" y = "21" class = "elName">Vector</text>
	<rect x = "6" y = "26" width = "53" height = "12" class = "elTypeBkgnd"/>
	<image xlink:href = "../dgmTypeEmpty.gif" width = "10" height = "10" x = "50" y = "21"/>
	<polyline class = "connector" points = "60,24 90,24"/>
	<rect x = "90" y = "5" width = "90" height = "39" class = "attrGroup" rx = "5" ry = "5"/>
	<rect x = "95" y = "10" width = "80" height = "29" class = "element" rx = "5" ry = "5"/>
	<circle class = "nodeStyle" cx = "101" cy = "16" r = "4"/>
	<text x = "106" y = "21" class = "elName">DecodeWith</text>
	<rect x = "96" y = "11" width = "78" height = "27" class = "elTypeBkgnd" rx = "5" ry = "5" clip-path = "url(#e:Output/e:Vector/a:DecodeWith)"/>
	<defs/>
	<clipPath id = "e:Output/e:Vector/a:DecodeWith">
		<rect x = "95" y = "26" width = "80" height = "12"/>
	</clipPath>
	<text x = "96" y = "34" class = "elType">string</text>
	<image xlink:href = "../dgmDtString.gif" width = "10" height = "10" x = "165" y = "21"/>
</svg>