<?xml version = "1.0"?>
<!DOCTYPE svg PUBLIC "-//W3C//DTD SVG 20010904//EN" "http://www.w3.org/TR/2001/REC-SVG-20010904/DTD/svg10.dtd">
<svg width = "312pt" height = "47pt" viewBox = "0 0 312 47" xmlns = "http://www.w3.org/2000/svg" xmlns:xlink = "http://www.w3.org/1999/xlink">
	<defs>
		<style type = "text/css"><![CDATA[
rect.attrGroup { fill: ivory ; stroke: black; stroke-width: 1 }
rect.element { fill: ivory ; stroke: black; stroke-width: 1 }
rect.elTypeBkgnd { fill: lightgray ; stroke: none }
text.elName { font-family: helvetica ; font-size : 10 }
text.elType { font-family: helvetica ; font-size : 7 }
text.occurLarge { font-family: helvetica ; font-size : 9; fill : blue }
text.occurSmall { font-family: helvetica ; font-size : 7; fill : blue }
rect.typeIconDark { fill : darkslategray }
circle.occurs { stroke : black ; stroke-width: 1; fill : white }
circle.ellipsis { fill : black }
path.typeIconDark { stroke : lightgray ; stroke-width: 1 }
path.connector { stroke : red ; stroke-width: 1 ; fill: none; }
path.modelGroup { stroke : black ; stroke-width: 1 ; fill: lightgray; }
polyline.connector { stroke : red ; stroke-width: 1 ; fill: none; }
.nodeStyle { fill : blue }
]]></style>
	</defs>
	<rect x = "5" y = "10" width = "63" height = "27" class = "element"/>
	<polygon class = "nodeStyle" points = "11,12 7,16 11,20 15,16"/>
	<text x = "16" y = "21" class = "elName">External</text>
	<rect x = "6" y = "25" width = "61" height = "11" class = "elTypeBkgnd"/>
	<image xlink:href = "../dgmTypeEmpty.gif" width = "10" height = "10" x = "58" y = "20"/>
	<polyline class = "connector" points = "68,23 98,23"/>
	<rect x = "98" y = "5" width = "209" height = "37" class = "attrGroup" rx = "5" ry = "5"/>
	<rect x = "103" y = "10" width = "43" height = "27" class = "element" rx = "5" ry = "5"/>
	<circle class = "nodeStyle" cx = "109" cy = "16" r = "4"/>
	<text x = "114" y = "21" class = "elName">href</text>
	<rect x = "104" y = "11" width = "41" height = "25" class = "elTypeBkgnd" rx = "5" ry = "5" clip-path = "url(#e:External/a:href)"/>
	<defs/>
	<clipPath id = "e:External/a:href">
		<rect x = "103" y = "25" width = "43" height = "11"/>
	</clipPath>
	<text x = "104" y = "33" class = "elType">uri</text>
	<image xlink:href = "../dgmDtString.gif" width = "10" height = "10" x = "136" y = "20"/>
	<rect x = "254" y = "10" width = "48" height = "27" class = "element" rx = "5" ry = "5"/>
	<circle class = "nodeStyle" cx = "260" cy = "16" r = "4"/>
	<text x = "265" y = "21" class = "elName">SHA1</text>
	<rect x = "255" y = "11" width = "46" height = "25" class = "elTypeBkgnd" rx = "5" ry = "5" clip-path = "url(#e:External/a:SHA1)"/>
	<defs/>
	<clipPath id = "e:External/a:SHA1">
		<rect x = "254" y = "25" width = "48" height = "11"/>
	</clipPath>
	<text x = "255" y = "33" class = "elType">Hex40</text>
	<image xlink:href = "../dgmDtString.gif" width = "10" height = "10" x = "292" y = "20"/>
	<circle class = "occurs" cx = "157" cy = "23" r = "6"/>
	<text x = "154" y = "26" class = "occurLarge">D</text>
	<rect x = "163" y = "10" width = "86" height = "27" class = "element" rx = "5" ry = "5"/>
	<circle class = "nodeStyle" cx = "169" cy = "16" r = "4"/>
	<text x = "174" y = "21" class = "elName">Compression</text>
	<rect x = "164" y = "11" width = "84" height = "25" class = "elTypeBkgnd" rx = "5" ry = "5" clip-path = "url(#e:External/a:Compression)"/>
	<defs/>
	<clipPath id = "e:External/a:Compression">
		<rect x = "163" y = "25" width = "86" height = "11"/>
	</clipPath>
	<image xlink:href = "../dgmDtString.gif" width = "10" height = "10" x = "239" y = "20"/>
</svg>