<?xml version = "1.0"?>
<!DOCTYPE svg PUBLIC "-//W3C//DTD SVG 20010904//EN" "http://www.w3.org/TR/2001/REC-SVG-20010904/DTD/svg10.dtd">
<svg width = "504pt" height = "247pt" viewBox = "0 0 504 247" xmlns = "http://www.w3.org/2000/svg" xmlns:xlink = "http://www.w3.org/1999/xlink">
	<defs>
		<style type = "text/css"><![CDATA[
rect.attrGroup { fill: ivory ; stroke: black; stroke-width: 1 }
rect.element { fill: ivory ; stroke: black; stroke-width: 1 }
rect.elTypeBkgnd { fill: lightgray ; stroke: none }
text.elName { font-family: helvetica ; font-size : 10 }
text.elType { font-family: helvetica ; font-size : 7 }
text.occurLarge { font-family: helvetica ; font-size : 9; fill : blue }
text.occurSmall { font-family: helvetica ; font-size : 7; fill : blue }
rect.typeIconDark { fill : darkslategray }
circle.occurs { stroke : black ; stroke-width: 1; fill : white }
circle.ellipsis { fill : black }
path.typeIconDark { stroke : lightgray ; stroke-width: 1 }
path.connector { stroke : red ; stroke-width: 1 ; fill: none; }
path.modelGroup { stroke : black ; stroke-width: 1 ; fill: lightgray; }
polyline.connector { stroke : red ; stroke-width: 1 ; fill: none; }
.nodeStyle { fill : blue }
]]></style>
	</defs>
	<rect x = "134" y = "5" width = "365" height = "69" class = "attrGroup" rx = "5" ry = "5"/>
	<circle class = "occurs" cx = "145" cy = "23" r = "6"/>
	<text x = "142" y = "26" class = "occurLarge">?</text>
	<rect x = "151" y = "10" width = "64" height = "27" class = "element" rx = "5" ry = "5"/>
	<circle class = "nodeStyle" cx = "157" cy = "16" r = "4"/>
	<text x = "162" y = "21" class = "elName">FilterID</text>
	<rect x = "152" y = "11" width = "62" height = "25" class = "elTypeBkgnd" rx = "5" ry = "5" clip-path = "url(#e:WavelengthInfo/a:FilterID)"/>
	<defs/>
	<clipPath id = "e:WavelengthInfo/a:FilterID">
		<rect x = "151" y = "25" width = "64" height = "11"/>
	</clipPath>
	<text x = "152" y = "33" class = "elType">positiveInteger</text>
	<image xlink:href = "../dgmDtInteger.gif" width = "10" height = "10" x = "205" y = "20"/>
	<circle class = "occurs" cx = "332" cy = "23" r = "6"/>
	<text x = "329" y = "26" class = "occurLarge">?</text>
	<rect x = "338" y = "10" width = "64" height = "27" class = "element" rx = "5" ry = "5"/>
	<circle class = "nodeStyle" cx = "344" cy = "16" r = "4"/>
	<text x = "349" y = "21" class = "elName">OTFID</text>
	<rect x = "339" y = "11" width = "62" height = "25" class = "elTypeBkgnd" rx = "5" ry = "5" clip-path = "url(#e:WavelengthInfo/a:OTFID)"/>
	<defs/>
	<clipPath id = "e:WavelengthInfo/a:OTFID">
		<rect x = "338" y = "25" width = "64" height = "11"/>
	</clipPath>
	<text x = "339" y = "33" class = "elType">positiveInteger</text>
	<image xlink:href = "../dgmDtInteger.gif" width = "10" height = "10" x = "392" y = "20"/>
	<circle class = "occurs" cx = "145" cy = "55" r = "6"/>
	<text x = "142" y = "58" class = "occurLarge">?</text>
	<rect x = "151" y = "42" width = "71" height = "27" class = "element" rx = "5" ry = "5"/>
	<circle class = "nodeStyle" cx = "157" cy = "48" r = "4"/>
	<text x = "162" y = "53" class = "elName">CameraID</text>
	<rect x = "152" y = "43" width = "69" height = "25" class = "elTypeBkgnd" rx = "5" ry = "5" clip-path = "url(#e:WavelengthInfo/a:CameraID)"/>
	<defs/>
	<clipPath id = "e:WavelengthInfo/a:CameraID">
		<rect x = "151" y = "57" width = "71" height = "11"/>
	</clipPath>
	<text x = "152" y = "65" class = "elType">positiveInteger</text>
	<image xlink:href = "../dgmDtInteger.gif" width = "10" height = "10" x = "212" y = "52"/>
	<rect x = "407" y = "10" width = "87" height = "27" class = "element" rx = "5" ry = "5"/>
	<circle class = "nodeStyle" cx = "413" cy = "16" r = "4"/>
	<text x = "418" y = "21" class = "elName">WaveNumber</text>
	<rect x = "408" y = "11" width = "85" height = "25" class = "elTypeBkgnd" rx = "5" ry = "5" clip-path = "url(#e:WavelengthInfo/a:WaveNumber)"/>
	<defs/>
	<clipPath id = "e:WavelengthInfo/a:WaveNumber">
		<rect x = "407" y = "25" width = "87" height = "11"/>
	</clipPath>
	<text x = "408" y = "33" class = "elType">int</text>
	<image xlink:href = "../dgmDtInteger.gif" width = "10" height = "10" x = "484" y = "20"/>
	<circle class = "occurs" cx = "226" cy = "23" r = "6"/>
	<text x = "223" y = "26" class = "occurLarge">?</text>
	<rect x = "232" y = "10" width = "89" height = "27" class = "element" rx = "5" ry = "5"/>
	<circle class = "nodeStyle" cx = "238" cy = "16" r = "4"/>
	<text x = "243" y = "21" class = "elName">LightSourceID</text>
	<rect x = "233" y = "11" width = "87" height = "25" class = "elTypeBkgnd" rx = "5" ry = "5" clip-path = "url(#e:WavelengthInfo/a:LightSourceID)"/>
	<defs/>
	<clipPath id = "e:WavelengthInfo/a:LightSourceID">
		<rect x = "232" y = "25" width = "89" height = "11"/>
	</clipPath>
	<text x = "233" y = "33" class = "elType">positiveInteger</text>
	<image xlink:href = "../dgmDtInteger.gif" width = "10" height = "10" x = "311" y = "20"/>
	<rect x = "5" y = "147" width = "99" height = "27" class = "element"/>
	<polygon class = "nodeStyle" points = "11,149 7,153 11,157 15,153"/>
	<text x = "16" y = "158" class = "elName">WavelengthInfo</text>
	<rect x = "6" y = "162" width = "97" height = "11" class = "elTypeBkgnd"/>
	<image xlink:href = "../dgmTypeComplex.gif" width = "10" height = "10" x = "94" y = "157"/>
	<polyline class = "connector" points = "134,92 114,92 114,160 104,160 114,160 114,228 134,228"/>
	<polyline class = "connector" points = "104,158 112,158 112,39 134,39"/>
	<circle class = "occurs" cx = "140" cy = "92" r = "6"/>
	<text x = "137" y = "95" class = "occurLarge">?</text>
	<rect x = "146" y = "79" width = "60" height = "27" class = "element"/>
	<polygon class = "nodeStyle" points = "152,81 148,85 152,89 156,85"/>
	<text x = "157" y = "90" class = "elName">ExWave</text>
	<rect x = "147" y = "94" width = "58" height = "11" class = "elTypeBkgnd"/>
	<text x = "147" y = "102" class = "elType">int</text>
	<image xlink:href = "../dgmDtInteger.gif" width = "10" height = "10" x = "196" y = "89"/>
	<circle class = "occurs" cx = "140" cy = "126" r = "6"/>
	<text x = "137" y = "129" class = "occurLarge">?</text>
	<rect x = "146" y = "113" width = "63" height = "27" class = "element"/>
	<polygon class = "nodeStyle" points = "152,115 148,119 152,123 156,119"/>
	<text x = "157" y = "124" class = "elName">EmWave</text>
	<rect x = "147" y = "128" width = "61" height = "11" class = "elTypeBkgnd"/>
	<text x = "147" y = "136" class = "elType">int</text>
	<image xlink:href = "../dgmDtInteger.gif" width = "10" height = "10" x = "199" y = "123"/>
	<circle class = "occurs" cx = "140" cy = "160" r = "6"/>
	<text x = "137" y = "163" class = "occurLarge">?</text>
	<rect x = "146" y = "147" width = "47" height = "27" class = "element"/>
	<polygon class = "nodeStyle" points = "152,149 148,153 152,157 156,153"/>
	<text x = "157" y = "158" class = "elName">Fluor</text>
	<rect x = "147" y = "162" width = "45" height = "11" class = "elTypeBkgnd"/>
	<text x = "147" y = "170" class = "elType">string</text>
	<image xlink:href = "../dgmDtString.gif" width = "10" height = "10" x = "183" y = "157"/>
	<circle class = "occurs" cx = "140" cy = "194" r = "6"/>
	<text x = "137" y = "197" class = "occurLarge">?</text>
	<rect x = "146" y = "181" width = "61" height = "27" class = "element"/>
	<polygon class = "nodeStyle" points = "152,183 148,187 152,191 156,187"/>
	<text x = "157" y = "192" class = "elName">NDfilter</text>
	<rect x = "147" y = "196" width = "59" height = "11" class = "elTypeBkgnd"/>
	<image xlink:href = "../dgmDtFloat.gif" width = "10" height = "10" x = "197" y = "191"/>
	<circle class = "occurs" cx = "140" cy = "228" r = "6"/>
	<text x = "137" y = "231" class = "occurLarge">*</text>
	<rect x = "146" y = "215" width = "72" height = "27" class = "element"/>
	<polygon class = "nodeStyle" points = "152,217 148,221 152,225 156,221"/>
	<text x = "157" y = "226" class = "elName">#wildCard</text>
	<rect x = "147" y = "230" width = "70" height = "11" class = "elTypeBkgnd"/>
	<text x = "147" y = "238" class = "elType">?</text>
</svg>