<?xml version = "1.0"?>
<!DOCTYPE svg PUBLIC "-//W3C//DTD SVG 20010904//EN" "http://www.w3.org/TR/2001/REC-SVG-20010904/DTD/svg10.dtd">
<svg width = "337pt" height = "215pt" viewBox = "0 0 337 215" xmlns = "http://www.w3.org/2000/svg" xmlns:xlink = "http://www.w3.org/1999/xlink">
	<defs>
		<style type = "text/css"><![CDATA[
rect.attrGroup { fill: ivory ; stroke: black; stroke-width: 1 }
rect.element { fill: ivory ; stroke: black; stroke-width: 1 }
rect.elTypeBkgnd { fill: lightgray ; stroke: none }
text.elName { font-family: helvetica ; font-size : 10 }
text.elType { font-family: helvetica ; font-size : 7 }
text.occurLarge { font-family: helvetica ; font-size : 9; fill : blue }
text.occurSmall { font-family: helvetica ; font-size : 7; fill : blue }
rect.typeIconDark { fill : darkslategray }
circle.occurs { stroke : black ; stroke-width: 1; fill : white }
circle.ellipsis { fill : black }
path.typeIconDark { stroke : lightgray ; stroke-width: 1 }
path.connector { stroke : red ; stroke-width: 1 ; fill: none; }
path.modelGroup { stroke : black ; stroke-width: 1 ; fill: lightgray; }
polyline.connector { stroke : red ; stroke-width: 1 ; fill: none; }
.nodeStyle { fill : blue }
]]></style>
	</defs>
	<rect x = "89" y = "5" width = "243" height = "37" class = "attrGroup" rx = "5" ry = "5"/>
	<rect x = "94" y = "10" width = "64" height = "27" class = "element" rx = "5" ry = "5"/>
	<circle class = "nodeStyle" cx = "100" cy = "16" r = "4"/>
	<text x = "105" y = "21" class = "elName">Zsection</text>
	<rect x = "95" y = "11" width = "62" height = "25" class = "elTypeBkgnd" rx = "5" ry = "5" clip-path = "url(#e:XYinfo/a:Zsection)"/>
	<defs/>
	<clipPath id = "e:XYinfo/a:Zsection">
		<rect x = "94" y = "25" width = "64" height = "11"/>
	</clipPath>
	<text x = "95" y = "33" class = "elType">int</text>
	<image xlink:href = "../dgmDtInteger.gif" width = "10" height = "10" x = "148" y = "20"/>
	<rect x = "255" y = "10" width = "72" height = "27" class = "element" rx = "5" ry = "5"/>
	<circle class = "nodeStyle" cx = "261" cy = "16" r = "4"/>
	<text x = "266" y = "21" class = "elName">TimePoint</text>
	<rect x = "256" y = "11" width = "70" height = "25" class = "elTypeBkgnd" rx = "5" ry = "5" clip-path = "url(#e:XYinfo/a:TimePoint)"/>
	<defs/>
	<clipPath id = "e:XYinfo/a:TimePoint">
		<rect x = "255" y = "25" width = "72" height = "11"/>
	</clipPath>
	<text x = "256" y = "33" class = "elType">int</text>
	<image xlink:href = "../dgmDtInteger.gif" width = "10" height = "10" x = "317" y = "20"/>
	<rect x = "163" y = "10" width = "87" height = "27" class = "element" rx = "5" ry = "5"/>
	<circle class = "nodeStyle" cx = "169" cy = "16" r = "4"/>
	<text x = "174" y = "21" class = "elName">WaveNumber</text>
	<rect x = "164" y = "11" width = "85" height = "25" class = "elTypeBkgnd" rx = "5" ry = "5" clip-path = "url(#e:XYinfo/a:WaveNumber)"/>
	<defs/>
	<clipPath id = "e:XYinfo/a:WaveNumber">
		<rect x = "163" y = "25" width = "87" height = "11"/>
	</clipPath>
	<text x = "164" y = "33" class = "elType">int</text>
	<image xlink:href = "../dgmDtInteger.gif" width = "10" height = "10" x = "240" y = "20"/>
	<rect x = "5" y = "115" width = "54" height = "27" class = "element"/>
	<polygon class = "nodeStyle" points = "11,117 7,121 11,125 15,121"/>
	<text x = "16" y = "126" class = "elName">XYinfo</text>
	<rect x = "6" y = "130" width = "52" height = "11" class = "elTypeBkgnd"/>
	<image xlink:href = "../dgmTypeComplex.gif" width = "10" height = "10" x = "49" y = "125"/>
	<polyline class = "connector" points = "89,60 69,60 69,128 59,128 69,128 69,196 89,196"/>
	<polyline class = "connector" points = "59,126 67,126 67,23 89,23"/>
	<circle class = "occurs" cx = "95" cy = "60" r = "6"/>
	<text x = "92" y = "63" class = "occurLarge">?</text>
	<rect x = "101" y = "47" width = "73" height = "27" class = "element"/>
	<polygon class = "nodeStyle" points = "107,49 103,53 107,57 111,53"/>
	<text x = "112" y = "58" class = "elName">DeltaTime</text>
	<rect x = "102" y = "62" width = "71" height = "11" class = "elTypeBkgnd"/>
	<text x = "102" y = "70" class = "elType">float</text>
	<image xlink:href = "../dgmDtFloat.gif" width = "10" height = "10" x = "164" y = "57"/>
	<circle class = "occurs" cx = "95" cy = "94" r = "6"/>
	<text x = "92" y = "97" class = "occurLarge">?</text>
	<rect x = "101" y = "81" width = "64" height = "27" class = "element"/>
	<polygon class = "nodeStyle" points = "107,83 103,87 107,91 111,87"/>
	<text x = "112" y = "92" class = "elName">ExpTime</text>
	<rect x = "102" y = "96" width = "62" height = "11" class = "elTypeBkgnd"/>
	<text x = "102" y = "104" class = "elType">float</text>
	<image xlink:href = "../dgmDtFloat.gif" width = "10" height = "10" x = "155" y = "91"/>
	<circle class = "occurs" cx = "95" cy = "128" r = "6"/>
	<text x = "92" y = "131" class = "occurLarge">?</text>
	<rect x = "101" y = "115" width = "67" height = "27" class = "element"/>
	<polygon class = "nodeStyle" points = "107,117 103,121 107,125 111,121"/>
	<text x = "112" y = "126" class = "elName">StagePos</text>
	<rect x = "102" y = "130" width = "65" height = "11" class = "elTypeBkgnd"/>
	<text x = "102" y = "138" class = "elType">XYZfloat</text>
	<image xlink:href = "../dgmTypeEmpty.gif" width = "10" height = "10" x = "158" y = "125"/>
	<circle class = "occurs" cx = "95" cy = "162" r = "6"/>
	<text x = "92" y = "165" class = "occurLarge">?</text>
	<rect x = "101" y = "149" width = "47" height = "27" class = "element"/>
	<polygon class = "nodeStyle" points = "107,151 103,155 107,159 111,155"/>
	<text x = "112" y = "160" class = "elName">Stats</text>
	<rect x = "102" y = "164" width = "45" height = "11" class = "elTypeBkgnd"/>
	<image xlink:href = "../dgmTypeEmpty.gif" width = "10" height = "10" x = "138" y = "159"/>
	<circle class = "occurs" cx = "95" cy = "196" r = "6"/>
	<text x = "92" y = "199" class = "occurLarge">*</text>
	<rect x = "101" y = "183" width = "72" height = "27" class = "element"/>
	<polygon class = "nodeStyle" points = "107,185 103,189 107,193 111,189"/>
	<text x = "112" y = "194" class = "elName">#wildCard</text>
	<rect x = "102" y = "198" width = "70" height = "11" class = "elTypeBkgnd"/>
	<text x = "102" y = "206" class = "elType">?</text>
</svg>