<?xml version = "1.0"?>
<!DOCTYPE svg PUBLIC "-//W3C//DTD SVG 20010904//EN" "http://www.w3.org/TR/2001/REC-SVG-20010904/DTD/svg10.dtd">
<svg width = "352pt" height = "47pt" viewBox = "0 0 352 47" xmlns = "http://www.w3.org/2000/svg" xmlns:xlink = "http://www.w3.org/1999/xlink">
	<defs>
		<style type = "text/css"><![CDATA[
rect.attrGroup { fill: ivory ; stroke: black; stroke-width: 1 }
rect.element { fill: ivory ; stroke: black; stroke-width: 1 }
rect.elTypeBkgnd { fill: lightgray ; stroke: none }
text.elName { font-family: helvetica ; font-size : 10 }
text.elType { font-family: helvetica ; font-size : 7 }
text.occurLarge { font-family: helvetica ; font-size : 9; fill : blue }
text.occurSmall { font-family: helvetica ; font-size : 7; fill : blue }
rect.typeIconDark { fill : darkslategray }
circle.occurs { stroke : black ; stroke-width: 1; fill : white }
circle.ellipsis { fill : black }
path.typeIconDark { stroke : lightgray ; stroke-width: 1 }
path.connector { stroke : red ; stroke-width: 1 ; fill: none; }
path.modelGroup { stroke : black ; stroke-width: 1 ; fill: lightgray; }
polyline.connector { stroke : red ; stroke-width: 1 ; fill: none; }
.nodeStyle { fill : blue }
]]></style>
	</defs>
	<rect x = "5" y = "10" width = "62" height = "27" class = "element"/>
	<polygon class = "nodeStyle" points = "11,12 7,16 11,20 15,16"/>
	<text x = "16" y = "21" class = "elName">Dichroic</text>
	<rect x = "6" y = "25" width = "60" height = "11" class = "elTypeBkgnd"/>
	<text x = "6" y = "33" class = "elType">ManufactSpec</text>
	<image xlink:href = "../dgmTypeEmpty.gif" width = "10" height = "10" x = "57" y = "20"/>
	<polyline class = "connector" points = "67,23 97,23"/>
	<rect x = "97" y = "5" width = "250" height = "37" class = "attrGroup" rx = "5" ry = "5"/>
	<rect x = "102" y = "10" width = "53" height = "27" class = "element" rx = "5" ry = "5"/>
	<circle class = "nodeStyle" cx = "108" cy = "16" r = "4"/>
	<text x = "113" y = "21" class = "elName">Model</text>
	<rect x = "103" y = "11" width = "51" height = "25" class = "elTypeBkgnd" rx = "5" ry = "5" clip-path = "url(#t:ManufactSpec/a:Model)"/>
	<defs/>
	<clipPath id = "t:ManufactSpec/a:Model">
		<rect x = "102" y = "25" width = "53" height = "11"/>
	</clipPath>
	<text x = "103" y = "33" class = "elType">string</text>
	<image xlink:href = "../dgmDtString.gif" width = "10" height = "10" x = "145" y = "20"/>
	<rect x = "254" y = "10" width = "88" height = "27" class = "element" rx = "5" ry = "5"/>
	<circle class = "nodeStyle" cx = "260" cy = "16" r = "4"/>
	<text x = "265" y = "21" class = "elName">SerialNumber</text>
	<rect x = "255" y = "11" width = "86" height = "25" class = "elTypeBkgnd" rx = "5" ry = "5" clip-path = "url(#t:ManufactSpec/a:SerialNumber)"/>
	<defs/>
	<clipPath id = "t:ManufactSpec/a:SerialNumber">
		<rect x = "254" y = "25" width = "88" height = "11"/>
	</clipPath>
	<text x = "255" y = "33" class = "elType">string</text>
	<image xlink:href = "../dgmDtString.gif" width = "10" height = "10" x = "332" y = "20"/>
	<rect x = "160" y = "10" width = "89" height = "27" class = "element" rx = "5" ry = "5"/>
	<circle class = "nodeStyle" cx = "166" cy = "16" r = "4"/>
	<text x = "171" y = "21" class = "elName">Manufacturer</text>
	<rect x = "161" y = "11" width = "87" height = "25" class = "elTypeBkgnd" rx = "5" ry = "5" clip-path = "url(#t:ManufactSpec/a:Manufacturer)"/>
	<defs/>
	<clipPath id = "t:ManufactSpec/a:Manufacturer">
		<rect x = "160" y = "25" width = "89" height = "11"/>
	</clipPath>
	<text x = "161" y = "33" class = "elType">string</text>
	<image xlink:href = "../dgmDtString.gif" width = "10" height = "10" x = "239" y = "20"/>
</svg>