<?xml version = "1.0"?>
<!DOCTYPE svg PUBLIC "-//W3C//DTD SVG 20010904//EN" "http://www.w3.org/TR/2001/REC-SVG-20010904/DTD/svg10.dtd">
<svg width = "204pt" height = "181pt" viewBox = "0 0 204 181" xmlns = "http://www.w3.org/2000/svg" xmlns:xlink = "http://www.w3.org/1999/xlink">
	<defs>
		<style type = "text/css"><![CDATA[
rect.attrGroup { fill: ivory ; stroke: black; stroke-width: 1 }
rect.element { fill: ivory ; stroke: black; stroke-width: 1 }
rect.elTypeBkgnd { fill: lightgray ; stroke: none }
text.elName { font-family: helvetica ; font-size : 10 }
text.elType { font-family: helvetica ; font-size : 7 }
text.occurLarge { font-family: helvetica ; font-size : 9; fill : blue }
text.occurSmall { font-family: helvetica ; font-size : 7; fill : blue }
rect.typeIconDark { fill : darkslategray }
circle.occurs { stroke : black ; stroke-width: 1; fill : white }
circle.ellipsis { fill : black }
path.typeIconDark { stroke : lightgray ; stroke-width: 1 }
path.connector { stroke : red ; stroke-width: 1 ; fill: none; }
path.modelGroup { stroke : black ; stroke-width: 1 ; fill: lightgray; }
polyline.connector { stroke : red ; stroke-width: 1 ; fill: none; }
.nodeStyle { fill : blue }
]]></style>
	</defs>
	<rect x = "83" y = "5" width = "74" height = "37" class = "attrGroup" rx = "5" ry = "5"/>
	<rect x = "88" y = "10" width = "64" height = "27" class = "element" rx = "5" ry = "5"/>
	<circle class = "nodeStyle" cx = "94" cy = "16" r = "4"/>
	<text x = "99" y = "21" class = "elName">FilterID</text>
	<rect x = "89" y = "11" width = "62" height = "25" class = "elTypeBkgnd" rx = "5" ry = "5" clip-path = "url(#e:Filter/a:FilterID)"/>
	<defs/>
	<clipPath id = "e:Filter/a:FilterID">
		<rect x = "88" y = "25" width = "64" height = "11"/>
	</clipPath>
	<text x = "89" y = "33" class = "elType">positiveInteger</text>
	<image xlink:href = "../dgmDtInteger.gif" width = "10" height = "10" x = "142" y = "20"/>
	<rect x = "5" y = "98" width = "48" height = "27" class = "element"/>
	<polygon class = "nodeStyle" points = "11,100 7,104 11,108 15,104"/>
	<text x = "16" y = "109" class = "elName">Filter</text>
	<rect x = "6" y = "113" width = "46" height = "11" class = "elTypeBkgnd"/>
	<image xlink:href = "../dgmTypeComplex.gif" width = "10" height = "10" x = "43" y = "108"/>
	<polyline class = "connector" points = "83,94 63,111 53,111 63,111 83,162"/>
	<polyline class = "connector" points = "53,109 61,109 61,23 83,23"/>
	<circle class = "occurs" cx = "89" cy = "94" r = "6"/>
	<text x = "86" y = "97" class = "occurLarge">1</text>
	<polyline class = "connector" points = "125,60 105,60 105,94 95,94 105,94 105,128 125,128"/>
	<polyline class = "connector" points = "125,60 137,60"/>
	<rect x = "137" y = "47" width = "59" height = "27" class = "element"/>
	<polygon class = "nodeStyle" points = "143,49 139,53 143,57 147,53"/>
	<text x = "148" y = "58" class = "elName">ExFilter</text>
	<rect x = "138" y = "62" width = "57" height = "11" class = "elTypeBkgnd"/>
	<text x = "138" y = "70" class = "elType">FilterSpec</text>
	<image xlink:href = "../dgmTypeComplex.gif" width = "10" height = "10" x = "186" y = "57"/>
	<rect x = "137" y = "81" width = "62" height = "27" class = "element"/>
	<polygon class = "nodeStyle" points = "143,83 139,87 143,91 147,87"/>
	<text x = "148" y = "92" class = "elName">Dichroic</text>
	<rect x = "138" y = "96" width = "60" height = "11" class = "elTypeBkgnd"/>
	<text x = "138" y = "104" class = "elType">ManufactSpec</text>
	<image xlink:href = "../dgmTypeEmpty.gif" width = "10" height = "10" x = "189" y = "91"/>
	<polyline class = "connector" points = "125,128 137,128"/>
	<rect x = "137" y = "115" width = "62" height = "27" class = "element"/>
	<polygon class = "nodeStyle" points = "143,117 139,121 143,125 147,121"/>
	<text x = "148" y = "126" class = "elName">EmFilter</text>
	<rect x = "138" y = "130" width = "60" height = "11" class = "elTypeBkgnd"/>
	<text x = "138" y = "138" class = "elType">FilterSpec</text>
	<image xlink:href = "../dgmTypeComplex.gif" width = "10" height = "10" x = "189" y = "125"/>
	<polyline class = "connector" points = "83,162 95,162"/>
	<rect x = "95" y = "149" width = "63" height = "27" class = "element"/>
	<polygon class = "nodeStyle" points = "101,151 97,155 101,159 105,155"/>
	<text x = "106" y = "160" class = "elName">FilterSet</text>
	<rect x = "96" y = "164" width = "61" height = "11" class = "elTypeBkgnd"/>
	<text x = "96" y = "172" class = "elType">ManufactSpec</text>
	<image xlink:href = "../dgmTypeEmpty.gif" width = "10" height = "10" x = "148" y = "159"/>
</svg>