<?xml version = "1.0"?>
<!DOCTYPE svg PUBLIC "-//W3C//DTD SVG 20010904//EN" "http://www.w3.org/TR/2001/REC-SVG-20010904/DTD/svg10.dtd">
<svg width = "342pt" height = "79pt" viewBox = "0 0 342 79" xmlns = "http://www.w3.org/2000/svg" xmlns:xlink = "http://www.w3.org/1999/xlink">
	<defs>
		<style type = "text/css"><![CDATA[
rect.attrGroup { fill: ivory ; stroke: black; stroke-width: 1 }
rect.element { fill: ivory ; stroke: black; stroke-width: 1 }
rect.elTypeBkgnd { fill: lightgray ; stroke: none }
text.elName { font-family: helvetica ; font-size : 10 }
text.elType { font-family: helvetica ; font-size : 7 }
text.occurLarge { font-family: helvetica ; font-size : 9; fill : blue }
text.occurSmall { font-family: helvetica ; font-size : 7; fill : blue }
rect.typeIconDark { fill : darkslategray }
circle.occurs { stroke : black ; stroke-width: 1; fill : white }
circle.ellipsis { fill : black }
path.typeIconDark { stroke : lightgray ; stroke-width: 1 }
path.connector { stroke : red ; stroke-width: 1 ; fill: none; }
path.modelGroup { stroke : black ; stroke-width: 1 ; fill: lightgray; }
polyline.connector { stroke : red ; stroke-width: 1 ; fill: none; }
.nodeStyle { fill : blue }
]]></style>
	</defs>
	<rect x = "5" y = "26" width = "47" height = "27" class = "element"/>
	<polygon class = "nodeStyle" points = "11,28 7,32 11,36 15,32"/>
	<text x = "16" y = "37" class = "elName">Stats</text>
	<rect x = "6" y = "41" width = "45" height = "11" class = "elTypeBkgnd"/>
	<image xlink:href = "../dgmTypeEmpty.gif" width = "10" height = "10" x = "42" y = "36"/>
	<polyline class = "connector" points = "52,39 82,39"/>
	<rect x = "82" y = "5" width = "255" height = "69" class = "attrGroup" rx = "5" ry = "5"/>
	<rect x = "87" y = "10" width = "41" height = "27" class = "element" rx = "5" ry = "5"/>
	<circle class = "nodeStyle" cx = "93" cy = "16" r = "4"/>
	<text x = "98" y = "21" class = "elName">Min</text>
	<rect x = "88" y = "11" width = "39" height = "25" class = "elTypeBkgnd" rx = "5" ry = "5" clip-path = "url(#e:Stats/a:Min)"/>
	<defs/>
	<clipPath id = "e:Stats/a:Min">
		<rect x = "87" y = "25" width = "41" height = "11"/>
	</clipPath>
	<text x = "88" y = "33" class = "elType">int</text>
	<image xlink:href = "../dgmDtInteger.gif" width = "10" height = "10" x = "118" y = "20"/>
	<rect x = "219" y = "10" width = "44" height = "27" class = "element" rx = "5" ry = "5"/>
	<circle class = "nodeStyle" cx = "225" cy = "16" r = "4"/>
	<text x = "230" y = "21" class = "elName">Max</text>
	<rect x = "220" y = "11" width = "42" height = "25" class = "elTypeBkgnd" rx = "5" ry = "5" clip-path = "url(#e:Stats/a:Max)"/>
	<defs/>
	<clipPath id = "e:Stats/a:Max">
		<rect x = "219" y = "25" width = "44" height = "11"/>
	</clipPath>
	<text x = "220" y = "33" class = "elType">int</text>
	<image xlink:href = "../dgmDtInteger.gif" width = "10" height = "10" x = "253" y = "20"/>
	<rect x = "87" y = "42" width = "50" height = "27" class = "element" rx = "5" ry = "5"/>
	<circle class = "nodeStyle" cx = "93" cy = "48" r = "4"/>
	<text x = "98" y = "53" class = "elName">Mean</text>
	<rect x = "88" y = "43" width = "48" height = "25" class = "elTypeBkgnd" rx = "5" ry = "5" clip-path = "url(#e:Stats/a:Mean)"/>
	<defs/>
	<clipPath id = "e:Stats/a:Mean">
		<rect x = "87" y = "57" width = "50" height = "11"/>
	</clipPath>
	<text x = "88" y = "65" class = "elType">float</text>
	<image xlink:href = "../dgmDtFloat.gif" width = "10" height = "10" x = "127" y = "52"/>
	<circle class = "occurs" cx = "274" cy = "23" r = "6"/>
	<text x = "271" y = "26" class = "occurLarge">?</text>
	<rect x = "280" y = "10" width = "52" height = "27" class = "element" rx = "5" ry = "5"/>
	<circle class = "nodeStyle" cx = "286" cy = "16" r = "4"/>
	<text x = "291" y = "21" class = "elName">Sigma</text>
	<rect x = "281" y = "11" width = "50" height = "25" class = "elTypeBkgnd" rx = "5" ry = "5" clip-path = "url(#e:Stats/a:Sigma)"/>
	<defs/>
	<clipPath id = "e:Stats/a:Sigma">
		<rect x = "280" y = "25" width = "52" height = "11"/>
	</clipPath>
	<text x = "281" y = "33" class = "elType">float</text>
	<image xlink:href = "../dgmDtFloat.gif" width = "10" height = "10" x = "322" y = "20"/>
	<circle class = "occurs" cx = "139" cy = "23" r = "6"/>
	<text x = "136" y = "26" class = "occurLarge">?</text>
	<rect x = "145" y = "10" width = "69" height = "27" class = "element" rx = "5" ry = "5"/>
	<circle class = "nodeStyle" cx = "151" cy = "16" r = "4"/>
	<text x = "156" y = "21" class = "elName">GeoMean</text>
	<rect x = "146" y = "11" width = "67" height = "25" class = "elTypeBkgnd" rx = "5" ry = "5" clip-path = "url(#e:Stats/a:GeoMean)"/>
	<defs/>
	<clipPath id = "e:Stats/a:GeoMean">
		<rect x = "145" y = "25" width = "69" height = "11"/>
	</clipPath>
	<text x = "146" y = "33" class = "elType">float</text>
	<image xlink:href = "../dgmDtFloat.gif" width = "10" height = "10" x = "204" y = "20"/>
</svg>