<?xml version = "1.0"?>
<!DOCTYPE svg PUBLIC "-//W3C//DTD SVG 20010904//EN" "http://www.w3.org/TR/2001/REC-SVG-20010904/DTD/svg10.dtd">
<svg width = "264pt" height = "173pt" viewBox = "0 0 264 173" xmlns = "http://www.w3.org/2000/svg" xmlns:xlink = "http://www.w3.org/1999/xlink">
	<defs>
		<style type = "text/css"><![CDATA[
rect.attrGroup { fill: ivory ; stroke: black; stroke-width: 1 }
rect.element { fill: ivory ; stroke: black; stroke-width: 1 }
rect.elTypeBkgnd { fill: lightgray ; stroke: none }
text.elName { font-family: helvetica ; font-size : 10 }
text.elType { font-family: helvetica ; font-size : 7 }
text.occurLarge { font-family: helvetica ; font-size : 9; fill : blue }
text.occurSmall { font-family: helvetica ; font-size : 7; fill : blue }
rect.typeIconDark { fill : darkslategray }
circle.occurs { stroke : black ; stroke-width: 1; fill : white }
circle.ellipsis { fill : black }
path.typeIconDark { stroke : lightgray ; stroke-width: 1 }
path.connector { stroke : red ; stroke-width: 1 ; fill: none; }
path.modelGroup { stroke : black ; stroke-width: 1 ; fill: lightgray; }
polyline.connector { stroke : red ; stroke-width: 1 ; fill: none; }
.nodeStyle { fill : blue }
]]></style>
	</defs>
	<rect x = "5" y = "73" width = "56" height = "27" class = "element"/>
	<polygon class = "nodeStyle" points = "11,75 7,79 11,83 15,79"/>
	<rect x = "6" y = "88" width = "54" height = "11" class = "elTypeBkgnd"/>
	<text x = "6" y = "96" class = "elType">ContactType</text>
	<image xlink:href = "../dgmTypeComplex.gif" width = "10" height = "10" x = "51" y = "83"/>
	<polyline class = "connector" points = "91,69 71,86 61,86 71,86 91,154"/>
	<polyline class = "connector" points = "91,69 103,69"/>
	<path class = "modelGroup" d = "M 108,59 l 31,0 a 5,5 0 0,0 5,5 l 0,11 a 5,5 0 0,0 -5,5 l -31,0 a 5,5 0 0,0 -5,-5 l 0,-11 a 5,5 0 0,0 5,-5"/>
	<text x = "107" y = "73" class = "elName">Person</text>
	<polyline class = "connector" points = "174,18 154,18 154,69 144,69 154,69 154,120 174,120"/>
	<polyline class = "connector" points = "174,18 186,18"/>
	<rect x = "186" y = "5" width = "72" height = "27" class = "element"/>
	<polygon class = "nodeStyle" points = "192,7 188,11 192,15 196,11"/>
	<text x = "197" y = "16" class = "elName">FirstName</text>
	<rect x = "187" y = "20" width = "70" height = "11" class = "elTypeBkgnd"/>
	<text x = "187" y = "28" class = "elType">string</text>
	<image xlink:href = "../dgmDtString.gif" width = "10" height = "10" x = "248" y = "15"/>
	<rect x = "186" y = "39" width = "71" height = "27" class = "element"/>
	<polygon class = "nodeStyle" points = "192,41 188,45 192,49 196,45"/>
	<text x = "197" y = "50" class = "elName">LastName</text>
	<rect x = "187" y = "54" width = "69" height = "11" class = "elTypeBkgnd"/>
	<text x = "187" y = "62" class = "elType">string</text>
	<image xlink:href = "../dgmDtString.gif" width = "10" height = "10" x = "247" y = "49"/>
	<rect x = "186" y = "73" width = "50" height = "27" class = "element"/>
	<polygon class = "nodeStyle" points = "192,75 188,79 192,83 196,79"/>
	<text x = "197" y = "84" class = "elName">email</text>
	<rect x = "187" y = "88" width = "48" height = "11" class = "elTypeBkgnd"/>
	<text x = "187" y = "96" class = "elType">string</text>
	<image xlink:href = "../dgmDtString.gif" width = "10" height = "10" x = "226" y = "83"/>
	<polyline class = "connector" points = "174,120 186,120"/>
	<rect x = "186" y = "107" width = "73" height = "27" class = "element"/>
	<polygon class = "nodeStyle" points = "192,109 188,113 192,117 196,113"/>
	<text x = "197" y = "118" class = "elName">Institution</text>
	<rect x = "187" y = "122" width = "71" height = "11" class = "elTypeBkgnd"/>
	<text x = "187" y = "130" class = "elType">string</text>
	<image xlink:href = "../dgmDtString.gif" width = "10" height = "10" x = "249" y = "117"/>
	<polyline class = "connector" points = "91,154 103,154"/>
	<rect x = "103" y = "141" width = "104" height = "27" class = "element"/>
	<polygon class = "nodeStyle" points = "109,143 105,147 109,151 113,147"/>
	<text x = "114" y = "152" class = "elName">ExperimenterRef</text>
	<rect x = "104" y = "156" width = "102" height = "11" class = "elTypeBkgnd"/>
	<image xlink:href = "../dgmTypeEmpty.gif" width = "10" height = "10" x = "197" y = "151"/>
</svg>