<?xml version = "1.0"?>
<!DOCTYPE svg PUBLIC "-//W3C//DTD SVG 20010904//EN" "http://www.w3.org/TR/2001/REC-SVG-20010904/DTD/svg10.dtd">
<svg width = "222pt" height = "113pt" viewBox = "0 0 222 113" xmlns = "http://www.w3.org/2000/svg" xmlns:xlink = "http://www.w3.org/1999/xlink">
	<defs>
		<style type = "text/css"><![CDATA[
rect.attrGroup { fill: ivory ; stroke: black; stroke-width: 1 }
rect.element { fill: ivory ; stroke: black; stroke-width: 1 }
rect.elTypeBkgnd { fill: lightgray ; stroke: none }
text.elName { font-family: helvetica ; font-size : 10 }
text.elType { font-family: helvetica ; font-size : 7 }
text.occurLarge { font-family: helvetica ; font-size : 9; fill : blue }
text.occurSmall { font-family: helvetica ; font-size : 7; fill : blue }
rect.typeIconDark { fill : darkslategray }
circle.occurs { stroke : black ; stroke-width: 1; fill : white }
circle.ellipsis { fill : black }
path.typeIconDark { stroke : lightgray ; stroke-width: 1 }
path.connector { stroke : red ; stroke-width: 1 ; fill: none; }
path.modelGroup { stroke : black ; stroke-width: 1 ; fill: lightgray; }
polyline.connector { stroke : red ; stroke-width: 1 ; fill: none; }
.nodeStyle { fill : blue }
]]></style>
	</defs>
	<rect x = "87" y = "5" width = "130" height = "37" class = "attrGroup" rx = "5" ry = "5"/>
	<rect x = "92" y = "10" width = "51" height = "27" class = "element" rx = "5" ry = "5"/>
	<circle class = "nodeStyle" cx = "98" cy = "16" r = "4"/>
	<text x = "103" y = "21" class = "elName">Name</text>
	<rect x = "93" y = "11" width = "49" height = "25" class = "elTypeBkgnd" rx = "5" ry = "5" clip-path = "url(#t:GroupType/a:Name)"/>
	<defs/>
	<clipPath id = "t:GroupType/a:Name">
		<rect x = "92" y = "25" width = "51" height = "11"/>
	</clipPath>
	<text x = "93" y = "33" class = "elType">string</text>
	<image xlink:href = "../dgmDtString.gif" width = "10" height = "10" x = "133" y = "20"/>
	<rect x = "148" y = "10" width = "64" height = "27" class = "element" rx = "5" ry = "5"/>
	<circle class = "nodeStyle" cx = "154" cy = "16" r = "4"/>
	<text x = "159" y = "21" class = "elName">GroupID</text>
	<rect x = "149" y = "11" width = "62" height = "25" class = "elTypeBkgnd" rx = "5" ry = "5" clip-path = "url(#t:GroupType/a:GroupID)"/>
	<defs/>
	<clipPath id = "t:GroupType/a:GroupID">
		<rect x = "148" y = "25" width = "64" height = "11"/>
	</clipPath>
	<text x = "149" y = "33" class = "elType">positiveInteger</text>
	<image xlink:href = "../dgmDtInteger.gif" width = "10" height = "10" x = "202" y = "20"/>
	<rect x = "5" y = "64" width = "52" height = "27" class = "element"/>
	<polygon class = "nodeStyle" points = "11,66 7,70 11,74 15,70"/>
	<text x = "16" y = "75" class = "elName">Group</text>
	<rect x = "6" y = "79" width = "50" height = "11" class = "elTypeBkgnd"/>
	<text x = "6" y = "87" class = "elType">GroupType</text>
	<image xlink:href = "../dgmTypeComplex.gif" width = "10" height = "10" x = "47" y = "74"/>
	<polyline class = "connector" points = "87,60 67,60 67,77 57,77 67,77 67,94 87,94"/>
	<polyline class = "connector" points = "57,75 65,75 65,23 87,23"/>
	<circle class = "occurs" cx = "93" cy = "60" r = "6"/>
	<text x = "90" y = "63" class = "occurLarge">?</text>
	<rect x = "99" y = "47" width = "56" height = "27" class = "element"/>
	<polygon class = "nodeStyle" points = "105,49 101,53 105,57 109,53"/>
	<text x = "110" y = "58" class = "elName">Leader</text>
	<rect x = "100" y = "62" width = "54" height = "11" class = "elTypeBkgnd"/>
	<text x = "100" y = "70" class = "elType">ContactType</text>
	<image xlink:href = "../dgmTypeComplex.gif" width = "10" height = "10" x = "145" y = "57"/>
	<circle class = "occurs" cx = "93" cy = "94" r = "6"/>
	<text x = "90" y = "97" class = "occurLarge">?</text>
	<rect x = "99" y = "81" width = "61" height = "27" class = "element"/>
	<polygon class = "nodeStyle" points = "105,83 101,87 105,91 109,87"/>
	<text x = "110" y = "92" class = "elName">Contact</text>
	<rect x = "100" y = "96" width = "59" height = "11" class = "elTypeBkgnd"/>
	<text x = "100" y = "104" class = "elType">ContactType</text>
	<image xlink:href = "../dgmTypeComplex.gif" width = "10" height = "10" x = "150" y = "91"/>
</svg>