<?xml version = "1.0"?>
<!DOCTYPE svg PUBLIC "-//W3C//DTD SVG 20010904//EN" "http://www.w3.org/TR/2001/REC-SVG-20010904/DTD/svg10.dtd">
<svg width = "417pt" height = "145pt" viewBox = "0 0 417 145" xmlns = "http://www.w3.org/2000/svg" xmlns:xlink = "http://www.w3.org/1999/xlink">
	<defs>
		<style type = "text/css"><![CDATA[
rect.attrGroup { fill: ivory ; stroke: black; stroke-width: 1 }
rect.element { fill: ivory ; stroke: black; stroke-width: 1 }
rect.elTypeBkgnd { fill: lightgray ; stroke: none }
text.elName { font-family: helvetica ; font-size : 10 }
text.elType { font-family: helvetica ; font-size : 7 }
text.occurLarge { font-family: helvetica ; font-size : 9; fill : blue }
text.occurSmall { font-family: helvetica ; font-size : 7; fill : blue }
rect.typeIconDark { fill : darkslategray }
circle.occurs { stroke : black ; stroke-width: 1; fill : white }
circle.ellipsis { fill : black }
path.typeIconDark { stroke : lightgray ; stroke-width: 1 }
path.connector { stroke : red ; stroke-width: 1 ; fill: none; }
path.modelGroup { stroke : black ; stroke-width: 1 ; fill: lightgray; }
polyline.connector { stroke : red ; stroke-width: 1 ; fill: none; }
.nodeStyle { fill : blue }
]]></style>
	</defs>
	<rect x = "77" y = "5" width = "335" height = "69" class = "attrGroup" rx = "5" ry = "5"/>
	<rect x = "82" y = "10" width = "64" height = "27" class = "element" rx = "5" ry = "5"/>
	<circle class = "nodeStyle" cx = "88" cy = "16" r = "4"/>
	<text x = "93" y = "21" class = "elName">FilterID</text>
	<rect x = "83" y = "11" width = "62" height = "25" class = "elTypeBkgnd" rx = "5" ry = "5" clip-path = "url(#e:OTF/a:FilterID)"/>
	<defs/>
	<clipPath id = "e:OTF/a:FilterID">
		<rect x = "82" y = "25" width = "64" height = "11"/>
	</clipPath>
	<text x = "83" y = "33" class = "elType">positiveInteger</text>
	<image xlink:href = "../dgmDtInteger.gif" width = "10" height = "10" x = "136" y = "20"/>
	<rect x = "257" y = "10" width = "64" height = "27" class = "element" rx = "5" ry = "5"/>
	<circle class = "nodeStyle" cx = "263" cy = "16" r = "4"/>
	<text x = "268" y = "21" class = "elName">SizeX</text>
	<rect x = "258" y = "11" width = "62" height = "25" class = "elTypeBkgnd" rx = "5" ry = "5" clip-path = "url(#e:OTF/a:SizeX)"/>
	<defs/>
	<clipPath id = "e:OTF/a:SizeX">
		<rect x = "257" y = "25" width = "64" height = "11"/>
	</clipPath>
	<text x = "258" y = "33" class = "elType">positiveInteger</text>
	<image xlink:href = "../dgmDtInteger.gif" width = "10" height = "10" x = "311" y = "20"/>
	<rect x = "82" y = "42" width = "64" height = "27" class = "element" rx = "5" ry = "5"/>
	<circle class = "nodeStyle" cx = "88" cy = "48" r = "4"/>
	<text x = "93" y = "53" class = "elName">SizeY</text>
	<rect x = "83" y = "43" width = "62" height = "25" class = "elTypeBkgnd" rx = "5" ry = "5" clip-path = "url(#e:OTF/a:SizeY)"/>
	<defs/>
	<clipPath id = "e:OTF/a:SizeY">
		<rect x = "82" y = "57" width = "64" height = "11"/>
	</clipPath>
	<text x = "83" y = "65" class = "elType">positiveInteger</text>
	<image xlink:href = "../dgmDtInteger.gif" width = "10" height = "10" x = "136" y = "52"/>
	<rect x = "151" y = "42" width = "64" height = "27" class = "element" rx = "5" ry = "5"/>
	<circle class = "nodeStyle" cx = "157" cy = "48" r = "4"/>
	<text x = "162" y = "53" class = "elName">OTFID</text>
	<rect x = "152" y = "43" width = "62" height = "25" class = "elTypeBkgnd" rx = "5" ry = "5" clip-path = "url(#e:OTF/a:OTFID)"/>
	<defs/>
	<clipPath id = "e:OTF/a:OTFID">
		<rect x = "151" y = "57" width = "64" height = "11"/>
	</clipPath>
	<text x = "152" y = "65" class = "elType">positiveInteger</text>
	<image xlink:href = "../dgmDtInteger.gif" width = "10" height = "10" x = "205" y = "52"/>
	<rect x = "326" y = "10" width = "81" height = "27" class = "element" rx = "5" ry = "5"/>
	<circle class = "nodeStyle" cx = "332" cy = "16" r = "4"/>
	<text x = "337" y = "21" class = "elName">BitsPerPixel</text>
	<rect x = "327" y = "11" width = "79" height = "25" class = "elTypeBkgnd" rx = "5" ry = "5" clip-path = "url(#e:OTF/a:BitsPerPixel)"/>
	<defs/>
	<clipPath id = "e:OTF/a:BitsPerPixel">
		<rect x = "326" y = "25" width = "81" height = "11"/>
	</clipPath>
	<image xlink:href = "../dgmDtInteger.gif" width = "10" height = "10" x = "397" y = "20"/>
	<rect x = "151" y = "10" width = "101" height = "27" class = "element" rx = "5" ry = "5"/>
	<circle class = "nodeStyle" cx = "157" cy = "16" r = "4"/>
	<text x = "162" y = "21" class = "elName">OpticalAxisAvrg</text>
	<rect x = "152" y = "11" width = "99" height = "25" class = "elTypeBkgnd" rx = "5" ry = "5" clip-path = "url(#e:OTF/a:OpticalAxisAvrg)"/>
	<defs/>
	<clipPath id = "e:OTF/a:OpticalAxisAvrg">
		<rect x = "151" y = "25" width = "101" height = "11"/>
	</clipPath>
	<text x = "152" y = "33" class = "elType">boolean</text>
	<image xlink:href = "../dgmDtBoolean.gif" width = "10" height = "10" x = "242" y = "20"/>
	<rect x = "5" y = "96" width = "42" height = "27" class = "element"/>
	<polygon class = "nodeStyle" points = "11,98 7,102 11,106 15,102"/>
	<text x = "16" y = "107" class = "elName">OTF</text>
	<rect x = "6" y = "111" width = "40" height = "11" class = "elTypeBkgnd"/>
	<image xlink:href = "../dgmTypeComplex.gif" width = "10" height = "10" x = "37" y = "106"/>
	<polyline class = "connector" points = "77,92 57,109 47,109 57,109 77,126"/>
	<polyline class = "connector" points = "47,107 55,107 55,39 77,39"/>
	<polyline class = "connector" points = "77,92 89,92"/>
	<rect x = "89" y = "79" width = "63" height = "27" class = "element"/>
	<polygon class = "nodeStyle" points = "95,81 91,85 95,89 99,85"/>
	<text x = "100" y = "90" class = "elName">External</text>
	<rect x = "90" y = "94" width = "61" height = "11" class = "elTypeBkgnd"/>
	<image xlink:href = "../dgmTypeEmpty.gif" width = "10" height = "10" x = "142" y = "89"/>
	<polyline class = "connector" points = "77,126 89,126"/>
	<rect x = "89" y = "113" width = "61" height = "27" class = "element"/>
	<polygon class = "nodeStyle" points = "95,115 91,119 95,123 99,119"/>
	<text x = "100" y = "124" class = "elName">BinData</text>
	<rect x = "90" y = "128" width = "59" height = "11" class = "elTypeBkgnd"/>
	<text x = "90" y = "136" class = "elType">bin.base64</text>
	<image xlink:href = "../dgmDtString.gif" width = "10" height = "10" x = "140" y = "123"/>
</svg>