<?xml version = "1.0"?>
<!DOCTYPE svg PUBLIC "-//W3C//DTD SVG 20010904//EN" "http://www.w3.org/TR/2001/REC-SVG-20010904/DTD/svg10.dtd">
<svg width = "274pt" height = "79pt" viewBox = "0 0 274 79" xmlns = "http://www.w3.org/2000/svg" xmlns:xlink = "http://www.w3.org/1999/xlink">
	<defs>
		<style type = "text/css"><![CDATA[
rect.attrGroup { fill: ivory ; stroke: black; stroke-width: 1 }
rect.element { fill: ivory ; stroke: black; stroke-width: 1 }
rect.elTypeBkgnd { fill: lightgray ; stroke: none }
text.elName { font-family: helvetica ; font-size : 10 }
text.elType { font-family: helvetica ; font-size : 7 }
text.occurLarge { font-family: helvetica ; font-size : 9; fill : blue }
text.occurSmall { font-family: helvetica ; font-size : 7; fill : blue }
rect.typeIconDark { fill : darkslategray }
circle.occurs { stroke : black ; stroke-width: 1; fill : white }
circle.ellipsis { fill : black }
path.typeIconDark { stroke : lightgray ; stroke-width: 1 }
path.connector { stroke : red ; stroke-width: 1 ; fill: none; }
path.modelGroup { stroke : black ; stroke-width: 1 ; fill: lightgray; }
polyline.connector { stroke : red ; stroke-width: 1 ; fill: none; }
.nodeStyle { fill : blue }
]]></style>
	</defs>
	<rect x = "136" y = "5" width = "133" height = "37" class = "attrGroup" rx = "5" ry = "5"/>
	<circle class = "occurs" cx = "147" cy = "23" r = "6"/>
	<text x = "144" y = "26" class = "occurLarge">?</text>
	<rect x = "153" y = "10" width = "111" height = "27" class = "element" rx = "5" ry = "5"/>
	<circle class = "nodeStyle" cx = "159" cy = "16" r = "4"/>
	<text x = "164" y = "21" class = "elName">DocumentGroupID</text>
	<rect x = "154" y = "11" width = "109" height = "25" class = "elTypeBkgnd" rx = "5" ry = "5" clip-path = "url(#e:DocumentGroup/a:DocumentGroupID)"/>
	<defs/>
	<clipPath id = "e:DocumentGroup/a:DocumentGroupID">
		<rect x = "153" y = "25" width = "111" height = "11"/>
	</clipPath>
	<text x = "154" y = "33" class = "elType">string</text>
	<image xlink:href = "../dgmDtString.gif" width = "10" height = "10" x = "254" y = "20"/>
	<rect x = "5" y = "47" width = "101" height = "27" class = "element"/>
	<polygon class = "nodeStyle" points = "11,49 7,53 11,57 15,53"/>
	<text x = "16" y = "58" class = "elName">DocumentGroup</text>
	<rect x = "6" y = "62" width = "99" height = "11" class = "elTypeBkgnd"/>
	<image xlink:href = "../dgmTypeComplex.gif" width = "10" height = "10" x = "96" y = "57"/>
	<polyline class = "connector" points = "106,60 136,60"/>
	<polyline class = "connector" points = "106,58 114,58 114,23 136,23"/>
	<circle class = "occurs" cx = "142" cy = "60" r = "6"/>
	<text x = "139" y = "63" class = "occurLarge">+</text>
	<rect x = "148" y = "47" width = "88" height = "27" class = "element"/>
	<polygon class = "nodeStyle" points = "154,49 150,53 154,57 158,53"/>
	<text x = "159" y = "58" class = "elName">DocumentRef</text>
	<rect x = "149" y = "62" width = "86" height = "11" class = "elTypeBkgnd"/>
	<image xlink:href = "../dgmTypeEmpty.gif" width = "10" height = "10" x = "226" y = "57"/>
</svg>