<?xml version = "1.0"?>
<!DOCTYPE svg PUBLIC "-//W3C//DTD SVG 20010904//EN" "http://www.w3.org/TR/2001/REC-SVG-20010904/DTD/svg10.dtd">
<svg width = "439pt" height = "47pt" viewBox = "0 0 439 47" xmlns = "http://www.w3.org/2000/svg" xmlns:xlink = "http://www.w3.org/1999/xlink">
	<defs>
		<style type = "text/css"><![CDATA[
rect.attrGroup { fill: ivory ; stroke: black; stroke-width: 1 }
rect.element { fill: ivory ; stroke: black; stroke-width: 1 }
rect.elTypeBkgnd { fill: lightgray ; stroke: none }
text.elName { font-family: helvetica ; font-size : 10 }
text.elType { font-family: helvetica ; font-size : 7 }
text.occurLarge { font-family: helvetica ; font-size : 9; fill : blue }
text.occurSmall { font-family: helvetica ; font-size : 7; fill : blue }
rect.typeIconDark { fill : darkslategray }
circle.occurs { stroke : black ; stroke-width: 1; fill : white }
circle.ellipsis { fill : black }
path.typeIconDark { stroke : lightgray ; stroke-width: 1 }
path.connector { stroke : red ; stroke-width: 1 ; fill: none; }
path.modelGroup { stroke : black ; stroke-width: 1 ; fill: lightgray; }
polyline.connector { stroke : red ; stroke-width: 1 ; fill: none; }
.nodeStyle { fill : blue }
]]></style>
	</defs>
	<rect x = "5" y = "10" width = "65" height = "27" class = "element"/>
	<polygon class = "nodeStyle" points = "11,12 7,16 11,20 15,16"/>
	<rect x = "6" y = "25" width = "63" height = "11" class = "elTypeBkgnd"/>
	<text x = "6" y = "33" class = "elType">WaveScaleType</text>
	<image xlink:href = "../dgmTypeEmpty.gif" width = "10" height = "10" x = "60" y = "20"/>
	<polyline class = "connector" points = "70,23 100,23"/>
	<rect x = "100" y = "5" width = "334" height = "37" class = "attrGroup" rx = "5" ry = "5"/>
	<circle class = "occurs" cx = "111" cy = "23" r = "6"/>
	<text x = "108" y = "26" class = "occurLarge">?</text>
	<rect x = "117" y = "10" width = "60" height = "27" class = "element" rx = "5" ry = "5"/>
	<circle class = "nodeStyle" cx = "123" cy = "16" r = "4"/>
	<text x = "128" y = "21" class = "elName">Gamma</text>
	<rect x = "118" y = "11" width = "58" height = "25" class = "elTypeBkgnd" rx = "5" ry = "5" clip-path = "url(#t:WaveScaleType/a:Gamma)"/>
	<defs/>
	<clipPath id = "t:WaveScaleType/a:Gamma">
		<rect x = "117" y = "25" width = "60" height = "11"/>
	</clipPath>
	<text x = "118" y = "33" class = "elType">float</text>
	<image xlink:href = "../dgmDtFloat.gif" width = "10" height = "10" x = "167" y = "20"/>
	<rect x = "274" y = "10" width = "74" height = "27" class = "element" rx = "5" ry = "5"/>
	<circle class = "nodeStyle" cx = "280" cy = "16" r = "4"/>
	<text x = "285" y = "21" class = "elName">BlackLevel</text>
	<rect x = "275" y = "11" width = "72" height = "25" class = "elTypeBkgnd" rx = "5" ry = "5" clip-path = "url(#t:WaveScaleType/a:BlackLevel)"/>
	<defs/>
	<clipPath id = "t:WaveScaleType/a:BlackLevel">
		<rect x = "274" y = "25" width = "74" height = "11"/>
	</clipPath>
	<text x = "275" y = "33" class = "elType">int</text>
	<image xlink:href = "../dgmDtInteger.gif" width = "10" height = "10" x = "338" y = "20"/>
	<rect x = "353" y = "10" width = "76" height = "27" class = "element" rx = "5" ry = "5"/>
	<circle class = "nodeStyle" cx = "359" cy = "16" r = "4"/>
	<text x = "364" y = "21" class = "elName">WhiteLevel</text>
	<rect x = "354" y = "11" width = "74" height = "25" class = "elTypeBkgnd" rx = "5" ry = "5" clip-path = "url(#t:WaveScaleType/a:WhiteLevel)"/>
	<defs/>
	<clipPath id = "t:WaveScaleType/a:WhiteLevel">
		<rect x = "353" y = "25" width = "76" height = "11"/>
	</clipPath>
	<text x = "354" y = "33" class = "elType">int</text>
	<image xlink:href = "../dgmDtInteger.gif" width = "10" height = "10" x = "419" y = "20"/>
	<rect x = "182" y = "10" width = "87" height = "27" class = "element" rx = "5" ry = "5"/>
	<circle class = "nodeStyle" cx = "188" cy = "16" r = "4"/>
	<text x = "193" y = "21" class = "elName">WaveNumber</text>
	<rect x = "183" y = "11" width = "85" height = "25" class = "elTypeBkgnd" rx = "5" ry = "5" clip-path = "url(#t:WaveScaleType/a:WaveNumber)"/>
	<defs/>
	<clipPath id = "t:WaveScaleType/a:WaveNumber">
		<rect x = "182" y = "25" width = "87" height = "11"/>
	</clipPath>
	<text x = "183" y = "33" class = "elType">int</text>
	<image xlink:href = "../dgmDtInteger.gif" width = "10" height = "10" x = "259" y = "20"/>
</svg>