<?xml version = "1.0"?>
<!DOCTYPE svg PUBLIC "-//W3C//DTD SVG 20010904//EN" "http://www.w3.org/TR/2001/REC-SVG-20010904/DTD/svg10.dtd">
<svg width = "545pt" height = "79pt" viewBox = "0 0 545 79" xmlns = "http://www.w3.org/2000/svg" xmlns:xlink = "http://www.w3.org/1999/xlink">
	<defs>
		<style type = "text/css"><![CDATA[
rect.attrGroup { fill: ivory ; stroke: black; stroke-width: 1 }
rect.element { fill: ivory ; stroke: black; stroke-width: 1 }
rect.elTypeBkgnd { fill: lightgray ; stroke: none }
text.elName { font-family: helvetica ; font-size : 10 }
text.elType { font-family: helvetica ; font-size : 7 }
text.occurLarge { font-family: helvetica ; font-size : 9; fill : blue }
text.occurSmall { font-family: helvetica ; font-size : 7; fill : blue }
rect.typeIconDark { fill : darkslategray }
circle.occurs { stroke : black ; stroke-width: 1; fill : white }
circle.ellipsis { fill : black }
path.typeIconDark { stroke : lightgray ; stroke-width: 1 }
path.connector { stroke : red ; stroke-width: 1 ; fill: none; }
path.modelGroup { stroke : black ; stroke-width: 1 ; fill: lightgray; }
polyline.connector { stroke : red ; stroke-width: 1 ; fill: none; }
.nodeStyle { fill : blue }
]]></style>
	</defs>
	<rect x = "5" y = "26" width = "104" height = "27" class = "element"/>
	<polygon class = "nodeStyle" points = "11,28 7,32 11,36 15,32"/>
	<text x = "16" y = "37" class = "elName">ExecutionHistory</text>
	<rect x = "6" y = "41" width = "102" height = "11" class = "elTypeBkgnd"/>
	<image xlink:href = "../dgmTypeEmpty.gif" width = "10" height = "10" x = "99" y = "36"/>
	<polyline class = "connector" points = "109,39 139,39"/>
	<rect x = "139" y = "5" width = "401" height = "69" class = "attrGroup" rx = "5" ry = "5"/>
	<rect x = "144" y = "10" width = "53" height = "27" class = "element" rx = "5" ry = "5"/>
	<circle class = "nodeStyle" cx = "150" cy = "16" r = "4"/>
	<text x = "155" y = "21" class = "elName">Status</text>
	<rect x = "145" y = "11" width = "51" height = "25" class = "elTypeBkgnd" rx = "5" ry = "5" clip-path = "url(#e:ExecutionHistory/a:Status)"/>
	<defs/>
	<clipPath id = "e:ExecutionHistory/a:Status">
		<rect x = "144" y = "25" width = "53" height = "11"/>
	</clipPath>
	<text x = "145" y = "33" class = "elType">string</text>
	<image xlink:href = "../dgmDtString.gif" width = "10" height = "10" x = "187" y = "20"/>
	<rect x = "343" y = "10" width = "65" height = "27" class = "element" rx = "5" ry = "5"/>
	<circle class = "nodeStyle" cx = "349" cy = "16" r = "4"/>
	<text x = "354" y = "21" class = "elName">RunTime</text>
	<rect x = "344" y = "11" width = "63" height = "25" class = "elTypeBkgnd" rx = "5" ry = "5" clip-path = "url(#e:ExecutionHistory/a:RunTime)"/>
	<defs/>
	<clipPath id = "e:ExecutionHistory/a:RunTime">
		<rect x = "343" y = "25" width = "65" height = "11"/>
	</clipPath>
	<text x = "344" y = "33" class = "elType">string</text>
	<image xlink:href = "../dgmDtString.gif" width = "10" height = "10" x = "398" y = "20"/>
	<rect x = "144" y = "42" width = "77" height = "27" class = "element" rx = "5" ry = "5"/>
	<circle class = "nodeStyle" cx = "150" cy = "48" r = "4"/>
	<text x = "155" y = "53" class = "elName">Timestamp</text>
	<rect x = "145" y = "43" width = "75" height = "25" class = "elTypeBkgnd" rx = "5" ry = "5" clip-path = "url(#e:ExecutionHistory/a:Timestamp)"/>
	<defs/>
	<clipPath id = "e:ExecutionHistory/a:Timestamp">
		<rect x = "144" y = "57" width = "77" height = "11"/>
	</clipPath>
	<text x = "145" y = "65" class = "elType">string</text>
	<image xlink:href = "../dgmDtString.gif" width = "10" height = "10" x = "211" y = "52"/>
	<circle class = "occurs" cx = "232" cy = "55" r = "6"/>
	<text x = "229" y = "58" class = "occurLarge">?</text>
	<rect x = "238" y = "42" width = "89" height = "27" class = "element" rx = "5" ry = "5"/>
	<circle class = "nodeStyle" cx = "244" cy = "48" r = "4"/>
	<text x = "249" y = "53" class = "elName">ErrorMessage</text>
	<rect x = "239" y = "43" width = "87" height = "25" class = "elTypeBkgnd" rx = "5" ry = "5" clip-path = "url(#e:ExecutionHistory/a:ErrorMessage)"/>
	<defs/>
	<clipPath id = "e:ExecutionHistory/a:ErrorMessage">
		<rect x = "238" y = "57" width = "89" height = "11"/>
	</clipPath>
	<text x = "239" y = "65" class = "elType">string</text>
	<image xlink:href = "../dgmDtString.gif" width = "10" height = "10" x = "317" y = "52"/>
	<circle class = "occurs" cx = "419" cy = "23" r = "6"/>
	<text x = "416" y = "26" class = "occurLarge">?</text>
	<rect x = "425" y = "10" width = "110" height = "27" class = "element" rx = "5" ry = "5"/>
	<circle class = "nodeStyle" cx = "431" cy = "16" r = "4"/>
	<text x = "436" y = "21" class = "elName">AttributeSortTime</text>
	<rect x = "426" y = "11" width = "108" height = "25" class = "elTypeBkgnd" rx = "5" ry = "5" clip-path = "url(#e:ExecutionHistory/a:AttributeSortTime)"/>
	<defs/>
	<clipPath id = "e:ExecutionHistory/a:AttributeSortTime">
		<rect x = "425" y = "25" width = "110" height = "11"/>
	</clipPath>
	<text x = "426" y = "33" class = "elType">string</text>
	<image xlink:href = "../dgmDtString.gif" width = "10" height = "10" x = "525" y = "20"/>
	<circle class = "occurs" cx = "208" cy = "23" r = "6"/>
	<text x = "205" y = "26" class = "occurLarge">?</text>
	<rect x = "214" y = "10" width = "124" height = "27" class = "element" rx = "5" ry = "5"/>
	<circle class = "nodeStyle" cx = "220" cy = "16" r = "4"/>
	<text x = "225" y = "21" class = "elName">AttributeCreateTime</text>
	<rect x = "215" y = "11" width = "122" height = "25" class = "elTypeBkgnd" rx = "5" ry = "5" clip-path = "url(#e:ExecutionHistory/a:AttributeCreateTime)"/>
	<defs/>
	<clipPath id = "e:ExecutionHistory/a:AttributeCreateTime">
		<rect x = "214" y = "25" width = "124" height = "11"/>
	</clipPath>
	<text x = "215" y = "33" class = "elType">string</text>
	<image xlink:href = "../dgmDtString.gif" width = "10" height = "10" x = "328" y = "20"/>
</svg>