<?xml version = "1.0"?>
<!DOCTYPE svg PUBLIC "-//W3C//DTD SVG 20010904//EN" "http://www.w3.org/TR/2001/REC-SVG-20010904/DTD/svg10.dtd">
<svg width = "282pt" height = "47pt" viewBox = "0 0 282 47" xmlns = "http://www.w3.org/2000/svg" xmlns:xlink = "http://www.w3.org/1999/xlink">
	<defs>
		<style type = "text/css"><![CDATA[
rect.attrGroup { fill: ivory ; stroke: black; stroke-width: 1 }
rect.element { fill: ivory ; stroke: black; stroke-width: 1 }
rect.elTypeBkgnd { fill: lightgray ; stroke: none }
text.elName { font-family: helvetica ; font-size : 10 }
text.elType { font-family: helvetica ; font-size : 7 }
text.occurLarge { font-family: helvetica ; font-size : 9; fill : blue }
text.occurSmall { font-family: helvetica ; font-size : 7; fill : blue }
rect.typeIconDark { fill : darkslategray }
circle.occurs { stroke : black ; stroke-width: 1; fill : white }
circle.ellipsis { fill : black }
path.typeIconDark { stroke : lightgray ; stroke-width: 1 }
path.connector { stroke : red ; stroke-width: 1 ; fill: none; }
path.modelGroup { stroke : black ; stroke-width: 1 ; fill: lightgray; }
polyline.connector { stroke : red ; stroke-width: 1 ; fill: none; }
.nodeStyle { fill : blue }
]]></style>
	</defs>
	<rect x = "5" y = "10" width = "48" height = "27" class = "element"/>
	<polygon class = "nodeStyle" points = "11,12 7,16 11,20 15,16"/>
	<text x = "16" y = "21" class = "elName">Input</text>
	<rect x = "6" y = "25" width = "46" height = "11" class = "elTypeBkgnd"/>
	<image xlink:href = "../dgmTypeEmpty.gif" width = "10" height = "10" x = "43" y = "20"/>
	<polyline class = "connector" points = "53,23 83,23"/>
	<rect x = "83" y = "5" width = "194" height = "37" class = "attrGroup" rx = "5" ry = "5"/>
	<rect x = "88" y = "10" width = "51" height = "27" class = "element" rx = "5" ry = "5"/>
	<circle class = "nodeStyle" cx = "94" cy = "16" r = "4"/>
	<text x = "99" y = "21" class = "elName">Name</text>
	<rect x = "89" y = "11" width = "49" height = "25" class = "elTypeBkgnd" rx = "5" ry = "5" clip-path = "url(#e:Input/a:Name)"/>
	<defs/>
	<clipPath id = "e:Input/a:Name">
		<rect x = "88" y = "25" width = "51" height = "11"/>
	</clipPath>
	<text x = "89" y = "33" class = "elType">string</text>
	<image xlink:href = "../dgmDtString.gif" width = "10" height = "10" x = "129" y = "20"/>
	<circle class = "occurs" cx = "150" cy = "23" r = "6"/>
	<text x = "147" y = "26" class = "occurLarge">?</text>
	<rect x = "156" y = "10" width = "116" height = "27" class = "element" rx = "5" ry = "5"/>
	<circle class = "nodeStyle" cx = "162" cy = "16" r = "4"/>
	<text x = "167" y = "21" class = "elName">ModuleExecutionID</text>
	<rect x = "157" y = "11" width = "114" height = "25" class = "elTypeBkgnd" rx = "5" ry = "5" clip-path = "url(#e:Input/a:ModuleExecutionID)"/>
	<defs/>
	<clipPath id = "e:Input/a:ModuleExecutionID">
		<rect x = "156" y = "25" width = "116" height = "11"/>
	</clipPath>
	<text x = "157" y = "33" class = "elType">string</text>
	<image xlink:href = "../dgmDtString.gif" width = "10" height = "10" x = "262" y = "20"/>
</svg>