<?xml version = "1.0"?>
<!DOCTYPE svg PUBLIC "-//W3C//DTD SVG 20010904//EN" "http://www.w3.org/TR/2001/REC-SVG-20010904/DTD/svg10.dtd">
<svg width = "427pt" height = "147pt" viewBox = "0 0 427 147" xmlns = "http://www.w3.org/2000/svg" xmlns:xlink = "http://www.w3.org/1999/xlink">
	<defs>
		<style type = "text/css"><![CDATA[
rect.attrGroup { fill: ivory ; stroke: black; stroke-width: 1 }
rect.element { fill: ivory ; stroke: black; stroke-width: 1 }
rect.elTypeBkgnd { fill: lightgray ; stroke: none }
text.elName { font-family: helvetica ; font-size : 10 }
text.elType { font-family: helvetica ; font-size : 7 }
text.occurLarge { font-family: helvetica ; font-size : 9; fill : blue }
text.occurSmall { font-family: helvetica ; font-size : 7; fill : blue }
rect.typeIconDark { fill : darkslategray }
circle.occurs { stroke : black ; stroke-width: 1; fill : white }
circle.ellipsis { fill : black }
path.typeIconDark { stroke : lightgray ; stroke-width: 1 }
path.connector { stroke : red ; stroke-width: 1 ; fill: none; }
path.modelGroup { stroke : black ; stroke-width: 1 ; fill: lightgray; }
polyline.connector { stroke : red ; stroke-width: 1 ; fill: none; }
.nodeStyle { fill : blue }
]]></style>
	</defs>
	<rect x = "141" y = "5" width = "281" height = "37" class = "attrGroup" rx = "5" ry = "5"/>
	<rect x = "146" y = "10" width = "33" height = "27" class = "element" rx = "5" ry = "5"/>
	<circle class = "nodeStyle" cx = "152" cy = "16" r = "4"/>
	<text x = "157" y = "21" class = "elName">ID</text>
	<rect x = "147" y = "11" width = "31" height = "25" class = "elTypeBkgnd" rx = "5" ry = "5" clip-path = "url(#e:ModuleExecution/a:ID)"/>
	<defs/>
	<clipPath id = "e:ModuleExecution/a:ID">
		<rect x = "146" y = "25" width = "33" height = "11"/>
	</clipPath>
	<text x = "147" y = "33" class = "elType">string</text>
	<image xlink:href = "../dgmDtString.gif" width = "10" height = "10" x = "169" y = "20"/>
	<rect x = "272" y = "10" width = "69" height = "27" class = "element" rx = "5" ry = "5"/>
	<circle class = "nodeStyle" cx = "278" cy = "16" r = "4"/>
	<text x = "283" y = "21" class = "elName">ModuleID</text>
	<rect x = "273" y = "11" width = "67" height = "25" class = "elTypeBkgnd" rx = "5" ry = "5" clip-path = "url(#e:ModuleExecution/a:ModuleID)"/>
	<defs/>
	<clipPath id = "e:ModuleExecution/a:ModuleID">
		<rect x = "272" y = "25" width = "69" height = "11"/>
	</clipPath>
	<text x = "273" y = "33" class = "elType">OME:ModuleID</text>
	<image xlink:href = "../dgmDtString.gif" width = "10" height = "10" x = "331" y = "20"/>
	<rect x = "346" y = "10" width = "71" height = "27" class = "element" rx = "5" ry = "5"/>
	<circle class = "nodeStyle" cx = "352" cy = "16" r = "4"/>
	<text x = "357" y = "21" class = "elName">DatasetID</text>
	<rect x = "347" y = "11" width = "69" height = "25" class = "elTypeBkgnd" rx = "5" ry = "5" clip-path = "url(#e:ModuleExecution/a:DatasetID)"/>
	<defs/>
	<clipPath id = "e:ModuleExecution/a:DatasetID">
		<rect x = "346" y = "25" width = "71" height = "11"/>
	</clipPath>
	<text x = "347" y = "33" class = "elType">OME:DatasetID</text>
	<image xlink:href = "../dgmDtString.gif" width = "10" height = "10" x = "407" y = "20"/>
	<rect x = "184" y = "10" width = "83" height = "27" class = "element" rx = "5" ry = "5"/>
	<circle class = "nodeStyle" cx = "190" cy = "16" r = "4"/>
	<text x = "195" y = "21" class = "elName">Dependence</text>
	<rect x = "185" y = "11" width = "81" height = "25" class = "elTypeBkgnd" rx = "5" ry = "5" clip-path = "url(#e:ModuleExecution/a:Dependence)"/>
	<defs/>
	<clipPath id = "e:ModuleExecution/a:Dependence">
		<rect x = "184" y = "25" width = "83" height = "11"/>
	</clipPath>
	<image xlink:href = "../dgmDtString.gif" width = "10" height = "10" x = "257" y = "20"/>
	<rect x = "5" y = "81" width = "106" height = "27" class = "element"/>
	<polygon class = "nodeStyle" points = "11,83 7,87 11,91 15,87"/>
	<text x = "16" y = "92" class = "elName">ModuleExecution</text>
	<rect x = "6" y = "96" width = "104" height = "11" class = "elTypeBkgnd"/>
	<image xlink:href = "../dgmTypeComplex.gif" width = "10" height = "10" x = "101" y = "91"/>
	<polyline class = "connector" points = "141,60 121,60 121,94 111,94 121,94 121,128 141,128"/>
	<polyline class = "connector" points = "111,92 119,92 119,23 141,23"/>
	<polyline class = "connector" points = "141,60 153,60"/>
	<rect x = "153" y = "47" width = "104" height = "27" class = "element"/>
	<polygon class = "nodeStyle" points = "159,49 155,53 159,57 163,53"/>
	<text x = "164" y = "58" class = "elName">ExecutionHistory</text>
	<rect x = "154" y = "62" width = "102" height = "11" class = "elTypeBkgnd"/>
	<image xlink:href = "../dgmTypeEmpty.gif" width = "10" height = "10" x = "247" y = "57"/>
	<circle class = "occurs" cx = "147" cy = "94" r = "6"/>
	<text x = "144" y = "97" class = "occurLarge">*</text>
	<rect x = "153" y = "81" width = "48" height = "27" class = "element"/>
	<polygon class = "nodeStyle" points = "159,83 155,87 159,91 163,87"/>
	<text x = "164" y = "92" class = "elName">Input</text>
	<rect x = "154" y = "96" width = "46" height = "11" class = "elTypeBkgnd"/>
	<image xlink:href = "../dgmTypeEmpty.gif" width = "10" height = "10" x = "191" y = "91"/>
	<circle class = "occurs" cx = "147" cy = "128" r = "6"/>
	<text x = "144" y = "131" class = "occurLarge">*</text>
	<rect x = "153" y = "115" width = "57" height = "27" class = "element"/>
	<polygon class = "nodeStyle" points = "159,117 155,121 159,125 163,121"/>
	<text x = "164" y = "126" class = "elName">Output</text>
	<rect x = "154" y = "130" width = "55" height = "11" class = "elTypeBkgnd"/>
	<image xlink:href = "../dgmTypeComplex.gif" width = "10" height = "10" x = "200" y = "125"/>
</svg>