<?xml version = "1.0"?>
<!DOCTYPE svg PUBLIC "-//W3C//DTD SVG 20010904//EN" "http://www.w3.org/TR/2001/REC-SVG-20010904/DTD/svg10.dtd">
<svg width = "242pt" height = "113pt" viewBox = "0 0 242 113" xmlns = "http://www.w3.org/2000/svg" xmlns:xlink = "http://www.w3.org/1999/xlink">
	<defs>
		<style type = "text/css"><![CDATA[
rect.attrGroup { fill: ivory ; stroke: black; stroke-width: 1 }
rect.element { fill: ivory ; stroke: black; stroke-width: 1 }
rect.elTypeBkgnd { fill: lightgray ; stroke: none }
text.elName { font-family: helvetica ; font-size : 10 }
text.elType { font-family: helvetica ; font-size : 7 }
text.occurLarge { font-family: helvetica ; font-size : 9; fill : blue }
text.occurSmall { font-family: helvetica ; font-size : 7; fill : blue }
rect.typeIconDark { fill : darkslategray }
circle.occurs { stroke : black ; stroke-width: 1; fill : white }
circle.ellipsis { fill : black }
path.typeIconDark { stroke : lightgray ; stroke-width: 1 }
path.connector { stroke : red ; stroke-width: 1 ; fill: none; }
path.modelGroup { stroke : black ; stroke-width: 1 ; fill: lightgray; }
polyline.connector { stroke : red ; stroke-width: 1 ; fill: none; }
.nodeStyle { fill : blue }
]]></style>
	</defs>
	<rect x = "92" y = "5" width = "145" height = "37" class = "attrGroup" rx = "5" ry = "5"/>
	<rect x = "97" y = "10" width = "51" height = "27" class = "element" rx = "5" ry = "5"/>
	<circle class = "nodeStyle" cx = "103" cy = "16" r = "4"/>
	<text x = "108" y = "21" class = "elName">Name</text>
	<rect x = "98" y = "11" width = "49" height = "25" class = "elTypeBkgnd" rx = "5" ry = "5" clip-path = "url(#e:Project/a:Name)"/>
	<defs/>
	<clipPath id = "e:Project/a:Name">
		<rect x = "97" y = "25" width = "51" height = "11"/>
	</clipPath>
	<text x = "98" y = "33" class = "elType">string</text>
	<image xlink:href = "../dgmDtString.gif" width = "10" height = "10" x = "138" y = "20"/>
	<circle class = "occurs" cx = "159" cy = "23" r = "6"/>
	<text x = "156" y = "26" class = "occurLarge">?</text>
	<rect x = "165" y = "10" width = "67" height = "27" class = "element" rx = "5" ry = "5"/>
	<circle class = "nodeStyle" cx = "171" cy = "16" r = "4"/>
	<text x = "176" y = "21" class = "elName">ProjectID</text>
	<rect x = "166" y = "11" width = "65" height = "25" class = "elTypeBkgnd" rx = "5" ry = "5" clip-path = "url(#e:Project/a:ProjectID)"/>
	<defs/>
	<clipPath id = "e:Project/a:ProjectID">
		<rect x = "165" y = "25" width = "67" height = "11"/>
	</clipPath>
	<text x = "166" y = "33" class = "elType">positiveInteger</text>
	<image xlink:href = "../dgmDtInteger.gif" width = "10" height = "10" x = "222" y = "20"/>
	<rect x = "5" y = "64" width = "57" height = "27" class = "element"/>
	<polygon class = "nodeStyle" points = "11,66 7,70 11,74 15,70"/>
	<text x = "16" y = "75" class = "elName">Project</text>
	<rect x = "6" y = "79" width = "55" height = "11" class = "elTypeBkgnd"/>
	<image xlink:href = "../dgmTypeComplex.gif" width = "10" height = "10" x = "52" y = "74"/>
	<polyline class = "connector" points = "92,60 72,60 72,77 62,77 72,77 72,94 92,94"/>
	<polyline class = "connector" points = "62,75 70,75 70,23 92,23"/>
	<circle class = "occurs" cx = "98" cy = "60" r = "6"/>
	<text x = "95" y = "63" class = "occurLarge">?</text>
	<rect x = "104" y = "47" width = "78" height = "27" class = "element"/>
	<polygon class = "nodeStyle" points = "110,49 106,53 110,57 114,53"/>
	<text x = "115" y = "58" class = "elName">Description</text>
	<rect x = "105" y = "62" width = "76" height = "11" class = "elTypeBkgnd"/>
	<text x = "105" y = "70" class = "elType">string</text>
	<image xlink:href = "../dgmDtString.gif" width = "10" height = "10" x = "172" y = "57"/>
	<polyline class = "connector" points = "92,94 104,94"/>
	<rect x = "104" y = "81" width = "104" height = "27" class = "element"/>
	<polygon class = "nodeStyle" points = "110,83 106,87 110,91 114,87"/>
	<text x = "115" y = "92" class = "elName">ExperimenterRef</text>
	<rect x = "105" y = "96" width = "102" height = "11" class = "elTypeBkgnd"/>
	<image xlink:href = "../dgmTypeEmpty.gif" width = "10" height = "10" x = "198" y = "91"/>
</svg>