<?xml version = "1.0"?>
<!DOCTYPE svg PUBLIC "-//W3C//DTD SVG 20010904//EN" "http://www.w3.org/TR/2001/REC-SVG-20010904/DTD/svg10.dtd">
<svg width = "185pt" height = "207pt" viewBox = "0 0 185 207" xmlns = "http://www.w3.org/2000/svg" xmlns:xlink = "http://www.w3.org/1999/xlink">
	<defs>
		<style type = "text/css"><![CDATA[
rect.attrGroup { fill: ivory ; stroke: black; stroke-width: 1 }
rect.element { fill: ivory ; stroke: black; stroke-width: 1 }
rect.elTypeBkgnd { fill: lightgray ; stroke: none }
text.elName { font-family: helvetica ; font-size : 10 }
text.elType { font-family: helvetica ; font-size : 7 }
text.occurLarge { font-family: helvetica ; font-size : 9; fill : blue }
text.occurSmall { font-family: helvetica ; font-size : 7; fill : blue }
rect.typeIconDark { fill : darkslategray }
circle.occurs { stroke : black ; stroke-width: 1; fill : white }
circle.ellipsis { fill : black }
path.typeIconDark { stroke : lightgray ; stroke-width: 1 }
path.connector { stroke : red ; stroke-width: 1 ; fill: none; }
path.modelGroup { stroke : black ; stroke-width: 1 ; fill: lightgray; }
polyline.connector { stroke : red ; stroke-width: 1 ; fill: none; }
.nodeStyle { fill : blue }
]]></style>
	</defs>
	<rect x = "5" y = "90" width = "45" height = "27" class = "element"/>
	<polygon class = "nodeStyle" points = "11,92 7,96 11,100 15,96"/>
	<text x = "16" y = "101" class = "elName">OME</text>
	<rect x = "6" y = "105" width = "43" height = "11" class = "elTypeBkgnd"/>
	<image xlink:href = "../dgmTypeComplex.gif" width = "10" height = "10" x = "40" y = "100"/>
	<polyline class = "connector" points = "80,18 60,18 60,103 50,103 60,103 60,188 80,188"/>
	<circle class = "occurs" cx = "86" cy = "18" r = "6"/>
	<text x = "83" y = "21" class = "occurLarge">*</text>
	<rect x = "92" y = "5" width = "57" height = "27" class = "element"/>
	<polygon class = "nodeStyle" points = "98,7 94,11 98,15 102,11"/>
	<text x = "103" y = "16" class = "elName">Project</text>
	<rect x = "93" y = "20" width = "55" height = "11" class = "elTypeBkgnd"/>
	<image xlink:href = "../dgmTypeComplex.gif" width = "10" height = "10" x = "139" y = "15"/>
	<circle class = "occurs" cx = "86" cy = "52" r = "6"/>
	<text x = "83" y = "55" class = "occurLarge">*</text>
	<rect x = "92" y = "39" width = "55" height = "27" class = "element"/>
	<polygon class = "nodeStyle" points = "98,41 94,45 98,49 102,45"/>
	<text x = "103" y = "50" class = "elName">Screen</text>
	<rect x = "93" y = "54" width = "53" height = "11" class = "elTypeBkgnd"/>
	<image xlink:href = "../dgmTypeComplex.gif" width = "10" height = "10" x = "137" y = "49"/>
	<circle class = "occurs" cx = "86" cy = "86" r = "6"/>
	<text x = "83" y = "89" class = "occurLarge">*</text>
	<rect x = "92" y = "73" width = "88" height = "27" class = "element"/>
	<polygon class = "nodeStyle" points = "98,75 94,79 98,83 102,79"/>
	<text x = "103" y = "84" class = "elName">Experimenter</text>
	<rect x = "93" y = "88" width = "86" height = "11" class = "elTypeBkgnd"/>
	<text x = "93" y = "96" class = "elType">ExperimenterType</text>
	<image xlink:href = "../dgmTypeComplex.gif" width = "10" height = "10" x = "170" y = "83"/>
	<circle class = "occurs" cx = "86" cy = "120" r = "6"/>
	<text x = "83" y = "123" class = "occurLarge">*</text>
	<rect x = "92" y = "107" width = "52" height = "27" class = "element"/>
	<polygon class = "nodeStyle" points = "98,109 94,113 98,117 102,113"/>
	<text x = "103" y = "118" class = "elName">Group</text>
	<rect x = "93" y = "122" width = "50" height = "11" class = "elTypeBkgnd"/>
	<text x = "93" y = "130" class = "elType">GroupType</text>
	<image xlink:href = "../dgmTypeComplex.gif" width = "10" height = "10" x = "134" y = "117"/>
	<circle class = "occurs" cx = "86" cy = "154" r = "6"/>
	<text x = "83" y = "157" class = "occurLarge">*</text>
	<rect x = "92" y = "141" width = "76" height = "27" class = "element"/>
	<polygon class = "nodeStyle" points = "98,143 94,147 98,151 102,147"/>
	<text x = "103" y = "152" class = "elName">Instrument</text>
	<rect x = "93" y = "156" width = "74" height = "11" class = "elTypeBkgnd"/>
	<image xlink:href = "../dgmTypeComplex.gif" width = "10" height = "10" x = "158" y = "151"/>
	<circle class = "occurs" cx = "86" cy = "188" r = "6"/>
	<text x = "83" y = "191" class = "occurLarge">+</text>
	<rect x = "92" y = "175" width = "61" height = "27" class = "element"/>
	<polygon class = "nodeStyle" points = "98,177 94,181 98,185 102,181"/>
	<text x = "103" y = "186" class = "elName">Dataset</text>
	<rect x = "93" y = "190" width = "59" height = "11" class = "elTypeBkgnd"/>
	<image xlink:href = "../dgmTypeComplex.gif" width = "10" height = "10" x = "143" y = "185"/>
</svg>