<?xml version = "1.0"?>
<!DOCTYPE svg PUBLIC "-//W3C//DTD SVG 20010904//EN" "http://www.w3.org/TR/2001/REC-SVG-20010904/DTD/svg10.dtd">
<svg width = "224pt" height = "181pt" viewBox = "0 0 224 181" xmlns = "http://www.w3.org/2000/svg" xmlns:xlink = "http://www.w3.org/1999/xlink">
	<defs>
		<style type = "text/css"><![CDATA[
rect.attrGroup { fill: ivory ; stroke: black; stroke-width: 1 }
rect.element { fill: ivory ; stroke: black; stroke-width: 1 }
rect.elTypeBkgnd { fill: lightgray ; stroke: none }
text.elName { font-family: helvetica ; font-size : 10 }
text.elType { font-family: helvetica ; font-size : 7 }
text.occurLarge { font-family: helvetica ; font-size : 9; fill : blue }
text.occurSmall { font-family: helvetica ; font-size : 7; fill : blue }
rect.typeIconDark { fill : darkslategray }
circle.occurs { stroke : black ; stroke-width: 1; fill : white }
circle.ellipsis { fill : black }
path.typeIconDark { stroke : lightgray ; stroke-width: 1 }
path.connector { stroke : red ; stroke-width: 1 ; fill: none; }
path.modelGroup { stroke : black ; stroke-width: 1 ; fill: lightgray; }
polyline.connector { stroke : red ; stroke-width: 1 ; fill: none; }
.nodeStyle { fill : blue }
]]></style>
	</defs>
	<rect x = "111" y = "5" width = "108" height = "37" class = "attrGroup" rx = "5" ry = "5"/>
	<circle class = "occurs" cx = "122" cy = "23" r = "6"/>
	<text x = "119" y = "26" class = "occurLarge">?</text>
	<rect x = "128" y = "10" width = "86" height = "27" class = "element" rx = "5" ry = "5"/>
	<circle class = "nodeStyle" cx = "134" cy = "16" r = "4"/>
	<text x = "139" y = "21" class = "elName">InstrumentID</text>
	<rect x = "129" y = "11" width = "84" height = "25" class = "elTypeBkgnd" rx = "5" ry = "5" clip-path = "url(#e:Instrument/a:InstrumentID)"/>
	<defs/>
	<clipPath id = "e:Instrument/a:InstrumentID">
		<rect x = "128" y = "25" width = "86" height = "11"/>
	</clipPath>
	<text x = "129" y = "33" class = "elType">positiveInteger</text>
	<image xlink:href = "../dgmDtInteger.gif" width = "10" height = "10" x = "204" y = "20"/>
	<rect x = "5" y = "98" width = "76" height = "27" class = "element"/>
	<polygon class = "nodeStyle" points = "11,100 7,104 11,108 15,104"/>
	<text x = "16" y = "109" class = "elName">Instrument</text>
	<rect x = "6" y = "113" width = "74" height = "11" class = "elTypeBkgnd"/>
	<image xlink:href = "../dgmTypeComplex.gif" width = "10" height = "10" x = "71" y = "108"/>
	<polyline class = "connector" points = "111,60 91,60 91,111 81,111 91,111 91,162 111,162"/>
	<polyline class = "connector" points = "81,109 89,109 89,23 111,23"/>
	<polyline class = "connector" points = "111,60 123,60"/>
	<rect x = "123" y = "47" width = "78" height = "27" class = "element"/>
	<polygon class = "nodeStyle" points = "129,49 125,53 129,57 133,53"/>
	<text x = "134" y = "58" class = "elName">Microscope</text>
	<rect x = "124" y = "62" width = "76" height = "11" class = "elTypeBkgnd"/>
	<text x = "124" y = "70" class = "elType">ManufactSpec</text>
	<image xlink:href = "../dgmTypeEmpty.gif" width = "10" height = "10" x = "191" y = "57"/>
	<rect x = "123" y = "81" width = "61" height = "27" class = "element"/>
	<polygon class = "nodeStyle" points = "129,83 125,87 129,91 133,87"/>
	<text x = "134" y = "92" class = "elName">Camera</text>
	<rect x = "124" y = "96" width = "59" height = "11" class = "elTypeBkgnd"/>
	<text x = "124" y = "104" class = "elType">ManufactSpec</text>
	<image xlink:href = "../dgmTypeEmpty.gif" width = "10" height = "10" x = "174" y = "91"/>
	<rect x = "123" y = "115" width = "69" height = "27" class = "element"/>
	<polygon class = "nodeStyle" points = "129,117 125,121 129,125 133,121"/>
	<text x = "134" y = "126" class = "elName">Objective</text>
	<rect x = "124" y = "130" width = "67" height = "11" class = "elTypeBkgnd"/>
	<image xlink:href = "../dgmTypeComplex.gif" width = "10" height = "10" x = "182" y = "125"/>
	<polyline class = "connector" points = "111,162 123,162"/>
	<rect x = "123" y = "149" width = "53" height = "27" class = "element"/>
	<polygon class = "nodeStyle" points = "129,151 125,155 129,159 133,155"/>
	<text x = "134" y = "160" class = "elName">Filters</text>
	<rect x = "124" y = "164" width = "51" height = "11" class = "elTypeBkgnd"/>
	<image xlink:href = "../dgmTypeComplex.gif" width = "10" height = "10" x = "166" y = "159"/>
</svg>