<?xml version = "1.0"?>
<!DOCTYPE svg PUBLIC "-//W3C//DTD SVG 20010904//EN" "http://www.w3.org/TR/2001/REC-SVG-20010904/DTD/svg10.dtd">
<svg width = "362pt" height = "47pt" viewBox = "0 0 362 47" xmlns = "http://www.w3.org/2000/svg" xmlns:xlink = "http://www.w3.org/1999/xlink">
	<defs>
		<style type = "text/css"><![CDATA[
rect.attrGroup { fill: ivory ; stroke: black; stroke-width: 1 }
rect.element { fill: ivory ; stroke: black; stroke-width: 1 }
rect.elTypeBkgnd { fill: lightgray ; stroke: none }
text.elName { font-family: helvetica ; font-size : 10 }
text.elType { font-family: helvetica ; font-size : 7 }
text.occurLarge { font-family: helvetica ; font-size : 9; fill : blue }
text.occurSmall { font-family: helvetica ; font-size : 7; fill : blue }
rect.typeIconDark { fill : darkslategray }
circle.occurs { stroke : black ; stroke-width: 1; fill : white }
circle.ellipsis { fill : black }
path.typeIconDark { stroke : lightgray ; stroke-width: 1 }
path.connector { stroke : red ; stroke-width: 1 ; fill: none; }
path.modelGroup { stroke : black ; stroke-width: 1 ; fill: lightgray; }
polyline.connector { stroke : red ; stroke-width: 1 ; fill: none; }
.nodeStyle { fill : blue }
]]></style>
	</defs>
	<rect x = "5" y = "10" width = "61" height = "27" class = "element"/>
	<polygon class = "nodeStyle" points = "11,12 7,16 11,20 15,16"/>
	<rect x = "6" y = "25" width = "59" height = "11" class = "elTypeBkgnd"/>
	<text x = "6" y = "33" class = "elType">ManufactSpec</text>
	<image xlink:href = "../dgmTypeEmpty.gif" width = "10" height = "10" x = "56" y = "20"/>
	<polyline class = "connector" points = "66,23 96,23"/>
	<rect x = "96" y = "5" width = "261" height = "37" class = "attrGroup" rx = "5" ry = "5"/>
	<rect x = "101" y = "10" width = "53" height = "27" class = "element" rx = "5" ry = "5"/>
	<circle class = "nodeStyle" cx = "107" cy = "16" r = "4"/>
	<text x = "112" y = "21" class = "elName">Model</text>
	<rect x = "102" y = "11" width = "51" height = "25" class = "elTypeBkgnd" rx = "5" ry = "5" clip-path = "url(#t:ManufactSpec/a:Model)"/>
	<defs/>
	<clipPath id = "t:ManufactSpec/a:Model">
		<rect x = "101" y = "25" width = "53" height = "11"/>
	</clipPath>
	<text x = "102" y = "33" class = "elType">string</text>
	<image xlink:href = "../dgmDtString.gif" width = "10" height = "10" x = "144" y = "20"/>
	<rect x = "263" y = "10" width = "89" height = "27" class = "element" rx = "5" ry = "5"/>
	<circle class = "nodeStyle" cx = "269" cy = "16" r = "4"/>
	<text x = "274" y = "21" class = "elName">Manufacturer</text>
	<rect x = "264" y = "11" width = "87" height = "25" class = "elTypeBkgnd" rx = "5" ry = "5" clip-path = "url(#t:ManufactSpec/a:Manufacturer)"/>
	<defs/>
	<clipPath id = "t:ManufactSpec/a:Manufacturer">
		<rect x = "263" y = "25" width = "89" height = "11"/>
	</clipPath>
	<text x = "264" y = "33" class = "elType">string</text>
	<image xlink:href = "../dgmDtString.gif" width = "10" height = "10" x = "342" y = "20"/>
	<rect x = "159" y = "10" width = "99" height = "27" class = "element" rx = "5" ry = "5"/>
	<circle class = "nodeStyle" cx = "165" cy = "16" r = "4"/>
	<text x = "170" y = "21" class = "elName">CatalogNumber</text>
	<rect x = "160" y = "11" width = "97" height = "25" class = "elTypeBkgnd" rx = "5" ry = "5" clip-path = "url(#t:ManufactSpec/a:CatalogNumber)"/>
	<defs/>
	<clipPath id = "t:ManufactSpec/a:CatalogNumber">
		<rect x = "159" y = "25" width = "99" height = "11"/>
	</clipPath>
	<text x = "160" y = "33" class = "elType">string</text>
	<image xlink:href = "../dgmDtString.gif" width = "10" height = "10" x = "248" y = "20"/>
</svg>