<?xml version = "1.0"?>
<!DOCTYPE svg PUBLIC "-//W3C//DTD SVG 20010904//EN" "http://www.w3.org/TR/2001/REC-SVG-20010904/DTD/svg10.dtd">
<svg width = "359pt" height = "113pt" viewBox = "0 0 359 113" xmlns = "http://www.w3.org/2000/svg" xmlns:xlink = "http://www.w3.org/1999/xlink">
	<defs>
		<style type = "text/css"><![CDATA[
rect.attrGroup { fill: ivory ; stroke: black; stroke-width: 1 }
rect.element { fill: ivory ; stroke: black; stroke-width: 1 }
rect.elTypeBkgnd { fill: lightgray ; stroke: none }
text.elName { font-family: helvetica ; font-size : 10 }
text.elType { font-family: helvetica ; font-size : 7 }
text.occurLarge { font-family: helvetica ; font-size : 9; fill : blue }
text.occurSmall { font-family: helvetica ; font-size : 7; fill : blue }
rect.typeIconDark { fill : darkslategray }
circle.occurs { stroke : black ; stroke-width: 1; fill : white }
circle.ellipsis { fill : black }
path.typeIconDark { stroke : lightgray ; stroke-width: 1 }
path.connector { stroke : red ; stroke-width: 1 ; fill: none; }
path.modelGroup { stroke : black ; stroke-width: 1 ; fill: lightgray; }
polyline.connector { stroke : red ; stroke-width: 1 ; fill: none; }
.nodeStyle { fill : blue }
]]></style>
	</defs>
	<rect x = "81" y = "5" width = "273" height = "37" class = "attrGroup" rx = "5" ry = "5"/>
	<rect x = "86" y = "10" width = "70" height = "27" class = "element" rx = "5" ry = "5"/>
	<circle class = "nodeStyle" cx = "92" cy = "16" r = "4"/>
	<text x = "97" y = "21" class = "elName">BigEndian</text>
	<rect x = "87" y = "11" width = "68" height = "25" class = "elTypeBkgnd" rx = "5" ry = "5" clip-path = "url(#e:Data/a:BigEndian)"/>
	<defs/>
	<clipPath id = "e:Data/a:BigEndian">
		<rect x = "86" y = "25" width = "70" height = "11"/>
	</clipPath>
	<text x = "87" y = "33" class = "elType">boolean</text>
	<image xlink:href = "../dgmDtBoolean.gif" width = "10" height = "10" x = "146" y = "20"/>
	<rect x = "268" y = "10" width = "81" height = "27" class = "element" rx = "5" ry = "5"/>
	<circle class = "nodeStyle" cx = "274" cy = "16" r = "4"/>
	<text x = "279" y = "21" class = "elName">BitsPerPixel</text>
	<rect x = "269" y = "11" width = "79" height = "25" class = "elTypeBkgnd" rx = "5" ry = "5" clip-path = "url(#e:Data/a:BitsPerPixel)"/>
	<defs/>
	<clipPath id = "e:Data/a:BitsPerPixel">
		<rect x = "268" y = "25" width = "81" height = "11"/>
	</clipPath>
	<image xlink:href = "../dgmDtInteger.gif" width = "10" height = "10" x = "339" y = "20"/>
	<rect x = "161" y = "10" width = "102" height = "27" class = "element" rx = "5" ry = "5"/>
	<circle class = "nodeStyle" cx = "167" cy = "16" r = "4"/>
	<text x = "172" y = "21" class = "elName">DimensionOrder</text>
	<rect x = "162" y = "11" width = "100" height = "25" class = "elTypeBkgnd" rx = "5" ry = "5" clip-path = "url(#e:Data/a:DimensionOrder)"/>
	<defs/>
	<clipPath id = "e:Data/a:DimensionOrder">
		<rect x = "161" y = "25" width = "102" height = "11"/>
	</clipPath>
	<image xlink:href = "../dgmDtString.gif" width = "10" height = "10" x = "253" y = "20"/>
	<rect x = "5" y = "64" width = "46" height = "27" class = "element"/>
	<polygon class = "nodeStyle" points = "11,66 7,70 11,74 15,70"/>
	<text x = "16" y = "75" class = "elName">Data</text>
	<rect x = "6" y = "79" width = "44" height = "11" class = "elTypeBkgnd"/>
	<image xlink:href = "../dgmTypeComplex.gif" width = "10" height = "10" x = "41" y = "74"/>
	<polyline class = "connector" points = "81,60 61,77 51,77 61,77 81,94"/>
	<polyline class = "connector" points = "51,75 59,75 59,23 81,23"/>
	<polyline class = "connector" points = "81,60 93,60"/>
	<rect x = "93" y = "47" width = "63" height = "27" class = "element"/>
	<polygon class = "nodeStyle" points = "99,49 95,53 99,57 103,53"/>
	<text x = "104" y = "58" class = "elName">External</text>
	<rect x = "94" y = "62" width = "61" height = "11" class = "elTypeBkgnd"/>
	<image xlink:href = "../dgmTypeEmpty.gif" width = "10" height = "10" x = "146" y = "57"/>
	<polyline class = "connector" points = "81,94 93,94"/>
	<rect x = "93" y = "81" width = "61" height = "27" class = "element"/>
	<polygon class = "nodeStyle" points = "99,83 95,87 99,91 103,87"/>
	<text x = "104" y = "92" class = "elName">BinData</text>
	<rect x = "94" y = "96" width = "59" height = "11" class = "elTypeBkgnd"/>
	<text x = "94" y = "104" class = "elType">bin.base64</text>
	<image xlink:href = "../dgmDtString.gif" width = "10" height = "10" x = "144" y = "91"/>
</svg>