<?xml version = "1.0"?>
<!DOCTYPE svg PUBLIC "-//W3C//DTD SVG 20010904//EN" "http://www.w3.org/TR/2001/REC-SVG-20010904/DTD/svg10.dtd">
<svg width = "209pt" height = "105pt" viewBox = "0 0 209 105" xmlns = "http://www.w3.org/2000/svg" xmlns:xlink = "http://www.w3.org/1999/xlink">
	<defs>
		<style type = "text/css"><![CDATA[
rect.attrGroup { fill: ivory ; stroke: black; stroke-width: 1 }
rect.element { fill: ivory ; stroke: black; stroke-width: 1 }
rect.elTypeBkgnd { fill: lightgray ; stroke: none }
text.elName { font-family: helvetica ; font-size : 10 }
text.elType { font-family: helvetica ; font-size : 7 }
text.occurLarge { font-family: helvetica ; font-size : 9; fill : blue }
text.occurSmall { font-family: helvetica ; font-size : 7; fill : blue }
rect.typeIconDark { fill : darkslategray }
circle.occurs { stroke : black ; stroke-width: 1; fill : white }
circle.ellipsis { fill : black }
path.typeIconDark { stroke : lightgray ; stroke-width: 1 }
path.connector { stroke : red ; stroke-width: 1 ; fill: none; }
path.modelGroup { stroke : black ; stroke-width: 1 ; fill: lightgray; }
polyline.connector { stroke : red ; stroke-width: 1 ; fill: none; }
.nodeStyle { fill : blue }
]]></style>
	</defs>
	<rect x = "5" y = "39" width = "53" height = "27" class = "element"/>
	<polygon class = "nodeStyle" points = "11,41 7,45 11,49 15,45"/>
	<text x = "16" y = "50" class = "elName">Filters</text>
	<rect x = "6" y = "54" width = "51" height = "11" class = "elTypeBkgnd"/>
	<image xlink:href = "../dgmTypeComplex.gif" width = "10" height = "10" x = "48" y = "49"/>
	<polyline class = "connector" points = "88,35 68,52 58,52 68,52 88,86"/>
	<circle class = "occurs" cx = "94" cy = "35" r = "6"/>
	<text x = "91" y = "38" class = "occurLarge">1</text>
	<polyline class = "connector" points = "130,18 110,18 110,35 100,35 110,35 110,52 130,52"/>
	<polyline class = "connector" points = "130,18 142,18"/>
	<rect x = "142" y = "5" width = "61" height = "27" class = "element"/>
	<polygon class = "nodeStyle" points = "148,7 144,11 148,15 152,11"/>
	<text x = "153" y = "16" class = "elName">ExFilter</text>
	<rect x = "143" y = "20" width = "59" height = "11" class = "elTypeBkgnd"/>
	<text x = "143" y = "28" class = "elType">ManufactSpec</text>
	<image xlink:href = "../dgmTypeEmpty.gif" width = "10" height = "10" x = "193" y = "15"/>
	<polyline class = "connector" points = "130,52 142,52"/>
	<rect x = "142" y = "39" width = "62" height = "27" class = "element"/>
	<polygon class = "nodeStyle" points = "148,41 144,45 148,49 152,45"/>
	<text x = "153" y = "50" class = "elName">EmFilter</text>
	<rect x = "143" y = "54" width = "60" height = "11" class = "elTypeBkgnd"/>
	<text x = "143" y = "62" class = "elType">ManufactSpec</text>
	<image xlink:href = "../dgmTypeEmpty.gif" width = "10" height = "10" x = "194" y = "49"/>
	<polyline class = "connector" points = "88,86 100,86"/>
	<rect x = "100" y = "73" width = "63" height = "27" class = "element"/>
	<polygon class = "nodeStyle" points = "106,75 102,79 106,83 110,79"/>
	<text x = "111" y = "84" class = "elName">FilterSet</text>
	<rect x = "101" y = "88" width = "61" height = "11" class = "elTypeBkgnd"/>
	<text x = "101" y = "96" class = "elType">ManufactSpec</text>
	<image xlink:href = "../dgmTypeEmpty.gif" width = "10" height = "10" x = "153" y = "83"/>
</svg>