<?xml version = "1.0"?>
<!DOCTYPE svg PUBLIC "-//W3C//DTD SVG 20010904//EN" "http://www.w3.org/TR/2001/REC-SVG-20010904/DTD/svg10.dtd">
<svg width = "236pt" height = "215pt" viewBox = "0 0 236 215" xmlns = "http://www.w3.org/2000/svg" xmlns:xlink = "http://www.w3.org/1999/xlink">
	<defs>
		<style type = "text/css"><![CDATA[
rect.attrGroup { fill: ivory ; stroke: black; stroke-width: 1 }
rect.element { fill: ivory ; stroke: black; stroke-width: 1 }
rect.elTypeBkgnd { fill: lightgray ; stroke: none }
text.elName { font-family: helvetica ; font-size : 10 }
text.elType { font-family: helvetica ; font-size : 7 }
text.occurLarge { font-family: helvetica ; font-size : 9; fill : blue }
text.occurSmall { font-family: helvetica ; font-size : 7; fill : blue }
rect.typeIconDark { fill : darkslategray }
circle.occurs { stroke : black ; stroke-width: 1; fill : white }
circle.ellipsis { fill : black }
path.typeIconDark { stroke : lightgray ; stroke-width: 1 }
path.connector { stroke : red ; stroke-width: 1 ; fill: none; }
path.modelGroup { stroke : black ; stroke-width: 1 ; fill: lightgray; }
polyline.connector { stroke : red ; stroke-width: 1 ; fill: none; }
.nodeStyle { fill : blue }
]]></style>
	</defs>
	<rect x = "134" y = "5" width = "97" height = "37" class = "attrGroup" rx = "5" ry = "5"/>
	<rect x = "139" y = "10" width = "87" height = "27" class = "element" rx = "5" ry = "5"/>
	<circle class = "nodeStyle" cx = "145" cy = "16" r = "4"/>
	<text x = "150" y = "21" class = "elName">WaveNumber</text>
	<rect x = "140" y = "11" width = "85" height = "25" class = "elTypeBkgnd" rx = "5" ry = "5" clip-path = "url(#e:WavelengthInfo/a:WaveNumber)"/>
	<defs/>
	<clipPath id = "e:WavelengthInfo/a:WaveNumber">
		<rect x = "139" y = "25" width = "87" height = "11"/>
	</clipPath>
	<text x = "140" y = "33" class = "elType">int</text>
	<image xlink:href = "../dgmDtInteger.gif" width = "10" height = "10" x = "216" y = "20"/>
	<rect x = "5" y = "115" width = "99" height = "27" class = "element"/>
	<polygon class = "nodeStyle" points = "11,117 7,121 11,125 15,121"/>
	<text x = "16" y = "126" class = "elName">WavelengthInfo</text>
	<rect x = "6" y = "130" width = "97" height = "11" class = "elTypeBkgnd"/>
	<image xlink:href = "../dgmTypeComplex.gif" width = "10" height = "10" x = "94" y = "125"/>
	<polyline class = "connector" points = "134,60 114,60 114,128 104,128 114,128 114,196 134,196"/>
	<polyline class = "connector" points = "104,126 112,126 112,23 134,23"/>
	<circle class = "occurs" cx = "140" cy = "60" r = "6"/>
	<text x = "137" y = "63" class = "occurLarge">?</text>
	<rect x = "146" y = "47" width = "60" height = "27" class = "element"/>
	<polygon class = "nodeStyle" points = "152,49 148,53 152,57 156,53"/>
	<text x = "157" y = "58" class = "elName">ExWave</text>
	<rect x = "147" y = "62" width = "58" height = "11" class = "elTypeBkgnd"/>
	<text x = "147" y = "70" class = "elType">int</text>
	<image xlink:href = "../dgmDtInteger.gif" width = "10" height = "10" x = "196" y = "57"/>
	<circle class = "occurs" cx = "140" cy = "94" r = "6"/>
	<text x = "137" y = "97" class = "occurLarge">?</text>
	<rect x = "146" y = "81" width = "63" height = "27" class = "element"/>
	<polygon class = "nodeStyle" points = "152,83 148,87 152,91 156,87"/>
	<text x = "157" y = "92" class = "elName">EmWave</text>
	<rect x = "147" y = "96" width = "61" height = "11" class = "elTypeBkgnd"/>
	<text x = "147" y = "104" class = "elType">int</text>
	<image xlink:href = "../dgmDtInteger.gif" width = "10" height = "10" x = "199" y = "91"/>
	<circle class = "occurs" cx = "140" cy = "128" r = "6"/>
	<text x = "137" y = "131" class = "occurLarge">?</text>
	<rect x = "146" y = "115" width = "47" height = "27" class = "element"/>
	<polygon class = "nodeStyle" points = "152,117 148,121 152,125 156,121"/>
	<text x = "157" y = "126" class = "elName">Fluor</text>
	<rect x = "147" y = "130" width = "45" height = "11" class = "elTypeBkgnd"/>
	<text x = "147" y = "138" class = "elType">string</text>
	<image xlink:href = "../dgmDtString.gif" width = "10" height = "10" x = "183" y = "125"/>
	<circle class = "occurs" cx = "140" cy = "162" r = "6"/>
	<text x = "137" y = "165" class = "occurLarge">?</text>
	<rect x = "146" y = "149" width = "61" height = "27" class = "element"/>
	<polygon class = "nodeStyle" points = "152,151 148,155 152,159 156,155"/>
	<text x = "157" y = "160" class = "elName">NDfilter</text>
	<rect x = "147" y = "164" width = "59" height = "11" class = "elTypeBkgnd"/>
	<image xlink:href = "../dgmDtFloat.gif" width = "10" height = "10" x = "197" y = "159"/>
	<circle class = "occurs" cx = "140" cy = "196" r = "6"/>
	<text x = "137" y = "199" class = "occurLarge">*</text>
	<rect x = "146" y = "183" width = "72" height = "27" class = "element"/>
	<polygon class = "nodeStyle" points = "152,185 148,189 152,193 156,189"/>
	<text x = "157" y = "194" class = "elName">#wildCard</text>
	<rect x = "147" y = "198" width = "70" height = "11" class = "elTypeBkgnd"/>
	<text x = "147" y = "206" class = "elType">?</text>
</svg>