<?xml version = "1.0"?>
<!DOCTYPE svg PUBLIC "-//W3C//DTD SVG 20010904//EN" "http://www.w3.org/TR/2001/REC-SVG-20010904/DTD/svg10.dtd">
<svg width = "227pt" height = "139pt" viewBox = "0 0 227 139" xmlns = "http://www.w3.org/2000/svg" xmlns:xlink = "http://www.w3.org/1999/xlink">
	<defs>
		<style type = "text/css"><![CDATA[
rect.attrGroup { fill: ivory ; stroke: black; stroke-width: 1 }
rect.element { fill: ivory ; stroke: black; stroke-width: 1 }
rect.elTypeBkgnd { fill: lightgray ; stroke: none }
text.elName { font-family: helvetica ; font-size : 10 }
text.elType { font-family: helvetica ; font-size : 7 }
text.occurLarge { font-family: helvetica ; font-size : 9; fill : blue }
text.occurSmall { font-family: helvetica ; font-size : 7; fill : blue }
rect.typeIconDark { fill : darkslategray }
circle.occurs { stroke : black ; stroke-width: 1; fill : white }
circle.ellipsis { fill : black }
path.typeIconDark { stroke : lightgray ; stroke-width: 1 }
path.connector { stroke : red ; stroke-width: 1 ; fill: none; }
path.modelGroup { stroke : black ; stroke-width: 1 ; fill: lightgray; }
polyline.connector { stroke : red ; stroke-width: 1 ; fill: none; }
.nodeStyle { fill : blue }
]]></style>
	</defs>
	<rect x = "5" y = "56" width = "61" height = "27" class = "element"/>
	<polygon class = "nodeStyle" points = "11,58 7,62 11,66 15,62"/>
	<text x = "16" y = "67" class = "elName">Contact</text>
	<rect x = "6" y = "71" width = "59" height = "11" class = "elTypeBkgnd"/>
	<text x = "6" y = "79" class = "elType">ContactType</text>
	<image xlink:href = "../dgmTypeComplex.gif" width = "10" height = "10" x = "56" y = "66"/>
	<polyline class = "connector" points = "96,52 76,69 66,69 76,69 96,120"/>
	<circle class = "occurs" cx = "102" cy = "52" r = "6"/>
	<text x = "99" y = "55" class = "occurLarge">1</text>
	<polyline class = "connector" points = "138,18 118,18 118,52 108,52 118,52 118,86 138,86"/>
	<polyline class = "connector" points = "138,18 150,18"/>
	<rect x = "150" y = "5" width = "72" height = "27" class = "element"/>
	<polygon class = "nodeStyle" points = "156,7 152,11 156,15 160,11"/>
	<text x = "161" y = "16" class = "elName">FirstName</text>
	<rect x = "151" y = "20" width = "70" height = "11" class = "elTypeBkgnd"/>
	<text x = "151" y = "28" class = "elType">string</text>
	<image xlink:href = "../dgmDtString.gif" width = "10" height = "10" x = "212" y = "15"/>
	<rect x = "150" y = "39" width = "71" height = "27" class = "element"/>
	<polygon class = "nodeStyle" points = "156,41 152,45 156,49 160,45"/>
	<text x = "161" y = "50" class = "elName">LastName</text>
	<rect x = "151" y = "54" width = "69" height = "11" class = "elTypeBkgnd"/>
	<text x = "151" y = "62" class = "elType">string</text>
	<image xlink:href = "../dgmDtString.gif" width = "10" height = "10" x = "211" y = "49"/>
	<polyline class = "connector" points = "138,86 150,86"/>
	<rect x = "150" y = "73" width = "50" height = "27" class = "element"/>
	<polygon class = "nodeStyle" points = "156,75 152,79 156,83 160,79"/>
	<text x = "161" y = "84" class = "elName">email</text>
	<rect x = "151" y = "88" width = "48" height = "11" class = "elTypeBkgnd"/>
	<text x = "151" y = "96" class = "elType">string</text>
	<image xlink:href = "../dgmDtString.gif" width = "10" height = "10" x = "190" y = "83"/>
	<polyline class = "connector" points = "96,120 108,120"/>
	<rect x = "108" y = "107" width = "104" height = "27" class = "element"/>
	<polygon class = "nodeStyle" points = "114,109 110,113 114,117 118,113"/>
	<text x = "119" y = "118" class = "elName">ExperimenterRef</text>
	<rect x = "109" y = "122" width = "102" height = "11" class = "elTypeBkgnd"/>
	<image xlink:href = "../dgmTypeEmpty.gif" width = "10" height = "10" x = "202" y = "117"/>
</svg>