<?xml version = "1.0"?>
<!DOCTYPE svg PUBLIC "-//W3C//DTD SVG 20010904//EN" "http://www.w3.org/TR/2001/REC-SVG-20010904/DTD/svg10.dtd">
<svg width = "392pt" height = "47pt" viewBox = "0 0 392 47" xmlns = "http://www.w3.org/2000/svg" xmlns:xlink = "http://www.w3.org/1999/xlink">
	<defs>
		<style type = "text/css"><![CDATA[
rect.attrGroup { fill: ivory ; stroke: black; stroke-width: 1 }
rect.element { fill: ivory ; stroke: black; stroke-width: 1 }
rect.elTypeBkgnd { fill: lightgray ; stroke: none }
text.elName { font-family: helvetica ; font-size : 10 }
text.elType { font-family: helvetica ; font-size : 7 }
text.occurLarge { font-family: helvetica ; font-size : 9; fill : blue }
text.occurSmall { font-family: helvetica ; font-size : 7; fill : blue }
rect.typeIconDark { fill : darkslategray }
circle.occurs { stroke : black ; stroke-width: 1; fill : white }
circle.ellipsis { fill : black }
path.typeIconDark { stroke : lightgray ; stroke-width: 1 }
path.connector { stroke : red ; stroke-width: 1 ; fill: none; }
path.modelGroup { stroke : black ; stroke-width: 1 ; fill: lightgray; }
polyline.connector { stroke : red ; stroke-width: 1 ; fill: none; }
.nodeStyle { fill : blue }
]]></style>
	</defs>
	<rect x = "5" y = "10" width = "67" height = "27" class = "element"/>
	<polygon class = "nodeStyle" points = "11,12 7,16 11,20 15,16"/>
	<text x = "16" y = "21" class = "elName">RedWave</text>
	<rect x = "6" y = "25" width = "65" height = "11" class = "elTypeBkgnd"/>
	<text x = "6" y = "33" class = "elType">WaveScaleType</text>
	<image xlink:href = "../dgmTypeEmpty.gif" width = "10" height = "10" x = "62" y = "20"/>
	<polyline class = "connector" points = "72,23 102,23"/>
	<rect x = "102" y = "5" width = "285" height = "37" class = "attrGroup" rx = "5" ry = "5"/>
	<rect x = "107" y = "10" width = "42" height = "27" class = "element" rx = "5" ry = "5"/>
	<circle class = "nodeStyle" cx = "113" cy = "16" r = "4"/>
	<text x = "118" y = "21" class = "elName">Clip</text>
	<rect x = "108" y = "11" width = "40" height = "25" class = "elTypeBkgnd" rx = "5" ry = "5" clip-path = "url(#t:WaveScaleType/a:Clip)"/>
	<defs/>
	<clipPath id = "t:WaveScaleType/a:Clip">
		<rect x = "107" y = "25" width = "42" height = "11"/>
	</clipPath>
	<text x = "108" y = "33" class = "elType">int</text>
	<image xlink:href = "../dgmDtInteger.gif" width = "10" height = "10" x = "139" y = "20"/>
	<circle class = "occurs" cx = "252" cy = "23" r = "6"/>
	<text x = "249" y = "26" class = "occurLarge">?</text>
	<rect x = "258" y = "10" width = "48" height = "27" class = "element" rx = "5" ry = "5"/>
	<circle class = "nodeStyle" cx = "264" cy = "16" r = "4"/>
	<text x = "269" y = "21" class = "elName">Scale</text>
	<rect x = "259" y = "11" width = "46" height = "25" class = "elTypeBkgnd" rx = "5" ry = "5" clip-path = "url(#t:WaveScaleType/a:Scale)"/>
	<defs/>
	<clipPath id = "t:WaveScaleType/a:Scale">
		<rect x = "258" y = "25" width = "48" height = "11"/>
	</clipPath>
	<text x = "259" y = "33" class = "elType">float</text>
	<image xlink:href = "../dgmDtFloat.gif" width = "10" height = "10" x = "296" y = "20"/>
	<rect x = "311" y = "10" width = "71" height = "27" class = "element" rx = "5" ry = "5"/>
	<circle class = "nodeStyle" cx = "317" cy = "16" r = "4"/>
	<text x = "322" y = "21" class = "elName">Threshold</text>
	<rect x = "312" y = "11" width = "69" height = "25" class = "elTypeBkgnd" rx = "5" ry = "5" clip-path = "url(#t:WaveScaleType/a:Threshold)"/>
	<defs/>
	<clipPath id = "t:WaveScaleType/a:Threshold">
		<rect x = "311" y = "25" width = "71" height = "11"/>
	</clipPath>
	<text x = "312" y = "33" class = "elType">int</text>
	<image xlink:href = "../dgmDtInteger.gif" width = "10" height = "10" x = "372" y = "20"/>
	<rect x = "154" y = "10" width = "87" height = "27" class = "element" rx = "5" ry = "5"/>
	<circle class = "nodeStyle" cx = "160" cy = "16" r = "4"/>
	<text x = "165" y = "21" class = "elName">WaveNumber</text>
	<rect x = "155" y = "11" width = "85" height = "25" class = "elTypeBkgnd" rx = "5" ry = "5" clip-path = "url(#t:WaveScaleType/a:WaveNumber)"/>
	<defs/>
	<clipPath id = "t:WaveScaleType/a:WaveNumber">
		<rect x = "154" y = "25" width = "87" height = "11"/>
	</clipPath>
	<text x = "155" y = "33" class = "elType">int</text>
	<image xlink:href = "../dgmDtInteger.gif" width = "10" height = "10" x = "231" y = "20"/>
</svg>