<?xml version = "1.0"?>
<!DOCTYPE svg PUBLIC "-//W3C//DTD SVG 20010904//EN" "http://www.w3.org/TR/2001/REC-SVG-20010904/DTD/svg10.dtd">
<svg width = "454pt" height = "651pt" viewBox = "0 0 454 651" xmlns = "http://www.w3.org/2000/svg" xmlns:xlink = "http://www.w3.org/1999/xlink">
	<defs>
		<style type = "text/css"><![CDATA[
rect.attrGroup { fill: ivory ; stroke: black; stroke-width: 1 }
rect.element { fill: ivory ; stroke: black; stroke-width: 1 }
rect.elTypeBkgnd { fill: lightgray ; stroke: none }
text.elName { font-family: helvetica ; font-size : 10 }
text.elType { font-family: helvetica ; font-size : 7 }
text.occurLarge { font-family: helvetica ; font-size : 9; fill : blue }
text.occurSmall { font-family: helvetica ; font-size : 7; fill : blue }
rect.typeIconDark { fill : darkslategray }
circle.occurs { stroke : black ; stroke-width: 1; fill : white }
circle.ellipsis { fill : black }
path.typeIconDark { stroke : lightgray ; stroke-width: 1 }
path.connector { stroke : red ; stroke-width: 1 ; fill: none; }
path.modelGroup { stroke : black ; stroke-width: 1 ; fill: lightgray; }
polyline.connector { stroke : red ; stroke-width: 1 ; fill: none; }
.nodeStyle { fill : blue }
]]></style>
	</defs>
	<rect x = "96" y = "5" width = "353" height = "133" class = "attrGroup" rx = "5" ry = "5"/>
	<rect x = "101" y = "10" width = "51" height = "27" class = "element" rx = "5" ry = "5"/>
	<circle class = "nodeStyle" cx = "107" cy = "16" r = "4"/>
	<text x = "112" y = "21" class = "elName">Name</text>
	<rect x = "102" y = "11" width = "49" height = "25" class = "elTypeBkgnd" rx = "5" ry = "5" clip-path = "url(#e:Dataset/a:Name)"/>
	<defs/>
	<clipPath id = "e:Dataset/a:Name">
		<rect x = "101" y = "25" width = "51" height = "11"/>
	</clipPath>
	<text x = "102" y = "33" class = "elType">string</text>
	<image xlink:href = "../dgmDtString.gif" width = "10" height = "10" x = "142" y = "20"/>
	<circle class = "occurs" cx = "278" cy = "23" r = "6"/>
	<text x = "275" y = "26" class = "occurLarge">?</text>
	<rect x = "284" y = "10" width = "47" height = "27" class = "element" rx = "5" ry = "5"/>
	<circle class = "nodeStyle" cx = "290" cy = "16" r = "4"/>
	<text x = "295" y = "21" class = "elName">GUID</text>
	<rect x = "285" y = "11" width = "45" height = "25" class = "elTypeBkgnd" rx = "5" ry = "5" clip-path = "url(#e:Dataset/a:GUID)"/>
	<defs/>
	<clipPath id = "e:Dataset/a:GUID">
		<rect x = "284" y = "25" width = "47" height = "11"/>
	</clipPath>
	<text x = "285" y = "33" class = "elType">Hex40</text>
	<image xlink:href = "../dgmDtString.gif" width = "10" height = "10" x = "321" y = "20"/>
	<rect x = "101" y = "42" width = "64" height = "27" class = "element" rx = "5" ry = "5"/>
	<circle class = "nodeStyle" cx = "107" cy = "48" r = "4"/>
	<text x = "112" y = "53" class = "elName">SizeX</text>
	<rect x = "102" y = "43" width = "62" height = "25" class = "elTypeBkgnd" rx = "5" ry = "5" clip-path = "url(#e:Dataset/a:SizeX)"/>
	<defs/>
	<clipPath id = "e:Dataset/a:SizeX">
		<rect x = "101" y = "57" width = "64" height = "11"/>
	</clipPath>
	<text x = "102" y = "65" class = "elType">positiveInteger</text>
	<image xlink:href = "../dgmDtInteger.gif" width = "10" height = "10" x = "155" y = "52"/>
	<rect x = "259" y = "42" width = "64" height = "27" class = "element" rx = "5" ry = "5"/>
	<circle class = "nodeStyle" cx = "265" cy = "48" r = "4"/>
	<text x = "270" y = "53" class = "elName">SizeY</text>
	<rect x = "260" y = "43" width = "62" height = "25" class = "elTypeBkgnd" rx = "5" ry = "5" clip-path = "url(#e:Dataset/a:SizeY)"/>
	<defs/>
	<clipPath id = "e:Dataset/a:SizeY">
		<rect x = "259" y = "57" width = "64" height = "11"/>
	</clipPath>
	<text x = "260" y = "65" class = "elType">positiveInteger</text>
	<image xlink:href = "../dgmDtInteger.gif" width = "10" height = "10" x = "313" y = "52"/>
	<rect x = "101" y = "74" width = "64" height = "27" class = "element" rx = "5" ry = "5"/>
	<circle class = "nodeStyle" cx = "107" cy = "80" r = "4"/>
	<text x = "112" y = "85" class = "elName">SizeZ</text>
	<rect x = "102" y = "75" width = "62" height = "25" class = "elTypeBkgnd" rx = "5" ry = "5" clip-path = "url(#e:Dataset/a:SizeZ)"/>
	<defs/>
	<clipPath id = "e:Dataset/a:SizeZ">
		<rect x = "101" y = "89" width = "64" height = "11"/>
	</clipPath>
	<text x = "102" y = "97" class = "elType">positiveInteger</text>
	<image xlink:href = "../dgmDtInteger.gif" width = "10" height = "10" x = "155" y = "84"/>
	<rect x = "251" y = "74" width = "73" height = "27" class = "element" rx = "5" ry = "5"/>
	<circle class = "nodeStyle" cx = "257" cy = "80" r = "4"/>
	<text x = "262" y = "85" class = "elName">PixelSizeX</text>
	<rect x = "252" y = "75" width = "71" height = "25" class = "elTypeBkgnd" rx = "5" ry = "5" clip-path = "url(#e:Dataset/a:PixelSizeX)"/>
	<defs/>
	<clipPath id = "e:Dataset/a:PixelSizeX">
		<rect x = "251" y = "89" width = "73" height = "11"/>
	</clipPath>
	<text x = "252" y = "97" class = "elType">float</text>
	<image xlink:href = "../dgmDtFloat.gif" width = "10" height = "10" x = "314" y = "84"/>
	<rect x = "101" y = "106" width = "73" height = "27" class = "element" rx = "5" ry = "5"/>
	<circle class = "nodeStyle" cx = "107" cy = "112" r = "4"/>
	<text x = "112" y = "117" class = "elName">PixelSizeY</text>
	<rect x = "102" y = "107" width = "71" height = "25" class = "elTypeBkgnd" rx = "5" ry = "5" clip-path = "url(#e:Dataset/a:PixelSizeY)"/>
	<defs/>
	<clipPath id = "e:Dataset/a:PixelSizeY">
		<rect x = "101" y = "121" width = "73" height = "11"/>
	</clipPath>
	<text x = "102" y = "129" class = "elType">float</text>
	<image xlink:href = "../dgmDtFloat.gif" width = "10" height = "10" x = "164" y = "116"/>
	<rect x = "179" y = "106" width = "73" height = "27" class = "element" rx = "5" ry = "5"/>
	<circle class = "nodeStyle" cx = "185" cy = "112" r = "4"/>
	<text x = "190" y = "117" class = "elName">PixelSizeZ</text>
	<rect x = "180" y = "107" width = "71" height = "25" class = "elTypeBkgnd" rx = "5" ry = "5" clip-path = "url(#e:Dataset/a:PixelSizeZ)"/>
	<defs/>
	<clipPath id = "e:Dataset/a:PixelSizeZ">
		<rect x = "179" y = "121" width = "73" height = "11"/>
	</clipPath>
	<text x = "180" y = "129" class = "elType">float</text>
	<image xlink:href = "../dgmDtFloat.gif" width = "10" height = "10" x = "242" y = "116"/>
	<rect x = "329" y = "74" width = "74" height = "27" class = "element" rx = "5" ry = "5"/>
	<circle class = "nodeStyle" cx = "335" cy = "80" r = "4"/>
	<text x = "340" y = "85" class = "elName">NumTimes</text>
	<rect x = "330" y = "75" width = "72" height = "25" class = "elTypeBkgnd" rx = "5" ry = "5" clip-path = "url(#e:Dataset/a:NumTimes)"/>
	<defs/>
	<clipPath id = "e:Dataset/a:NumTimes">
		<rect x = "329" y = "89" width = "74" height = "11"/>
	</clipPath>
	<text x = "330" y = "97" class = "elType">positiveInteger</text>
	<image xlink:href = "../dgmDtInteger.gif" width = "10" height = "10" x = "393" y = "84"/>
	<rect x = "170" y = "74" width = "76" height = "27" class = "element" rx = "5" ry = "5"/>
	<circle class = "nodeStyle" cx = "176" cy = "80" r = "4"/>
	<text x = "181" y = "85" class = "elName">NumWaves</text>
	<rect x = "171" y = "75" width = "74" height = "25" class = "elTypeBkgnd" rx = "5" ry = "5" clip-path = "url(#e:Dataset/a:NumWaves)"/>
	<defs/>
	<clipPath id = "e:Dataset/a:NumWaves">
		<rect x = "170" y = "89" width = "76" height = "11"/>
	</clipPath>
	<text x = "171" y = "97" class = "elType">positiveInteger</text>
	<image xlink:href = "../dgmDtInteger.gif" width = "10" height = "10" x = "236" y = "84"/>
	<rect x = "328" y = "42" width = "84" height = "27" class = "element" rx = "5" ry = "5"/>
	<circle class = "nodeStyle" cx = "334" cy = "48" r = "4"/>
	<text x = "339" y = "53" class = "elName">DatasetType</text>
	<rect x = "329" y = "43" width = "82" height = "25" class = "elTypeBkgnd" rx = "5" ry = "5" clip-path = "url(#e:Dataset/a:DatasetType)"/>
	<defs/>
	<clipPath id = "e:Dataset/a:DatasetType">
		<rect x = "328" y = "57" width = "84" height = "11"/>
	</clipPath>
	<text x = "329" y = "65" class = "elType">string</text>
	<image xlink:href = "../dgmDtString.gif" width = "10" height = "10" x = "402" y = "52"/>
	<circle class = "occurs" cx = "176" cy = "55" r = "6"/>
	<text x = "173" y = "58" class = "occurLarge">?</text>
	<rect x = "182" y = "42" width = "72" height = "27" class = "element" rx = "5" ry = "5"/>
	<circle class = "nodeStyle" cx = "188" cy = "48" r = "4"/>
	<text x = "193" y = "53" class = "elName">WaveStart</text>
	<rect x = "183" y = "43" width = "70" height = "25" class = "elTypeBkgnd" rx = "5" ry = "5" clip-path = "url(#e:Dataset/a:WaveStart)"/>
	<defs/>
	<clipPath id = "e:Dataset/a:WaveStart">
		<rect x = "182" y = "57" width = "72" height = "11"/>
	</clipPath>
	<text x = "183" y = "65" class = "elType">int</text>
	<image xlink:href = "../dgmDtInteger.gif" width = "10" height = "10" x = "244" y = "52"/>
	<circle class = "occurs" cx = "342" cy = "23" r = "6"/>
	<text x = "339" y = "26" class = "occurLarge">?</text>
	<rect x = "348" y = "10" width = "96" height = "27" class = "element" rx = "5" ry = "5"/>
	<circle class = "nodeStyle" cx = "354" cy = "16" r = "4"/>
	<text x = "359" y = "21" class = "elName">TimeIncrement</text>
	<rect x = "349" y = "11" width = "94" height = "25" class = "elTypeBkgnd" rx = "5" ry = "5" clip-path = "url(#e:Dataset/a:TimeIncrement)"/>
	<defs/>
	<clipPath id = "e:Dataset/a:TimeIncrement">
		<rect x = "348" y = "25" width = "96" height = "11"/>
	</clipPath>
	<text x = "349" y = "33" class = "elType">float</text>
	<image xlink:href = "../dgmDtFloat.gif" width = "10" height = "10" x = "434" y = "20"/>
	<circle class = "occurs" cx = "163" cy = "23" r = "6"/>
	<text x = "160" y = "26" class = "occurLarge">?</text>
	<rect x = "169" y = "10" width = "98" height = "27" class = "element" rx = "5" ry = "5"/>
	<circle class = "nodeStyle" cx = "175" cy = "16" r = "4"/>
	<text x = "180" y = "21" class = "elName">WaveIncrement</text>
	<rect x = "170" y = "11" width = "96" height = "25" class = "elTypeBkgnd" rx = "5" ry = "5" clip-path = "url(#e:Dataset/a:WaveIncrement)"/>
	<defs/>
	<clipPath id = "e:Dataset/a:WaveIncrement">
		<rect x = "169" y = "25" width = "98" height = "11"/>
	</clipPath>
	<text x = "170" y = "33" class = "elType">int</text>
	<image xlink:href = "../dgmDtInteger.gif" width = "10" height = "10" x = "257" y = "20"/>
	<rect x = "5" y = "381" width = "61" height = "27" class = "element"/>
	<polygon class = "nodeStyle" points = "11,383 7,387 11,391 15,387"/>
	<text x = "16" y = "392" class = "elName">Dataset</text>
	<rect x = "6" y = "396" width = "59" height = "11" class = "elTypeBkgnd"/>
	<image xlink:href = "../dgmTypeComplex.gif" width = "10" height = "10" x = "56" y = "391"/>
	<polyline class = "connector" points = "96,156 76,156 76,394 66,394 76,394 76,632 96,632"/>
	<polyline class = "connector" points = "66,392 74,392 74,71 96,71"/>
	<polyline class = "connector" points = "96,156 108,156"/>
	<rect x = "108" y = "143" width = "88" height = "27" class = "element"/>
	<polygon class = "nodeStyle" points = "114,145 110,149 114,153 118,149"/>
	<text x = "119" y = "154" class = "elName">CreationDate</text>
	<rect x = "109" y = "158" width = "86" height = "11" class = "elTypeBkgnd"/>
	<text x = "109" y = "166" class = "elType">dateTime</text>
	<image xlink:href = "../dgmDtDate.gif" width = "10" height = "10" x = "186" y = "153"/>
	<circle class = "occurs" cx = "102" cy = "190" r = "6"/>
	<text x = "99" y = "193" class = "occurLarge">?</text>
	<rect x = "108" y = "177" width = "78" height = "27" class = "element"/>
	<polygon class = "nodeStyle" points = "114,179 110,183 114,187 118,183"/>
	<text x = "119" y = "188" class = "elName">Description</text>
	<rect x = "109" y = "192" width = "76" height = "11" class = "elTypeBkgnd"/>
	<text x = "109" y = "200" class = "elType">string</text>
	<image xlink:href = "../dgmDtString.gif" width = "10" height = "10" x = "176" y = "187"/>
	<circle class = "occurs" cx = "102" cy = "224" r = "6"/>
	<text x = "99" y = "227" class = "occurLarge">?</text>
	<rect x = "108" y = "211" width = "104" height = "27" class = "element"/>
	<polygon class = "nodeStyle" points = "114,213 110,217 114,221 118,217"/>
	<text x = "119" y = "222" class = "elName">ExperimenterRef</text>
	<rect x = "109" y = "226" width = "102" height = "11" class = "elTypeBkgnd"/>
	<image xlink:href = "../dgmTypeEmpty.gif" width = "10" height = "10" x = "202" y = "221"/>
	<circle class = "occurs" cx = "102" cy = "258" r = "6"/>
	<text x = "99" y = "261" class = "occurLarge">?</text>
	<rect x = "108" y = "245" width = "68" height = "27" class = "element"/>
	<polygon class = "nodeStyle" points = "114,247 110,251 114,255 118,251"/>
	<text x = "119" y = "256" class = "elName">GroupRef</text>
	<rect x = "109" y = "260" width = "66" height = "11" class = "elTypeBkgnd"/>
	<image xlink:href = "../dgmTypeEmpty.gif" width = "10" height = "10" x = "166" y = "255"/>
	<circle class = "occurs" cx = "102" cy = "292" r = "6"/>
	<text x = "99" y = "295" class = "occurLarge">*</text>
	<rect x = "108" y = "279" width = "73" height = "27" class = "element"/>
	<polygon class = "nodeStyle" points = "114,281 110,285 114,289 118,285"/>
	<text x = "119" y = "290" class = "elName">ProjectRef</text>
	<rect x = "109" y = "294" width = "71" height = "11" class = "elTypeBkgnd"/>
	<image xlink:href = "../dgmTypeEmpty.gif" width = "10" height = "10" x = "171" y = "289"/>
	<circle class = "occurs" cx = "102" cy = "326" r = "6"/>
	<text x = "99" y = "329" class = "occurLarge">?</text>
	<rect x = "108" y = "313" width = "92" height = "27" class = "element"/>
	<polygon class = "nodeStyle" points = "114,315 110,319 114,323 118,319"/>
	<text x = "119" y = "324" class = "elName">InstrumentRef</text>
	<rect x = "109" y = "328" width = "90" height = "11" class = "elTypeBkgnd"/>
	<image xlink:href = "../dgmTypeEmpty.gif" width = "10" height = "10" x = "190" y = "323"/>
	<circle class = "occurs" cx = "102" cy = "360" r = "6"/>
	<text x = "99" y = "363" class = "occurLarge">?</text>
	<rect x = "108" y = "347" width = "74" height = "27" class = "element"/>
	<polygon class = "nodeStyle" points = "114,349 110,353 114,357 118,353"/>
	<text x = "119" y = "358" class = "elName">Thumbnail</text>
	<rect x = "109" y = "362" width = "72" height = "11" class = "elTypeBkgnd"/>
	<image xlink:href = "../dgmTypeComplex.gif" width = "10" height = "10" x = "172" y = "357"/>
	<circle class = "occurs" cx = "102" cy = "394" r = "6"/>
	<text x = "99" y = "397" class = "occurLarge">*</text>
	<rect x = "108" y = "381" width = "54" height = "27" class = "element"/>
	<polygon class = "nodeStyle" points = "114,383 110,387 114,391 118,387"/>
	<text x = "119" y = "392" class = "elName">XYinfo</text>
	<rect x = "109" y = "396" width = "52" height = "11" class = "elTypeBkgnd"/>
	<image xlink:href = "../dgmTypeComplex.gif" width = "10" height = "10" x = "152" y = "391"/>
	<circle class = "occurs" cx = "102" cy = "428" r = "6"/>
	<text x = "99" y = "431" class = "occurLarge">*</text>
	<rect x = "108" y = "415" width = "60" height = "27" class = "element"/>
	<polygon class = "nodeStyle" points = "114,417 110,421 114,425 118,421"/>
	<text x = "119" y = "426" class = "elName">XYZinfo</text>
	<rect x = "109" y = "430" width = "58" height = "11" class = "elTypeBkgnd"/>
	<image xlink:href = "../dgmTypeComplex.gif" width = "10" height = "10" x = "158" y = "425"/>
	<circle class = "occurs" cx = "102" cy = "462" r = "6"/>
	<text x = "99" y = "465" class = "occurLarge">*</text>
	<rect x = "108" y = "449" width = "99" height = "27" class = "element"/>
	<polygon class = "nodeStyle" points = "114,451 110,455 114,459 118,455"/>
	<text x = "119" y = "460" class = "elName">WavelengthInfo</text>
	<rect x = "109" y = "464" width = "97" height = "11" class = "elTypeBkgnd"/>
	<image xlink:href = "../dgmTypeComplex.gif" width = "10" height = "10" x = "197" y = "459"/>
	<circle class = "occurs" cx = "102" cy = "496" r = "6"/>
	<text x = "99" y = "499" class = "occurLarge">?</text>
	<rect x = "108" y = "483" width = "96" height = "27" class = "element"/>
	<polygon class = "nodeStyle" points = "114,485 110,489 114,493 118,489"/>
	<text x = "119" y = "494" class = "elName">DisplayOptions</text>
	<rect x = "109" y = "498" width = "94" height = "11" class = "elTypeBkgnd"/>
	<image xlink:href = "../dgmTypeComplex.gif" width = "10" height = "10" x = "194" y = "493"/>
	<circle class = "occurs" cx = "102" cy = "547" r = "6"/>
	<text x = "99" y = "550" class = "occurLarge">?</text>
	<polyline class = "connector" points = "138,530 118,547 108,547 118,547 138,564"/>
	<polyline class = "connector" points = "138,530 150,530"/>
	<rect x = "150" y = "517" width = "76" height = "27" class = "element"/>
	<polygon class = "nodeStyle" points = "156,519 152,523 156,527 160,523"/>
	<text x = "161" y = "528" class = "elName">StageLabel</text>
	<rect x = "151" y = "532" width = "74" height = "11" class = "elTypeBkgnd"/>
	<text x = "151" y = "540" class = "elType">string</text>
	<image xlink:href = "../dgmDtString.gif" width = "10" height = "10" x = "216" y = "527"/>
	<polyline class = "connector" points = "138,564 150,564"/>
	<rect x = "150" y = "551" width = "67" height = "27" class = "element"/>
	<polygon class = "nodeStyle" points = "156,553 152,557 156,561 160,557"/>
	<text x = "161" y = "562" class = "elName">PlateInfo</text>
	<rect x = "151" y = "566" width = "65" height = "11" class = "elTypeBkgnd"/>
	<image xlink:href = "../dgmTypeComplex.gif" width = "10" height = "10" x = "207" y = "561"/>
	<rect x = "108" y = "585" width = "46" height = "27" class = "element"/>
	<polygon class = "nodeStyle" points = "114,587 110,591 114,595 118,591"/>
	<text x = "119" y = "596" class = "elName">Data</text>
	<rect x = "109" y = "600" width = "44" height = "11" class = "elTypeBkgnd"/>
	<image xlink:href = "../dgmTypeComplex.gif" width = "10" height = "10" x = "144" y = "595"/>
	<circle class = "occurs" cx = "102" cy = "632" r = "6"/>
	<text x = "99" y = "635" class = "occurLarge">*</text>
	<rect x = "108" y = "619" width = "72" height = "27" class = "element"/>
	<polygon class = "nodeStyle" points = "114,621 110,625 114,629 118,625"/>
	<text x = "119" y = "630" class = "elName">#wildCard</text>
	<rect x = "109" y = "634" width = "70" height = "11" class = "elTypeBkgnd"/>
	<text x = "109" y = "642" class = "elType">?</text>
</svg>