<?xml version = "1.0"?>
<!DOCTYPE svg PUBLIC "-//W3C//DTD SVG 20010904//EN" "http://www.w3.org/TR/2001/REC-SVG-20010904/DTD/svg10.dtd">
<svg width = "274pt" height = "181pt" viewBox = "0 0 274 181" xmlns = "http://www.w3.org/2000/svg" xmlns:xlink = "http://www.w3.org/1999/xlink">
	<defs>
		<style type = "text/css"><![CDATA[
rect.attrGroup { fill: ivory ; stroke: black; stroke-width: 1 }
rect.element { fill: ivory ; stroke: black; stroke-width: 1 }
rect.elTypeBkgnd { fill: lightgray ; stroke: none }
text.elName { font-family: helvetica ; font-size : 10 }
text.elType { font-family: helvetica ; font-size : 7 }
text.occurLarge { font-family: helvetica ; font-size : 9; fill : blue }
text.occurSmall { font-family: helvetica ; font-size : 7; fill : blue }
rect.typeIconDark { fill : darkslategray }
circle.occurs { stroke : black ; stroke-width: 1; fill : white }
circle.ellipsis { fill : black }
path.typeIconDark { stroke : lightgray ; stroke-width: 1 }
path.connector { stroke : red ; stroke-width: 1 ; fill: none; }
path.modelGroup { stroke : black ; stroke-width: 1 ; fill: lightgray; }
polyline.connector { stroke : red ; stroke-width: 1 ; fill: none; }
.nodeStyle { fill : blue }
]]></style>
	</defs>
	<rect x = "95" y = "5" width = "174" height = "37" class = "attrGroup" rx = "5" ry = "5"/>
	<rect x = "100" y = "10" width = "72" height = "27" class = "element" rx = "5" ry = "5"/>
	<circle class = "nodeStyle" cx = "106" cy = "16" r = "4"/>
	<text x = "111" y = "21" class = "elName">TimePoint</text>
	<rect x = "101" y = "11" width = "70" height = "25" class = "elTypeBkgnd" rx = "5" ry = "5" clip-path = "url(#e:XYZinfo/a:TimePoint)"/>
	<defs/>
	<clipPath id = "e:XYZinfo/a:TimePoint">
		<rect x = "100" y = "25" width = "72" height = "11"/>
	</clipPath>
	<text x = "101" y = "33" class = "elType">int</text>
	<image xlink:href = "../dgmDtInteger.gif" width = "10" height = "10" x = "162" y = "20"/>
	<rect x = "177" y = "10" width = "87" height = "27" class = "element" rx = "5" ry = "5"/>
	<circle class = "nodeStyle" cx = "183" cy = "16" r = "4"/>
	<text x = "188" y = "21" class = "elName">WaveNumber</text>
	<rect x = "178" y = "11" width = "85" height = "25" class = "elTypeBkgnd" rx = "5" ry = "5" clip-path = "url(#e:XYZinfo/a:WaveNumber)"/>
	<defs/>
	<clipPath id = "e:XYZinfo/a:WaveNumber">
		<rect x = "177" y = "25" width = "87" height = "11"/>
	</clipPath>
	<text x = "178" y = "33" class = "elType">int</text>
	<image xlink:href = "../dgmDtInteger.gif" width = "10" height = "10" x = "254" y = "20"/>
	<rect x = "5" y = "98" width = "60" height = "27" class = "element"/>
	<polygon class = "nodeStyle" points = "11,100 7,104 11,108 15,104"/>
	<text x = "16" y = "109" class = "elName">XYZinfo</text>
	<rect x = "6" y = "113" width = "58" height = "11" class = "elTypeBkgnd"/>
	<image xlink:href = "../dgmTypeComplex.gif" width = "10" height = "10" x = "55" y = "108"/>
	<polyline class = "connector" points = "95,60 75,60 75,111 65,111 75,111 75,162 95,162"/>
	<polyline class = "connector" points = "65,109 73,109 73,23 95,23"/>
	<circle class = "occurs" cx = "101" cy = "60" r = "6"/>
	<text x = "98" y = "63" class = "occurLarge">?</text>
	<rect x = "107" y = "47" width = "73" height = "27" class = "element"/>
	<polygon class = "nodeStyle" points = "113,49 109,53 113,57 117,53"/>
	<text x = "118" y = "58" class = "elName">DeltaTime</text>
	<rect x = "108" y = "62" width = "71" height = "11" class = "elTypeBkgnd"/>
	<text x = "108" y = "70" class = "elType">float</text>
	<image xlink:href = "../dgmDtFloat.gif" width = "10" height = "10" x = "170" y = "57"/>
	<circle class = "occurs" cx = "101" cy = "94" r = "6"/>
	<text x = "98" y = "97" class = "occurLarge">?</text>
	<rect x = "107" y = "81" width = "65" height = "27" class = "element"/>
	<polygon class = "nodeStyle" points = "113,83 109,87 113,91 117,87"/>
	<text x = "118" y = "92" class = "elName">Centroid</text>
	<rect x = "108" y = "96" width = "63" height = "11" class = "elTypeBkgnd"/>
	<text x = "108" y = "104" class = "elType">XYZfloat</text>
	<image xlink:href = "../dgmTypeEmpty.gif" width = "10" height = "10" x = "162" y = "91"/>
	<circle class = "occurs" cx = "101" cy = "128" r = "6"/>
	<text x = "98" y = "131" class = "occurLarge">?</text>
	<rect x = "107" y = "115" width = "47" height = "27" class = "element"/>
	<polygon class = "nodeStyle" points = "113,117 109,121 113,125 117,121"/>
	<text x = "118" y = "126" class = "elName">Stats</text>
	<rect x = "108" y = "130" width = "45" height = "11" class = "elTypeBkgnd"/>
	<image xlink:href = "../dgmTypeEmpty.gif" width = "10" height = "10" x = "144" y = "125"/>
	<circle class = "occurs" cx = "101" cy = "162" r = "6"/>
	<text x = "98" y = "165" class = "occurLarge">*</text>
	<rect x = "107" y = "149" width = "72" height = "27" class = "element"/>
	<polygon class = "nodeStyle" points = "113,151 109,155 113,159 117,155"/>
	<text x = "118" y = "160" class = "elName">#wildCard</text>
	<rect x = "108" y = "164" width = "70" height = "11" class = "elTypeBkgnd"/>
	<text x = "108" y = "172" class = "elType">?</text>
</svg>