<?xml version = "1.0"?>
<!DOCTYPE svg PUBLIC "-//W3C//DTD SVG 20010904//EN" "http://www.w3.org/TR/2001/REC-SVG-20010904/DTD/svg10.dtd">
<svg width = "310pt" height = "249pt" viewBox = "0 0 310 249" xmlns = "http://www.w3.org/2000/svg" xmlns:xlink = "http://www.w3.org/1999/xlink">
	<defs>
		<style type = "text/css"><![CDATA[
rect.attrGroup { fill: ivory ; stroke: black; stroke-width: 1 }
rect.element { fill: ivory ; stroke: black; stroke-width: 1 }
rect.elTypeBkgnd { fill: lightgray ; stroke: none }
text.elName { font-family: helvetica ; font-size : 10 }
text.elType { font-family: helvetica ; font-size : 7 }
text.occurLarge { font-family: helvetica ; font-size : 9; fill : blue }
text.occurSmall { font-family: helvetica ; font-size : 7; fill : blue }
rect.typeIconDark { fill : darkslategray }
circle.occurs { stroke : black ; stroke-width: 1; fill : white }
circle.ellipsis { fill : black }
path.typeIconDark { stroke : lightgray ; stroke-width: 1 }
path.connector { stroke : red ; stroke-width: 1 ; fill: none; }
path.modelGroup { stroke : black ; stroke-width: 1 ; fill: lightgray; }
polyline.connector { stroke : red ; stroke-width: 1 ; fill: none; }
.nodeStyle { fill : blue }
]]></style>
	</defs>
	<rect x = "131" y = "5" width = "72" height = "37" class = "attrGroup" rx = "5" ry = "5"/>
	<circle class = "occurs" cx = "142" cy = "23" r = "6"/>
	<text x = "139" y = "26" class = "occurLarge">?</text>
	<rect x = "148" y = "10" width = "50" height = "27" class = "element" rx = "5" ry = "5"/>
	<circle class = "nodeStyle" cx = "154" cy = "16" r = "4"/>
	<text x = "159" y = "21" class = "elName">Zoom</text>
	<rect x = "149" y = "11" width = "48" height = "25" class = "elTypeBkgnd" rx = "5" ry = "5" clip-path = "url(#e:DisplayOptions/a:Zoom)"/>
	<defs/>
	<clipPath id = "e:DisplayOptions/a:Zoom">
		<rect x = "148" y = "25" width = "50" height = "11"/>
	</clipPath>
	<text x = "149" y = "33" class = "elType">float</text>
	<image xlink:href = "../dgmDtFloat.gif" width = "10" height = "10" x = "188" y = "20"/>
	<rect x = "5" y = "132" width = "96" height = "27" class = "element"/>
	<polygon class = "nodeStyle" points = "11,134 7,138 11,142 15,138"/>
	<text x = "16" y = "143" class = "elName">DisplayOptions</text>
	<rect x = "6" y = "147" width = "94" height = "11" class = "elTypeBkgnd"/>
	<image xlink:href = "../dgmTypeComplex.gif" width = "10" height = "10" x = "91" y = "142"/>
	<polyline class = "connector" points = "131,111 111,111 111,145 101,145 111,145 111,230 131,230"/>
	<polyline class = "connector" points = "101,143 109,143 109,23 131,23"/>
	<circle class = "occurs" cx = "137" cy = "111" r = "6"/>
	<text x = "134" y = "114" class = "occurLarge">1</text>
	<polyline class = "connector" points = "173,94 153,111 143,111 153,111 173,162"/>
	<circle class = "occurs" cx = "179" cy = "94" r = "6"/>
	<text x = "176" y = "97" class = "occurLarge">1</text>
	<polyline class = "connector" points = "215,60 195,60 195,94 185,94 195,94 195,128 215,128"/>
	<circle class = "occurs" cx = "221" cy = "60" r = "6"/>
	<text x = "218" y = "63" class = "occurLarge">?</text>
	<rect x = "227" y = "47" width = "67" height = "27" class = "element"/>
	<polygon class = "nodeStyle" points = "233,49 229,53 233,57 237,53"/>
	<text x = "238" y = "58" class = "elName">RedWave</text>
	<rect x = "228" y = "62" width = "65" height = "11" class = "elTypeBkgnd"/>
	<text x = "228" y = "70" class = "elType">WaveScaleType</text>
	<image xlink:href = "../dgmTypeEmpty.gif" width = "10" height = "10" x = "284" y = "57"/>
	<circle class = "occurs" cx = "221" cy = "94" r = "6"/>
	<text x = "218" y = "97" class = "occurLarge">?</text>
	<rect x = "227" y = "81" width = "78" height = "27" class = "element"/>
	<polygon class = "nodeStyle" points = "233,83 229,87 233,91 237,87"/>
	<text x = "238" y = "92" class = "elName">GreenWave</text>
	<rect x = "228" y = "96" width = "76" height = "11" class = "elTypeBkgnd"/>
	<text x = "228" y = "104" class = "elType">WaveScaleType</text>
	<image xlink:href = "../dgmTypeEmpty.gif" width = "10" height = "10" x = "295" y = "91"/>
	<circle class = "occurs" cx = "221" cy = "128" r = "6"/>
	<text x = "218" y = "131" class = "occurLarge">?</text>
	<rect x = "227" y = "115" width = "70" height = "27" class = "element"/>
	<polygon class = "nodeStyle" points = "233,117 229,121 233,125 237,121"/>
	<text x = "238" y = "126" class = "elName">BlueWave</text>
	<rect x = "228" y = "130" width = "68" height = "11" class = "elTypeBkgnd"/>
	<text x = "228" y = "138" class = "elType">WaveScaleType</text>
	<image xlink:href = "../dgmTypeEmpty.gif" width = "10" height = "10" x = "287" y = "125"/>
	<polyline class = "connector" points = "173,162 185,162"/>
	<rect x = "185" y = "149" width = "71" height = "27" class = "element"/>
	<polygon class = "nodeStyle" points = "191,151 187,155 191,159 195,155"/>
	<text x = "196" y = "160" class = "elName">GreyWave</text>
	<rect x = "186" y = "164" width = "69" height = "11" class = "elTypeBkgnd"/>
	<text x = "186" y = "172" class = "elType">WaveScaleType</text>
	<image xlink:href = "../dgmTypeEmpty.gif" width = "10" height = "10" x = "246" y = "159"/>
	<circle class = "occurs" cx = "137" cy = "196" r = "6"/>
	<text x = "134" y = "199" class = "occurLarge">?</text>
	<rect x = "143" y = "183" width = "72" height = "27" class = "element"/>
	<polygon class = "nodeStyle" points = "149,185 145,189 149,193 153,189"/>
	<text x = "154" y = "194" class = "elName">Projection</text>
	<rect x = "144" y = "198" width = "70" height = "11" class = "elTypeBkgnd"/>
	<image xlink:href = "../dgmTypeEmpty.gif" width = "10" height = "10" x = "205" y = "193"/>
	<circle class = "occurs" cx = "137" cy = "230" r = "6"/>
	<text x = "134" y = "233" class = "occurLarge">?</text>
	<rect x = "143" y = "217" width = "52" height = "27" class = "element"/>
	<polygon class = "nodeStyle" points = "149,219 145,223 149,227 153,223"/>
	<text x = "154" y = "228" class = "elName">Movie</text>
	<rect x = "144" y = "232" width = "50" height = "11" class = "elTypeBkgnd"/>
	<image xlink:href = "../dgmTypeEmpty.gif" width = "10" height = "10" x = "185" y = "227"/>
</svg>