<?xml version = "1.0"?>
<!DOCTYPE svg PUBLIC "-//W3C//DTD SVG 20010904//EN" "http://www.w3.org/TR/2001/REC-SVG-20010904/DTD/svg10.dtd">
<svg width = "390pt" height = "47pt" viewBox = "0 0 390 47" xmlns = "http://www.w3.org/2000/svg" xmlns:xlink = "http://www.w3.org/1999/xlink">
	<defs>
		<style type = "text/css"><![CDATA[
rect.attrGroup { fill: ivory ; stroke: black; stroke-width: 1 }
rect.element { fill: ivory ; stroke: black; stroke-width: 1 }
rect.elTypeBkgnd { fill: lightgray ; stroke: none }
text.elName { font-family: helvetica ; font-size : 10 }
text.elType { font-family: helvetica ; font-size : 7 }
text.occurLarge { font-family: helvetica ; font-size : 9; fill : blue }
text.occurSmall { font-family: helvetica ; font-size : 7; fill : blue }
rect.typeIconDark { fill : darkslategray }
circle.occurs { stroke : black ; stroke-width: 1; fill : white }
circle.ellipsis { fill : black }
path.typeIconDark { stroke : lightgray ; stroke-width: 1 }
path.connector { stroke : red ; stroke-width: 1 ; fill: none; }
path.modelGroup { stroke : black ; stroke-width: 1 ; fill: lightgray; }
polyline.connector { stroke : red ; stroke-width: 1 ; fill: none; }
.nodeStyle { fill : blue }
]]></style>
	</defs>
	<rect x = "5" y = "10" width = "65" height = "27" class = "element"/>
	<polygon class = "nodeStyle" points = "11,12 7,16 11,20 15,16"/>
	<rect x = "6" y = "25" width = "63" height = "11" class = "elTypeBkgnd"/>
	<text x = "6" y = "33" class = "elType">WaveScaleType</text>
	<image xlink:href = "../dgmTypeEmpty.gif" width = "10" height = "10" x = "60" y = "20"/>
	<polyline class = "connector" points = "70,23 100,23"/>
	<rect x = "100" y = "5" width = "285" height = "37" class = "attrGroup" rx = "5" ry = "5"/>
	<rect x = "105" y = "10" width = "42" height = "27" class = "element" rx = "5" ry = "5"/>
	<circle class = "nodeStyle" cx = "111" cy = "16" r = "4"/>
	<text x = "116" y = "21" class = "elName">Clip</text>
	<rect x = "106" y = "11" width = "40" height = "25" class = "elTypeBkgnd" rx = "5" ry = "5" clip-path = "url(#t:WaveScaleType/a:Clip)"/>
	<defs/>
	<clipPath id = "t:WaveScaleType/a:Clip">
		<rect x = "105" y = "25" width = "42" height = "11"/>
	</clipPath>
	<text x = "106" y = "33" class = "elType">int</text>
	<image xlink:href = "../dgmDtInteger.gif" width = "10" height = "10" x = "137" y = "20"/>
	<circle class = "occurs" cx = "250" cy = "23" r = "6"/>
	<text x = "247" y = "26" class = "occurLarge">?</text>
	<rect x = "256" y = "10" width = "48" height = "27" class = "element" rx = "5" ry = "5"/>
	<circle class = "nodeStyle" cx = "262" cy = "16" r = "4"/>
	<text x = "267" y = "21" class = "elName">Scale</text>
	<rect x = "257" y = "11" width = "46" height = "25" class = "elTypeBkgnd" rx = "5" ry = "5" clip-path = "url(#t:WaveScaleType/a:Scale)"/>
	<defs/>
	<clipPath id = "t:WaveScaleType/a:Scale">
		<rect x = "256" y = "25" width = "48" height = "11"/>
	</clipPath>
	<text x = "257" y = "33" class = "elType">float</text>
	<image xlink:href = "../dgmDtFloat.gif" width = "10" height = "10" x = "294" y = "20"/>
	<rect x = "309" y = "10" width = "71" height = "27" class = "element" rx = "5" ry = "5"/>
	<circle class = "nodeStyle" cx = "315" cy = "16" r = "4"/>
	<text x = "320" y = "21" class = "elName">Threshold</text>
	<rect x = "310" y = "11" width = "69" height = "25" class = "elTypeBkgnd" rx = "5" ry = "5" clip-path = "url(#t:WaveScaleType/a:Threshold)"/>
	<defs/>
	<clipPath id = "t:WaveScaleType/a:Threshold">
		<rect x = "309" y = "25" width = "71" height = "11"/>
	</clipPath>
	<text x = "310" y = "33" class = "elType">int</text>
	<image xlink:href = "../dgmDtInteger.gif" width = "10" height = "10" x = "370" y = "20"/>
	<rect x = "152" y = "10" width = "87" height = "27" class = "element" rx = "5" ry = "5"/>
	<circle class = "nodeStyle" cx = "158" cy = "16" r = "4"/>
	<text x = "163" y = "21" class = "elName">WaveNumber</text>
	<rect x = "153" y = "11" width = "85" height = "25" class = "elTypeBkgnd" rx = "5" ry = "5" clip-path = "url(#t:WaveScaleType/a:WaveNumber)"/>
	<defs/>
	<clipPath id = "t:WaveScaleType/a:WaveNumber">
		<rect x = "152" y = "25" width = "87" height = "11"/>
	</clipPath>
	<text x = "153" y = "33" class = "elType">int</text>
	<image xlink:href = "../dgmDtInteger.gif" width = "10" height = "10" x = "229" y = "20"/>
</svg>