<?xml version = "1.0"?>
<!DOCTYPE svg PUBLIC "-//W3C//DTD SVG 20010904//EN" "http://www.w3.org/TR/2001/REC-SVG-20010904/DTD/svg10.dtd">
<svg width = "177pt" height = "105pt" viewBox = "0 0 177 105" xmlns = "http://www.w3.org/2000/svg" xmlns:xlink = "http://www.w3.org/1999/xlink">
	<defs>
		<style type = "text/css"><![CDATA[
rect.attrGroup { fill: ivory ; stroke: black; stroke-width: 1 }
rect.element { fill: ivory ; stroke: black; stroke-width: 1 }
rect.elTypeBkgnd { fill: lightgray ; stroke: none }
text.elName { font-family: helvetica ; font-size : 10 }
text.elType { font-family: helvetica ; font-size : 7 }
text.occurLarge { font-family: helvetica ; font-size : 9; fill : blue }
text.occurSmall { font-family: helvetica ; font-size : 7; fill : blue }
rect.typeIconDark { fill : darkslategray }
circle.occurs { stroke : black ; stroke-width: 1; fill : white }
circle.ellipsis { fill : black }
path.typeIconDark { stroke : lightgray ; stroke-width: 1 }
path.connector { stroke : red ; stroke-width: 1 ; fill: none; }
path.modelGroup { stroke : black ; stroke-width: 1 ; fill: lightgray; }
polyline.connector { stroke : red ; stroke-width: 1 ; fill: none; }
.nodeStyle { fill : blue }
]]></style>
	</defs>
	<rect x = "5" y = "39" width = "67" height = "27" class = "element"/>
	<polygon class = "nodeStyle" points = "11,41 7,45 11,49 15,45"/>
	<text x = "16" y = "50" class = "elName">PlateInfo</text>
	<rect x = "6" y = "54" width = "65" height = "11" class = "elTypeBkgnd"/>
	<image xlink:href = "../dgmTypeComplex.gif" width = "10" height = "10" x = "62" y = "49"/>
	<polyline class = "connector" points = "102,18 82,18 82,52 72,52 82,52 82,86 102,86"/>
	<circle class = "occurs" cx = "108" cy = "18" r = "6"/>
	<text x = "105" y = "21" class = "occurLarge">?</text>
	<rect x = "114" y = "5" width = "58" height = "27" class = "element"/>
	<polygon class = "nodeStyle" points = "120,7 116,11 120,15 124,11"/>
	<text x = "125" y = "16" class = "elName">Sample</text>
	<rect x = "115" y = "20" width = "56" height = "11" class = "elTypeBkgnd"/>
	<text x = "115" y = "28" class = "elType">int</text>
	<image xlink:href = "../dgmDtInteger.gif" width = "10" height = "10" x = "162" y = "15"/>
	<rect x = "114" y = "39" width = "44" height = "27" class = "element"/>
	<polygon class = "nodeStyle" points = "120,41 116,45 120,49 124,45"/>
	<text x = "125" y = "50" class = "elName">Well</text>
	<rect x = "115" y = "54" width = "42" height = "11" class = "elTypeBkgnd"/>
	<text x = "115" y = "62" class = "elType">string</text>
	<image xlink:href = "../dgmDtString.gif" width = "10" height = "10" x = "148" y = "49"/>
	<polyline class = "connector" points = "102,86 114,86"/>
	<rect x = "114" y = "73" width = "48" height = "27" class = "element"/>
	<polygon class = "nodeStyle" points = "120,75 116,79 120,83 124,79"/>
	<text x = "125" y = "84" class = "elName">Plate</text>
	<rect x = "115" y = "88" width = "46" height = "11" class = "elTypeBkgnd"/>
	<image xlink:href = "../dgmTypeEmpty.gif" width = "10" height = "10" x = "152" y = "83"/>
</svg>