<?xml version = "1.0"?>
<!DOCTYPE svg PUBLIC "-//W3C//DTD SVG 20010904//EN" "http://www.w3.org/TR/2001/REC-SVG-20010904/DTD/svg10.dtd">
<svg width = "200pt" height = "47pt" viewBox = "0 0 200 47" xmlns = "http://www.w3.org/2000/svg" xmlns:xlink = "http://www.w3.org/1999/xlink">
	<defs>
		<style type = "text/css"><![CDATA[
rect.attrGroup { fill: ivory ; stroke: black; stroke-width: 1 }
rect.element { fill: ivory ; stroke: black; stroke-width: 1 }
rect.elTypeBkgnd { fill: lightgray ; stroke: none }
text.elName { font-family: helvetica ; font-size : 10 }
text.elType { font-family: helvetica ; font-size : 7 }
text.occurLarge { font-family: helvetica ; font-size : 9; fill : blue }
text.occurSmall { font-family: helvetica ; font-size : 7; fill : blue }
rect.typeIconDark { fill : darkslategray }
circle.occurs { stroke : black ; stroke-width: 1; fill : white }
circle.ellipsis { fill : black }
path.typeIconDark { stroke : lightgray ; stroke-width: 1 }
path.connector { stroke : red ; stroke-width: 1 ; fill: none; }
path.modelGroup { stroke : black ; stroke-width: 1 ; fill: lightgray; }
polyline.connector { stroke : red ; stroke-width: 1 ; fill: none; }
.nodeStyle { fill : blue }
]]></style>
	</defs>
	<rect x = "5" y = "10" width = "41" height = "27" class = "element"/>
	<polygon class = "nodeStyle" points = "11,12 7,16 11,20 15,16"/>
	<rect x = "6" y = "25" width = "39" height = "11" class = "elTypeBkgnd"/>
	<text x = "6" y = "33" class = "elType">XYZfloat</text>
	<image xlink:href = "../dgmTypeEmpty.gif" width = "10" height = "10" x = "36" y = "20"/>
	<polyline class = "connector" points = "46,23 76,23"/>
	<rect x = "76" y = "5" width = "119" height = "37" class = "attrGroup" rx = "5" ry = "5"/>
	<rect x = "81" y = "10" width = "29" height = "27" class = "element" rx = "5" ry = "5"/>
	<circle class = "nodeStyle" cx = "87" cy = "16" r = "4"/>
	<text x = "92" y = "21" class = "elName">X</text>
	<rect x = "82" y = "11" width = "27" height = "25" class = "elTypeBkgnd" rx = "5" ry = "5" clip-path = "url(#t:XYZfloat/a:X)"/>
	<defs/>
	<clipPath id = "t:XYZfloat/a:X">
		<rect x = "81" y = "25" width = "29" height = "11"/>
	</clipPath>
	<text x = "82" y = "33" class = "elType">float</text>
	<image xlink:href = "../dgmDtFloat.gif" width = "10" height = "10" x = "100" y = "20"/>
	<rect x = "161" y = "10" width = "29" height = "27" class = "element" rx = "5" ry = "5"/>
	<circle class = "nodeStyle" cx = "167" cy = "16" r = "4"/>
	<text x = "172" y = "21" class = "elName">Y</text>
	<rect x = "162" y = "11" width = "27" height = "25" class = "elTypeBkgnd" rx = "5" ry = "5" clip-path = "url(#t:XYZfloat/a:Y)"/>
	<defs/>
	<clipPath id = "t:XYZfloat/a:Y">
		<rect x = "161" y = "25" width = "29" height = "11"/>
	</clipPath>
	<text x = "162" y = "33" class = "elType">float</text>
	<image xlink:href = "../dgmDtFloat.gif" width = "10" height = "10" x = "180" y = "20"/>
	<circle class = "occurs" cx = "121" cy = "23" r = "6"/>
	<text x = "118" y = "26" class = "occurLarge">?</text>
	<rect x = "127" y = "10" width = "29" height = "27" class = "element" rx = "5" ry = "5"/>
	<circle class = "nodeStyle" cx = "133" cy = "16" r = "4"/>
	<text x = "138" y = "21" class = "elName">Z</text>
	<rect x = "128" y = "11" width = "27" height = "25" class = "elTypeBkgnd" rx = "5" ry = "5" clip-path = "url(#t:XYZfloat/a:Z)"/>
	<defs/>
	<clipPath id = "t:XYZfloat/a:Z">
		<rect x = "127" y = "25" width = "29" height = "11"/>
	</clipPath>
	<text x = "128" y = "33" class = "elType">float</text>
	<image xlink:href = "../dgmDtFloat.gif" width = "10" height = "10" x = "146" y = "20"/>
</svg>